<svg width="2400" height="1057" viewBox="0 0 2400 1057" fill="none" xmlns="http://www.w3.org/2000/svg">
<g clip-path="url(#clip0_459_29712)">
<rect width="2400" height="1057" fill="white"/>
<g clip-path="url(#clip1_459_29712)">
<path d="M1920 697.326L1900.35 723.381C1880.69 749.435 1841.39 801.544 1802.08 827.598C1762.78 853.653 1723.47 853.653 1684.17 817.177C1644.86 780.7 1605.56 707.748 1566.25 671.272C1526.94 634.796 1487.64 634.796 1448.33 671.272C1409.03 707.748 1369.72 780.7 1330.42 806.755C1291.11 832.809 1251.81 811.966 1212.5 796.333C1173.19 780.7 1133.89 770.279 1094.58 733.803C1055.28 697.326 1015.97 634.796 976.667 629.585C937.361 624.374 898.056 676.483 858.75 723.381C819.444 770.279 780.139 811.966 740.833 822.387C701.528 832.809 662.222 811.966 622.917 801.544C583.611 791.122 544.306 791.122 505 791.122C465.694 791.122 426.389 791.122 387.083 801.544C347.778 811.966 308.472 832.809 269.167 822.387C229.861 811.966 190.556 770.279 151.25 723.381C111.944 676.483 72.6389 624.374 33.3334 624.374C-5.97227 624.374 -45.2778 676.483 -84.5834 692.115C-123.889 707.748 -163.195 686.905 -202.5 671.272C-241.806 655.639 -281.111 645.218 -320.417 634.796C-359.722 624.374 -399.028 613.952 -438.333 640.007C-477.639 666.061 -516.945 728.591 -556.25 765.068C-595.556 801.544 -634.861 811.965 -674.167 796.333C-713.472 780.7 -752.778 739.013 -792.083 718.17C-831.389 697.326 -870.695 697.326 -890.347 697.326L-910 697.326L-910 541L-890.347 541C-870.695 541 -831.389 541 -792.083 541C-752.778 541 -713.472 541 -674.167 541C-634.861 541 -595.556 541 -556.25 541C-516.945 541 -477.639 541 -438.333 541C-399.028 541 -359.722 541 -320.417 541C-281.111 541 -241.806 541 -202.5 541C-163.195 541 -123.889 541 -84.5833 541C-45.2778 541 -5.97226 541 33.3334 541C72.6389 541 111.944 541 151.25 541C190.556 541 229.861 541 269.167 541C308.472 541 347.778 541 387.083 541C426.389 541 465.694 541 505 541C544.306 541 583.611 541 622.917 541C662.222 541 701.528 541 740.833 541C780.139 541 819.444 541 858.75 541C898.056 541 937.361 541 976.667 541C1015.97 541 1055.28 541 1094.58 541C1133.89 541 1173.19 541 1212.5 541C1251.81 541 1291.11 541 1330.42 541C1369.72 541 1409.03 541 1448.33 541C1487.64 541 1526.94 541 1566.25 541C1605.56 541 1644.86 541 1684.17 541C1723.47 541 1762.78 541 1802.08 541C1841.39 541 1880.69 541 1900.35 541L1920 541L1920 697.326Z" fill="url(#paint0_linear_459_29712)"/>
<g opacity="0.9" filter="url(#filter0_d_459_29712)">
<path d="M2403 582.776L2386.31 603.664C2369.63 624.552 2336.25 666.328 2302.88 673.291C2269.5 680.253 2236.13 652.403 2202.75 687.216C2169.38 722.029 2136 819.506 2102.63 812.544C2069.25 805.581 2035.88 694.179 2002.5 694.179C1969.13 694.179 1935.75 805.581 1902.38 854.32C1869 903.058 1835.63 889.133 1802.25 861.282C1768.88 833.432 1735.5 791.656 1702.13 749.88C1668.75 708.104 1635.38 666.328 1602 666.328C1568.63 666.328 1535.25 708.104 1501.88 756.842C1468.5 805.581 1435.13 861.282 1401.75 861.282C1368.38 861.282 1335 805.581 1301.63 791.656C1268.25 777.73 1234.88 805.581 1201.5 798.618C1168.13 791.656 1134.75 749.88 1101.38 763.805C1068 777.73 1034.63 847.357 1001.25 826.469C967.875 805.581 934.5 694.178 901.125 645.44C867.75 596.701 834.375 610.627 801 659.365C767.625 708.104 734.25 791.656 700.875 805.581C667.5 819.506 634.125 763.805 600.75 722.029C567.375 680.253 534 652.403 500.625 631.515C467.25 610.627 433.875 596.701 400.5 589.739C367.125 582.776 333.75 582.776 300.375 638.477C267 694.178 233.625 805.581 200.25 868.245C166.875 930.909 133.5 944.834 100.125 923.946C66.75 903.058 33.375 847.357 16.6875 819.506L1.23095e-05 791.656L3.41388e-05 541L16.6875 541C33.375 541 66.75 541 100.125 541C133.5 541 166.875 541 200.25 541C233.625 541 267 541 300.375 541C333.75 541 367.125 541 400.5 541C433.875 541 467.25 541 500.625 541C534 541 567.375 541 600.75 541C634.125 541 667.5 541 700.875 541C734.25 541 767.625 541 801 541C834.375 541 867.75 541 901.125 541C934.5 541 967.875 541 1001.25 541C1034.63 541 1068 541 1101.38 541C1134.75 541 1168.13 541 1201.5 541C1234.88 541 1268.25 541 1301.63 541C1335 541 1368.38 541 1401.75 541C1435.13 541 1468.5 541 1501.88 541C1535.25 541 1568.63 541 1602 541C1635.38 541 1668.75 541 1702.13 541C1735.5 541 1768.88 541 1802.25 541C1835.63 541 1869 541 1902.38 541C1935.75 541 1969.13 541 2002.5 541C2035.88 541 2069.25 541 2102.63 541C2136 541 2169.38 541 2202.75 541C2236.13 541 2269.5 541 2302.88 541C2336.25 541 2369.63 541 2386.31 541L2403 541L2403 582.776Z" fill="url(#paint1_linear_459_29712)"/>
</g>
<rect width="2400" height="541" fill="#E8F1FC"/>
<g opacity="0.4">
<mask id="mask0_459_29712" style="mask-type:alpha" maskUnits="userSpaceOnUse" x="990" y="404" width="637" height="606">
<path d="M1528.77 753.714C1529.37 739.981 1536.46 727.641 1547.99 720.177C1630.88 666.556 1652.01 553.404 1591.83 473.031C1541.6 406.036 1448.81 385.095 1374.74 424.394C1357.67 433.286 1342.97 444.518 1330.75 457.589C1320.27 468.678 1305.14 474.588 1290.12 472.675C1228.63 465.507 1164.14 479.662 1108.45 517.409C987.36 599.19 953.874 765.132 1034.03 887.708C1115.17 1011.8 1281.48 1047.2 1405.97 966.669C1481.57 917.762 1524.41 837.508 1528.77 753.714Z" fill="url(#paint2_linear_459_29712)"/>
</mask>
<g mask="url(#mask0_459_29712)">
<g filter="url(#filter1_ii_459_29712)">
<path d="M1528.77 753.714C1529.37 739.981 1536.46 727.641 1547.99 720.177C1630.88 666.556 1652.01 553.404 1591.83 473.031C1541.6 406.036 1448.81 385.095 1374.74 424.394C1357.67 433.286 1342.97 444.518 1330.75 457.589C1320.27 468.678 1305.14 474.588 1290.12 472.675C1228.63 465.507 1164.14 479.662 1108.45 517.409C987.36 599.19 953.874 765.132 1034.03 887.708C1115.17 1011.8 1281.48 1047.2 1405.97 966.669C1481.57 917.762 1524.41 837.508 1528.77 753.714Z" fill="url(#paint3_radial_459_29712)"/>
<path d="M1528.77 753.714C1529.37 739.981 1536.46 727.641 1547.99 720.177C1630.88 666.556 1652.01 553.404 1591.83 473.031C1541.6 406.036 1448.81 385.095 1374.74 424.394C1357.67 433.286 1342.97 444.518 1330.75 457.589C1320.27 468.678 1305.14 474.588 1290.12 472.675C1228.63 465.507 1164.14 479.662 1108.45 517.409C987.36 599.19 953.874 765.132 1034.03 887.708C1115.17 1011.8 1281.48 1047.2 1405.97 966.669C1481.57 917.762 1524.41 837.508 1528.77 753.714Z" fill="#1F2E7E" fill-opacity="0.2"/>
</g>
</g>
<mask id="mask1_459_29712" style="mask-type:alpha" maskUnits="userSpaceOnUse" x="1044" y="362" width="523" height="665">
<path d="M1420.48 531.128C1408.5 525.323 1400.25 514.272 1398.05 501.142C1382.23 406.811 1289.71 344.526 1195.1 367.145C1116.21 386.061 1061.91 460.535 1068.39 541.513C1069.74 560.116 1074.07 577.506 1081 593.397C1086.83 606.984 1086.27 622.709 1078.8 635.331C1048.79 687.259 1036.58 750.054 1048.74 814.092C1074.92 953.224 1209.63 1046.8 1349.45 1022.64C1491.01 998.183 1586.42 863.879 1562.66 722.21C1548.23 636.172 1493.33 567.225 1420.48 531.128Z" fill="url(#paint4_linear_459_29712)"/>
</mask>
<g mask="url(#mask1_459_29712)">
<g filter="url(#filter2_ii_459_29712)">
<path d="M1420.48 531.128C1408.5 525.323 1400.25 514.272 1398.05 501.142C1382.23 406.811 1289.71 344.526 1195.1 367.145C1116.21 386.061 1061.91 460.535 1068.39 541.513C1069.74 560.116 1074.07 577.506 1081 593.397C1086.83 606.984 1086.27 622.709 1078.8 635.331C1048.79 687.259 1036.58 750.054 1048.74 814.092C1074.92 953.224 1209.63 1046.8 1349.45 1022.64C1491.01 998.183 1586.42 863.879 1562.66 722.21C1548.23 636.172 1493.33 567.225 1420.48 531.128Z" fill="url(#paint5_radial_459_29712)"/>
<path d="M1420.48 531.128C1408.5 525.323 1400.25 514.272 1398.05 501.142C1382.23 406.811 1289.71 344.526 1195.1 367.145C1116.21 386.061 1061.91 460.535 1068.39 541.513C1069.74 560.116 1074.07 577.506 1081 593.397C1086.83 606.984 1086.27 622.709 1078.8 635.331C1048.79 687.259 1036.58 750.054 1048.74 814.092C1074.92 953.224 1209.63 1046.8 1349.45 1022.64C1491.01 998.183 1586.42 863.879 1562.66 722.21C1548.23 636.172 1493.33 567.225 1420.48 531.128Z" fill="#1F2E7E" fill-opacity="0.2"/>
</g>
</g>
</g>
<g opacity="0.5">
<mask id="mask2_459_29712" style="mask-type:alpha" maskUnits="userSpaceOnUse" x="742" y="414" width="467" height="420">
<path d="M745.365 642.013C761.765 743.568 855.678 815.71 957.999 805.772C958.565 805.565 959.518 805.536 959.905 805.715C997.546 801.533 1034.76 808.428 1069.19 824.37C1088.53 833.327 1111.13 836.273 1134.03 830.435C1178.53 819.562 1209.9 778.183 1208.53 732.446C1207.64 702.908 1193.71 677.194 1172.98 660.078C1151.27 642.037 1136.97 617.097 1133.47 589.163C1133.44 588.21 1133.02 587.078 1133.17 585.739C1119.07 478.202 1021.23 402.362 913.696 416.462C804.433 430.233 727.755 531.911 745.365 642.013Z" fill="url(#paint6_linear_459_29712)"/>
</mask>
<g mask="url(#mask2_459_29712)">
<g filter="url(#filter3_dii_459_29712)">
<path d="M745.365 642.013C761.765 743.568 855.678 815.71 957.999 805.772C958.565 805.565 959.518 805.536 959.905 805.715C997.546 801.533 1034.76 808.428 1069.19 824.37C1088.53 833.327 1111.13 836.273 1134.03 830.435C1178.53 819.562 1209.9 778.183 1208.53 732.446C1207.64 702.908 1193.71 677.194 1172.98 660.078C1151.27 642.037 1136.97 617.097 1133.47 589.163C1133.44 588.21 1133.02 587.078 1133.17 585.739C1119.07 478.202 1021.23 402.362 913.696 416.462C804.433 430.233 727.755 531.911 745.365 642.013Z" fill="url(#paint7_radial_459_29712)"/>
<path d="M745.365 642.013C761.765 743.568 855.678 815.71 957.999 805.772C958.565 805.565 959.518 805.536 959.905 805.715C997.546 801.533 1034.76 808.428 1069.19 824.37C1088.53 833.327 1111.13 836.273 1134.03 830.435C1178.53 819.562 1209.9 778.183 1208.53 732.446C1207.64 702.908 1193.71 677.194 1172.98 660.078C1151.27 642.037 1136.97 617.097 1133.47 589.163C1133.44 588.21 1133.02 587.078 1133.17 585.739C1119.07 478.202 1021.23 402.362 913.696 416.462C804.433 430.233 727.755 531.911 745.365 642.013Z" fill="#1F2E7E" fill-opacity="0.2"/>
</g>
</g>
</g>
<g opacity="0.4" filter="url(#filter4_diif_459_29712)">
<path d="M1086.28 988.905C1071.93 981.91 1051.82 986.137 1043.9 969.321C1042.17 966.341 1041.06 962.928 1040.65 959.521C1040.15 956.025 1040.35 952.36 1041.33 948.787C1042.32 945.214 1044 941.996 1046.2 939.13C1048.4 936.264 1051.04 934.012 1054.02 932.286C1074.92 926.929 1103.69 933.237 1118.41 950.1C1120.23 953.168 1121.34 956.405 1121.75 959.988C1122.25 963.483 1122.05 967.149 1121.07 970.721C1120.08 974.294 1118.4 977.513 1116.2 980.379C1114.08 983.158 1111.28 985.409 1108.3 987.134C1105.23 988.772 1101.64 989.883 1097.89 990.119C1094.13 990.355 1090.12 989.979 1086.28 988.905Z" fill="url(#paint8_radial_459_29712)"/>
<path d="M1086.28 988.905C1071.93 981.91 1051.82 986.137 1043.9 969.321C1042.17 966.341 1041.06 962.928 1040.65 959.521C1040.15 956.025 1040.35 952.36 1041.33 948.787C1042.32 945.214 1044 941.996 1046.2 939.13C1048.4 936.264 1051.04 934.012 1054.02 932.286C1074.92 926.929 1103.69 933.237 1118.41 950.1C1120.23 953.168 1121.34 956.405 1121.75 959.988C1122.25 963.483 1122.05 967.149 1121.07 970.721C1120.08 974.294 1118.4 977.513 1116.2 980.379C1114.08 983.158 1111.28 985.409 1108.3 987.134C1105.23 988.772 1101.64 989.883 1097.89 990.119C1094.13 990.355 1090.12 989.979 1086.28 988.905Z" fill="#1F2E7E" fill-opacity="0.2"/>
</g>
<g filter="url(#filter5_dii_459_29712)">
<path d="M1404.62 900.202C1466.4 900.202 1516.47 850.124 1516.47 788.351C1516.47 726.578 1466.4 676.5 1404.62 676.5C1342.85 676.5 1292.77 726.578 1292.77 788.351C1292.77 850.124 1342.85 900.202 1404.62 900.202Z" fill="url(#paint9_radial_459_29712)"/>
<path d="M1404.62 900.202C1466.4 900.202 1516.47 850.124 1516.47 788.351C1516.47 726.578 1466.4 676.5 1404.62 676.5C1342.85 676.5 1292.77 726.578 1292.77 788.351C1292.77 850.124 1342.85 900.202 1404.62 900.202Z" fill="#1F2E7E" fill-opacity="0.2"/>
</g>
<g opacity="0.2" filter="url(#filter6_di_459_29712)">
<path d="M747.869 375.739C764.366 375.739 777.739 362.366 777.739 345.869C777.739 329.373 764.366 316 747.869 316C731.373 316 718 329.373 718 345.869C718 362.366 731.373 375.739 747.869 375.739Z" fill="url(#paint10_radial_459_29712)"/>
<path d="M747.869 375.739C764.366 375.739 777.739 362.366 777.739 345.869C777.739 329.373 764.366 316 747.869 316C731.373 316 718 329.373 718 345.869C718 362.366 731.373 375.739 747.869 375.739Z" fill="#1F2E7E" fill-opacity="0.2"/>
</g>
<g opacity="0.2" filter="url(#filter7_di_459_29712)">
<path d="M1398.87 975.739C1415.37 975.739 1428.74 962.366 1428.74 945.869C1428.74 929.373 1415.37 916 1398.87 916C1382.37 916 1369 929.373 1369 945.869C1369 962.366 1382.37 975.739 1398.87 975.739Z" fill="url(#paint11_radial_459_29712)"/>
<path d="M1398.87 975.739C1415.37 975.739 1428.74 962.366 1428.74 945.869C1428.74 929.373 1415.37 916 1398.87 916C1382.37 916 1369 929.373 1369 945.869C1369 962.366 1382.37 975.739 1398.87 975.739Z" fill="#1F2E7E" fill-opacity="0.2"/>
</g>
<g opacity="0.33" filter="url(#filter8_diif_459_29712)">
<path d="M1650.62 429.908C1680.79 454.479 1725.17 449.942 1749.74 419.774C1774.31 389.605 1769.77 345.23 1739.6 320.659C1709.44 296.088 1665.06 300.625 1640.49 330.793C1615.92 360.961 1620.46 405.336 1650.62 429.908Z" fill="url(#paint12_radial_459_29712)"/>
<path d="M1650.62 429.908C1680.79 454.479 1725.17 449.942 1749.74 419.774C1774.31 389.605 1769.77 345.23 1739.6 320.659C1709.44 296.088 1665.06 300.625 1640.49 330.793C1615.92 360.961 1620.46 405.336 1650.62 429.908Z" fill="#1F2E7E" fill-opacity="0.2"/>
</g>
</g>
</g>
<defs>
<filter id="filter0_d_459_29712" x="-80" y="466" width="2563" height="552" filterUnits="userSpaceOnUse" color-interpolation-filters="sRGB">
<feFlood flood-opacity="0" result="BackgroundImageFix"/>
<feColorMatrix in="SourceAlpha" type="matrix" values="0 0 0 0 0 0 0 0 0 0 0 0 0 0 0 0 0 0 127 0" result="hardAlpha"/>
<feOffset dy="5"/>
<feGaussianBlur stdDeviation="40"/>
<feComposite in2="hardAlpha" operator="out"/>
<feColorMatrix type="matrix" values="0 0 0 0 0.2 0 0 0 0 0.498039 0 0 0 0 0.901961 0 0 0 0.5 0"/>
<feBlend mode="normal" in2="BackgroundImageFix" result="effect1_dropShadow_459_29712"/>
<feBlend mode="normal" in="SourceGraphic" in2="effect1_dropShadow_459_29712" result="shape"/>
</filter>
<filter id="filter1_ii_459_29712" x="963.005" y="404.643" width="702.645" height="653.158" filterUnits="userSpaceOnUse" color-interpolation-filters="sRGB">
<feFlood flood-opacity="0" result="BackgroundImageFix"/>
<feBlend mode="normal" in="SourceGraphic" in2="BackgroundImageFix" result="shape"/>
<feColorMatrix in="SourceAlpha" type="matrix" values="0 0 0 0 0 0 0 0 0 0 0 0 0 0 0 0 0 0 127 0" result="hardAlpha"/>
<feOffset dx="-27.405" dy="47.9588"/>
<feGaussianBlur stdDeviation="58.2357"/>
<feComposite in2="hardAlpha" operator="arithmetic" k2="-1" k3="1"/>
<feColorMatrix type="matrix" values="0 0 0 0 1 0 0 0 0 1 0 0 0 0 1 0 0 0 0.87 0"/>
<feBlend mode="lighten" in2="shape" result="effect1_innerShadow_459_29712"/>
<feColorMatrix in="SourceAlpha" type="matrix" values="0 0 0 0 0 0 0 0 0 0 0 0 0 0 0 0 0 0 127 0" result="hardAlpha"/>
<feOffset dx="39.3493" dy="22.9533"/>
<feGaussianBlur stdDeviation="22.9533"/>
<feComposite in2="hardAlpha" operator="arithmetic" k2="-1" k3="1"/>
<feColorMatrix type="matrix" values="0 0 0 0 0.2 0 0 0 0 0.498039 0 0 0 0 0.901961 0 0 0 0.9 0"/>
<feBlend mode="multiply" in2="effect1_innerShadow_459_29712" result="effect2_innerShadow_459_29712"/>
</filter>
<filter id="filter2_ii_459_29712" x="1016.68" y="362.493" width="588.961" height="711.903" filterUnits="userSpaceOnUse" color-interpolation-filters="sRGB">
<feFlood flood-opacity="0" result="BackgroundImageFix"/>
<feBlend mode="normal" in="SourceGraphic" in2="BackgroundImageFix" result="shape"/>
<feColorMatrix in="SourceAlpha" type="matrix" values="0 0 0 0 0 0 0 0 0 0 0 0 0 0 0 0 0 0 127 0" result="hardAlpha"/>
<feOffset dx="-27.405" dy="47.9588"/>
<feGaussianBlur stdDeviation="58.2357"/>
<feComposite in2="hardAlpha" operator="arithmetic" k2="-1" k3="1"/>
<feColorMatrix type="matrix" values="0 0 0 0 1 0 0 0 0 1 0 0 0 0 1 0 0 0 0.87 0"/>
<feBlend mode="lighten" in2="shape" result="effect1_innerShadow_459_29712"/>
<feColorMatrix in="SourceAlpha" type="matrix" values="0 0 0 0 0 0 0 0 0 0 0 0 0 0 0 0 0 0 127 0" result="hardAlpha"/>
<feOffset dx="39.3493" dy="22.9533"/>
<feGaussianBlur stdDeviation="22.9533"/>
<feComposite in2="hardAlpha" operator="arithmetic" k2="-1" k3="1"/>
<feColorMatrix type="matrix" values="0 0 0 0 0.2 0 0 0 0 0.498039 0 0 0 0 0.901961 0 0 0 0.9 0"/>
<feBlend mode="multiply" in2="effect1_innerShadow_459_29712" result="effect2_innerShadow_459_29712"/>
</filter>
<filter id="filter3_dii_459_29712" x="715.441" y="414.775" width="532.482" height="484.387" filterUnits="userSpaceOnUse" color-interpolation-filters="sRGB">
<feFlood flood-opacity="0" result="BackgroundImageFix"/>
<feColorMatrix in="SourceAlpha" type="matrix" values="0 0 0 0 0 0 0 0 0 0 0 0 0 0 0 0 0 0 127 0" result="hardAlpha"/>
<feOffset dy="53.76"/>
<feGaussianBlur stdDeviation="5.97333"/>
<feComposite in2="hardAlpha" operator="out"/>
<feColorMatrix type="matrix" values="0 0 0 0 0.552941 0 0 0 0 0.721569 0 0 0 0 0.945098 0 0 0 0.16 0"/>
<feBlend mode="multiply" in2="BackgroundImageFix" result="effect1_dropShadow_459_29712"/>
<feBlend mode="normal" in="SourceGraphic" in2="effect1_dropShadow_459_29712" result="shape"/>
<feColorMatrix in="SourceAlpha" type="matrix" values="0 0 0 0 0 0 0 0 0 0 0 0 0 0 0 0 0 0 127 0" result="hardAlpha"/>
<feOffset dx="-27.405" dy="47.9588"/>
<feGaussianBlur stdDeviation="58.2357"/>
<feComposite in2="hardAlpha" operator="arithmetic" k2="-1" k3="1"/>
<feColorMatrix type="matrix" values="0 0 0 0 1 0 0 0 0 1 0 0 0 0 1 0 0 0 0.87 0"/>
<feBlend mode="lighten" in2="shape" result="effect2_innerShadow_459_29712"/>
<feColorMatrix in="SourceAlpha" type="matrix" values="0 0 0 0 0 0 0 0 0 0 0 0 0 0 0 0 0 0 127 0" result="hardAlpha"/>
<feOffset dx="39.3485" dy="22.9533"/>
<feGaussianBlur stdDeviation="22.9533"/>
<feComposite in2="hardAlpha" operator="arithmetic" k2="-1" k3="1"/>
<feColorMatrix type="matrix" values="0 0 0 0 0.2 0 0 0 0 0.498039 0 0 0 0 0.901961 0 0 0 0.9 0"/>
<feBlend mode="multiply" in2="effect2_innerShadow_459_29712" result="effect3_innerShadow_459_29712"/>
</filter>
<filter id="filter4_diif_459_29712" x="1012.98" y="911.626" width="148.384" height="144.267" filterUnits="userSpaceOnUse" color-interpolation-filters="sRGB">
<feFlood flood-opacity="0" result="BackgroundImageFix"/>
<feColorMatrix in="SourceAlpha" type="matrix" values="0 0 0 0 0 0 0 0 0 0 0 0 0 0 0 0 0 0 127 0" result="hardAlpha"/>
<feOffset dy="53.76"/>
<feGaussianBlur stdDeviation="5.97333"/>
<feComposite in2="hardAlpha" operator="out"/>
<feColorMatrix type="matrix" values="0 0 0 0 0.552941 0 0 0 0 0.721569 0 0 0 0 0.945098 0 0 0 0.16 0"/>
<feBlend mode="multiply" in2="BackgroundImageFix" result="effect1_dropShadow_459_29712"/>
<feBlend mode="normal" in="SourceGraphic" in2="effect1_dropShadow_459_29712" result="shape"/>
<feColorMatrix in="SourceAlpha" type="matrix" values="0 0 0 0 0 0 0 0 0 0 0 0 0 0 0 0 0 0 127 0" result="hardAlpha"/>
<feOffset dx="-27.405" dy="47.9588"/>
<feGaussianBlur stdDeviation="58.2357"/>
<feComposite in2="hardAlpha" operator="arithmetic" k2="-1" k3="1"/>
<feColorMatrix type="matrix" values="0 0 0 0 1 0 0 0 0 1 0 0 0 0 1 0 0 0 0.87 0"/>
<feBlend mode="lighten" in2="shape" result="effect2_innerShadow_459_29712"/>
<feColorMatrix in="SourceAlpha" type="matrix" values="0 0 0 0 0 0 0 0 0 0 0 0 0 0 0 0 0 0 127 0" result="hardAlpha"/>
<feOffset dx="39.3485" dy="22.9533"/>
<feGaussianBlur stdDeviation="22.9533"/>
<feComposite in2="hardAlpha" operator="arithmetic" k2="-1" k3="1"/>
<feColorMatrix type="matrix" values="0 0 0 0 0.2 0 0 0 0 0.498039 0 0 0 0 0.901961 0 0 0 0.9 0"/>
<feBlend mode="multiply" in2="effect2_innerShadow_459_29712" result="effect3_innerShadow_459_29712"/>
<feGaussianBlur stdDeviation="9.40053" result="effect4_foregroundBlur_459_29712"/>
</filter>
<filter id="filter5_dii_459_29712" x="1265.37" y="676.5" width="290.455" height="289.408" filterUnits="userSpaceOnUse" color-interpolation-filters="sRGB">
<feFlood flood-opacity="0" result="BackgroundImageFix"/>
<feColorMatrix in="SourceAlpha" type="matrix" values="0 0 0 0 0 0 0 0 0 0 0 0 0 0 0 0 0 0 127 0" result="hardAlpha"/>
<feOffset dy="53.76"/>
<feGaussianBlur stdDeviation="5.97333"/>
<feComposite in2="hardAlpha" operator="out"/>
<feColorMatrix type="matrix" values="0 0 0 0 0.552941 0 0 0 0 0.721569 0 0 0 0 0.945098 0 0 0 0.16 0"/>
<feBlend mode="multiply" in2="BackgroundImageFix" result="effect1_dropShadow_459_29712"/>
<feBlend mode="normal" in="SourceGraphic" in2="effect1_dropShadow_459_29712" result="shape"/>
<feColorMatrix in="SourceAlpha" type="matrix" values="0 0 0 0 0 0 0 0 0 0 0 0 0 0 0 0 0 0 127 0" result="hardAlpha"/>
<feOffset dx="-27.405" dy="47.9588"/>
<feGaussianBlur stdDeviation="58.2357"/>
<feComposite in2="hardAlpha" operator="arithmetic" k2="-1" k3="1"/>
<feColorMatrix type="matrix" values="0 0 0 0 1 0 0 0 0 1 0 0 0 0 1 0 0 0 0.87 0"/>
<feBlend mode="lighten" in2="shape" result="effect2_innerShadow_459_29712"/>
<feColorMatrix in="SourceAlpha" type="matrix" values="0 0 0 0 0 0 0 0 0 0 0 0 0 0 0 0 0 0 127 0" result="hardAlpha"/>
<feOffset dx="39.3485" dy="22.9533"/>
<feGaussianBlur stdDeviation="22.9533"/>
<feComposite in2="hardAlpha" operator="arithmetic" k2="-1" k3="1"/>
<feColorMatrix type="matrix" values="0 0 0 0 0.2 0 0 0 0 0.498039 0 0 0 0 0.901961 0 0 0 0.9 0"/>
<feBlend mode="multiply" in2="effect2_innerShadow_459_29712" result="effect3_innerShadow_459_29712"/>
</filter>
<filter id="filter6_di_459_29712" x="710.682" y="316" width="70.247" height="77.2856" filterUnits="userSpaceOnUse" color-interpolation-filters="sRGB">
<feFlood flood-opacity="0" result="BackgroundImageFix"/>
<feColorMatrix in="SourceAlpha" type="matrix" values="0 0 0 0 0 0 0 0 0 0 0 0 0 0 0 0 0 0 127 0" result="hardAlpha"/>
<feOffset dy="14.3565"/>
<feGaussianBlur stdDeviation="1.59516"/>
<feComposite in2="hardAlpha" operator="out"/>
<feColorMatrix type="matrix" values="0 0 0 0 0.552941 0 0 0 0 0.721569 0 0 0 0 0.945098 0 0 0 0.16 0"/>
<feBlend mode="multiply" in2="BackgroundImageFix" result="effect1_dropShadow_459_29712"/>
<feBlend mode="normal" in="SourceGraphic" in2="effect1_dropShadow_459_29712" result="shape"/>
<feColorMatrix in="SourceAlpha" type="matrix" values="0 0 0 0 0 0 0 0 0 0 0 0 0 0 0 0 0 0 127 0" result="hardAlpha"/>
<feOffset dx="-7.31844" dy="12.8073"/>
<feGaussianBlur stdDeviation="15.5517"/>
<feComposite in2="hardAlpha" operator="arithmetic" k2="-1" k3="1"/>
<feColorMatrix type="matrix" values="0 0 0 0 1 0 0 0 0 1 0 0 0 0 1 0 0 0 0.87 0"/>
<feBlend mode="lighten" in2="shape" result="effect2_innerShadow_459_29712"/>
</filter>
<filter id="filter7_di_459_29712" x="1361.68" y="916" width="70.247" height="77.2856" filterUnits="userSpaceOnUse" color-interpolation-filters="sRGB">
<feFlood flood-opacity="0" result="BackgroundImageFix"/>
<feColorMatrix in="SourceAlpha" type="matrix" values="0 0 0 0 0 0 0 0 0 0 0 0 0 0 0 0 0 0 127 0" result="hardAlpha"/>
<feOffset dy="14.3565"/>
<feGaussianBlur stdDeviation="1.59516"/>
<feComposite in2="hardAlpha" operator="out"/>
<feColorMatrix type="matrix" values="0 0 0 0 0.552941 0 0 0 0 0.721569 0 0 0 0 0.945098 0 0 0 0.16 0"/>
<feBlend mode="multiply" in2="BackgroundImageFix" result="effect1_dropShadow_459_29712"/>
<feBlend mode="normal" in="SourceGraphic" in2="effect1_dropShadow_459_29712" result="shape"/>
<feColorMatrix in="SourceAlpha" type="matrix" values="0 0 0 0 0 0 0 0 0 0 0 0 0 0 0 0 0 0 127 0" result="hardAlpha"/>
<feOffset dx="-7.31844" dy="12.8073"/>
<feGaussianBlur stdDeviation="15.5517"/>
<feComposite in2="hardAlpha" operator="arithmetic" k2="-1" k3="1"/>
<feColorMatrix type="matrix" values="0 0 0 0 1 0 0 0 0 1 0 0 0 0 1 0 0 0 0.87 0"/>
<feBlend mode="lighten" in2="shape" result="effect2_innerShadow_459_29712"/>
</filter>
<filter id="filter8_diif_459_29712" x="1597.26" y="286.03" width="207.658" height="225.412" filterUnits="userSpaceOnUse" color-interpolation-filters="sRGB">
<feFlood flood-opacity="0" result="BackgroundImageFix"/>
<feColorMatrix in="SourceAlpha" type="matrix" values="0 0 0 0 0 0 0 0 0 0 0 0 0 0 0 0 0 0 127 0" result="hardAlpha"/>
<feOffset dy="53.76"/>
<feGaussianBlur stdDeviation="5.97333"/>
<feComposite in2="hardAlpha" operator="out"/>
<feColorMatrix type="matrix" values="0 0 0 0 0.552941 0 0 0 0 0.721569 0 0 0 0 0.945098 0 0 0 0.16 0"/>
<feBlend mode="multiply" in2="BackgroundImageFix" result="effect1_dropShadow_459_29712"/>
<feBlend mode="normal" in="SourceGraphic" in2="effect1_dropShadow_459_29712" result="shape"/>
<feColorMatrix in="SourceAlpha" type="matrix" values="0 0 0 0 0 0 0 0 0 0 0 0 0 0 0 0 0 0 127 0" result="hardAlpha"/>
<feOffset dx="-27.405" dy="47.9588"/>
<feGaussianBlur stdDeviation="58.2357"/>
<feComposite in2="hardAlpha" operator="arithmetic" k2="-1" k3="1"/>
<feColorMatrix type="matrix" values="0 0 0 0 1 0 0 0 0 1 0 0 0 0 1 0 0 0 0.87 0"/>
<feBlend mode="lighten" in2="shape" result="effect2_innerShadow_459_29712"/>
<feColorMatrix in="SourceAlpha" type="matrix" values="0 0 0 0 0 0 0 0 0 0 0 0 0 0 0 0 0 0 127 0" result="hardAlpha"/>
<feOffset dx="39.3485" dy="22.9533"/>
<feGaussianBlur stdDeviation="22.9533"/>
<feComposite in2="hardAlpha" operator="arithmetic" k2="-1" k3="1"/>
<feColorMatrix type="matrix" values="0 0 0 0 0.2 0 0 0 0 0.498039 0 0 0 0 0.901961 0 0 0 0.9 0"/>
<feBlend mode="multiply" in2="effect2_innerShadow_459_29712" result="effect3_innerShadow_459_29712"/>
<feGaussianBlur stdDeviation="9.40053" result="effect4_foregroundBlur_459_29712"/>
</filter>
<linearGradient id="paint0_linear_459_29712" x1="1832" y1="918.575" x2="1815.65" y2="685.939" gradientUnits="userSpaceOnUse">
<stop stop-color="#337FE6"/>
<stop offset="1" stop-color="#E8F1FC"/>
</linearGradient>
<linearGradient id="paint1_linear_459_29712" x1="2403" y1="548.084" x2="2403" y2="1045.76" gradientUnits="userSpaceOnUse">
<stop stop-color="#E8F1FC"/>
<stop offset="1" stop-color="#337FE6"/>
</linearGradient>
<linearGradient id="paint2_linear_459_29712" x1="982.667" y1="919.603" x2="1387.62" y2="634.575" gradientUnits="userSpaceOnUse">
<stop offset="0.515679" stop-opacity="0"/>
<stop offset="1"/>
</linearGradient>
<radialGradient id="paint3_radial_459_29712" cx="0" cy="0" r="1" gradientUnits="userSpaceOnUse" gradientTransform="translate(1616.52 406.155) rotate(144.936) scale(247.359 499.797)">
<stop stop-color="#E8F1FC"/>
<stop offset="0.635171" stop-color="#8DB8F1"/>
<stop offset="1" stop-color="#337FE6"/>
</radialGradient>
<linearGradient id="paint4_linear_459_29712" x1="1358.07" y1="1080.58" x2="1260.26" y2="610.863" gradientUnits="userSpaceOnUse">
<stop offset="0.515679" stop-opacity="0"/>
<stop offset="1"/>
</linearGradient>
<radialGradient id="paint5_radial_459_29712" cx="0" cy="0" r="1" gradientUnits="userSpaceOnUse" gradientTransform="translate(1145.12 319.475) rotate(78.3135) scale(239.659 484.239)">
<stop stop-color="#E8F1FC"/>
<stop offset="0.635171" stop-color="#8DB8F1"/>
<stop offset="1" stop-color="#337FE6"/>
</radialGradient>
<linearGradient id="paint6_linear_459_29712" x1="689.688" y1="380.023" x2="1058.35" y2="620.291" gradientUnits="userSpaceOnUse">
<stop offset="0.119214" stop-opacity="0"/>
<stop offset="1"/>
</linearGradient>
<radialGradient id="paint7_radial_459_29712" cx="0" cy="0" r="1" gradientUnits="userSpaceOnUse" gradientTransform="translate(1011.14 392.934) rotate(111.274) scale(139.794 465.153)">
<stop stop-color="#E8F1FC"/>
<stop offset="0.635171" stop-color="#8DB8F1"/>
<stop offset="1" stop-color="#337FE6"/>
</radialGradient>
<radialGradient id="paint8_radial_459_29712" cx="0" cy="0" r="1" gradientUnits="userSpaceOnUse" gradientTransform="translate(1099.94 923.365) rotate(132.151) scale(24.2374 73.202)">
<stop stop-color="#E8F1FC"/>
<stop offset="0.635171" stop-color="#8DB8F1"/>
<stop offset="1" stop-color="#337FE6"/>
</radialGradient>
<radialGradient id="paint9_radial_459_29712" cx="0" cy="0" r="1" gradientUnits="userSpaceOnUse" gradientTransform="translate(1368.58 658.243) rotate(87.2124) scale(79.7701 207.382)">
<stop stop-color="#E8F1FC"/>
<stop offset="0.635171" stop-color="#8DB8F1"/>
<stop offset="1" stop-color="#337FE6"/>
</radialGradient>
<radialGradient id="paint10_radial_459_29712" cx="0" cy="0" r="1" gradientUnits="userSpaceOnUse" gradientTransform="translate(738.244 311.124) rotate(87.2124) scale(21.3024 55.3807)">
<stop stop-color="#E8F1FC"/>
<stop offset="0.635171" stop-color="#8DB8F1"/>
<stop offset="1" stop-color="#337FE6"/>
</radialGradient>
<radialGradient id="paint11_radial_459_29712" cx="0" cy="0" r="1" gradientUnits="userSpaceOnUse" gradientTransform="translate(1389.24 911.124) rotate(87.2124) scale(21.3024 55.3807)">
<stop stop-color="#E8F1FC"/>
<stop offset="0.635171" stop-color="#8DB8F1"/>
<stop offset="1" stop-color="#337FE6"/>
</radialGradient>
<radialGradient id="paint12_radial_459_29712" cx="0" cy="0" r="1" gradientUnits="userSpaceOnUse" gradientTransform="translate(1729.26 297.406) rotate(126.374) scale(50.2438 130.621)">
<stop stop-color="#E8F1FC"/>
<stop offset="0.635171" stop-color="#8DB8F1"/>
<stop offset="1" stop-color="#337FE6"/>
</radialGradient>
<clipPath id="clip0_459_29712">
<rect width="2400" height="1057" fill="white"/>
</clipPath>
<clipPath id="clip1_459_29712">
<rect width="2400" height="1081" fill="white" transform="translate(2400 1081) rotate(-180)"/>
</clipPath>
</defs>
</svg>
