<svg width="478" height="478" viewBox="0 0 478 478" fill="none" xmlns="http://www.w3.org/2000/svg">
<path d="M135.048 32.7791C122.872 30.0311 110.183 31.0386 97.7925 32.5247C90.4172 33.4083 82.8642 34.5329 76.5215 38.3653C70.1787 42.1977 65.3278 49.4106 66.491 56.7273C67.5605 63.4215 72.6494 71.8795 66.9973 75.6349C65.3412 76.7361 63.2459 76.8566 61.2613 76.9737C49.5982 77.6431 37.4391 79.4037 27.9752 86.235C18.5113 93.0664 12.8055 106.341 17.918 116.82C24.435 130.142 42.6018 131.467 57.4429 130.925C50.0877 137.368 42.5917 143.979 37.8078 152.507C33.0239 161.035 31.3846 171.963 36.1316 180.502C40.1176 187.661 48.0427 192.056 56.1556 193.274C64.2684 194.492 72.5824 192.879 80.3633 190.329C84.6544 188.926 89.3512 187.236 93.5316 188.936C98.4228 190.928 100.421 196.584 103.254 201.033C105.709 204.876 109.075 208.056 113.054 210.292C117.033 212.528 121.503 213.751 126.068 213.853C130.633 213.955 135.152 212.932 139.228 210.876C143.303 208.82 146.808 205.793 149.433 202.064C156.259 211.291 170.235 212.296 180.781 207.81C191.328 203.325 199.454 194.757 207.936 187.059C210.004 185.174 212.844 183.213 215.362 184.425C217.42 185.429 218.044 187.982 218.603 190.191C221.855 202.713 232.057 213.474 244.695 216.299C257.333 219.124 271.749 213.239 277.84 201.823C280.623 207.024 286.959 210.063 292.765 208.982C298.572 207.901 303.382 202.783 304.1 196.932C314.827 206.448 329.638 210.726 343.993 210.197C358.348 209.668 372.271 204.631 384.678 197.414C390.713 193.907 396.77 189.465 399.164 182.918C401.558 176.371 398.416 167.475 391.554 166.183C403.469 167.426 415.447 164.515 425.457 157.946C428.176 156.145 430.821 153.973 432.162 151.007C434.891 145.036 431.357 137.706 425.946 133.981C420.536 130.256 413.757 129.245 407.247 128.334C415.229 124.251 423.338 120.074 429.765 113.822C436.191 107.569 440.781 98.8166 439.889 89.9034C438.578 76.7528 425.454 67.1434 412.285 65.8213C399.117 64.4992 386.16 69.5934 374.403 75.6784C362.646 81.7634 351.302 88.9964 338.532 92.484C334.462 93.5952 328.884 93.5919 327.406 89.6457C326.735 87.8717 327.235 85.8802 327.908 84.1097C330.926 76.1436 337.59 68.5425 335.515 60.2752C333.839 53.6179 326.692 49.5111 319.826 49.1194C312.96 48.7278 306.299 51.2147 299.876 53.6681C303.691 36.2801 291.629 18.7013 276.275 9.64083C255.939 -2.37178 229.676 -2.93409 208.114 6.7021C196.923 11.7026 186.993 19.3138 178.948 28.5183C174.927 33.164 171.351 38.1752 168.267 43.4863C166.98 45.672 165.391 47.4258 162.642 46.8334C159.893 46.241 157.569 44.1223 155.457 42.4554C149.467 37.7424 142.492 34.4352 135.048 32.7791Z" fill="#75B798"/>
<path d="M460.455 405C460.307 405 460.16 404.977 460.02 404.927C459.852 404.87 459.699 404.783 459.568 404.666C459.438 404.549 459.327 404.409 459.25 404.252C459.173 404.095 459.13 403.921 459.117 403.747C459.107 403.574 459.13 403.397 459.187 403.23C459.648 401.893 459.247 398.055 456.902 393.789C454.139 388.755 448.228 382.127 435.774 379.114C431.526 378.088 425.522 378.316 422.581 382.341C422.428 382.555 422.213 382.715 421.969 382.809C421.722 382.899 421.454 382.916 421.2 382.859C420.946 382.799 420.712 382.665 420.531 382.478C420.35 382.288 420.23 382.05 420.183 381.79C417.172 365.064 400.29 351.902 383.3 353.061C378.523 353.395 373.753 354.705 369.14 355.984C365.314 357.043 361.353 358.139 357.322 358.7C348.1 359.983 336.917 357.42 332.712 348.809C331.709 346.737 331.2 344.523 330.705 342.378C330.404 340.908 330.016 339.458 329.538 338.035C327.116 331.251 320.235 325.876 312.006 324.339C305.109 323.056 297.244 324.182 288.634 327.68L287.965 327.947C285.774 328.849 283.506 329.781 280.997 329.781H280.964C276.635 329.781 273.083 326.971 269.952 324.506C269.473 324.129 268.998 323.758 268.527 323.397C268.246 323.183 268.058 322.866 268.012 322.512C267.965 322.161 268.062 321.807 268.276 321.523C268.49 321.242 268.811 321.059 269.162 321.012C269.514 320.965 269.871 321.059 270.152 321.272C270.634 321.64 271.119 322.024 271.608 322.405C274.538 324.713 277.568 327.082 280.974 327.108H280.997C282.978 327.108 284.904 326.313 286.948 325.475L287.617 325.204C296.709 321.506 305.075 320.33 312.488 321.71C321.637 323.41 329.314 329.463 332.05 337.13C332.562 338.663 332.983 340.227 333.304 341.807C333.776 343.891 334.221 345.862 335.094 347.653C338.71 355.062 348.665 357.22 356.931 356.071C360.784 355.533 364.658 354.461 368.401 353.425C373.144 352.112 378.048 350.753 383.096 350.419C391.974 349.817 401.036 352.734 408.609 358.636C415.453 363.981 420.227 371.073 422.244 378.85C426.187 375.633 432.071 375.51 436.38 376.549C450.49 379.963 456.752 388.03 459.227 392.536C461.953 397.497 462.418 402.024 461.696 404.128C461.602 404.382 461.431 404.602 461.211 404.759C460.99 404.913 460.726 405 460.455 405Z" fill="#984C0C"/>
<path d="M32.3389 378C32.0874 378.003 31.8413 377.93 31.6289 377.796C31.3279 377.61 31.1139 377.309 31.0342 376.966C30.9545 376.622 31.0154 376.259 31.2036 375.959C39.7132 362.393 48.7652 356.57 57.3752 359.111C58.7274 359.548 60.0412 360.099 61.3034 360.749C62.5659 361.419 63.8961 361.956 65.2718 362.347C71.9093 363.971 78.4832 358.264 83.2821 354.098C94.3743 344.472 106.541 336.147 119.544 329.289C131.198 323.145 140.267 322.445 146.499 327.211C150.039 329.919 152.085 334.075 154.064 338.095C156.482 343.004 158.753 347.641 163.441 348.805C167.995 349.939 172.56 347.06 176.974 344.279L178.461 343.345C183.484 340.239 190.101 338.295 194.703 341.303C200.094 327.421 208.222 315 228.66 315C229.016 315 229.356 315.143 229.607 315.394C229.859 315.644 230 315.981 230 316.334C230 316.688 229.859 317.028 229.607 317.278C229.356 317.528 229.016 317.668 228.66 317.668C208.021 317.668 201.263 331.254 196.548 343.985C196.469 344.198 196.337 344.389 196.165 344.535C195.992 344.682 195.784 344.786 195.562 344.829C195.339 344.876 195.108 344.866 194.891 344.796C194.674 344.729 194.478 344.609 194.321 344.442C190.878 340.843 184.385 342.824 179.874 345.613L178.407 346.533C173.745 349.472 168.464 352.804 162.791 351.393C156.907 349.929 154.238 344.509 151.656 339.269C149.811 335.526 147.905 331.654 144.865 329.329C139.54 325.253 131.439 326.034 120.793 331.664C107.974 338.428 95.9774 346.637 85.0403 356.126C79.7993 360.676 72.6193 366.91 64.6121 364.955C63.0515 364.521 61.5425 363.921 60.1112 363.164C58.9813 362.577 57.8055 362.083 56.5949 361.686C47.3285 358.948 38.896 368.714 33.4574 377.39C33.3365 377.576 33.1711 377.73 32.9759 377.836C32.7803 377.943 32.5616 378 32.3389 378Z" fill="#984C0C"/>
<path d="M220.653 404.515C210.373 413.889 206.394 430.128 208.581 443.886C210.767 457.644 220.649 470.076 233.788 474.653C242.332 477.629 252.96 479.223 261.695 476.862C276.258 472.932 283.188 469.637 291.659 452.086C297.446 440.086 295.424 420.117 287.838 409.667C281.697 401.21 274.192 396.08 264.072 394.266C251.295 391.945 234.864 391.534 220.653 404.515Z" fill="#FFC107"/>
<path d="M250.531 472.987C237.873 472.987 227.222 465.799 222.042 453.759C218.239 444.925 217.99 433.309 221.361 421.89C223.041 416.189 226.776 410.297 231.615 405.725C237.535 400.117 244.776 396.757 252.545 396.006C252.896 395.972 253.247 396.083 253.518 396.31C253.789 396.537 253.961 396.861 253.994 397.215C254.027 397.569 253.921 397.923 253.696 398.197C253.471 398.471 253.147 398.644 252.797 398.678C236.325 400.271 226.494 413.898 223.908 422.668C220.713 433.493 220.931 444.441 224.477 452.707C229.227 463.729 238.967 470.328 250.541 470.328C250.892 470.328 251.229 470.472 251.477 470.722C251.725 470.973 251.864 471.31 251.864 471.664C251.864 472.018 251.725 472.359 251.477 472.609C251.229 472.86 250.892 473 250.541 473L250.531 472.987Z" fill="#212529"/>
<path d="M287.66 436H287.611C287.436 435.993 287.267 435.953 287.108 435.878C286.95 435.804 286.808 435.699 286.689 435.567C286.57 435.438 286.48 435.283 286.418 435.117C286.358 434.951 286.332 434.772 286.338 434.593C286.632 426.831 282.801 418.935 276.586 414.476C276.441 414.378 276.315 414.249 276.22 414.097C276.12 413.948 276.054 413.779 276.021 413.6C275.991 413.424 275.991 413.241 276.031 413.065C276.067 412.889 276.137 412.723 276.239 412.574C276.342 412.429 276.471 412.304 276.62 412.206C276.768 412.111 276.934 412.047 277.105 412.016C277.281 411.989 277.459 411.996 277.631 412.037C277.8 412.077 277.962 412.155 278.104 412.26C285.046 417.23 289.307 426.04 288.983 434.697C288.97 435.049 288.824 435.381 288.579 435.624C288.332 435.865 288.004 436 287.66 436Z" fill="#212529"/>
<path d="M271.435 467.999C271.253 468.006 271.067 467.975 270.895 467.91C270.723 467.844 270.569 467.744 270.436 467.62C270.166 467.368 270.008 467.021 270.001 466.655C269.994 466.473 270.029 466.293 270.092 466.125C270.159 465.956 270.26 465.801 270.387 465.67C270.643 465.404 270.997 465.253 271.368 465.242C273.062 464.874 283.04 457.762 283.194 453.331C283.208 452.965 283.369 452.621 283.639 452.373C283.913 452.121 284.274 451.99 284.646 452.001C285.017 452.014 285.371 452.173 285.624 452.438C285.876 452.707 286.013 453.062 285.999 453.427C285.88 456.873 282.423 460.556 279.544 463.051C277.251 465.043 273.198 467.999 271.435 467.999Z" fill="#212529"/>
<path d="M226.229 405C225.903 405 225.591 404.896 225.36 404.71C225.13 404.525 225 404.272 225 404.01C225 403.748 225.13 403.498 225.36 403.312C225.591 403.126 225.903 403.02 226.229 403.02L228.771 403C229.097 403 229.409 403.106 229.64 403.292C229.871 403.478 230 403.728 230 403.99C230 404.252 229.871 404.505 229.64 404.691C229.409 404.876 229.097 404.98 228.771 404.98L226.226 405H226.229Z" fill="#212529"/>
<path d="M217.29 414C216.948 414 216.62 413.842 216.378 413.561C216.136 413.28 216 412.897 216 412.5C216 412.103 216.136 411.724 216.378 411.442C216.62 411.161 216.948 411 217.29 411H224.71C225.052 411 225.38 411.161 225.622 411.442C225.864 411.724 226 412.103 226 412.5C226 412.897 225.864 413.28 225.622 413.561C225.38 413.842 225.052 414 224.71 414H217.306H217.29Z" fill="#212529"/>
<path d="M217.677 425H217.642L212.287 424.893C211.941 424.891 211.611 424.787 211.37 424.607C211.128 424.427 210.996 424.186 211 423.935C211.005 423.684 211.147 423.445 211.395 423.27C211.643 423.095 211.977 422.998 212.323 423H212.358L217.713 423.107C218.059 423.111 218.389 423.213 218.63 423.393C218.872 423.573 219.005 423.817 219 424.067C218.995 424.318 218.853 424.557 218.605 424.732C218.357 424.908 218.023 425.005 217.677 425Z" fill="#212529"/>
<path d="M208.291 435.999C207.973 435.996 207.666 435.888 207.43 435.689C207.194 435.493 207.044 435.221 207.008 434.929C206.973 434.636 207.054 434.344 207.236 434.103C207.419 433.861 207.691 433.689 208.001 433.62C210.551 433.074 213.176 432.887 215.787 433.065C216.133 433.089 216.455 433.24 216.682 433.481C216.908 433.726 217.022 434.039 216.997 434.359C216.971 434.679 216.81 434.977 216.548 435.188C216.285 435.396 215.944 435.502 215.598 435.478C213.247 435.318 210.884 435.487 208.588 435.975C208.49 435.993 208.39 436.002 208.291 435.999Z" fill="#212529"/>
<path d="M211.409 445.998C211.055 446.016 210.708 445.903 210.444 445.685C210.18 445.467 210.021 445.163 210.002 444.837C209.983 444.512 210.105 444.192 210.342 443.95C210.579 443.707 210.911 443.56 211.265 443.541L216.51 443.007C216.864 442.973 217.219 443.068 217.497 443.271C217.775 443.477 217.953 443.775 217.992 444.1C218.031 444.426 217.927 444.754 217.705 445.009C217.482 445.264 217.158 445.43 216.804 445.464L211.559 445.998H211.409Z" fill="#212529"/>
<path d="M219.565 455H216.435C216.055 455 215.69 454.842 215.421 454.561C215.151 454.28 215 453.901 215 453.5C215 453.103 215.151 452.724 215.421 452.442C215.69 452.161 216.055 452 216.435 452H219.565C219.945 452 220.31 452.161 220.579 452.442C220.849 452.724 221 453.103 221 453.5C221 453.901 220.849 454.28 220.579 454.561C220.31 454.842 219.945 455 219.565 455Z" fill="#212529"/>
<path d="M221.354 465.998C221.001 466.005 220.66 465.878 220.406 465.644C220.152 465.41 220.006 465.09 220 464.755C219.995 464.419 220.129 464.093 220.375 463.853C220.621 463.612 220.957 463.473 221.311 463.467C222.203 463.441 222.38 463.378 222.553 463.318C223.217 463.093 223.919 462.986 224.624 463.002C224.977 462.992 225.321 463.115 225.578 463.343C225.836 463.574 225.988 463.891 225.999 464.226C226.011 464.562 225.881 464.891 225.64 465.135C225.398 465.378 225.064 465.524 224.711 465.533C224.291 465.514 223.87 465.565 223.468 465.682C222.804 465.907 222.102 466.014 221.397 465.998H221.354Z" fill="#212529"/>
<path d="M304.674 144C303.64 144 302.606 143.908 301.589 143.726C298.79 143.185 296.145 142.01 293.854 140.289C291.565 138.568 289.684 136.344 288.356 133.785C285.331 135.893 281.672 136.862 278.016 136.527C273.553 136.189 269.54 134.1 267.008 130.829C265.381 128.723 264.216 126.17 263.092 123.701C261.154 119.449 259.323 115.43 255.467 114.559C252.989 113.997 250.29 115.03 247.682 116.026L246.854 116.34C239.753 119.015 233.829 119.52 228.752 117.884C224.039 116.371 219.579 112.176 218.502 107.029C211.564 115.494 202.307 121.081 192.64 122.577C180.685 124.426 168.29 119.479 161.812 110.266C158.41 105.341 156.729 99.4013 157.036 93.394C157.313 87.1267 159.661 81.4349 163.64 77.3752C163.892 77.1311 164.227 76.9967 164.576 77.0001C164.924 77.0038 165.256 77.145 165.503 77.3942C165.75 77.6434 165.891 77.9803 165.896 78.3334C165.902 78.6866 165.771 79.0282 165.532 79.2849C158.39 86.5714 157.693 99.7562 163.977 108.681C169.898 117.085 181.249 121.592 192.233 119.889C202.297 118.331 211.914 111.973 218.605 102.448C218.779 102.201 219.03 102.021 219.317 101.937C219.603 101.852 219.91 101.867 220.187 101.981C220.464 102.094 220.696 102.298 220.845 102.561C220.995 102.823 221.052 103.13 221.01 103.43C220.233 108.81 224.839 113.777 229.553 115.281C234.046 116.726 239.399 116.232 245.924 113.777L246.738 113.469C249.573 112.382 252.792 111.153 256.047 111.891C261.188 113.059 263.386 117.881 265.511 122.543C266.571 124.873 267.669 127.284 269.103 129.136C271.175 131.811 274.497 133.514 278.216 133.808C281.935 134.103 285.481 132.938 287.933 130.619C288.093 130.469 288.286 130.361 288.493 130.304C288.703 130.246 288.924 130.242 289.137 130.291C289.347 130.339 289.544 130.44 289.707 130.583C289.874 130.726 290.001 130.908 290.081 131.113C291.075 133.668 292.7 135.922 294.794 137.659C296.892 139.397 299.391 140.562 302.056 141.041C304.721 141.521 307.46 141.301 310.018 140.401C312.577 139.501 314.862 137.952 316.663 135.901C316.78 135.767 316.92 135.658 317.08 135.581C317.237 135.503 317.407 135.457 317.583 135.446C317.76 135.436 317.934 135.46 318.1 135.518C318.267 135.577 318.421 135.667 318.551 135.786C318.681 135.904 318.791 136.047 318.868 136.208C318.944 136.368 318.988 136.542 318.998 136.72C319.008 136.898 318.984 137.076 318.928 137.245C318.871 137.413 318.781 137.569 318.664 137.702C316.893 139.681 314.731 141.263 312.323 142.347C309.915 143.432 307.31 143.995 304.674 144Z" fill="#198754"/>
<path d="M236.648 44H236.472C236.294 43.9936 236.119 43.9542 235.957 43.8843C235.795 43.8144 235.65 43.7156 235.529 43.5929C235.408 43.4703 235.314 43.3267 235.252 43.17C235.19 43.0133 235.162 42.8465 235.169 42.6797C235.176 42.5129 235.218 42.3489 235.292 42.197C235.367 42.0454 235.472 41.9088 235.603 41.7953C235.734 41.6819 235.887 41.5936 236.054 41.5357C236.221 41.4779 236.399 41.4515 236.577 41.4579C236.937 41.4518 237.291 41.3695 237.614 41.218C237.936 41.0661 238.217 40.8484 238.437 40.5808C238.777 40.2037 239.023 39.7613 239.162 39.2847C239.301 38.808 239.325 38.3091 239.233 37.8226C238.756 35.7413 236.523 34.4067 234.73 33.8982C232.019 33.1165 229.098 33.5424 227.119 35.0041C225.056 36.5293 224.175 39.2526 225.066 41.3594C225.2 41.6724 225.197 42.0229 225.056 42.3336C224.916 42.6444 224.649 42.89 224.315 43.0165C223.981 43.143 223.608 43.1398 223.276 43.0079C222.945 42.8757 222.683 42.6257 222.548 42.3127C221.193 39.1668 222.423 35.2646 225.442 33.0308C228.109 31.0606 231.972 30.4727 235.523 31.4928C238.122 32.2395 241.158 34.1588 241.883 37.311C242.063 38.1754 242.035 39.0664 241.802 39.9193C241.564 40.7718 241.131 41.5646 240.528 42.2396C240.06 42.7817 239.467 43.2202 238.797 43.5246C238.126 43.8287 237.393 43.9911 236.648 44Z" fill="#198754"/>
<path d="M269.114 66C268.863 66.0003 268.615 65.9414 268.396 65.829C268.177 65.7169 267.993 65.5551 267.868 65.36C267.742 65.1653 267.677 64.9443 267.677 64.7191C267.674 64.4943 267.742 64.273 267.868 64.0782C268.41 63.2262 268.072 61.676 267.11 60.6222C266.754 60.1783 266.248 59.849 265.666 59.6834C265.084 59.5178 264.455 59.5245 263.877 59.7029C263.514 59.807 263.119 59.7782 262.782 59.6229C262.44 59.4675 262.185 59.1985 262.07 58.875C261.952 58.5512 261.984 58.1995 262.16 57.8971C262.332 57.5948 262.634 57.3664 262.997 57.2623C264.128 56.9257 265.346 56.9128 266.485 57.2251C267.623 57.5377 268.625 58.1598 269.347 59.0047C271.075 60.9009 271.503 63.5689 270.371 65.3466C270.245 65.5455 270.062 65.7108 269.843 65.8258C269.62 65.9404 269.369 66.0006 269.114 66Z" fill="#198754"/>
<path d="M104.571 79.9935C104.498 79.9984 104.425 79.9984 104.352 79.9935C101.846 79.6105 98.1508 78.8769 94.9887 76.9649C91.7446 75.0173 89.6035 72.0958 89.1084 68.9828C88.3161 64.0066 91.9427 58.7771 97.5498 56.823C100.661 55.7388 104.038 55.7258 106.818 56.784C109.993 57.9948 112.353 60.5949 112.981 63.5716C113.04 63.904 112.96 64.2448 112.758 64.5221C112.557 64.7996 112.25 64.9914 111.902 65.0577C111.555 65.1239 111.194 65.0589 110.896 64.8768C110.597 64.6944 110.385 64.4094 110.304 64.0812C109.864 61.9875 108.095 60.0691 105.8 59.1959C103.638 58.3714 100.975 58.3941 98.4889 59.2608C94.6882 60.5884 91.147 64.4545 91.8095 68.5965C92.1817 70.9305 93.9164 73.2417 96.4536 74.7641C98.5367 76.0236 101.183 76.8675 104.786 77.4194C105.125 77.471 105.432 77.642 105.644 77.8985C105.856 78.1553 105.959 78.4786 105.932 78.8042C105.905 79.1297 105.75 79.4336 105.497 79.6553C105.245 79.877 104.914 80 104.571 80V79.9935Z" fill="#198754"/>
<path d="M86.4178 105C86.154 105 85.8903 104.986 85.6274 104.957C85.0579 104.888 84.5077 104.69 84.013 104.376C83.518 104.061 83.0891 103.636 82.7539 103.129C82.4289 102.643 82.2016 102.088 82.0864 101.5C81.9712 100.912 81.9712 100.304 82.0861 99.7157C82.6222 97 84.9473 97 86.1941 97C86.5192 97 86.831 97.1406 87.0608 97.3912C87.2905 97.642 87.4195 97.9817 87.4195 98.3361C87.4195 98.6905 87.2905 99.0302 87.0608 99.2807C86.831 99.5313 86.5192 99.6722 86.1941 99.6722C84.6624 99.6722 84.5705 99.8192 84.4817 100.28C84.4385 100.502 84.4388 100.732 84.4832 100.953C84.5277 101.175 84.615 101.384 84.739 101.566C84.8735 101.769 85.0457 101.939 85.2439 102.065C85.4424 102.191 85.6626 102.27 85.8909 102.298C86.4245 102.362 86.964 102.328 87.4869 102.197C87.6441 102.156 87.8073 102.149 87.9669 102.177C88.1265 102.204 88.2797 102.266 88.4173 102.359C88.5551 102.451 88.6746 102.573 88.7689 102.716C88.8636 102.859 88.931 103.021 88.9677 103.192C89.0045 103.364 89.01 103.542 88.9834 103.716C88.9567 103.89 88.8988 104.056 88.813 104.205C88.7273 104.355 88.6152 104.484 88.4831 104.586C88.3514 104.688 88.2022 104.761 88.0444 104.8C87.5111 104.933 86.9652 105 86.4178 105Z" fill="#198754"/>
<path d="M344.131 112C343.67 112 343.209 111.934 342.764 111.802C342.416 111.697 342.125 111.462 341.951 111.149C341.78 110.836 341.735 110.469 341.835 110.127C341.886 109.959 341.968 109.804 342.081 109.668C342.19 109.533 342.33 109.42 342.487 109.337C342.641 109.255 342.815 109.203 342.99 109.185C343.168 109.168 343.345 109.185 343.516 109.235L343.113 110.515L343.526 109.238H343.571C343.936 109.334 344.319 109.333 344.685 109.236C345.047 109.14 345.379 108.95 345.645 108.687C345.912 108.424 346.1 108.097 346.196 107.739C346.291 107.381 346.288 107.004 346.189 106.648C345.82 105.361 345.071 104.211 344.036 103.34C340.758 100.659 335.72 101.664 330.764 103.119C330.416 103.221 330.043 103.185 329.722 103.016C329.401 102.848 329.165 102.562 329.059 102.221C328.953 101.88 328.991 101.512 329.165 101.199C329.336 100.885 329.626 100.651 329.975 100.548C335.389 98.9498 341.5 97.7836 345.785 101.279C347.231 102.487 348.284 104.086 348.807 105.877C349.019 106.589 349.056 107.34 348.92 108.069C348.786 108.799 348.479 109.487 348.024 110.081C347.573 110.675 346.985 111.157 346.308 111.49C345.632 111.823 344.887 111.998 344.131 112Z" fill="#198754"/>
<path d="M370.147 166C369.83 166 369.51 165.983 369.193 165.948C369.02 165.929 368.85 165.877 368.693 165.794C368.539 165.712 368.403 165.6 368.293 165.466C368.182 165.333 368.102 165.179 368.052 165.015C368.002 164.85 367.989 164.678 368.009 164.508C368.029 164.337 368.082 164.173 368.166 164.023C368.252 163.873 368.366 163.74 368.503 163.633C368.643 163.526 368.8 163.447 368.97 163.399C369.136 163.351 369.317 163.337 369.49 163.356C370.564 163.461 371.648 163.31 372.649 162.915C373.647 162.519 374.534 161.891 375.224 161.087C375.638 160.59 375.968 160.032 376.202 159.434C376.345 159.054 376.372 158.642 376.282 158.247C376.192 157.852 375.985 157.491 375.688 157.206C375.391 156.921 375.018 156.725 374.611 156.64C374.204 156.555 373.78 156.586 373.39 156.728C373.226 156.795 373.053 156.83 372.876 156.831C372.699 156.832 372.526 156.799 372.362 156.734C372.199 156.669 372.052 156.573 371.925 156.452C371.802 156.331 371.702 156.187 371.635 156.028C371.502 155.713 371.502 155.36 371.635 155.044C371.768 154.729 372.022 154.477 372.346 154.343L372.412 154.314C373.286 153.988 374.237 153.914 375.151 154.101C376.065 154.287 376.902 154.726 377.566 155.366C378.23 156.005 378.69 156.817 378.887 157.704C379.087 158.591 379.021 159.514 378.69 160.364C378.357 161.216 377.886 162.012 377.296 162.72C376.425 163.742 375.331 164.564 374.097 165.131C372.863 165.698 371.515 165.994 370.147 166Z" fill="#198754"/>
<path d="M397.073 118C396.834 117.999 396.602 117.935 396.4 117.812C396.194 117.69 396.028 117.514 395.912 117.304C395.799 117.094 395.743 116.857 395.749 116.618C395.756 116.378 395.829 116.145 395.955 115.942C396.36 115.188 396.456 114.304 396.224 113.479C395.992 112.654 395.448 111.954 394.711 111.528C394.406 111.367 394.174 111.091 394.068 110.76C393.959 110.428 393.982 110.068 394.134 109.754C394.284 109.44 394.552 109.198 394.874 109.08C395.199 108.961 395.557 108.975 395.872 109.119C396.572 109.494 397.192 110.009 397.69 110.633C398.191 111.256 398.559 111.974 398.774 112.746C398.993 113.517 399.053 114.324 398.953 115.119C398.854 115.915 398.595 116.681 398.194 117.373C398.074 117.565 397.909 117.723 397.713 117.832C397.517 117.942 397.298 118 397.073 118Z" fill="#198754"/>
<path d="M80.5748 156.998C77.9503 157.039 75.3782 156.275 73.2172 154.813C69.8838 152.452 68.2775 148.295 69.3104 144.7C69.6155 143.691 70.1209 142.751 70.798 141.935C71.4747 141.118 72.3094 140.441 73.2541 139.943C74.0841 139.473 75.0016 139.171 75.9526 139.054C76.9034 138.938 77.8685 139.009 78.7907 139.265C79.1318 139.365 79.4182 139.595 79.5872 139.902C79.7558 140.21 79.7934 140.571 79.6911 140.906C79.5888 141.241 79.3551 141.522 79.0419 141.688C78.7283 141.853 78.3604 141.89 78.0194 141.79C77.4382 141.635 76.8316 141.597 76.235 141.676C75.6381 141.755 75.0636 141.95 74.5452 142.251C73.2725 142.925 72.3201 144.062 71.8926 145.417C71.1716 147.926 72.3889 150.978 74.7866 152.676C77.0234 154.256 80.2226 154.77 83.3515 154.046C83.5228 154.006 83.7009 154 83.8746 154.028C84.0486 154.056 84.2153 154.117 84.3649 154.208C84.5148 154.299 84.6449 154.418 84.7475 154.559C84.8505 154.699 84.9242 154.858 84.9645 155.027C85.0047 155.195 85.0108 155.37 84.9826 155.54C84.9541 155.711 84.8917 155.875 84.7988 156.021C84.7059 156.169 84.5845 156.296 84.4417 156.397C84.2985 156.498 84.1369 156.57 83.9652 156.61C82.8541 156.867 81.7163 156.997 80.5748 156.998Z" fill="#198754"/>
<path d="M209.687 152.624C201.103 154.866 188.768 157.082 180.54 153.769C164.472 147.3 165.287 130.679 159.071 122.685C158.266 121.644 154.003 118.371 159.048 130.472C159.591 131.78 160.369 132.975 160.916 134.243C163.466 140.153 165.15 146.624 169.383 151.49C176.166 159.267 187.678 160.823 197.99 160.137C208.302 159.451 210.955 156.001 217.815 155.475C225.695 154.873 224.266 158.618 231.528 156.891C237.492 155.475 246.395 166.709 239.975 177.267C234.098 186.934 233.802 193.379 231.012 204.335C228.221 215.291 227.288 227.646 233.279 237.24C236.187 241.9 240.505 245.52 243.678 249.991C248.609 256.975 250.578 265.615 249.156 274.038C247.345 284.609 240.3 293.704 238.254 304.238C235.191 319.966 242.923 338.739 232.447 350.866C225.44 358.978 213.464 359.901 202.857 361.544C192.25 363.187 180.07 367.902 177.772 378.38C176.766 382.941 177.709 388.392 174.401 391.698C171.557 394.539 166.988 394.305 162.966 394.475C149.675 395.038 137.052 402.818 130.092 414.051C130.01 414.185 129.981 414.346 130.012 414.5C130.043 414.654 130.13 414.788 130.257 414.881C130.384 414.972 130.541 415.015 130.697 414.995C130.853 414.978 130.996 414.901 131.098 414.781C138.515 405.86 150.219 397.189 160.577 397.477C166.978 397.658 174.069 398.558 178.182 393.662C180.865 390.453 181.466 385.708 182.345 381.616C184.042 373.691 189.054 370.613 196.953 368.675C201.549 367.548 209.539 366.483 214.206 365.7C227.872 363.415 237.556 361.377 242.923 351.087C243.853 349.31 244.98 347.624 247.284 351.134C248.706 353.322 253.124 354.249 254.308 368.321C255.08 377.496 253.222 383.911 254.979 387.98C255.083 388.211 255.264 388.395 255.489 388.506C255.717 388.616 255.976 388.639 256.217 388.579C256.462 388.519 256.677 388.375 256.824 388.171C256.975 387.967 257.046 387.719 257.029 387.468C256.633 380.083 257.119 373.159 257.029 365.717C256.881 352.034 246.885 340.583 251.709 340.141C260.068 341.992 264.526 350.01 272.507 353.078C279.122 355.615 288.018 357.9 294.74 360.149C305.313 363.683 299.792 373.337 305.921 378.219C311.097 382.335 314.978 382.034 321.13 379.558C331.193 375.495 342.692 384.614 348.452 395.161C348.526 395.285 348.643 395.376 348.778 395.416C348.915 395.456 349.063 395.443 349.19 395.382C349.318 395.322 349.422 395.215 349.475 395.081C349.529 394.951 349.532 394.803 349.482 394.67C347.999 390.969 345.963 387.408 344.236 385.357C339.918 380.223 335.903 376.322 329.241 375.462C324.733 374.873 318.946 378.336 314.438 377.747C312.895 377.543 311.308 377.329 309.956 376.556C305.307 373.906 306.162 367.022 303.881 362.187C300.252 354.49 289.95 353.647 281.892 350.873C266.797 345.686 256.398 329.433 257.982 313.601C259.085 302.659 265.15 292.834 267.528 282.096C270.9 266.87 266.26 251.999 255.452 240.722C251.652 236.724 246.942 231.283 244.896 226.153C243.504 222.656 243.49 218.791 243.725 215.013C244.325 205.395 246.217 195.901 249.357 186.787C251.085 181.768 253.329 176.598 257.542 173.331C263.865 168.429 272.842 169.082 280.618 170.989C288.393 172.896 296.229 175.895 304.17 174.817C314.307 173.459 322.284 165.903 330.831 160.304C339.452 154.677 349.126 150.849 359.27 149.051C359.485 149.01 359.68 148.891 359.814 148.718C359.948 148.545 360.012 148.328 359.998 148.11C359.981 147.892 359.888 147.687 359.73 147.534C359.572 147.381 359.364 147.291 359.146 147.28C348.992 146.812 339.439 151.45 330.123 156.315C323.049 160.016 318.406 164.614 311.741 167.74C305.726 170.557 297.145 168.968 290.017 167.094C281.51 164.862 275.136 161.773 266.079 163.078C262.889 163.54 260.897 161.295 261.658 158.166C265.509 142.365 255.835 130.857 254.147 126.71C253.892 126.085 251.346 120.895 250.313 121.002C249.552 121.085 248.971 122.377 251.138 126.302C252.645 129.033 265.482 156.085 251.957 158.333C250.595 158.561 248.311 158.357 247.23 157.487C246.385 156.799 245.506 156.159 244.59 155.569C242.799 154.43 240.887 153.49 238.888 152.765C230.572 149.71 221.267 150.068 212.723 151.892C211.708 152.117 210.696 152.361 209.687 152.624Z" fill="#FD7E14"/>
<path d="M156.979 426.863C171.555 428.847 174.905 408.608 161.832 406.211C160.974 406.057 160.089 406.143 159.211 406.053C147.282 404.826 144.877 425.217 156.979 426.863Z" fill="#FFC107"/>
<path d="M363.682 385.482C360.793 392.114 361.534 399.777 366.615 405.204C373.285 411.116 383.573 409.601 389.954 404.244C399.101 395.678 395.36 379.557 382.389 376.547C376.211 375.093 367.799 376.047 363.682 385.482Z" fill="#FFC107"/>
<path d="M374.664 402.974C374.608 402.977 374.552 402.977 374.496 402.974C373.05 402.746 371.68 402.133 370.509 401.191C369.338 400.25 368.405 399.01 367.796 397.583C366.426 394.273 367.078 390.718 367.865 388.316C368.243 387.163 368.895 385.498 370.181 384.319C370.306 384.205 370.45 384.118 370.606 384.064C370.762 384.011 370.927 383.991 371.09 384.004C371.255 384.017 371.414 384.068 371.561 384.148C371.705 384.225 371.836 384.336 371.942 384.47C372.048 384.604 372.129 384.761 372.179 384.929C372.229 385.096 372.251 385.27 372.235 385.448C372.223 385.622 372.179 385.793 372.104 385.951C372.029 386.108 371.926 386.245 371.802 386.359C371.177 386.936 370.668 387.84 370.222 389.207C369.32 391.951 369.285 394.541 370.078 396.494C370.512 397.506 371.174 398.387 372.004 399.054C372.835 399.724 373.806 400.156 374.833 400.317C375.164 400.34 375.473 400.508 375.691 400.776C375.91 401.044 376.019 401.392 375.997 401.747C375.975 402.103 375.822 402.434 375.573 402.669C375.323 402.903 374.995 403.021 374.664 402.997V402.974Z" fill="#212529"/>
<path d="M254.644 250C254.332 250 254.029 249.899 253.785 249.706C244.515 242.386 238.513 231.923 237.011 220.471C236.988 220.301 237.001 220.128 237.048 219.962C237.096 219.796 237.176 219.641 237.285 219.506C237.395 219.37 237.531 219.257 237.686 219.172C237.841 219.086 238.012 219.032 238.189 219.01C238.365 218.989 238.545 219.001 238.717 219.047C238.889 219.092 239.05 219.169 239.193 219.275C239.332 219.38 239.451 219.511 239.539 219.66C239.627 219.809 239.685 219.974 239.705 220.144C241.117 230.93 246.769 240.785 255.499 247.677C255.717 247.85 255.873 248.079 255.951 248.34C256.025 248.598 256.015 248.873 255.92 249.128C255.829 249.382 255.655 249.601 255.425 249.758C255.197 249.915 254.926 249.997 254.644 249.997V250Z" fill="white"/>
<path d="M261.627 263C261.379 263 261.138 262.932 260.924 262.799C260.71 262.67 260.535 262.481 260.417 262.255L257.208 256.187C257.108 256.023 257.043 255.84 257.015 255.647C256.987 255.453 256.998 255.26 257.046 255.07C257.094 254.884 257.177 254.705 257.291 254.551C257.408 254.4 257.553 254.271 257.715 254.178C257.88 254.085 258.06 254.028 258.246 254.006C258.432 253.988 258.621 254.01 258.797 254.067C258.976 254.128 259.142 254.225 259.283 254.35C259.425 254.479 259.538 254.633 259.621 254.808L262.83 260.876C263.006 261.209 263.048 261.603 262.944 261.968C262.844 262.33 262.606 262.638 262.286 262.821C262.086 262.939 261.858 263 261.627 263Z" fill="white"/>
<path d="M253.317 310H253.284C253.113 309.997 252.941 309.956 252.783 309.885C252.626 309.813 252.481 309.708 252.362 309.579C252.244 309.45 252.152 309.297 252.089 309.131C252.027 308.964 251.997 308.788 252 308.608C252.171 301.448 254.524 294.644 256.798 288.061C258.796 282.29 260.862 276.314 261.363 270.247C261.392 269.888 261.56 269.555 261.827 269.324C262.096 269.09 262.442 268.974 262.791 269.005C263.14 269.035 263.462 269.209 263.689 269.487C263.916 269.762 264.025 270.118 263.995 270.478C263.465 276.895 261.343 283.04 259.289 288.974C256.986 295.649 254.804 301.95 254.643 308.666C254.636 309.026 254.495 309.365 254.245 309.616C253.998 309.864 253.665 310.003 253.317 310Z" fill="white"/>
<path d="M243.583 315.997C243.2 316 242.832 315.869 242.555 315.633C242.273 315.397 242.104 315.078 242.082 314.734C241.688 308.974 242.72 303.203 245.106 297.84C245.256 297.51 245.545 297.244 245.913 297.106C246.28 296.968 246.693 296.965 247.061 297.096C247.432 297.231 247.725 297.49 247.882 297.82C248.036 298.15 248.04 298.52 247.89 298.85C245.672 303.84 244.712 309.209 245.08 314.569C245.095 314.748 245.068 314.923 245.005 315.091C244.941 315.259 244.839 315.414 244.708 315.546C244.581 315.68 244.419 315.788 244.243 315.865C244.067 315.943 243.875 315.99 243.676 316L243.583 315.997Z" fill="white"/>
<path d="M239.381 195H239.278C239.098 194.987 238.922 194.938 238.76 194.857C238.598 194.775 238.452 194.663 238.334 194.527C238.216 194.39 238.126 194.231 238.069 194.06C238.012 193.889 237.99 193.708 238.004 193.529C238.605 185.576 242.882 178.72 247.018 172.088C248.51 169.687 250.053 167.228 251.378 164.769C251.461 164.604 251.575 164.456 251.713 164.335C251.855 164.214 252.017 164.123 252.193 164.067C252.373 164.01 252.559 163.989 252.742 164.005C252.929 164.022 253.108 164.075 253.27 164.162C253.433 164.249 253.578 164.368 253.695 164.511C253.812 164.655 253.899 164.82 253.947 164.998C253.999 165.175 254.013 165.361 253.988 165.544C253.964 165.726 253.906 165.903 253.812 166.062C252.431 168.6 250.881 171.11 249.366 173.535C245.223 180.178 241.308 186.454 240.759 193.735C240.731 194.079 240.576 194.401 240.32 194.635C240.065 194.87 239.73 195 239.381 195Z" fill="white"/>
<path d="M186.819 453C184.205 453 181.594 451.762 179.629 449.536C177.31 446.914 176.458 443.547 177.343 440.579C177.609 440.386 177.815 440.12 177.939 439.814C178.064 439.508 178.1 439.172 178.045 438.845C179.486 436.087 182.425 434.287 185.905 434.031C189.384 433.775 192.551 435.129 194.377 437.648C196.203 440.166 196.508 443.61 195.192 446.858C193.877 450.105 191.269 452.354 188.207 452.88C187.749 452.96 187.284 453 186.819 453ZM179.894 440.612C179.961 440.852 179.961 441.101 179.894 441.338C179.271 443.437 179.917 445.84 181.62 447.769C183.323 449.699 185.623 450.624 187.77 450.258C189.917 449.892 191.779 448.242 192.74 445.856C193.701 443.47 193.519 440.985 192.237 439.202C190.954 437.418 188.655 436.486 186.1 436.673C183.545 436.859 181.408 438.13 180.398 440.07C180.283 440.296 180.109 440.483 179.894 440.612Z" fill="#479F76"/>
<path d="M407.408 425C406.034 425.003 404.684 424.667 403.478 424.02C400.581 422.476 398.787 419.449 399.02 416.48C399.164 414.642 400.224 411.272 405.688 409.339C409.302 408.069 413.265 410.557 415.022 413.698C416.502 416.366 416.689 420.249 412.809 423.145C411.265 424.327 409.368 424.98 407.408 425ZM407.665 411.612C407.305 411.608 406.945 411.667 406.605 411.785C403.604 412.846 401.844 414.58 401.681 416.683C401.527 418.609 402.794 420.683 404.754 421.731C406.811 422.828 409.158 422.584 411.195 421.078C414.195 418.841 413.412 416.284 412.679 414.959C411.575 412.941 409.472 411.608 407.665 411.608V411.612Z" fill="#479F76"/>
<path d="M82.6682 403C81.4398 402.997 80.2235 402.755 79.0841 402.293C75.1937 400.748 72.2873 396.869 72.0201 392.866C71.8702 390.607 72.4372 386.355 77.9469 383.248C82.9223 380.443 88.2594 382.738 90.9605 386.453C93.6161 390.106 94.1993 395.756 89.5171 400.139C87.4872 402.028 85.1087 403 82.6682 403ZM82.6128 384.603C81.417 384.613 80.2437 384.931 79.2079 385.53C75.1611 387.821 74.4736 390.682 74.6072 392.689C74.8124 395.723 77.0411 398.673 80.029 399.858C81.5864 400.479 84.6623 401.092 87.7283 398.221C91.4819 394.705 90.6608 390.515 88.8427 387.995C87.4709 386.109 85.1771 384.607 82.6128 384.607V384.603Z" fill="#479F76"/>
<path d="M250.916 455C248.434 455 245.92 454.917 243.57 454.694L243.316 454.674C242.47 454.607 240.897 454.48 240.354 453.008C239.874 451.7 240.683 450.517 240.966 450.128C243.3 446.761 247.098 445.265 251.12 443.68C255.069 442.128 259.143 440.52 261.934 436.993C265.637 432.31 266.387 427.381 264.047 423.115C261.655 418.752 256.399 416.121 251.268 416.744C247.243 417.224 244.179 418.876 242.642 421.407C242.112 422.266 241.779 423.232 241.671 424.238C241.565 425.243 241.687 426.262 242.026 427.212C242.135 427.541 242.108 427.901 241.96 428.214C241.809 428.524 241.546 428.763 241.223 428.883C240.901 429 240.545 428.987 240.236 428.843C239.923 428.7 239.676 428.44 239.551 428.117C239.074 426.789 238.905 425.37 239.051 423.964C239.199 422.559 239.663 421.207 240.404 420.008C242.378 416.781 246.12 414.679 250.958 414.11C257.212 413.364 263.409 416.468 266.351 421.833C269.198 427.028 268.326 433.156 263.988 438.668C260.759 442.754 256.145 444.569 252.074 446.175C248.434 447.607 244.998 448.962 243.122 451.67C243.053 451.766 242.987 451.869 242.931 451.973C243.119 452.003 243.359 452.019 243.53 452.033L243.816 452.059C250.85 452.725 259.496 452.123 264.024 451.706C264.311 451.68 264.492 451.596 264.564 451.456C264.709 451.173 264.65 450.514 264.186 449.678C264.1 449.525 264.047 449.358 264.028 449.185C264.008 449.009 264.021 448.832 264.067 448.662C264.113 448.496 264.192 448.336 264.301 448.199C264.409 448.063 264.541 447.946 264.692 447.86C264.844 447.776 265.012 447.72 265.183 447.7C265.354 447.68 265.528 447.693 265.696 447.74C265.864 447.79 266.019 447.87 266.154 447.976C266.292 448.086 266.404 448.219 266.489 448.373C267.361 449.945 267.516 451.52 266.904 452.702C266.644 453.185 266.266 453.595 265.805 453.884C265.344 454.177 264.814 454.344 264.271 454.367C261.138 454.637 256.093 455 250.916 455Z" fill="white"/>
<path d="M113.504 219C113.192 219 112.904 219 112.633 219C104.02 218.71 95.8954 214.415 93.4651 209.126C87.56 211.384 83.034 208.896 81.0791 205.176C80.1719 203.558 79.8589 201.682 80.192 199.864C74.1767 201.661 67.8133 202.026 61.6263 200.931C57.1205 200.118 53.7361 198.627 51.289 196.359C47.436 192.798 45.9798 186.887 47.7406 181.986C48.6712 179.535 50.2861 177.391 52.4004 175.803C54.5144 174.214 57.0415 173.244 59.6914 173.004C59.8672 172.991 60.0439 173.012 60.2113 173.066C60.379 173.12 60.534 173.207 60.6676 173.319C60.8011 173.433 60.9109 173.571 60.9903 173.725C61.07 173.88 61.1175 174.048 61.1309 174.222C61.1439 174.394 61.1225 174.568 61.0673 174.733C61.012 174.898 60.9247 175.05 60.8095 175.181C60.6947 175.313 60.5544 175.421 60.3971 175.499C60.2394 175.577 60.068 175.624 59.8923 175.637C57.7472 175.795 55.6954 176.564 53.9868 177.849C52.2786 179.134 50.9867 180.88 50.2694 182.874C49.552 184.867 49.4398 187.023 49.9466 189.079C50.4535 191.134 51.5572 193 53.1235 194.45C55.1856 196.356 58.1248 197.633 62.1117 198.35C69.1784 199.603 76.4631 198.802 83.0742 196.046C83.3936 195.894 83.7618 195.873 84.0972 195.987C84.433 196.102 84.7085 196.343 84.8635 196.657C85.0181 196.971 85.0399 197.333 84.9234 197.663C84.8069 197.993 84.5619 198.264 84.2425 198.416C82.3478 199.423 82.4248 202.037 83.4525 203.972C84.8585 206.605 88.3734 208.777 93.6626 206.167C93.8427 206.078 94.0409 206.031 94.2424 206.028C94.4442 206.025 94.6438 206.067 94.8265 206.15C95.0093 206.234 95.1707 206.357 95.2982 206.51C95.4258 206.663 95.5168 206.843 95.564 207.036C96.7357 211.818 104.602 216.09 112.737 216.364C117.591 216.528 129.368 215.33 134.048 200.707C134.153 200.379 134.384 200.105 134.691 199.943C134.999 199.781 135.359 199.743 135.695 199.838C137.5 200.387 139.412 200.512 141.276 200.204C143.139 199.895 144.904 199.161 146.427 198.061C151.271 194.713 153.825 188.766 154.026 185.804C154.1 184.718 154.739 184.349 155.111 184.224C156.235 183.849 156.985 184.691 158.224 186.087C160.704 188.875 163.607 191.731 166.71 190.365C172.441 187.805 174.038 184.586 173.04 177.618C173.011 177.445 173.017 177.267 173.059 177.097C173.1 176.926 173.176 176.765 173.282 176.623C173.388 176.481 173.521 176.362 173.675 176.272C173.828 176.182 173.998 176.123 174.175 176.099C174.352 176.074 174.532 176.085 174.705 176.13C174.878 176.175 175.039 176.254 175.181 176.361C175.322 176.469 175.44 176.603 175.528 176.756C175.615 176.909 175.671 177.078 175.691 177.253C176.659 184.017 175.691 189.243 167.818 192.762C162.767 195.019 158.656 190.583 156.369 188.019C155.365 192.1 152.302 197.234 147.967 200.233C146.291 201.43 144.379 202.268 142.352 202.691C140.326 203.113 138.232 203.113 136.207 202.688C130.991 217.121 119.231 219 113.504 219Z" fill="#198754"/>
<path d="M318.615 212.999C315.935 213.026 313.318 212.184 311.153 210.597C307.704 208.017 305.635 203.582 305.007 197.414C304.97 197.058 305.077 196.703 305.305 196.426C305.528 196.15 305.853 195.974 306.21 195.938C306.564 195.902 306.919 196.009 307.193 196.234C307.47 196.46 307.644 196.787 307.681 197.142C308.229 202.53 309.94 206.335 312.764 208.45C316.035 210.895 319.842 210.265 320.266 210.185C321.6 209.939 322.853 209.377 323.925 208.546C324.998 207.715 325.857 206.639 326.429 205.407C327.134 203.928 327.481 202.305 327.455 200.667C327.424 199.028 327.013 197.419 326.258 195.966C326.114 195.687 326.074 195.365 326.141 195.058C326.211 194.751 326.385 194.478 326.636 194.287C326.883 194.096 327.194 193.999 327.508 194.013C327.819 194.027 328.12 194.152 328.35 194.365C329.169 195.119 331.164 195.035 333.199 194.137C335.619 193.082 337.316 191.272 337.326 189.735C337.326 188.291 335.833 186.81 333.096 185.574C332.932 185.504 332.785 185.402 332.661 185.274C332.534 185.146 332.437 184.994 332.374 184.828C332.307 184.662 332.277 184.484 332.284 184.306C332.287 184.127 332.327 183.951 332.4 183.789C332.474 183.626 332.578 183.48 332.708 183.358C332.838 183.237 332.992 183.143 333.159 183.081C333.326 183.02 333.503 182.993 333.684 183.002C333.861 183.01 334.035 183.054 334.195 183.131C339.014 185.309 340.01 187.936 340 189.751C339.977 192.964 336.899 195.447 334.269 196.596C332.835 197.245 331.274 197.568 329.7 197.541C330.492 200.564 330.185 203.771 328.831 206.587C328.069 208.19 326.943 209.59 325.54 210.674C324.139 211.758 322.502 212.495 320.761 212.825C320.052 212.949 319.334 213.007 318.615 212.999Z" fill="#198754"/>
</svg>
