<svg width="600" height="540" viewBox="0 0 600 540" fill="none" xmlns="http://www.w3.org/2000/svg">
<g clip-path="url(#clip0_459_29749)">
<g clip-path="url(#clip1_459_29749)">
<g clip-path="url(#clip2_459_29749)">
<path d="M4.78906 24.7404C4.78906 25.9643 5.78121 26.9563 7.00503 26.9563H19.7589C20.9829 26.9563 21.9749 25.9642 21.9749 24.7404V11.9865C21.9749 10.7625 20.9827 9.77051 19.7589 9.77051H7.00509C5.78107 9.77051 4.78906 10.7627 4.78906 11.9865V24.7403V24.7404Z" fill="#BBD4F7"/>
</g>
<rect x="25.9746" y="15.8633" width="54" height="5" rx="2.5" fill="#BBD4F7"/>
<rect x="99.6074" y="11.8633" width="4" height="13" rx="2" fill="#BBD4F7"/>
</g>
<g clip-path="url(#clip3_459_29749)">
<rect x="4.78906" y="44.1602" width="7" height="7" rx="3.5" fill="#CED4DA"/>
<rect x="16.0859" y="44.1602" width="78" height="7" rx="3.5" fill="#CED4DA"/>
<rect x="4.78906" y="67.3086" width="7" height="7" rx="3.5" fill="#CED4DA"/>
<rect x="16.0859" y="67.3086" width="56" height="7" rx="3.5" fill="#CED4DA"/>
<rect x="4.78906" y="90.4565" width="7" height="7" rx="3.5" fill="#CED4DA"/>
<rect x="16.0859" y="90.4565" width="67" height="7" rx="3.5" fill="#CED4DA"/>
<rect x="4.78906" y="113.772" width="26" height="5" rx="2.5" fill="#DEE2E6"/>
<rect width="47.6327" height="2" transform="translate(39.3809 115.272)" fill="#DEE2E6"/>
<rect x="95.6074" y="112.272" width="8" height="8" rx="4" fill="#DEE2E6"/>
<rect x="5.86328" y="132.383" width="6.44468" height="6.44468" rx="3.22234" fill="#FFCD39"/>
<rect x="15.5293" y="132.605" width="50" height="6" rx="3" fill="#BBD4F7"/>
<rect x="76.6074" y="132.605" width="27" height="6" rx="3" fill="#BBD4F7"/>
<rect x="5.86328" y="149.569" width="6.44468" height="6.44468" rx="3.22234" fill="#479F76"/>
<rect x="15.5293" y="149.792" width="34" height="6" rx="3" fill="#DEE2E6"/>
<rect x="83.6074" y="149.792" width="20" height="6" rx="3" fill="#DEE2E6"/>
<rect x="5.86328" y="166.755" width="6.44468" height="6.44468" rx="3.22234" fill="#FD9843"/>
<rect x="15.5293" y="166.978" width="45" height="6" rx="3" fill="#DEE2E6"/>
<rect x="78.6074" y="166.978" width="25" height="6" rx="3" fill="#DEE2E6"/>
<rect x="9.35447" y="183.135" width="89.6885" height="15.4629" rx="1.8797" fill="white" fill-opacity="0.01"/>
<g opacity="0.3">
<rect x="25.1992" y="188.867" width="58" height="4" rx="2" fill="#609CEB"/>
</g>
<rect x="9.35447" y="183.135" width="89.6885" height="15.4629" rx="1.8797" stroke="#609CEB" stroke-width="0.537057"/>
<rect x="4.78906" y="211.404" width="26" height="5" rx="2.5" fill="#DEE2E6"/>
<rect width="47.6327" height="2" transform="translate(39.3809 212.904)" fill="#DEE2E6"/>
<rect x="95.6074" y="209.904" width="8" height="8" rx="4" fill="#DEE2E6"/>
<rect x="4.78906" y="232.72" width="7" height="7" rx="3.5" fill="#DEE2E6"/>
<rect x="16.0859" y="232.72" width="56" height="7" rx="3.5" fill="#DEE2E6"/>
<rect x="4.78906" y="256.035" width="26" height="5" rx="2.5" fill="#DEE2E6"/>
<rect width="47.6327" height="2" transform="translate(39.3809 257.535)" fill="#DEE2E6"/>
<rect x="95.6074" y="254.535" width="8" height="8" rx="4" fill="#DEE2E6"/>
<rect x="4.78906" y="277.35" width="7" height="7" rx="3.5" fill="#DEE2E6"/>
<rect x="16.0859" y="277.35" width="80" height="7" rx="3.5" fill="#DEE2E6"/>
<rect x="4.78906" y="300.499" width="7" height="7" rx="3.5" fill="#DEE2E6"/>
<rect x="16.0859" y="300.499" width="43" height="7" rx="3.5" fill="#DEE2E6"/>
</g>
<g clip-path="url(#clip4_459_29749)">
<rect x="502.49" y="9.86328" width="49.9463" height="17" rx="4.29646" fill="white"/>
<rect x="506.787" y="15.6782" width="41.3534" height="5.37057" rx="2.68529" fill="#DEE2E6"/>
<path d="M565.325 24.8083C566.214 24.8083 566.936 24.087 566.936 23.1971H563.713C563.713 24.087 564.435 24.8083 565.325 24.8083Z" fill="#ADB5BD"/>
<path d="M566.126 12.8043C566.129 12.7781 566.13 12.7515 566.13 12.7245C566.13 12.2796 565.77 11.9189 565.325 11.9189C564.88 11.9189 564.519 12.2796 564.519 12.7245C564.519 12.7515 564.52 12.7781 564.523 12.8043C562.682 13.176 561.297 14.8024 561.297 16.7525C561.297 17.6367 560.894 21.586 559.686 22.3916H570.964C569.755 21.586 569.353 17.6367 569.353 16.7525C569.353 14.8024 567.967 13.176 566.126 12.8043Z" fill="#ADB5BD"/>
<g clip-path="url(#clip5_459_29749)">
<rect x="563.176" y="9.77051" width="15.2965" height="8.59291" rx="2.14823" fill="#DC3545"/>
</g>
<rect x="578.215" y="9.77051" width="17.1858" height="17.1858" rx="8.59291" fill="#BBD4F7"/>
<rect x="118.761" y="8.83493" width="142.463" height="17.4629" rx="8.73147" fill="#F8F9FA"/>
<rect x="127.086" y="13.5664" width="8" height="8" rx="4" fill="#DEE2E6"/>
<rect x="139.381" y="13.5664" width="41" height="8" rx="4" fill="#DEE2E6"/>
<rect x="118.761" y="8.83493" width="142.463" height="17.4629" rx="8.73147" stroke="#E8F1FC" stroke-width="0.537057"/>
</g>
<g filter="url(#filter0_d_459_29749)">
<rect x="118.492" y="37.1602" width="481" height="512.352" rx="8.59291" fill="#F8F9FA" shape-rendering="crispEdges"/>
<rect x="133.529" y="53.3916" width="8.59291" height="8.59291" rx="4.29646" fill="#FFCD39"/>
<rect x="146.418" y="53.6602" width="46.724" height="7.5188" rx="3.7594" fill="#DEE2E6"/>
<rect x="266.784" y="50.1699" width="42.9646" height="14.5005" rx="1.8797" fill="white" fill-opacity="0.01"/>
<rect x="271.35" y="55.2725" width="33.8346" height="4.29646" rx="2.14823" fill="#BBD4F7"/>
<rect x="266.784" y="50.1699" width="42.9646" height="14.5005" rx="1.8797" stroke="#BBD4F7" stroke-width="0.537057"/>
<rect x="314.583" y="50.1694" width="42.9646" height="14.5011" rx="1.8797" fill="white" fill-opacity="0.01"/>
<g clip-path="url(#clip6_459_29749)">
<rect width="33.8346" height="9.66756" transform="translate(319.148 52.5859)" fill="white" fill-opacity="0.01"/>
<rect x="319.148" y="55.2715" width="33.8346" height="4.29646" rx="2.14823" fill="#BBD4F7"/>
</g>
<rect x="314.583" y="50.1694" width="42.9646" height="14.5011" rx="1.8797" stroke="#BBD4F7" stroke-width="0.537057"/>
<rect x="362.38" y="50.1699" width="42.9646" height="14.5005" rx="1.8797" fill="white" fill-opacity="0.01"/>
<g clip-path="url(#clip7_459_29749)">
<rect width="33.8346" height="9.66703" transform="translate(366.945 52.5864)" fill="white" fill-opacity="0.01"/>
<rect x="366.945" y="55.2725" width="33.8346" height="4.29646" rx="2.14823" fill="#BBD4F7"/>
</g>
<rect x="362.38" y="50.1699" width="42.9646" height="14.5005" rx="1.8797" stroke="#BBD4F7" stroke-width="0.537057"/>
<path d="M135.677 74.6056C136.271 74.6056 136.751 74.1247 136.751 73.5315C136.751 72.9383 136.271 72.4574 135.677 72.4574C135.084 72.4574 134.603 72.9383 134.603 73.5315C134.603 74.1247 135.084 74.6056 135.677 74.6056Z" fill="#DEE2E6"/>
<path d="M131.381 71.3832C131.381 71.0866 131.621 70.8462 131.918 70.8462H139.437C139.733 70.8462 139.974 71.0866 139.974 71.3832V75.6797C139.974 75.9763 139.733 76.2168 139.437 76.2168H131.918C131.621 76.2168 131.381 75.9763 131.381 75.6797V71.3832ZM132.992 71.3832C132.992 71.9765 132.511 72.4574 131.918 72.4574V74.6056C132.511 74.6056 132.992 75.0865 132.992 75.6797H138.363C138.363 75.0865 138.843 74.6056 139.437 74.6056V72.4574C138.843 72.4574 138.363 71.9765 138.363 71.3832H132.992Z" fill="#DEE2E6"/>
<rect x="144.27" y="71.3833" width="26.3158" height="4.29646" rx="2.14823" fill="#DEE2E6"/>
<path d="M183.476 71.1151C183.476 70.9667 183.356 70.8465 183.208 70.8465C183.059 70.8465 182.939 70.9667 182.939 71.1151V74.0689C182.939 74.1652 182.991 74.2542 183.074 74.302L184.954 75.3761C185.083 75.4497 185.247 75.405 185.32 75.2762C185.394 75.1474 185.349 74.9834 185.221 74.9098L183.476 73.913V71.1151Z" fill="#DEE2E6"/>
<path d="M183.476 77.8283C185.849 77.8283 187.773 75.9047 187.773 73.5318C187.773 71.1589 185.849 69.2354 183.476 69.2354C181.103 69.2354 179.18 71.1589 179.18 73.5318C179.18 75.9047 181.103 77.8283 183.476 77.8283ZM187.236 73.5318C187.236 75.6081 185.552 77.2912 183.476 77.2912C181.4 77.2912 179.717 75.6081 179.717 73.5318C179.717 71.4555 181.4 69.7724 183.476 69.7724C185.552 69.7724 187.236 71.4555 187.236 73.5318Z" fill="#DEE2E6"/>
<rect x="189.92" y="71.3838" width="26.3158" height="4.29646" rx="2.14823" fill="#DEE2E6"/>
<rect x="418.504" y="50.0493" width="4.29646" height="4.29646" rx="1.07411" fill="#2C7BE5"/>
<rect x="424.949" y="50.0493" width="26.3158" height="4.29646" rx="2.14823" fill="#E9ECEF"/>
<rect x="418.504" y="58.6421" width="41.3534" height="5.37057" rx="2.68529" fill="#DEE2E6"/>
<rect x="418.504" y="68.0127" width="27.927" height="9.66703" rx="2.14823" fill="#2C7BE5" fill-opacity="0.15"/>
<rect x="422.801" y="71.2349" width="19.3341" height="3.22234" rx="1.61117" fill="#2C7BE5"/>
<rect x="468.449" y="50.0493" width="0.537057" height="27.6305" rx="0.268528" fill="#E9ECEF"/>
<rect x="477.58" y="50.0498" width="4.29646" height="4.29646" rx="1.07411" fill="#DC3545"/>
<rect x="484.025" y="50.0498" width="26.3158" height="4.29646" rx="2.14823" fill="#E9ECEF"/>
<rect x="477.58" y="58.6426" width="41.3534" height="5.37057" rx="2.68529" fill="#DEE2E6"/>
<rect x="477.58" y="68.0132" width="27.927" height="9.66703" rx="2.14823" fill="#DC3545" fill-opacity="0.15"/>
<rect x="481.877" y="71.2354" width="19.3341" height="3.22234" rx="1.61117" fill="#DC3545"/>
<rect x="527.525" y="50.0493" width="0.537057" height="27.6305" rx="0.268528" fill="#E9ECEF"/>
<rect x="536.656" y="50.0493" width="4.29646" height="4.29646" rx="1.07411" fill="#198754"/>
<rect x="543.102" y="50.0493" width="26.3158" height="4.29646" rx="2.14823" fill="#E9ECEF"/>
<rect x="536.656" y="58.6421" width="41.3534" height="5.37057" rx="2.68529" fill="#DEE2E6"/>
<rect x="536.656" y="68.0127" width="27.927" height="9.66703" rx="2.14823" fill="#198754" fill-opacity="0.15"/>
<rect x="540.953" y="71.2349" width="19.3341" height="3.22234" rx="1.61117" fill="#198754"/>
<g filter="url(#filter1_d_459_29749)">
<g clip-path="url(#clip8_459_29749)">
<g filter="url(#filter2_iii_459_29749)">
<path d="M131.381 92.7176C131.381 91.5311 132.343 90.5693 133.529 90.5693H209.791C210.978 90.5693 211.939 91.5311 211.939 92.7176V109.903H131.381V92.7176Z" fill="white"/>
<rect x="139.975" y="97.5508" width="63.3727" height="5.37057" rx="2.68529" fill="#DEE2E6"/>
</g>
<rect x="224.83" y="97.5508" width="63.3727" height="5.37057" rx="2.68529" fill="#DEE2E6"/>
<g opacity="0.3">
<g clip-path="url(#clip9_459_29749)">
<rect x="292.498" y="97.5513" width="20.9452" height="8.59291" rx="2.14823" fill="#0D6EFD"/>
</g>
</g>
<path d="M216.505 92.7176C216.505 91.6794 217.346 90.8379 218.385 90.8379H304.314C305.352 90.8379 306.193 91.6794 306.193 92.7176V109.635H216.505V92.7176Z" stroke="#E9ECEF" stroke-width="0.537057"/>
</g>
</g>
<path d="M599.492 109.366H118.492V110.441H599.492V109.366Z" fill="#E9ECEF" mask="url(#path-43-inside-1_459_29749)"/>
<mask id="path-81-inside-2_459_29749" fill="white">
<path d="M118.492 109.903H599.492V132.496H118.492V109.903Z"/>
</mask>
<path d="M118.492 109.903H599.492V132.496H118.492V109.903Z" fill="white"/>
<rect x="122.789" y="114.2" width="53.9635" height="14" rx="2.14823" fill="white" fill-opacity="0.01"/>
<rect x="127.623" y="118.2" width="34" height="6" rx="3" fill="#BBD4F7"/>
<rect x="165.92" y="118.2" width="6" height="6" rx="3" fill="#BBD4F7"/>
<rect x="123.058" y="114.468" width="53.4264" height="13.4629" rx="1.8797" stroke="white" stroke-opacity="0.01" stroke-width="0.537057"/>
<rect x="178.9" y="114.2" width="0.537057" height="14" rx="0.268528" fill="#E9ECEF"/>
<rect x="181.586" y="114.2" width="53.9635" height="14" rx="2.14823" fill="white" fill-opacity="0.01"/>
<rect x="186.42" y="118.2" width="34" height="6" rx="3" fill="#BBD4F7"/>
<rect x="224.717" y="118.2" width="6" height="6" rx="3" fill="#BBD4F7"/>
<rect x="181.854" y="114.468" width="53.4264" height="13.4629" rx="1.8797" stroke="white" stroke-opacity="0.01" stroke-width="0.537057"/>
<rect x="237.697" y="114.2" width="0.537057" height="14" rx="0.268528" fill="#E9ECEF"/>
<g opacity="0.65">
<g clip-path="url(#clip10_459_29749)">
<rect x="240.383" y="117.663" width="43.667" height="7.07411" rx="2.14823" fill="white" fill-opacity="0.01"/>
<rect x="245.217" y="118.2" width="34" height="6" rx="3" fill="#DEE2E6"/>
</g>
<rect x="240.651" y="117.931" width="43.13" height="6.53706" rx="1.8797" stroke="white" stroke-opacity="0.01" stroke-width="0.537057"/>
</g>
<g opacity="0.65">
<g clip-path="url(#clip11_459_29749)">
<rect x="286.199" y="117.663" width="43.667" height="7.07411" rx="2.14823" fill="white" fill-opacity="0.01"/>
<rect x="291.033" y="118.2" width="34" height="6" rx="3" fill="#DEE2E6"/>
</g>
<rect x="286.468" y="117.931" width="43.13" height="6.53706" rx="1.8797" stroke="white" stroke-opacity="0.01" stroke-width="0.537057"/>
</g>
<rect x="442.084" y="114.2" width="53.9635" height="14" rx="2.14823" fill="white" fill-opacity="0.01"/>
<rect x="446.918" y="118.2" width="6" height="6" rx="3" fill="#BBD4F7"/>
<rect x="457.215" y="118.2" width="34" height="6" rx="3" fill="#BBD4F7"/>
<rect x="442.353" y="114.468" width="53.4264" height="13.4629" rx="1.8797" stroke="white" stroke-opacity="0.01" stroke-width="0.537057"/>
<rect x="498.464" y="114.468" width="96.4629" height="13.4629" rx="6.73147" fill="#F8F9FA"/>
<rect x="506.789" y="118.7" width="5" height="5" rx="2.5" fill="#DEE2E6"/>
<rect x="516.084" y="118.2" width="30" height="6" rx="3" fill="#DEE2E6"/>
<rect x="498.464" y="114.468" width="96.4629" height="13.4629" rx="6.73147" stroke="#E8F1FC" stroke-width="0.537057"/>
<path d="M599.492 131.959H118.492V133.033H599.492V131.959Z" fill="#E9ECEF" mask="url(#path-81-inside-2_459_29749)"/>
<g clip-path="url(#clip12_459_29749)">
<rect width="17.1858" height="17.19" transform="translate(118.492 132.496)" fill="white"/>
<rect x="122.836" y="136.841" width="8.5" height="8.5" rx="1.75" fill="white" stroke="#CED4DA" stroke-width="0.5"/>
<rect width="17.1858" height="17.19" transform="translate(118.492 149.686)" fill="white"/>
<rect x="122.836" y="154.031" width="8.5" height="8.5" rx="1.75" fill="white" stroke="#CED4DA" stroke-width="0.5"/>
<rect width="17.1858" height="17.19" transform="translate(118.492 166.876)" fill="#E8F1FC"/>
<rect x="122.836" y="171.221" width="8.5" height="8.5" rx="1.75" fill="white" stroke="#CED4DA" stroke-width="0.5"/>
<path d="M126.179 177.292C126.218 177.331 126.282 177.331 126.321 177.292L129.321 174.292C129.36 174.253 129.36 174.189 129.321 174.15L128.968 173.798C128.929 173.759 128.866 173.759 128.827 173.798L126.25 176.372L125.298 175.423C125.259 175.384 125.196 175.384 125.157 175.423L124.804 175.775C124.765 175.814 124.765 175.878 124.804 175.917L126.179 177.292Z" fill="#2C7BE5" stroke="#2C7BE5" stroke-width="0.2" stroke-linejoin="round"/>
<rect width="17.1858" height="17.19" transform="translate(118.492 184.066)" fill="white"/>
<rect x="122.836" y="188.411" width="8.5" height="8.5" rx="1.75" fill="white" stroke="#CED4DA" stroke-width="0.5"/>
<rect width="17.1858" height="17.19" transform="translate(118.492 201.256)" fill="white"/>
<rect x="122.836" y="205.601" width="8.5" height="8.5" rx="1.75" fill="white" stroke="#CED4DA" stroke-width="0.5"/>
<rect width="17.1858" height="17.19" transform="translate(118.492 218.446)" fill="white"/>
<rect x="122.836" y="222.792" width="8.5" height="8.5" rx="1.75" fill="white" stroke="#CED4DA" stroke-width="0.5"/>
<rect width="17.1858" height="17.19" transform="translate(118.492 235.636)" fill="white"/>
<rect x="122.836" y="239.981" width="8.5" height="8.5" rx="1.75" fill="white" stroke="#CED4DA" stroke-width="0.5"/>
<rect width="17.1858" height="17.19" transform="translate(118.492 252.826)" fill="white"/>
<rect x="122.836" y="257.171" width="8.5" height="8.5" rx="1.75" fill="white" stroke="#CED4DA" stroke-width="0.5"/>
<rect width="17.1858" height="17.19" transform="translate(118.492 270.016)" fill="white"/>
<rect x="122.836" y="274.361" width="8.5" height="8.5" rx="1.75" fill="white" stroke="#CED4DA" stroke-width="0.5"/>
<rect width="17.1858" height="17.19" transform="translate(118.492 287.206)" fill="#E8F1FC"/>
<rect x="122.836" y="291.551" width="8.5" height="8.5" rx="1.75" fill="white" stroke="#CED4DA" stroke-width="0.5"/>
<path d="M126.179 297.622C126.218 297.661 126.282 297.661 126.321 297.622L129.321 294.622C129.36 294.583 129.36 294.52 129.321 294.481L128.968 294.128C128.929 294.089 128.866 294.089 128.827 294.128L126.25 296.702L125.298 295.753C125.259 295.714 125.196 295.714 125.157 295.753L124.804 296.106C124.765 296.145 124.765 296.208 124.804 296.247L126.179 297.622Z" fill="#2C7BE5" stroke="#2C7BE5" stroke-width="0.2" stroke-linejoin="round"/>
<rect width="17.1858" height="17.19" transform="translate(118.492 304.396)" fill="white"/>
<rect x="122.836" y="308.741" width="8.5" height="8.5" rx="1.75" fill="white" stroke="#CED4DA" stroke-width="0.5"/>
<rect width="17.1858" height="17.19" transform="translate(118.492 321.586)" fill="white"/>
<rect x="122.836" y="325.931" width="8.5" height="8.5" rx="1.75" fill="white" stroke="#CED4DA" stroke-width="0.5"/>
<rect width="17.1858" height="17.19" transform="translate(118.492 338.776)" fill="white"/>
<rect x="122.836" y="343.121" width="8.5" height="8.5" rx="1.75" fill="white" stroke="#CED4DA" stroke-width="0.5"/>
<rect width="17.1858" height="17.19" transform="translate(118.492 355.966)" fill="white"/>
<rect x="122.836" y="360.312" width="8.5" height="8.5" rx="1.75" fill="white" stroke="#CED4DA" stroke-width="0.5"/>
<rect width="17.1858" height="17.19" transform="translate(118.492 373.156)" fill="white"/>
<rect x="122.836" y="377.501" width="8.5" height="8.5" rx="1.75" fill="white" stroke="#CED4DA" stroke-width="0.5"/>
<rect width="17.1858" height="17.19" transform="translate(118.492 390.346)" fill="white"/>
<rect x="122.836" y="394.691" width="8.5" height="8.5" rx="1.75" fill="white" stroke="#CED4DA" stroke-width="0.5"/>
<rect width="17.1858" height="17.19" transform="translate(118.492 407.536)" fill="white"/>
<rect x="122.836" y="411.881" width="8.5" height="8.5" rx="1.75" fill="white" stroke="#CED4DA" stroke-width="0.5"/>
<rect width="17.1858" height="17.19" transform="translate(118.492 424.726)" fill="white"/>
<rect x="122.836" y="429.071" width="8.5" height="8.5" rx="1.75" fill="white" stroke="#CED4DA" stroke-width="0.5"/>
<rect width="17.1858" height="17.19" transform="translate(118.492 441.916)" fill="white"/>
<rect x="122.836" y="446.261" width="8.5" height="8.5" rx="1.75" fill="white" stroke="#CED4DA" stroke-width="0.5"/>
<rect width="17.1858" height="17.19" transform="translate(118.492 459.106)" fill="white"/>
<rect x="122.836" y="463.451" width="8.5" height="8.5" rx="1.75" fill="white" stroke="#CED4DA" stroke-width="0.5"/>
<rect width="17.1858" height="17.19" transform="translate(118.492 476.296)" fill="white"/>
<rect x="122.836" y="480.641" width="8.5" height="8.5" rx="1.75" fill="white" stroke="#CED4DA" stroke-width="0.5"/>
<rect width="17.1858" height="17.19" transform="translate(118.492 493.486)" fill="white"/>
<rect x="122.836" y="497.832" width="8.5" height="8.5" rx="1.75" fill="white" stroke="#CED4DA" stroke-width="0.5"/>
<rect width="17.1858" height="17.19" transform="translate(118.492 510.676)" fill="white"/>
<rect x="122.836" y="515.021" width="8.5" height="8.5" rx="1.75" fill="white" stroke="#CED4DA" stroke-width="0.5"/>
<rect width="17.1858" height="17.19" transform="translate(118.492 527.866)" fill="white"/>
<rect x="122.836" y="532.211" width="8.5" height="8.5" rx="1.75" fill="white" stroke="#CED4DA" stroke-width="0.5"/>
<rect x="135.678" y="132.496" width="0.537057" height="481.32" rx="0.268528" fill="#E9ECEF"/>
<rect width="17.1858" height="17.1858" transform="translate(136.215 132.496)" fill="white"/>
<rect x="140.512" y="136.792" width="8.59291" height="8.59291" rx="4.29646" fill="#E9ECEF"/>
<rect width="17.1858" height="17.1858" transform="translate(136.215 149.682)" fill="#F8F9FA"/>
<rect x="140.512" y="153.979" width="8.59291" height="8.59291" rx="4.29646" fill="#D9E6F7"/>
<rect width="17.1858" height="17.1858" transform="translate(136.215 166.868)" fill="#E8F1FC"/>
<rect x="140.512" y="171.164" width="8.59291" height="8.59291" rx="4.29646" fill="#BBD4F7"/>
<rect width="17.1858" height="17.1858" transform="translate(136.215 184.054)" fill="white"/>
<rect x="140.512" y="188.35" width="8.59291" height="8.59291" rx="4.29646" fill="#E9ECEF"/>
<rect width="17.1858" height="17.1858" transform="translate(136.215 201.239)" fill="#F8F9FA"/>
<rect x="140.512" y="205.536" width="8.59291" height="8.59291" rx="4.29646" fill="#D9E6F7"/>
<rect width="17.1858" height="17.1858" transform="translate(136.215 218.425)" fill="white"/>
<rect x="140.512" y="222.722" width="8.59291" height="8.59291" rx="4.29646" fill="#E9ECEF"/>
<rect width="17.1858" height="17.1858" transform="translate(136.215 235.611)" fill="#F8F9FA"/>
<rect x="140.512" y="239.907" width="8.59291" height="8.59291" rx="4.29646" fill="#D9E6F7"/>
<rect width="17.1858" height="17.1858" transform="translate(136.215 252.797)" fill="white"/>
<rect x="140.512" y="257.093" width="8.59291" height="8.59291" rx="4.29646" fill="#E9ECEF"/>
<rect width="17.1858" height="17.1858" transform="translate(136.215 269.983)" fill="#F8F9FA"/>
<rect x="140.512" y="274.279" width="8.59291" height="8.59291" rx="4.29646" fill="#D9E6F7"/>
<rect width="17.1858" height="17.1858" transform="translate(136.215 287.168)" fill="#E8F1FC"/>
<rect x="140.512" y="291.465" width="8.59291" height="8.59291" rx="4.29646" fill="#BBD4F7"/>
<rect width="17.1858" height="17.1858" transform="translate(136.215 304.354)" fill="white"/>
<rect x="140.512" y="308.651" width="8.59291" height="8.59291" rx="4.29646" fill="#E9ECEF"/>
<rect width="17.1858" height="17.1858" transform="translate(136.215 321.54)" fill="#F8F9FA"/>
<rect x="140.512" y="325.836" width="8.59291" height="8.59291" rx="4.29646" fill="#D9E6F7"/>
<rect width="17.1858" height="17.1858" transform="translate(136.215 338.726)" fill="white"/>
<rect x="140.512" y="343.022" width="8.59291" height="8.59291" rx="4.29646" fill="#E9ECEF"/>
<rect width="17.1858" height="17.1858" transform="translate(136.215 355.912)" fill="#F8F9FA"/>
<rect x="140.512" y="360.208" width="8.59291" height="8.59291" rx="4.29646" fill="#D9E6F7"/>
<rect width="17.1858" height="17.1858" transform="translate(136.215 373.098)" fill="white"/>
<rect x="140.512" y="377.394" width="8.59291" height="8.59291" rx="4.29646" fill="#E9ECEF"/>
<rect width="17.1858" height="17.1858" transform="translate(136.215 390.283)" fill="#F8F9FA"/>
<rect x="140.512" y="394.58" width="8.59291" height="8.59291" rx="4.29646" fill="#D9E6F7"/>
<rect width="17.1858" height="17.1858" transform="translate(136.215 407.469)" fill="white"/>
<rect x="140.512" y="411.766" width="8.59291" height="8.59291" rx="4.29646" fill="#E9ECEF"/>
<rect width="17.1858" height="17.1858" transform="translate(136.215 424.655)" fill="#F8F9FA"/>
<rect x="140.512" y="428.952" width="8.59291" height="8.59291" rx="4.29646" fill="#D9E6F7"/>
<rect width="17.1858" height="17.1858" transform="translate(136.215 441.841)" fill="white"/>
<rect x="140.512" y="446.137" width="8.59291" height="8.59291" rx="4.29646" fill="#E9ECEF"/>
<rect width="17.1858" height="17.1858" transform="translate(136.215 459.027)" fill="#F8F9FA"/>
<rect x="140.512" y="463.323" width="8.59291" height="8.59291" rx="4.29646" fill="#D9E6F7"/>
<rect width="17.1858" height="17.1858" transform="translate(136.215 476.212)" fill="white"/>
<rect x="140.512" y="480.509" width="8.59291" height="8.59291" rx="4.29646" fill="#E9ECEF"/>
<rect width="17.1858" height="17.1858" transform="translate(136.215 493.398)" fill="#F8F9FA"/>
<rect x="140.512" y="497.695" width="8.59291" height="8.59291" rx="4.29646" fill="#D9E6F7"/>
<rect width="17.1858" height="17.1858" transform="translate(136.215 510.584)" fill="white"/>
<rect x="140.512" y="514.88" width="8.59291" height="8.59291" rx="4.29646" fill="#E9ECEF"/>
<rect width="17.1858" height="17.1858" transform="translate(136.215 527.77)" fill="#F8F9FA"/>
<rect x="140.512" y="532.066" width="8.59291" height="8.59291" rx="4.29646" fill="#D9E6F7"/>
<rect x="153.4" y="132.496" width="0.537057" height="481.32" rx="0.268528" fill="#E9ECEF"/>
<g filter="url(#filter3_d_459_29749)">
<rect width="69.9248" height="17.1858" transform="translate(153.938 132.496)" fill="white"/>
<rect x="158.234" y="138.941" width="25.7787" height="4.29646" rx="2.14823" fill="#DEE2E6"/>
<path fill-rule="evenodd" clip-rule="evenodd" d="M212.048 139.478C212.16 139.478 212.25 139.568 212.25 139.679V142.013L213.114 141.148C213.193 141.07 213.321 141.07 213.399 141.148C213.478 141.227 213.478 141.354 213.399 141.433L212.191 142.641C212.112 142.72 211.985 142.72 211.906 142.641L210.698 141.433C210.619 141.354 210.619 141.227 210.698 141.148C210.776 141.07 210.904 141.07 210.982 141.148L211.847 142.013V139.679C211.847 139.568 211.937 139.478 212.048 139.478Z" fill="#CED4DA"/>
</g>
<rect width="69.9248" height="17.1858" transform="translate(153.938 149.682)" fill="#F8F9FA"/>
<rect x="158.234" y="156.127" width="39.7422" height="4.29646" rx="2.14823" fill="#E9ECEF"/>
<rect width="69.9248" height="17.1858" transform="translate(153.938 166.868)" fill="#E8F1FC"/>
<rect x="158.234" y="173.312" width="39.7422" height="4.29646" rx="2.14823" fill="#BBD4F7"/>
<rect width="69.9248" height="17.1858" transform="translate(153.938 184.054)" fill="#F8F9FA"/>
<rect x="158.234" y="190.498" width="39.7422" height="4.29646" rx="2.14823" fill="#E9ECEF"/>
<rect width="69.9248" height="17.1858" transform="translate(153.938 201.239)" fill="white"/>
<rect x="158.234" y="207.684" width="39.7422" height="4.29646" rx="2.14823" fill="#E9ECEF"/>
<rect width="69.9248" height="17.1858" transform="translate(153.938 218.425)" fill="#F8F9FA"/>
<rect x="158.234" y="224.87" width="39.7422" height="4.29646" rx="2.14823" fill="#E9ECEF"/>
<rect width="69.9248" height="17.1858" transform="translate(153.938 235.611)" fill="white"/>
<rect x="158.234" y="242.055" width="39.7422" height="4.29646" rx="2.14823" fill="#E9ECEF"/>
<rect width="69.9248" height="17.1858" transform="translate(153.938 252.797)" fill="#F8F9FA"/>
<rect x="158.234" y="259.241" width="39.7422" height="4.29646" rx="2.14823" fill="#E9ECEF"/>
<rect width="69.9248" height="17.1858" transform="translate(153.938 269.983)" fill="white"/>
<rect x="158.234" y="276.427" width="39.7422" height="4.29646" rx="2.14823" fill="#E9ECEF"/>
<rect width="69.9248" height="17.1858" transform="translate(153.938 287.168)" fill="#E8F1FC"/>
<rect x="158.234" y="293.613" width="39.7422" height="4.29646" rx="2.14823" fill="#BBD4F7"/>
<rect width="69.9248" height="17.1858" transform="translate(153.938 304.354)" fill="#F8F9FA"/>
<rect x="158.234" y="310.799" width="39.7422" height="4.29646" rx="2.14823" fill="#E9ECEF"/>
<rect width="69.9248" height="17.1858" transform="translate(153.938 321.54)" fill="white"/>
<rect x="158.234" y="327.985" width="39.7422" height="4.29646" rx="2.14823" fill="#E9ECEF"/>
<rect width="69.9248" height="17.1858" transform="translate(153.938 338.726)" fill="#F8F9FA"/>
<rect x="158.234" y="345.171" width="39.7422" height="4.29646" rx="2.14823" fill="#E9ECEF"/>
<rect width="69.9248" height="17.1858" transform="translate(153.938 355.912)" fill="white"/>
<rect x="158.234" y="362.356" width="39.7422" height="4.29646" rx="2.14823" fill="#E9ECEF"/>
<rect width="69.9248" height="17.1858" transform="translate(153.938 373.098)" fill="#F8F9FA"/>
<rect x="158.234" y="379.542" width="39.7422" height="4.29646" rx="2.14823" fill="#E9ECEF"/>
<rect width="69.9248" height="17.1858" transform="translate(153.938 390.283)" fill="white"/>
<rect x="158.234" y="396.728" width="39.7422" height="4.29646" rx="2.14823" fill="#E9ECEF"/>
<rect width="69.9248" height="17.1858" transform="translate(153.938 407.469)" fill="#F8F9FA"/>
<rect x="158.234" y="413.914" width="39.7422" height="4.29646" rx="2.14823" fill="#E9ECEF"/>
<rect width="69.9248" height="17.1858" transform="translate(153.938 424.655)" fill="white"/>
<rect x="158.234" y="431.1" width="39.7422" height="4.29646" rx="2.14823" fill="#E9ECEF"/>
<rect width="69.9248" height="17.1858" transform="translate(153.938 441.841)" fill="#F8F9FA"/>
<rect x="158.234" y="448.286" width="39.7422" height="4.29646" rx="2.14823" fill="#E9ECEF"/>
<rect width="69.9248" height="17.1858" transform="translate(153.938 459.027)" fill="white"/>
<rect x="158.234" y="465.471" width="39.7422" height="4.29646" rx="2.14823" fill="#E9ECEF"/>
<rect width="69.9248" height="17.1858" transform="translate(153.938 476.212)" fill="#F8F9FA"/>
<rect x="158.234" y="482.657" width="39.7422" height="4.29646" rx="2.14823" fill="#E9ECEF"/>
<rect width="69.9248" height="17.1858" transform="translate(153.938 493.398)" fill="white"/>
<rect x="158.234" y="499.843" width="39.7422" height="4.29646" rx="2.14823" fill="#E9ECEF"/>
<rect width="69.9248" height="17.1858" transform="translate(153.938 510.584)" fill="#F8F9FA"/>
<rect x="158.234" y="517.028" width="39.7422" height="4.29646" rx="2.14823" fill="#E9ECEF"/>
<rect width="69.9248" height="17.1858" transform="translate(153.938 527.77)" fill="white"/>
<rect x="158.234" y="534.215" width="39.7422" height="4.29646" rx="2.14823" fill="#E9ECEF"/>
<rect x="223.863" y="132.496" width="0.537057" height="481.32" rx="0.268528" fill="#E9ECEF"/>
<g filter="url(#filter4_d_459_29749)">
<rect width="69.9248" height="17.1858" transform="translate(224.4 132.496)" fill="white"/>
<rect x="228.699" y="138.941" width="25.7787" height="4.29646" rx="2.14823" fill="#DEE2E6"/>
<path fill-rule="evenodd" clip-rule="evenodd" d="M282.513 139.478C282.625 139.478 282.715 139.568 282.715 139.679V142.013L283.579 141.148C283.658 141.07 283.785 141.07 283.864 141.148C283.943 141.227 283.943 141.354 283.864 141.433L282.656 142.641C282.577 142.72 282.45 142.72 282.371 142.641L281.163 141.433C281.084 141.354 281.084 141.227 281.163 141.148C281.241 141.07 281.369 141.07 281.447 141.148L282.312 142.013V139.679C282.312 139.568 282.402 139.478 282.513 139.478Z" fill="#CED4DA"/>
</g>
<rect width="69.9248" height="17.1858" transform="translate(224.4 149.682)" fill="#F8F9FA"/>
<rect x="228.699" y="156.127" width="39.7422" height="4.29646" rx="2.14823" fill="#E9ECEF"/>
<rect width="69.9248" height="17.1858" transform="translate(224.4 166.868)" fill="#E8F1FC"/>
<rect x="228.699" y="173.312" width="39.7422" height="4.29646" rx="2.14823" fill="#BBD4F7"/>
<rect width="69.9248" height="17.1858" transform="translate(224.4 184.054)" fill="#F8F9FA"/>
<rect x="228.699" y="190.498" width="39.7422" height="4.29646" rx="2.14823" fill="#E9ECEF"/>
<rect width="69.9248" height="17.1858" transform="translate(224.4 201.239)" fill="white"/>
<rect x="228.699" y="207.684" width="39.7422" height="4.29646" rx="2.14823" fill="#E9ECEF"/>
<rect width="69.9248" height="17.1858" transform="translate(224.4 218.425)" fill="#F8F9FA"/>
<rect x="228.699" y="224.87" width="39.7422" height="4.29646" rx="2.14823" fill="#E9ECEF"/>
<rect width="69.9248" height="17.1858" transform="translate(224.4 235.611)" fill="white"/>
<rect x="228.699" y="242.055" width="39.7422" height="4.29646" rx="2.14823" fill="#E9ECEF"/>
<rect width="69.9248" height="17.1858" transform="translate(224.4 252.797)" fill="#F8F9FA"/>
<rect x="228.699" y="259.241" width="39.7422" height="4.29646" rx="2.14823" fill="#E9ECEF"/>
<rect width="69.9248" height="17.1858" transform="translate(224.4 269.983)" fill="white"/>
<rect x="228.699" y="276.427" width="39.7422" height="4.29646" rx="2.14823" fill="#E9ECEF"/>
<rect width="69.9248" height="17.1858" transform="translate(224.4 287.168)" fill="#E8F1FC"/>
<rect x="228.699" y="293.613" width="39.7422" height="4.29646" rx="2.14823" fill="#BBD4F7"/>
<rect width="69.9248" height="17.1858" transform="translate(224.4 304.354)" fill="#F8F9FA"/>
<rect x="228.699" y="310.799" width="39.7422" height="4.29646" rx="2.14823" fill="#E9ECEF"/>
<rect width="69.9248" height="17.1858" transform="translate(224.4 321.54)" fill="white"/>
<rect x="228.699" y="327.985" width="39.7422" height="4.29646" rx="2.14823" fill="#E9ECEF"/>
<rect width="69.9248" height="17.1858" transform="translate(224.4 338.726)" fill="#F8F9FA"/>
<rect x="228.699" y="345.171" width="39.7422" height="4.29646" rx="2.14823" fill="#E9ECEF"/>
<rect width="69.9248" height="17.1858" transform="translate(224.4 355.912)" fill="white"/>
<rect x="228.699" y="362.356" width="39.7422" height="4.29646" rx="2.14823" fill="#E9ECEF"/>
<rect width="69.9248" height="17.1858" transform="translate(224.4 373.098)" fill="#F8F9FA"/>
<rect x="228.699" y="379.542" width="39.7422" height="4.29646" rx="2.14823" fill="#E9ECEF"/>
<rect width="69.9248" height="17.1858" transform="translate(224.4 390.283)" fill="white"/>
<rect x="228.699" y="396.728" width="39.7422" height="4.29646" rx="2.14823" fill="#E9ECEF"/>
<rect width="69.9248" height="17.1858" transform="translate(224.4 407.469)" fill="#F8F9FA"/>
<rect x="228.699" y="413.914" width="39.7422" height="4.29646" rx="2.14823" fill="#E9ECEF"/>
<rect width="69.9248" height="17.1858" transform="translate(224.4 424.655)" fill="white"/>
<rect x="228.699" y="431.1" width="39.7422" height="4.29646" rx="2.14823" fill="#E9ECEF"/>
<rect width="69.9248" height="17.1858" transform="translate(224.4 441.841)" fill="#F8F9FA"/>
<rect x="228.699" y="448.286" width="39.7422" height="4.29646" rx="2.14823" fill="#E9ECEF"/>
<rect width="69.9248" height="17.1858" transform="translate(224.4 459.027)" fill="white"/>
<rect x="228.699" y="465.471" width="39.7422" height="4.29646" rx="2.14823" fill="#E9ECEF"/>
<rect width="69.9248" height="17.1858" transform="translate(224.4 476.212)" fill="#F8F9FA"/>
<rect x="228.699" y="482.657" width="39.7422" height="4.29646" rx="2.14823" fill="#E9ECEF"/>
<rect width="69.9248" height="17.1858" transform="translate(224.4 493.398)" fill="white"/>
<rect x="228.699" y="499.843" width="39.7422" height="4.29646" rx="2.14823" fill="#E9ECEF"/>
<rect width="69.9248" height="17.1858" transform="translate(224.4 510.584)" fill="#F8F9FA"/>
<rect x="228.699" y="517.028" width="39.7422" height="4.29646" rx="2.14823" fill="#E9ECEF"/>
<rect width="69.9248" height="17.1858" transform="translate(224.4 527.77)" fill="white"/>
<rect x="228.699" y="534.215" width="39.7422" height="4.29646" rx="2.14823" fill="#E9ECEF"/>
<rect x="294.324" y="132.496" width="0.537057" height="481.32" rx="0.268528" fill="#E9ECEF"/>
<g filter="url(#filter5_d_459_29749)">
<rect width="69.9248" height="17.1858" transform="translate(294.861 132.496)" fill="white"/>
<rect x="298.943" y="138.941" width="25.7787" height="4.29646" rx="2.14823" fill="#DEE2E6"/>
</g>
<rect width="69.9248" height="17.1858" transform="translate(294.861 149.682)" fill="#F8F9FA"/>
<rect x="299.158" y="156.127" width="39.7422" height="4.29646" rx="2.14823" fill="#E9ECEF"/>
<rect width="69.9248" height="17.1858" transform="translate(294.861 166.868)" fill="#E8F1FC"/>
<rect x="299.158" y="173.312" width="39.7422" height="4.29646" rx="2.14823" fill="#BBD4F7"/>
<rect width="69.9248" height="17.1858" transform="translate(294.861 184.054)" fill="#F8F9FA"/>
<rect x="299.158" y="190.498" width="39.7422" height="4.29646" rx="2.14823" fill="#E9ECEF"/>
<rect width="69.9248" height="17.1858" transform="translate(294.861 201.239)" fill="white"/>
<rect x="299.158" y="207.684" width="39.7422" height="4.29646" rx="2.14823" fill="#E9ECEF"/>
<rect width="69.9248" height="17.1858" transform="translate(294.861 218.425)" fill="#F8F9FA"/>
<rect x="299.158" y="224.87" width="39.7422" height="4.29646" rx="2.14823" fill="#E9ECEF"/>
<rect width="69.9248" height="17.1858" transform="translate(294.861 235.611)" fill="white"/>
<rect x="299.158" y="242.055" width="39.7422" height="4.29646" rx="2.14823" fill="#E9ECEF"/>
<rect width="69.9248" height="17.1858" transform="translate(294.861 252.797)" fill="#F8F9FA"/>
<rect x="299.158" y="259.241" width="39.7422" height="4.29646" rx="2.14823" fill="#E9ECEF"/>
<rect width="69.9248" height="17.1858" transform="translate(294.861 269.983)" fill="white"/>
<rect x="299.158" y="276.427" width="39.7422" height="4.29646" rx="2.14823" fill="#E9ECEF"/>
<rect width="69.9248" height="17.1858" transform="translate(294.861 287.168)" fill="#E8F1FC"/>
<rect x="299.158" y="293.613" width="39.7422" height="4.29646" rx="2.14823" fill="#BBD4F7"/>
<rect width="69.9248" height="17.1858" transform="translate(294.861 304.354)" fill="#F8F9FA"/>
<rect x="299.158" y="310.799" width="39.7422" height="4.29646" rx="2.14823" fill="#E9ECEF"/>
<rect width="69.9248" height="17.1858" transform="translate(294.861 321.54)" fill="white"/>
<rect x="299.158" y="327.985" width="39.7422" height="4.29646" rx="2.14823" fill="#E9ECEF"/>
<rect width="69.9248" height="17.1858" transform="translate(294.861 338.726)" fill="#F8F9FA"/>
<rect x="299.158" y="345.171" width="39.7422" height="4.29646" rx="2.14823" fill="#E9ECEF"/>
<rect width="69.9248" height="17.1858" transform="translate(294.861 355.912)" fill="white"/>
<rect x="299.158" y="362.356" width="39.7422" height="4.29646" rx="2.14823" fill="#E9ECEF"/>
<rect width="69.9248" height="17.1858" transform="translate(294.861 373.098)" fill="#F8F9FA"/>
<rect x="299.158" y="379.542" width="39.7422" height="4.29646" rx="2.14823" fill="#E9ECEF"/>
<rect width="69.9248" height="17.1858" transform="translate(294.861 390.283)" fill="white"/>
<rect x="299.158" y="396.728" width="39.7422" height="4.29646" rx="2.14823" fill="#E9ECEF"/>
<rect width="69.9248" height="17.1858" transform="translate(294.861 407.469)" fill="#F8F9FA"/>
<rect x="299.158" y="413.914" width="39.7422" height="4.29646" rx="2.14823" fill="#E9ECEF"/>
<rect width="69.9248" height="17.1858" transform="translate(294.861 424.655)" fill="white"/>
<rect x="299.158" y="431.1" width="39.7422" height="4.29646" rx="2.14823" fill="#E9ECEF"/>
<rect width="69.9248" height="17.1858" transform="translate(294.861 441.841)" fill="#F8F9FA"/>
<rect x="299.158" y="448.286" width="39.7422" height="4.29646" rx="2.14823" fill="#E9ECEF"/>
<rect width="69.9248" height="17.1858" transform="translate(294.861 459.027)" fill="white"/>
<rect x="299.158" y="465.471" width="39.7422" height="4.29646" rx="2.14823" fill="#E9ECEF"/>
<rect width="69.9248" height="17.1858" transform="translate(294.861 476.212)" fill="#F8F9FA"/>
<rect x="299.158" y="482.657" width="39.7422" height="4.29646" rx="2.14823" fill="#E9ECEF"/>
<rect width="69.9248" height="17.1858" transform="translate(294.861 493.398)" fill="white"/>
<rect x="299.158" y="499.843" width="39.7422" height="4.29646" rx="2.14823" fill="#E9ECEF"/>
<rect width="69.9248" height="17.1858" transform="translate(294.861 510.584)" fill="#F8F9FA"/>
<rect x="299.158" y="517.028" width="39.7422" height="4.29646" rx="2.14823" fill="#E9ECEF"/>
<rect width="69.9248" height="17.1858" transform="translate(294.861 527.77)" fill="white"/>
<rect x="299.158" y="534.215" width="39.7422" height="4.29646" rx="2.14823" fill="#E9ECEF"/>
<rect x="364.787" y="132.496" width="0.537057" height="481.32" rx="0.268528" fill="#E9ECEF"/>
<g filter="url(#filter6_d_459_29749)">
<rect width="72.5027" height="17.1858" transform="translate(365.324 132.496)" fill="white"/>
<rect x="369.621" y="138.941" width="25.7787" height="4.29646" rx="2.14823" fill="#DEE2E6"/>
</g>
<rect width="72.5027" height="17.1858" transform="translate(365.324 149.682)" fill="#F8F9FA"/>
<rect x="369.621" y="156.127" width="39.7422" height="4.29646" rx="2.14823" fill="#E9ECEF"/>
<rect width="72.5027" height="17.1858" transform="translate(365.324 166.868)" fill="#E8F1FC"/>
<rect x="369.621" y="173.312" width="39.7422" height="4.29646" rx="2.14823" fill="#BBD4F7"/>
<rect width="72.5027" height="17.1858" transform="translate(365.324 184.054)" fill="#F8F9FA"/>
<rect x="369.621" y="190.498" width="39.7422" height="4.29646" rx="2.14823" fill="#E9ECEF"/>
<rect width="72.5027" height="17.1858" transform="translate(365.324 201.239)" fill="white"/>
<rect x="369.621" y="207.684" width="39.7422" height="4.29646" rx="2.14823" fill="#E9ECEF"/>
<rect width="72.5027" height="17.1858" transform="translate(365.324 218.425)" fill="#F8F9FA"/>
<rect x="369.621" y="224.87" width="39.7422" height="4.29646" rx="2.14823" fill="#E9ECEF"/>
<rect width="72.5027" height="17.1858" transform="translate(365.324 235.611)" fill="white"/>
<rect x="369.621" y="242.055" width="39.7422" height="4.29646" rx="2.14823" fill="#E9ECEF"/>
<rect width="72.5027" height="17.1858" transform="translate(365.324 252.797)" fill="#F8F9FA"/>
<rect x="369.621" y="259.241" width="39.7422" height="4.29646" rx="2.14823" fill="#E9ECEF"/>
<rect width="72.5027" height="17.1858" transform="translate(365.324 269.983)" fill="white"/>
<rect x="369.621" y="276.427" width="39.7422" height="4.29646" rx="2.14823" fill="#E9ECEF"/>
<rect width="72.5027" height="17.1858" transform="translate(365.324 287.168)" fill="#E8F1FC"/>
<rect x="369.621" y="293.613" width="39.7422" height="4.29646" rx="2.14823" fill="#BBD4F7"/>
<rect width="72.5027" height="17.1858" transform="translate(365.324 304.354)" fill="#F8F9FA"/>
<rect x="369.621" y="310.799" width="39.7422" height="4.29646" rx="2.14823" fill="#E9ECEF"/>
<rect width="72.5027" height="17.1858" transform="translate(365.324 321.54)" fill="white"/>
<rect x="369.621" y="327.985" width="39.7422" height="4.29646" rx="2.14823" fill="#E9ECEF"/>
<rect width="72.5027" height="17.1858" transform="translate(365.324 338.726)" fill="#F8F9FA"/>
<rect x="369.621" y="345.171" width="39.7422" height="4.29646" rx="2.14823" fill="#E9ECEF"/>
<rect width="72.5027" height="17.1858" transform="translate(365.324 355.912)" fill="white"/>
<rect x="369.621" y="362.356" width="39.7422" height="4.29646" rx="2.14823" fill="#E9ECEF"/>
<rect width="72.5027" height="17.1858" transform="translate(365.324 373.098)" fill="#F8F9FA"/>
<rect x="369.621" y="379.542" width="39.7422" height="4.29646" rx="2.14823" fill="#E9ECEF"/>
<rect width="72.5027" height="17.1858" transform="translate(365.324 390.283)" fill="white"/>
<rect x="369.621" y="396.728" width="39.7422" height="4.29646" rx="2.14823" fill="#E9ECEF"/>
<rect width="72.5027" height="17.1858" transform="translate(365.324 407.469)" fill="#F8F9FA"/>
<rect x="369.621" y="413.914" width="39.7422" height="4.29646" rx="2.14823" fill="#E9ECEF"/>
<rect width="72.5027" height="17.1858" transform="translate(365.324 424.655)" fill="white"/>
<rect x="369.621" y="431.1" width="39.7422" height="4.29646" rx="2.14823" fill="#E9ECEF"/>
<rect width="72.5027" height="17.1858" transform="translate(365.324 441.841)" fill="#F8F9FA"/>
<rect x="369.621" y="448.286" width="39.7422" height="4.29646" rx="2.14823" fill="#E9ECEF"/>
<rect width="72.5027" height="17.1858" transform="translate(365.324 459.027)" fill="white"/>
<rect x="369.621" y="465.471" width="39.7422" height="4.29646" rx="2.14823" fill="#E9ECEF"/>
<rect width="72.5027" height="17.1858" transform="translate(365.324 476.212)" fill="#F8F9FA"/>
<rect x="369.621" y="482.657" width="39.7422" height="4.29646" rx="2.14823" fill="#E9ECEF"/>
<rect width="72.5027" height="17.1858" transform="translate(365.324 493.398)" fill="white"/>
<rect x="369.621" y="499.843" width="39.7422" height="4.29646" rx="2.14823" fill="#E9ECEF"/>
<rect width="72.5027" height="17.1858" transform="translate(365.324 510.584)" fill="#F8F9FA"/>
<rect x="369.621" y="517.028" width="39.7422" height="4.29646" rx="2.14823" fill="#E9ECEF"/>
<rect width="72.5027" height="17.1858" transform="translate(365.324 527.77)" fill="white"/>
<rect x="369.621" y="534.215" width="39.7422" height="4.29646" rx="2.14823" fill="#E9ECEF"/>
<rect x="437.826" y="132.496" width="0.537057" height="481.32" rx="0.268528" fill="#E9ECEF"/>
<g filter="url(#filter7_d_459_29749)">
<rect width="69.9248" height="17.1858" transform="translate(438.363 132.496)" fill="white"/>
<rect x="442.66" y="138.941" width="25.7787" height="4.29646" rx="2.14823" fill="#DEE2E6"/>
<path fill-rule="evenodd" clip-rule="evenodd" d="M496.474 139.478C496.585 139.478 496.676 139.568 496.676 139.679V142.013L497.54 141.148C497.619 141.07 497.746 141.07 497.825 141.148C497.904 141.227 497.904 141.354 497.825 141.433L496.617 142.641C496.538 142.72 496.41 142.72 496.332 142.641L495.123 141.433C495.045 141.354 495.045 141.227 495.123 141.148C495.202 141.07 495.33 141.07 495.408 141.148L496.273 142.013V139.679C496.273 139.568 496.363 139.478 496.474 139.478Z" fill="#CED4DA"/>
</g>
<rect width="69.9248" height="17.1858" transform="translate(438.363 149.682)" fill="#F8F9FA"/>
<rect width="69.9248" height="17.1858" transform="translate(438.363 166.868)" fill="#E8F1FC"/>
<rect x="442.66" y="173.312" width="39.7422" height="4.29646" rx="2.14823" fill="#F4DCDF"/>
<rect width="69.9248" height="17.1858" transform="translate(438.363 184.054)" fill="#F8F9FA"/>
<rect width="69.9248" height="17.1858" transform="translate(438.363 201.239)" fill="white"/>
<rect x="442.66" y="207.684" width="39.7422" height="4.29646" rx="2.14823" fill="#F4DCDF"/>
<rect width="69.9248" height="17.1858" transform="translate(438.363 218.425)" fill="#F8F9FA"/>
<rect width="69.9248" height="17.1858" transform="translate(438.363 235.611)" fill="white"/>
<rect x="442.66" y="242.055" width="39.7422" height="4.29646" rx="2.14823" fill="#F4DCDF"/>
<rect width="69.9248" height="17.1858" transform="translate(438.363 252.797)" fill="#F8F9FA"/>
<rect width="69.9248" height="17.1858" transform="translate(438.363 269.983)" fill="white"/>
<rect x="442.66" y="276.427" width="39.7422" height="4.29646" rx="2.14823" fill="#F4DCDF"/>
<rect width="69.9248" height="17.1858" transform="translate(438.363 287.168)" fill="#E8F1FC"/>
<rect width="69.9248" height="17.1858" transform="translate(438.363 304.354)" fill="#F8F9FA"/>
<rect width="69.9248" height="17.1858" transform="translate(438.363 321.54)" fill="white"/>
<rect x="442.66" y="327.985" width="39.7422" height="4.29646" rx="2.14823" fill="#F4DCDF"/>
<rect width="69.9248" height="17.1858" transform="translate(438.363 338.726)" fill="#F8F9FA"/>
<rect width="69.9248" height="17.1858" transform="translate(438.363 355.912)" fill="white"/>
<rect x="442.66" y="362.356" width="39.7422" height="4.29646" rx="2.14823" fill="#F4DCDF"/>
<rect width="69.9248" height="17.1858" transform="translate(438.363 373.098)" fill="#F8F9FA"/>
<rect width="69.9248" height="17.1858" transform="translate(438.363 390.283)" fill="white"/>
<rect x="442.66" y="396.728" width="39.7422" height="4.29646" rx="2.14823" fill="#F4DCDF"/>
<rect width="69.9248" height="17.1858" transform="translate(438.363 407.469)" fill="#F8F9FA"/>
<rect width="69.9248" height="17.1858" transform="translate(438.363 424.655)" fill="white"/>
<rect x="442.66" y="431.1" width="39.7422" height="4.29646" rx="2.14823" fill="#F4DCDF"/>
<rect width="69.9248" height="17.1858" transform="translate(438.363 441.841)" fill="#F8F9FA"/>
<rect width="69.9248" height="17.1858" transform="translate(438.363 459.027)" fill="white"/>
<rect x="442.66" y="465.471" width="39.7422" height="4.29646" rx="2.14823" fill="#F4DCDF"/>
<rect width="69.9248" height="17.1858" transform="translate(438.363 476.212)" fill="#F8F9FA"/>
<rect width="69.9248" height="17.1858" transform="translate(438.363 493.398)" fill="white"/>
<rect x="442.66" y="499.843" width="39.7422" height="4.29646" rx="2.14823" fill="#F4DCDF"/>
<rect width="69.9248" height="17.1858" transform="translate(438.363 510.584)" fill="#F8F9FA"/>
<rect width="69.9248" height="17.1858" transform="translate(438.363 527.77)" fill="white"/>
<rect x="442.66" y="534.215" width="39.7422" height="4.29646" rx="2.14823" fill="#F4DCDF"/>
<rect x="508.289" y="132.496" width="0.537057" height="481.32" rx="0.268528" fill="#E9ECEF"/>
<g filter="url(#filter8_d_459_29749)">
<rect width="69.9248" height="17.1858" transform="translate(508.824 132.496)" fill="white"/>
<rect x="513.121" y="138.941" width="25.7787" height="4.29646" rx="2.14823" fill="#DEE2E6"/>
<path fill-rule="evenodd" clip-rule="evenodd" d="M566.937 139.478C567.048 139.478 567.139 139.568 567.139 139.679V142.013L568.003 141.148C568.082 141.07 568.209 141.07 568.288 141.148C568.367 141.227 568.367 141.354 568.288 141.433L567.08 142.641C567.001 142.72 566.873 142.72 566.795 142.641L565.586 141.433C565.508 141.354 565.508 141.227 565.586 141.148C565.665 141.07 565.792 141.07 565.871 141.148L566.736 142.013V139.679C566.736 139.568 566.826 139.478 566.937 139.478Z" fill="#CED4DA"/>
</g>
<rect width="69.9248" height="17.1858" transform="translate(508.824 149.682)" fill="#F8F9FA"/>
<rect x="513.121" y="156.127" width="39.7422" height="4.29646" rx="2.14823" fill="#D7E8E1"/>
<rect width="69.9248" height="17.1858" transform="translate(508.824 166.868)" fill="#E8F1FC"/>
<rect width="69.9248" height="17.1858" transform="translate(508.824 184.054)" fill="#F8F9FA"/>
<rect x="513.121" y="190.498" width="39.7422" height="4.29646" rx="2.14823" fill="#D7E8E1"/>
<rect width="69.9248" height="17.1858" transform="translate(508.824 201.239)" fill="white"/>
<rect width="69.9248" height="17.1858" transform="translate(508.824 218.425)" fill="#F8F9FA"/>
<rect x="513.121" y="224.87" width="39.7422" height="4.29646" rx="2.14823" fill="#D7E8E1"/>
<rect width="69.9248" height="17.1858" transform="translate(508.824 235.611)" fill="white"/>
<rect width="69.9248" height="17.1858" transform="translate(508.824 252.797)" fill="#F8F9FA"/>
<rect x="513.121" y="259.241" width="39.7422" height="4.29646" rx="2.14823" fill="#D7E8E1"/>
<rect width="69.9248" height="17.1858" transform="translate(508.824 269.983)" fill="white"/>
<rect width="69.9248" height="17.1858" transform="translate(508.824 287.168)" fill="#E8F1FC"/>
<rect x="513.121" y="293.613" width="39.7422" height="4.29646" rx="2.14823" fill="#D7E8E1"/>
<rect width="69.9248" height="17.1858" transform="translate(508.824 304.354)" fill="#F8F9FA"/>
<rect x="513.121" y="310.799" width="39.7422" height="4.29646" rx="2.14823" fill="#D7E8E1"/>
<rect width="69.9248" height="17.1858" transform="translate(508.824 321.54)" fill="white"/>
<rect width="69.9248" height="17.1858" transform="translate(508.824 338.726)" fill="#F8F9FA"/>
<rect x="513.121" y="345.171" width="39.7422" height="4.29646" rx="2.14823" fill="#D7E8E1"/>
<rect width="69.9248" height="17.1858" transform="translate(508.824 355.912)" fill="white"/>
<rect width="69.9248" height="17.1858" transform="translate(508.824 373.098)" fill="#F8F9FA"/>
<rect x="513.121" y="379.542" width="39.7422" height="4.29646" rx="2.14823" fill="#D7E8E1"/>
<rect width="69.9248" height="17.1858" transform="translate(508.824 390.283)" fill="white"/>
<rect width="69.9248" height="17.1858" transform="translate(508.824 407.469)" fill="#F8F9FA"/>
<rect x="513.121" y="413.914" width="39.7422" height="4.29646" rx="2.14823" fill="#D7E8E1"/>
<rect width="69.9248" height="17.1858" transform="translate(508.824 424.655)" fill="white"/>
<rect width="69.9248" height="17.1858" transform="translate(508.824 441.841)" fill="#F8F9FA"/>
<rect x="513.121" y="448.286" width="39.7422" height="4.29646" rx="2.14823" fill="#D7E8E1"/>
<rect width="69.9248" height="17.1858" transform="translate(508.824 459.027)" fill="white"/>
<rect width="69.9248" height="17.1858" transform="translate(508.824 476.212)" fill="#F8F9FA"/>
<rect x="513.121" y="482.657" width="39.7422" height="4.29646" rx="2.14823" fill="#D7E8E1"/>
<rect width="69.9248" height="17.1858" transform="translate(508.824 493.398)" fill="white"/>
<rect width="69.9248" height="17.1858" transform="translate(508.824 510.584)" fill="#F8F9FA"/>
<rect x="513.121" y="517.028" width="39.7422" height="4.29646" rx="2.14823" fill="#D7E8E1"/>
<rect width="69.9248" height="17.1858" transform="translate(508.824 527.77)" fill="white"/>
<rect x="578.75" y="132.496" width="0.537057" height="481.32" rx="0.268528" fill="#E9ECEF"/>
<rect width="17.1858" height="17.1858" transform="translate(579.287 132.496)" fill="white"/>
<rect x="583.584" y="136.792" width="8.59291" height="8.59291" rx="4.29646" fill="#E9ECEF"/>
<rect width="17.1858" height="17.1858" transform="translate(579.287 149.682)" fill="#F8F9FA"/>
<rect x="583.584" y="153.979" width="8.59291" height="8.59291" rx="4.29646" fill="#D9E6F7"/>
<rect width="17.1858" height="17.1858" transform="translate(579.287 166.868)" fill="#E8F1FC"/>
<rect x="583.584" y="171.164" width="8.59291" height="8.59291" rx="4.29646" fill="#BBD4F7"/>
<rect width="17.1858" height="17.1858" transform="translate(579.287 184.054)" fill="#F8F9FA"/>
<rect x="583.584" y="188.35" width="8.59291" height="8.59291" rx="4.29646" fill="#D9E6F7"/>
<rect width="17.1858" height="17.1858" transform="translate(579.287 201.239)" fill="white"/>
<rect x="583.584" y="205.536" width="8.59291" height="8.59291" rx="4.29646" fill="#E9ECEF"/>
<rect width="17.1858" height="17.1858" transform="translate(579.287 218.425)" fill="#F8F9FA"/>
<rect x="583.584" y="222.722" width="8.59291" height="8.59291" rx="4.29646" fill="#D9E6F7"/>
<rect width="17.1858" height="17.1858" transform="translate(579.287 235.611)" fill="white"/>
<rect x="583.584" y="239.907" width="8.59291" height="8.59291" rx="4.29646" fill="#E9ECEF"/>
<rect width="17.1858" height="17.1858" transform="translate(579.287 252.797)" fill="#F8F9FA"/>
<rect x="583.584" y="257.094" width="8.59291" height="8.59291" rx="4.29646" fill="#D9E6F7"/>
<rect width="17.1858" height="17.1858" transform="translate(579.287 269.983)" fill="white"/>
<rect x="583.584" y="274.279" width="8.59291" height="8.59291" rx="4.29646" fill="#E9ECEF"/>
<rect width="17.1858" height="17.1858" transform="translate(579.287 287.168)" fill="#E8F1FC"/>
<rect x="583.584" y="291.465" width="8.59291" height="8.59291" rx="4.29646" fill="#BBD4F7"/>
<rect width="17.1858" height="17.1858" transform="translate(579.287 304.354)" fill="white"/>
<rect x="583.584" y="308.651" width="8.59291" height="8.59291" rx="4.29646" fill="#E9ECEF"/>
<rect width="17.1858" height="17.1858" transform="translate(579.287 321.54)" fill="#F8F9FA"/>
<rect x="583.584" y="325.836" width="8.59291" height="8.59291" rx="4.29646" fill="#D9E6F7"/>
<rect width="17.1858" height="17.1858" transform="translate(579.287 338.726)" fill="white"/>
<rect x="583.584" y="343.022" width="8.59291" height="8.59291" rx="4.29646" fill="#E9ECEF"/>
<rect width="17.1858" height="17.1858" transform="translate(579.287 355.912)" fill="#F8F9FA"/>
<rect x="583.584" y="360.208" width="8.59291" height="8.59291" rx="4.29646" fill="#D9E6F7"/>
<rect width="17.1858" height="17.1858" transform="translate(579.287 373.098)" fill="white"/>
<rect x="583.584" y="377.394" width="8.59291" height="8.59291" rx="4.29646" fill="#E9ECEF"/>
<rect width="17.1858" height="17.1858" transform="translate(579.287 390.283)" fill="#F8F9FA"/>
<rect x="583.584" y="394.58" width="8.59291" height="8.59291" rx="4.29646" fill="#D9E6F7"/>
<rect width="17.1858" height="17.1858" transform="translate(579.287 407.469)" fill="white"/>
<rect x="583.584" y="411.766" width="8.59291" height="8.59291" rx="4.29646" fill="#E9ECEF"/>
<rect width="17.1858" height="17.1858" transform="translate(579.287 424.655)" fill="#F8F9FA"/>
<rect x="583.584" y="428.952" width="8.59291" height="8.59291" rx="4.29646" fill="#D9E6F7"/>
<rect width="17.1858" height="17.1858" transform="translate(579.287 441.841)" fill="white"/>
<rect x="583.584" y="446.137" width="8.59291" height="8.59291" rx="4.29646" fill="#E9ECEF"/>
<rect width="17.1858" height="17.1858" transform="translate(579.287 459.027)" fill="#F8F9FA"/>
<rect x="583.584" y="463.324" width="8.59291" height="8.59291" rx="4.29646" fill="#D9E6F7"/>
<rect width="17.1858" height="17.1858" transform="translate(579.287 476.212)" fill="white"/>
<rect x="583.584" y="480.509" width="8.59291" height="8.59291" rx="4.29646" fill="#E9ECEF"/>
<rect width="17.1858" height="17.1858" transform="translate(579.287 493.398)" fill="#F8F9FA"/>
<rect x="583.584" y="497.695" width="8.59291" height="8.59291" rx="4.29646" fill="#D9E6F7"/>
<rect width="17.1858" height="17.1858" transform="translate(579.287 510.584)" fill="white"/>
<rect x="583.584" y="514.88" width="8.59291" height="8.59291" rx="4.29646" fill="#E9ECEF"/>
<rect width="17.1858" height="17.1858" transform="translate(579.287 527.77)" fill="#F8F9FA"/>
<rect x="583.584" y="532.066" width="8.59291" height="8.59291" rx="4.29646" fill="#D9E6F7"/>
</g>
</g>
</g>
<defs>
<filter id="filter0_d_459_29749" x="116.344" y="36.086" width="485.296" height="580.953" filterUnits="userSpaceOnUse" color-interpolation-filters="sRGB">
<feFlood flood-opacity="0" result="BackgroundImageFix"/>
<feColorMatrix in="SourceAlpha" type="matrix" values="0 0 0 0 0 0 0 0 0 0 0 0 0 0 0 0 0 0 127 0" result="hardAlpha"/>
<feOffset dy="1.07411"/>
<feGaussianBlur stdDeviation="1.07411"/>
<feComposite in2="hardAlpha" operator="out"/>
<feColorMatrix type="matrix" values="0 0 0 0 0.254902 0 0 0 0 0.270588 0 0 0 0 0.345098 0 0 0 0.1 0"/>
<feBlend mode="normal" in2="BackgroundImageFix" result="effect1_dropShadow_459_29749"/>
<feBlend mode="normal" in="SourceGraphic" in2="effect1_dropShadow_459_29749" result="shape"/>
</filter>
<filter id="filter1_d_459_29749" x="131.381" y="90.5693" width="230.396" height="19.871" filterUnits="userSpaceOnUse" color-interpolation-filters="sRGB">
<feFlood flood-opacity="0" result="BackgroundImageFix"/>
<feColorMatrix in="SourceAlpha" type="matrix" values="0 0 0 0 0 0 0 0 0 0 0 0 0 0 0 0 0 0 127 0" result="hardAlpha"/>
<feOffset dy="0.537057"/>
<feComposite in2="hardAlpha" operator="out"/>
<feColorMatrix type="matrix" values="0 0 0 0 0 0 0 0 0 0 0 0 0 0 0 0 0 0 0.16 0"/>
<feBlend mode="normal" in2="BackgroundImageFix" result="effect1_dropShadow_459_29749"/>
<feBlend mode="normal" in="SourceGraphic" in2="effect1_dropShadow_459_29749" result="shape"/>
</filter>
<filter id="filter2_iii_459_29749" x="131.381" y="90.5693" width="80.5586" height="19.334" filterUnits="userSpaceOnUse" color-interpolation-filters="sRGB">
<feFlood flood-opacity="0" result="BackgroundImageFix"/>
<feBlend mode="normal" in="SourceGraphic" in2="BackgroundImageFix" result="shape"/>
<feColorMatrix in="SourceAlpha" type="matrix" values="0 0 0 0 0 0 0 0 0 0 0 0 0 0 0 0 0 0 127 0" result="hardAlpha"/>
<feOffset dy="0.537057"/>
<feComposite in2="hardAlpha" operator="arithmetic" k2="-1" k3="1"/>
<feColorMatrix type="matrix" values="0 0 0 0 0.878431 0 0 0 0 0.886275 0 0 0 0 0.901961 0 0 0 1 0"/>
<feBlend mode="normal" in2="shape" result="effect1_innerShadow_459_29749"/>
<feColorMatrix in="SourceAlpha" type="matrix" values="0 0 0 0 0 0 0 0 0 0 0 0 0 0 0 0 0 0 127 0" result="hardAlpha"/>
<feOffset dx="-0.537057"/>
<feComposite in2="hardAlpha" operator="arithmetic" k2="-1" k3="1"/>
<feColorMatrix type="matrix" values="0 0 0 0 0.87451 0 0 0 0 0.882353 0 0 0 0 0.901961 0 0 0 1 0"/>
<feBlend mode="normal" in2="effect1_innerShadow_459_29749" result="effect2_innerShadow_459_29749"/>
<feColorMatrix in="SourceAlpha" type="matrix" values="0 0 0 0 0 0 0 0 0 0 0 0 0 0 0 0 0 0 127 0" result="hardAlpha"/>
<feOffset dx="0.537057"/>
<feComposite in2="hardAlpha" operator="arithmetic" k2="-1" k3="1"/>
<feColorMatrix type="matrix" values="0 0 0 0 0.87451 0 0 0 0 0.882353 0 0 0 0 0.901961 0 0 0 1 0"/>
<feBlend mode="normal" in2="effect2_innerShadow_459_29749" result="effect3_innerShadow_459_29749"/>
</filter>
<filter id="filter3_d_459_29749" x="153.938" y="132.496" width="69.9258" height="17.7231" filterUnits="userSpaceOnUse" color-interpolation-filters="sRGB">
<feFlood flood-opacity="0" result="BackgroundImageFix"/>
<feColorMatrix in="SourceAlpha" type="matrix" values="0 0 0 0 0 0 0 0 0 0 0 0 0 0 0 0 0 0 127 0" result="hardAlpha"/>
<feOffset dy="0.537057"/>
<feComposite in2="hardAlpha" operator="out"/>
<feColorMatrix type="matrix" values="0 0 0 0 0 0 0 0 0 0 0 0 0 0 0 0 0 0 0.1 0"/>
<feBlend mode="normal" in2="BackgroundImageFix" result="effect1_dropShadow_459_29749"/>
<feBlend mode="normal" in="SourceGraphic" in2="effect1_dropShadow_459_29749" result="shape"/>
</filter>
<filter id="filter4_d_459_29749" x="224.4" y="132.496" width="69.9258" height="17.7231" filterUnits="userSpaceOnUse" color-interpolation-filters="sRGB">
<feFlood flood-opacity="0" result="BackgroundImageFix"/>
<feColorMatrix in="SourceAlpha" type="matrix" values="0 0 0 0 0 0 0 0 0 0 0 0 0 0 0 0 0 0 127 0" result="hardAlpha"/>
<feOffset dy="0.537057"/>
<feComposite in2="hardAlpha" operator="out"/>
<feColorMatrix type="matrix" values="0 0 0 0 0 0 0 0 0 0 0 0 0 0 0 0 0 0 0.1 0"/>
<feBlend mode="normal" in2="BackgroundImageFix" result="effect1_dropShadow_459_29749"/>
<feBlend mode="normal" in="SourceGraphic" in2="effect1_dropShadow_459_29749" result="shape"/>
</filter>
<filter id="filter5_d_459_29749" x="294.861" y="132.496" width="69.9258" height="17.7231" filterUnits="userSpaceOnUse" color-interpolation-filters="sRGB">
<feFlood flood-opacity="0" result="BackgroundImageFix"/>
<feColorMatrix in="SourceAlpha" type="matrix" values="0 0 0 0 0 0 0 0 0 0 0 0 0 0 0 0 0 0 127 0" result="hardAlpha"/>
<feOffset dy="0.537057"/>
<feComposite in2="hardAlpha" operator="out"/>
<feColorMatrix type="matrix" values="0 0 0 0 0 0 0 0 0 0 0 0 0 0 0 0 0 0 0.1 0"/>
<feBlend mode="normal" in2="BackgroundImageFix" result="effect1_dropShadow_459_29749"/>
<feBlend mode="normal" in="SourceGraphic" in2="effect1_dropShadow_459_29749" result="shape"/>
</filter>
<filter id="filter6_d_459_29749" x="365.324" y="132.496" width="72.502" height="17.7231" filterUnits="userSpaceOnUse" color-interpolation-filters="sRGB">
<feFlood flood-opacity="0" result="BackgroundImageFix"/>
<feColorMatrix in="SourceAlpha" type="matrix" values="0 0 0 0 0 0 0 0 0 0 0 0 0 0 0 0 0 0 127 0" result="hardAlpha"/>
<feOffset dy="0.537057"/>
<feComposite in2="hardAlpha" operator="out"/>
<feColorMatrix type="matrix" values="0 0 0 0 0 0 0 0 0 0 0 0 0 0 0 0 0 0 0.1 0"/>
<feBlend mode="normal" in2="BackgroundImageFix" result="effect1_dropShadow_459_29749"/>
<feBlend mode="normal" in="SourceGraphic" in2="effect1_dropShadow_459_29749" result="shape"/>
</filter>
<filter id="filter7_d_459_29749" x="438.363" y="132.496" width="69.9258" height="17.7231" filterUnits="userSpaceOnUse" color-interpolation-filters="sRGB">
<feFlood flood-opacity="0" result="BackgroundImageFix"/>
<feColorMatrix in="SourceAlpha" type="matrix" values="0 0 0 0 0 0 0 0 0 0 0 0 0 0 0 0 0 0 127 0" result="hardAlpha"/>
<feOffset dy="0.537057"/>
<feComposite in2="hardAlpha" operator="out"/>
<feColorMatrix type="matrix" values="0 0 0 0 0 0 0 0 0 0 0 0 0 0 0 0 0 0 0.1 0"/>
<feBlend mode="normal" in2="BackgroundImageFix" result="effect1_dropShadow_459_29749"/>
<feBlend mode="normal" in="SourceGraphic" in2="effect1_dropShadow_459_29749" result="shape"/>
</filter>
<filter id="filter8_d_459_29749" x="508.824" y="132.496" width="69.9258" height="17.7231" filterUnits="userSpaceOnUse" color-interpolation-filters="sRGB">
<feFlood flood-opacity="0" result="BackgroundImageFix"/>
<feColorMatrix in="SourceAlpha" type="matrix" values="0 0 0 0 0 0 0 0 0 0 0 0 0 0 0 0 0 0 127 0" result="hardAlpha"/>
<feOffset dy="0.537057"/>
<feComposite in2="hardAlpha" operator="out"/>
<feColorMatrix type="matrix" values="0 0 0 0 0 0 0 0 0 0 0 0 0 0 0 0 0 0 0.1 0"/>
<feBlend mode="normal" in2="BackgroundImageFix" result="effect1_dropShadow_459_29749"/>
<feBlend mode="normal" in="SourceGraphic" in2="effect1_dropShadow_459_29749" result="shape"/>
</filter>
<clipPath id="clip0_459_29749">
<rect width="600" height="540" fill="white"/>
</clipPath>
<clipPath id="clip1_459_29749">
<rect width="107.411" height="37.594" fill="white" transform="translate(0.492188 -0.433594)"/>
</clipPath>
<clipPath id="clip2_459_29749">
<rect width="17.1858" height="17.1858" fill="white" transform="translate(4.78906 9.77051)"/>
</clipPath>
<clipPath id="clip3_459_29749">
<rect width="107.411" height="512.352" fill="white" transform="translate(0.492188 37.1602)"/>
</clipPath>
<clipPath id="clip4_459_29749">
<rect width="481" height="37.594" fill="white" transform="translate(118.492 -0.433594)"/>
</clipPath>
<clipPath id="clip5_459_29749">
<rect x="563.176" y="9.77051" width="15.2965" height="8.59291" rx="4.29646" fill="white"/>
</clipPath>
<clipPath id="clip6_459_29749">
<rect width="33.8346" height="9.66756" fill="white" transform="translate(319.148 52.5859)"/>
</clipPath>
<clipPath id="clip7_459_29749">
<rect width="33.8346" height="9.66703" fill="white" transform="translate(366.945 52.5864)"/>
</clipPath>
<clipPath id="clip8_459_29749">
<path d="M131.381 92.7176C131.381 91.5311 132.343 90.5693 133.529 90.5693H359.63C360.817 90.5693 361.778 91.5311 361.778 92.7176V109.903H131.381V92.7176Z" fill="white"/>
</clipPath>
<clipPath id="clip9_459_29749">
<rect x="292.498" y="97.5513" width="5.37057" height="5.37057" rx="2.68529" fill="white"/>
</clipPath>
<clipPath id="clip10_459_29749">
<rect x="240.383" y="117.663" width="43.667" height="7.07411" rx="2.14823" fill="white"/>
</clipPath>
<clipPath id="clip11_459_29749">
<rect x="286.199" y="117.663" width="43.667" height="7.07411" rx="2.14823" fill="white"/>
</clipPath>
<clipPath id="clip12_459_29749">
<rect width="477.981" height="481.32" fill="white" transform="translate(118.492 132.496)"/>
</clipPath>
</defs>
</svg>
