<svg width="149" height="36" viewBox="0 0 149 36" fill="none" xmlns="http://www.w3.org/2000/svg">
<g clip-path="url(#clip0_461_33259)">
<path d="M0 31.3581C0 33.922 2.0783 36 4.64189 36H31.358C33.922 36 36 33.9217 36 31.3581V4.64203C36 2.07802 33.9217 0 31.3581 0H4.64203C2.07802 0 0 2.0783 0 4.64189V31.358V31.3581Z" fill="#2C7BE5"/>
<path d="M20.9397 15.6434C20.9397 15.7513 20.9397 15.8597 20.9397 15.9675C20.9397 19.1994 20.937 22.4318 20.9469 25.6636C20.948 25.9391 20.8656 26.0016 20.608 26C18.9509 25.9877 17.2943 25.9921 15.6372 25.9905C15.5669 25.9905 15.4966 25.9799 15.4263 25.9743C15.3955 25.9363 15.3647 25.8988 15.334 25.8608C15.4092 25.8301 15.5004 25.8167 15.5581 25.7653C16.9202 24.5483 17.787 23.0246 18.2297 21.2461C18.7421 19.1871 18.7515 17.1141 18.3011 15.0489C17.8886 13.1564 17.0004 11.5243 15.5531 10.233C15.4993 10.185 15.4301 10.1554 15.368 10.1174C15.384 10.0877 15.3999 10.0576 15.4158 10.028C15.5185 10.0207 15.6218 10.0073 15.7245 10.0073C17.6288 10.0056 19.5331 10.0112 21.4368 10C21.6933 9.99835 21.8268 10.0805 21.9311 10.3191C22.8039 12.3138 23.6871 14.303 24.5681 16.2938C24.7554 16.7174 24.9444 17.1404 25.1355 17.5628C25.1674 17.6332 25.2124 17.6974 25.2877 17.8259C25.481 17.3963 25.648 17.0303 25.8106 16.6626C26.7591 14.5192 27.7099 12.3764 28.6502 10.2291C28.7233 10.0632 28.8112 10.0045 28.977 10.0051C30.3502 10.009 31.7233 10.0118 33.0965 10.0062C33.2788 10.0056 33.3382 10.0699 33.3338 10.2487C33.325 10.5929 33.3321 10.9376 33.3321 11.2824C33.3321 16.0418 33.3321 20.8013 33.3321 25.5608C33.3321 25.8487 33.188 25.9927 32.8998 25.9927C31.8288 25.9927 30.7577 25.9866 29.6867 25.9977C29.4351 26.0005 29.3599 25.9206 29.3604 25.6625C29.3692 22.4586 29.367 19.2547 29.3676 16.0502C29.3676 15.9329 29.3676 15.8155 29.3676 15.6982C29.3412 15.6909 29.3143 15.6837 29.2879 15.6764C29.2346 15.7926 29.1775 15.9072 29.1281 16.0251C28.2894 18.0243 27.4512 20.023 26.6152 22.0233C26.5466 22.1876 26.4471 22.2652 26.2609 22.263C25.5469 22.2541 24.8329 22.2496 24.1188 22.2658C23.8881 22.2714 23.769 22.187 23.6838 21.9808C23.3026 21.055 22.9149 20.1319 22.5276 19.2089C22.0437 18.055 21.5582 16.9023 21.0726 15.7496C21.0556 15.7088 21.0358 15.6692 21.0172 15.6289L20.9397 15.6446V15.6434Z" fill="#F8F9FA"/>
<path d="M2.66603 17.77C2.67603 16.4117 2.9149 14.9088 3.66043 13.5307C4.52856 11.9256 5.82181 10.8418 7.56648 10.3472C9.21855 9.87892 10.8811 9.88106 12.5211 10.3735C14.4389 10.9488 15.7947 12.214 16.6013 14.0669C17.2806 15.6276 17.4126 17.2782 17.2937 18.9636C17.1985 20.3155 16.886 21.6011 16.183 22.7646C15.2002 24.3917 13.7796 25.3979 11.9429 25.7821C10.2608 26.1338 8.59666 26.0835 6.97721 25.4567C5.32934 24.8188 4.18078 23.6327 3.44366 22.0239C2.85492 20.7383 2.66393 19.3698 2.66603 17.77ZM13.3945 17.5956C13.3903 16.9351 13.2703 15.8395 12.8005 14.8023C11.9708 12.9692 10.0499 12.5132 8.6156 13.2491C7.55701 13.7924 7.09874 14.8093 6.82305 15.9198C6.59997 16.8174 6.56629 17.7358 6.6147 18.6553C6.65837 19.4859 6.79516 20.3 7.1382 21.0653C7.66592 22.2423 8.51458 22.9921 9.82098 23.0761C11.1248 23.1596 12.1907 22.4574 12.7994 21.1986C13.2809 20.2026 13.3892 19.1407 13.395 17.595L13.3945 17.5956Z" fill="#F8F9FA"/>
</g>
<path d="M50.0128 28C51.6577 28 53.0746 27.6129 54.2635 26.8388C55.4524 26.0647 56.3725 24.9673 57.024 23.5467C57.6754 22.126 58.0011 20.4459 58.0011 18.5064V18.4809C58.0011 16.5413 57.6754 14.8655 57.024 13.4533C56.3725 12.0327 55.4483 10.9353 54.2513 10.1612C53.0624 9.38706 51.6455 9 50.0006 9C48.372 9 46.9591 9.38706 45.7621 10.1612C44.5651 10.9353 43.6368 12.0327 42.9772 13.4533C42.3257 14.8655 42 16.5413 42 18.4809V18.5064C42 20.4459 42.3257 22.126 42.9772 23.5467C43.6286 24.9673 44.5529 26.0647 45.7499 26.8388C46.9469 27.6129 48.3679 28 50.0128 28ZM50.0128 26.3922C48.7262 26.3922 47.6065 26.0689 46.6538 25.4224C45.7092 24.7759 44.9763 23.8614 44.4551 22.679C43.9421 21.4965 43.6856 20.1057 43.6856 18.5064V18.4809C43.6856 16.8646 43.9421 15.4694 44.4551 14.2955C44.9763 13.1216 45.7092 12.2156 46.6538 11.5776C47.6065 10.931 48.7221 10.6078 50.0006 10.6078C51.2872 10.6078 52.4028 10.931 53.3474 11.5776C54.292 12.2156 55.0208 13.1258 55.5338 14.3083C56.0549 15.4822 56.3155 16.8731 56.3155 18.4809V18.5064C56.3155 20.0972 56.059 21.4838 55.546 22.6662C55.033 23.8487 54.3042 24.7674 53.3596 25.4224C52.4231 26.0689 51.3075 26.3922 50.0128 26.3922Z" fill="#2C7BE5"/>
<path d="M60.4563 27.7065H62.0686V19.8462C62.0686 19.0125 62.2193 18.2895 62.5205 17.677C62.83 17.056 63.2616 16.5711 63.8153 16.2223C64.369 15.8735 65.0164 15.6991 65.7574 15.6991C66.8404 15.6991 67.667 16.0224 68.237 16.6689C68.807 17.3154 69.092 18.2554 69.092 19.4889V27.7065H70.7043V19.2082C70.7043 17.6429 70.3094 16.418 69.5195 15.5332C68.7296 14.6485 67.6303 14.2062 66.2216 14.2062C65.2037 14.2062 64.3446 14.4444 63.6443 14.9208C62.944 15.3886 62.431 15.9841 62.1053 16.7072H62.0686V14.4359H60.4563V27.7065Z" fill="#2C7BE5"/>
<path d="M73.6847 27.7065H75.236V12.5601H76.0299L74.1611 9.68905L81.441 27.7065H82.8945L90.1744 9.68905L88.3056 12.5601H89.0995V27.7065H90.663V9.29349H88.7453L82.1983 25.5245H82.1372L75.5902 9.29349H73.6847V27.7065Z" fill="#2C7BE5"/>
<path d="M93.8266 27.7065H95.4389V14.4359H93.8266V27.7065ZM94.6328 12.0369C94.9341 12.0369 95.1865 11.9306 95.3901 11.7179C95.6018 11.4968 95.7076 11.2288 95.7076 10.914C95.7076 10.6078 95.6018 10.3483 95.3901 10.1357C95.1865 9.91448 94.9341 9.8039 94.6328 9.8039C94.3396 9.8039 94.0872 9.91448 93.8755 10.1357C93.6719 10.3483 93.5701 10.6078 93.5701 10.914C93.5701 11.2288 93.6719 11.4968 93.8755 11.7179C94.0872 11.9306 94.3396 12.0369 94.6328 12.0369Z" fill="#2C7BE5"/>
<path d="M102.707 27.949C103.635 27.949 104.457 27.7873 105.174 27.4641C105.899 27.1323 106.469 26.6772 106.884 26.0987C107.299 25.5203 107.507 24.8525 107.507 24.0954V24.0826C107.507 23.1554 107.238 22.4153 106.701 21.8623C106.172 21.3009 105.272 20.8628 104.001 20.548L102.096 20.0759C101.257 19.8632 100.655 19.5825 100.288 19.2337C99.9217 18.8849 99.7385 18.4468 99.7385 17.9194V17.9066C99.7385 17.4558 99.8565 17.0602 100.093 16.7199C100.329 16.3712 100.663 16.1032 101.094 15.9161C101.526 15.7204 102.031 15.6226 102.609 15.6226C103.497 15.6226 104.209 15.8565 104.746 16.3244C105.292 16.7837 105.614 17.4005 105.711 18.1746L105.724 18.2639H107.263L107.25 18.1236C107.193 17.358 106.965 16.6817 106.566 16.0947C106.176 15.4992 105.642 15.0356 104.966 14.7038C104.299 14.3636 103.513 14.1934 102.609 14.1934C101.729 14.1934 100.948 14.355 100.264 14.6783C99.5878 15.0016 99.0545 15.4482 98.6636 16.0181C98.2809 16.5796 98.0895 17.2304 98.0895 17.9704V17.9832C98.0895 18.8934 98.3786 19.6378 98.9567 20.2163C99.543 20.7862 100.435 21.2201 101.632 21.5178L103.549 21.9899C104.404 22.2026 105.003 22.4791 105.345 22.8193C105.687 23.1596 105.858 23.619 105.858 24.1974V24.2102C105.858 24.6696 105.728 25.0779 105.467 25.4352C105.215 25.784 104.852 26.0519 104.38 26.2391C103.916 26.4262 103.358 26.5198 102.707 26.5198C101.754 26.5198 100.988 26.2944 100.41 25.8435C99.8321 25.3842 99.4779 24.7674 99.3476 23.9933L99.3232 23.8784H97.7231L97.7353 23.9933C97.8167 24.7759 98.0691 25.465 98.4926 26.0604C98.916 26.6474 99.482 27.111 100.19 27.4513C100.907 27.7831 101.746 27.949 102.707 27.949Z" fill="#2C7BE5"/>
<path d="M114.042 27.949C114.97 27.949 115.793 27.7873 116.509 27.4641C117.234 27.1323 117.804 26.6772 118.219 26.0987C118.634 25.5203 118.842 24.8525 118.842 24.0954V24.0826C118.842 23.1554 118.573 22.4153 118.036 21.8623C117.507 21.3009 116.607 20.8628 115.337 20.548L113.431 20.0759C112.592 19.8632 111.99 19.5825 111.623 19.2337C111.257 18.8849 111.074 18.4468 111.074 17.9194V17.9066C111.074 17.4558 111.192 17.0602 111.428 16.7199C111.664 16.3712 111.998 16.1032 112.429 15.9161C112.861 15.7204 113.366 15.6226 113.944 15.6226C114.832 15.6226 115.544 15.8565 116.082 16.3244C116.627 16.7837 116.949 17.4005 117.047 18.1746L117.059 18.2639H118.598L118.586 18.1236C118.529 17.358 118.301 16.6817 117.902 16.0947C117.511 15.4992 116.977 15.0356 116.301 14.7038C115.634 14.3636 114.848 14.1934 113.944 14.1934C113.065 14.1934 112.283 14.355 111.599 14.6783C110.923 15.0016 110.39 15.4482 109.999 16.0181C109.616 16.5796 109.425 17.2304 109.425 17.9704V17.9832C109.425 18.8934 109.714 19.6378 110.292 20.2163C110.878 20.7862 111.77 21.2201 112.967 21.5178L114.885 21.9899C115.74 22.2026 116.338 22.4791 116.68 22.8193C117.022 23.1596 117.193 23.619 117.193 24.1974V24.2102C117.193 24.6696 117.063 25.0779 116.802 25.4352C116.55 25.784 116.187 26.0519 115.715 26.2391C115.251 26.4262 114.693 26.5198 114.042 26.5198C113.089 26.5198 112.324 26.2944 111.745 25.8435C111.167 25.3842 110.813 24.7674 110.683 23.9933L110.658 23.8784H109.058L109.07 23.9933C109.152 24.7759 109.404 25.465 109.828 26.0604C110.251 26.6474 110.817 27.111 111.526 27.4513C112.242 27.7831 113.081 27.949 114.042 27.949Z" fill="#2C7BE5"/>
<path d="M121.138 27.7065H122.751V14.4359H121.138V27.7065ZM121.945 12.0369C122.246 12.0369 122.498 11.9306 122.702 11.7179C122.914 11.4968 123.02 11.2288 123.02 10.914C123.02 10.6078 122.914 10.3483 122.702 10.1357C122.498 9.91448 122.246 9.8039 121.945 9.8039C121.651 9.8039 121.399 9.91448 121.187 10.1357C120.984 10.3483 120.882 10.6078 120.882 10.914C120.882 11.2288 120.984 11.4968 121.187 11.7179C121.399 11.9306 121.651 12.0369 121.945 12.0369Z" fill="#2C7BE5"/>
<path d="M130.812 27.949C131.969 27.949 132.979 27.6682 133.842 27.1068C134.705 26.5453 135.381 25.7542 135.869 24.7334C136.358 23.7041 136.602 22.4833 136.602 21.0712V21.0457C136.602 19.6335 136.358 18.4171 135.869 17.3962C135.381 16.3754 134.701 15.5885 133.829 15.0356C132.966 14.4741 131.957 14.1934 130.8 14.1934C129.66 14.1934 128.655 14.4741 127.783 15.0356C126.912 15.5885 126.232 16.3797 125.743 17.409C125.263 18.4298 125.023 19.642 125.023 21.0457V21.0712C125.023 22.4748 125.263 23.6913 125.743 24.7206C126.232 25.7499 126.912 26.5453 127.783 27.1068C128.655 27.6597 129.664 27.9405 130.812 27.949ZM130.825 26.4433C129.986 26.4433 129.257 26.2306 128.638 25.8052C128.019 25.3799 127.535 24.7632 127.185 23.955C126.843 23.1469 126.672 22.1856 126.672 21.0712V21.0457C126.672 19.9313 126.843 18.9743 127.185 18.1746C127.535 17.375 128.019 16.7625 128.638 16.3371C129.257 15.9118 129.978 15.6991 130.8 15.6991C131.639 15.6991 132.368 15.9118 132.987 16.3371C133.614 16.754 134.098 17.3622 134.44 18.1619C134.782 18.9615 134.953 19.9228 134.953 21.0457V21.0712C134.953 22.1856 134.782 23.1469 134.44 23.955C134.098 24.7632 133.618 25.3799 132.999 25.8052C132.38 26.2306 131.655 26.4433 130.825 26.4433Z" fill="#2C7BE5"/>
<path d="M138.752 27.7065H140.364V19.8462C140.364 19.0125 140.515 18.2895 140.816 17.677C141.126 17.056 141.557 16.5711 142.111 16.2223C142.665 15.8735 143.312 15.6991 144.053 15.6991C145.136 15.6991 145.963 16.0224 146.533 16.6689C147.103 17.3154 147.388 18.2554 147.388 19.4889V27.7065H149V19.2082C149 17.6429 148.605 16.418 147.815 15.5332C147.025 14.6485 145.926 14.2062 144.517 14.2062C143.499 14.2062 142.64 14.4444 141.94 14.9208C141.24 15.3886 140.727 15.9841 140.401 16.7072H140.364V14.4359H138.752V27.7065Z" fill="#2C7BE5"/>
<defs>
<clipPath id="clip0_461_33259">
<rect width="36" height="36" fill="white"/>
</clipPath>
</defs>
</svg>
