<svg width="53" height="53" viewBox="0 0 53 53" fill="none" xmlns="http://www.w3.org/2000/svg">
<g clip-path="url(#clip0_459_31484)">
<path d="M0 46.0364C0 49.8004 3.05112 52.8511 6.81469 52.8511H46.0362C49.8004 52.8511 52.8511 49.7999 52.8511 46.0364V6.8149C52.8511 3.0507 49.7999 0 46.0364 0H6.8149C3.0507 0 0 3.05112 0 6.81469V46.0362V46.0364Z" fill="#2C7BE5"/>
<path d="M30.7414 22.9657C30.7414 23.124 30.7414 23.2832 30.7414 23.4415C30.7414 28.1861 30.7374 32.9315 30.7519 37.6762C30.7535 38.0806 30.6326 38.1724 30.2544 38.17C27.8216 38.1519 25.3896 38.1585 22.9568 38.156C22.8536 38.156 22.7504 38.1404 22.6472 38.1322C22.602 38.0765 22.5569 38.0215 22.5117 37.9657C22.6222 37.9206 22.756 37.9009 22.8407 37.8255C24.8405 36.0388 26.1129 33.8019 26.7628 31.1909C27.5152 28.1681 27.5289 25.1248 26.8677 22.0929C26.2621 19.3146 24.9582 16.9185 22.8335 15.0228C22.7544 14.9522 22.6528 14.9087 22.5617 14.853C22.5851 14.8095 22.6085 14.7652 22.6319 14.7217C22.7827 14.7111 22.9343 14.6914 23.085 14.6914C25.8807 14.6889 28.6763 14.6971 31.4712 14.6807C31.8477 14.6782 32.0437 14.7988 32.1969 15.1491C33.4782 18.0776 34.7748 20.9978 36.0682 23.9206C36.3432 24.5423 36.6206 25.1633 36.9012 25.7835C36.948 25.8868 37.0141 25.9811 37.1246 26.1698C37.4084 25.539 37.6535 25.0017 37.8922 24.462C39.2848 21.3153 40.6806 18.1694 42.0611 15.017C42.1683 14.7734 42.2974 14.6873 42.5409 14.6881C44.5568 14.6938 46.5727 14.6979 48.5886 14.6897C48.8563 14.6889 48.9434 14.7832 48.9369 15.0457C48.924 15.551 48.9345 16.0572 48.9345 16.5633C48.9345 23.5506 48.9345 30.5379 48.9345 37.5252C48.9345 37.9479 48.723 38.1593 48.2999 38.1593C46.7275 38.1593 45.1551 38.1503 43.5827 38.1667C43.2134 38.1708 43.1029 38.0535 43.1037 37.6745C43.1166 32.9709 43.1134 28.2673 43.1142 23.5629C43.1142 23.3906 43.1142 23.2184 43.1142 23.0461C43.0755 23.0355 43.036 23.0248 42.9973 23.0141C42.9191 23.1847 42.8352 23.3529 42.7626 23.526C41.5313 26.461 40.3008 29.3952 39.0735 32.3319C38.9727 32.5731 38.8268 32.6871 38.5534 32.6838C37.5052 32.6707 36.4569 32.6641 35.4086 32.6879C35.07 32.6961 34.895 32.5723 34.77 32.2696C34.2104 30.9103 33.6411 29.5552 33.0726 28.2001C32.3622 26.5061 31.6494 24.8139 30.9366 23.1216C30.9116 23.0617 30.8825 23.0035 30.8551 22.9444L30.7414 22.9674V22.9657Z" fill="#F8F9FA"/>
<path d="M3.91409 26.0878C3.92876 24.0936 4.27944 21.8872 5.37395 19.864C6.64844 17.5076 8.54703 15.9164 11.1084 15.1904C13.5337 14.5029 15.9746 14.5061 18.3822 15.2289C21.1976 16.0736 23.1882 17.9311 24.3723 20.6513C25.3695 22.9425 25.5633 25.3657 25.3888 27.8399C25.249 29.8247 24.7902 31.712 23.7582 33.4202C22.3153 35.8088 20.2298 37.286 17.5333 37.8502C15.0639 38.3664 12.6208 38.2925 10.2433 37.3724C7.82405 36.4359 6.13787 34.6947 5.05572 32.3328C4.19138 30.4454 3.911 28.4363 3.91409 26.0878ZM19.6644 25.8316C19.6582 24.862 19.4821 23.2536 18.7923 21.7309C17.5742 19.0397 14.7542 18.3703 12.6486 19.4507C11.0945 20.2482 10.4217 21.7411 10.0169 23.3715C9.68944 24.6892 9.64 26.0375 9.71106 27.3874C9.77517 28.6068 9.976 29.8019 10.4796 30.9255C11.2543 32.6533 12.5003 33.7542 14.4182 33.8775C16.3322 34.0001 17.8971 32.9692 18.7908 31.1212C19.4976 29.6589 19.6567 28.1 19.6652 25.8308L19.6644 25.8316Z" fill="#F8F9FA"/>
</g>
<defs>
<clipPath id="clip0_459_31484">
<rect width="52.8511" height="52.8511" fill="white"/>
</clipPath>
</defs>
</svg>
