<svg width="40" height="41" viewBox="0 0 40 41" fill="none" xmlns="http://www.w3.org/2000/svg">
<g clip-path="url(#clip0_459_31494)">
<circle cx="20" cy="20.8506" r="20" fill="#E8F1FC"/>
<path fill-rule="evenodd" clip-rule="evenodd" d="M14.9103 13.5477C14.9103 14.6545 14.0676 15.5501 12.7497 15.5501C11.4832 15.5501 10.6405 14.6545 10.6666 13.5477C10.6405 12.3872 11.4832 11.5176 12.775 11.5176C14.0675 11.5176 14.885 12.3872 14.9103 13.5477ZM10.7726 30.0235V17.132H14.779V30.0227H10.7726V30.0235Z" fill="#2C7BE5"/>
<path fill-rule="evenodd" clip-rule="evenodd" d="M17.9907 21.2465C17.9907 19.6385 17.9377 18.2677 17.8848 17.134H21.3648L21.5498 18.9001H21.6288C22.1561 18.0827 23.474 16.8447 25.6092 16.8447C28.2449 16.8447 30.2221 18.5847 30.2221 22.3793V30.0255H26.2156V22.8813C26.2156 21.2196 25.6361 20.0867 24.1863 20.0867C23.0787 20.0867 22.4202 20.8512 22.1569 21.5888C22.051 21.8528 21.9988 22.2212 21.9988 22.5912V30.0255H17.9923V21.2465H17.9907Z" fill="#2C7BE5"/>
</g>
<defs>
<clipPath id="clip0_459_31494">
<rect width="40" height="40" fill="white" transform="translate(0 0.850586)"/>
</clipPath>
</defs>
</svg>
