<svg width="40" height="41" viewBox="0 0 40 41" fill="none" xmlns="http://www.w3.org/2000/svg">
<g clip-path="url(#clip0_459_31501)">
<circle cx="20" cy="20.8506" r="20" fill="#E8F1FC"/>
<path fill-rule="evenodd" clip-rule="evenodd" d="M33.334 13.8262C32.4516 14.2182 31.5021 14.4822 30.5062 14.6014C31.5229 13.9918 32.3036 13.0271 32.6708 11.8776C31.7205 12.4423 30.6654 12.8511 29.5446 13.0727C28.6463 12.1159 27.3656 11.5176 25.9505 11.5176C23.2315 11.5176 21.0268 13.7222 21.0268 16.4412C21.0268 16.8268 21.0708 17.2028 21.1548 17.5636C17.0623 17.3588 13.4345 15.3981 11.0059 12.4191C10.5819 13.1463 10.3395 13.9918 10.3395 14.8942C10.3395 16.602 11.2075 18.1091 12.5298 18.9923C11.7218 18.9667 10.9635 18.7451 10.2987 18.3763V18.4379C10.2987 20.8242 11.997 22.8136 14.2481 23.2672C13.8353 23.3792 13.4001 23.44 12.9513 23.44C12.6338 23.44 12.325 23.4088 12.0242 23.3512C12.6506 25.3071 14.4696 26.731 16.6239 26.771C14.9392 28.0909 12.8162 28.8788 10.5091 28.8788C10.1107 28.8788 9.71876 28.8556 9.33398 28.8092C11.513 30.2059 14.1009 31.0219 16.8815 31.0219C25.9377 31.0219 30.8901 23.5192 30.8901 17.0132C30.8901 16.7996 30.8861 16.5868 30.8757 16.3765C31.8389 15.6805 32.674 14.8134 33.334 13.8262Z" fill="#2C7BE5"/>
</g>
<defs>
<clipPath id="clip0_459_31501">
<rect width="40" height="40" fill="white" transform="translate(0 0.850586)"/>
</clipPath>
</defs>
</svg>
