<svg width="260" height="188" viewBox="0 0 260 188" fill="none" xmlns="http://www.w3.org/2000/svg">
<g clip-path="url(#clip0_470_28490)">
<path d="M56.4187 142.479C46.267 109.472 46.4451 86.7251 43.1158 60.7602C42.4957 55.9333 42.5659 55.7604 47.4058 57.2502C66.4937 63.1002 86.0821 65.6365 105.776 62.3839C125.47 59.1313 144.646 50.2861 158.016 35.4596C161.884 31.1696 165.228 26.4415 168.563 21.7251C176.676 32.2447 176.676 46.7228 175.973 59.988C175.866 62.0147 175.741 64.0869 174.949 65.9563C174.197 67.7451 57.9904 147.59 56.4187 142.479Z" fill="white"/>
<path d="M56.946 143.236C56.8901 143.236 56.842 143.236 56.7991 143.236C56.1621 143.204 55.9723 142.806 55.9203 142.636C48.3465 117.99 46.4862 98.8128 44.6896 80.2666C44.0786 73.9602 43.4468 67.4382 42.5992 60.8263C42.2742 58.2927 42.0948 56.8977 42.8787 56.2374C43.6626 55.577 44.9392 55.9448 47.5587 56.7468C68.5459 63.1857 87.5636 64.8602 105.697 61.865C126.765 58.3862 145.218 48.8833 157.635 35.1058C161.487 30.8354 164.871 26.0488 168.145 21.4195C168.191 21.3531 168.253 21.2987 168.325 21.2606C168.397 21.2227 168.476 21.2019 168.558 21.2003C168.639 21.1986 168.719 21.216 168.793 21.2513C168.866 21.2864 168.93 21.3381 168.981 21.4026C177.236 32.1055 177.191 46.9423 176.502 60.0125C176.4 61.9561 176.284 64.1596 175.439 66.1564C175.352 66.3592 175.245 66.6127 170.292 70.1864C167.196 72.4211 162.796 75.5255 157.569 79.1564C146.01 87.1969 131.875 96.8212 118.79 105.56C102.841 116.212 88.978 125.205 78.7015 131.56C60.7888 142.655 57.8209 143.236 56.946 143.236ZM56.8758 142.196C57.2008 142.207 58.4605 142.003 63.0365 139.566C66.4282 137.762 71.1108 135.016 76.9569 131.422C87.0436 125.213 100.82 116.293 116.798 105.642C146.48 85.8461 173.164 67.1521 174.499 65.6948C175.253 63.8748 175.362 61.7949 175.46 59.9554C176.127 47.3051 176.188 32.983 168.578 22.6012C165.415 27.0732 162.135 31.6648 158.404 35.8027C145.822 49.753 127.163 59.3743 105.862 62.8921C96.3958 64.4521 86.4534 64.742 76.3108 63.7449C67.0418 62.8349 57.2645 60.8133 47.2506 57.7414C45.6906 57.263 43.9187 56.7197 43.5482 57.0316C43.1985 57.3267 43.4091 58.9622 43.6301 60.6938C44.4803 67.3238 45.1134 73.8523 45.7257 80.1664C47.5145 98.6295 49.3631 117.723 56.8758 142.198V142.196Z" fill="#082244"/>
<path d="M180.542 27.3882C164.908 44.8394 143.841 57.5898 121.017 62.8795C83.3999 71.5986 48.4611 59.9701 47.8644 60.312C46.97 60.8255 47.7955 62.3179 47.8644 63.3475C49.8144 91.0622 55.7658 123.178 65.2285 147.76C71.7701 142.263 102.6 130.532 120.18 119.27C135.957 109.164 151.25 98.0801 164.214 84.5518C168.8 79.7691 173.139 74.6068 175.859 68.5618C178.329 63.0706 179.391 57.0685 181.866 51.5786C182.624 49.8977 183.296 48.3286 183.476 46.4709C183.755 43.5069 183.55 40.4467 183.143 37.5009C182.904 35.7715 182.566 34.0571 182.132 32.3659C181.911 31.5053 181.664 30.6517 181.393 29.8049C181.31 29.5449 180.427 27.5156 180.542 27.3882Z" fill="white"/>
<path d="M91.3883 66.632C80.051 66.632 69.8278 65.3554 61.8679 63.902C61.7321 63.8772 61.6119 63.7995 61.5335 63.686C61.4551 63.5725 61.4251 63.4325 61.4499 63.2969C61.4747 63.1612 61.5524 63.0409 61.6658 62.9625C61.7793 62.8841 61.9193 62.8541 62.0551 62.8789C76.5007 65.5244 98.4356 67.585 120.901 62.3785C136.585 58.7384 151.809 51.4311 164.928 41.2339C164.982 41.192 165.043 41.1611 165.109 41.1431C165.175 41.125 165.244 41.1201 165.312 41.1285C165.38 41.1371 165.445 41.1588 165.504 41.1926C165.564 41.2264 165.616 41.2716 165.658 41.3256C165.699 41.3795 165.731 41.4412 165.749 41.5071C165.767 41.573 165.772 41.6418 165.763 41.7095C165.755 41.7773 165.733 41.8427 165.699 41.9021C165.666 41.9614 165.62 42.0136 165.567 42.0555C152.329 52.3398 136.964 59.7186 121.135 63.382C110.89 65.761 100.759 66.632 91.3883 66.632Z" fill="#082244"/>
<path d="M170.638 37.7059C170.531 37.706 170.427 37.6734 170.339 37.6124C170.251 37.5514 170.185 37.4653 170.149 37.3653C170.112 37.2653 170.107 37.1565 170.134 37.0535C170.16 36.9505 170.219 36.8583 170.301 36.7894C170.868 36.3071 170.891 36.285 171.047 36.1394C171.145 36.0497 171.289 35.9145 171.623 35.6116C171.672 35.5658 171.732 35.5303 171.796 35.5075C171.861 35.4844 171.928 35.4743 171.997 35.4777C172.065 35.4811 172.133 35.4978 172.194 35.5271C172.256 35.5563 172.311 35.5974 172.357 35.648C172.403 35.6987 172.438 35.7578 172.461 35.8221C172.484 35.8864 172.494 35.9547 172.491 36.0228C172.487 36.091 172.471 36.1578 172.442 36.2196C172.412 36.2813 172.37 36.3367 172.321 36.3825C171.993 36.6789 171.853 36.8115 171.758 36.9025C171.59 37.0598 171.559 37.0871 170.978 37.585C170.882 37.6648 170.761 37.7077 170.638 37.7059Z" fill="#082244"/>
<path d="M65.2309 148.28C65.1871 148.28 65.1432 148.273 65.1009 148.263C65.0207 148.242 64.9464 148.203 64.8845 148.147C64.8225 148.093 64.7746 148.024 64.7447 147.947C55.9814 125.18 49.4775 93.5677 47.3481 63.3817C47.3105 63.0686 47.2474 62.759 47.1596 62.4561C46.9386 61.5942 46.6396 60.4137 47.6042 59.856C47.8642 59.7039 48.0033 59.7365 50.212 60.2838C50.992 60.4788 51.9735 60.7206 53.1292 60.9936C53.2635 61.0252 53.3797 61.1091 53.4522 61.2265C53.5248 61.3439 53.5476 61.4852 53.5159 61.6196C53.4842 61.7539 53.4005 61.87 53.2831 61.9425C53.1657 62.015 53.0243 62.038 52.89 62.0063C51.7278 61.7307 50.7489 61.4863 49.9624 61.2939C49.1109 61.0819 48.3569 60.8961 48.0371 60.8375C47.8928 61.0547 48.0007 61.5474 48.1671 62.1961C48.2717 62.5592 48.3448 62.9306 48.3855 63.3063C50.4876 93.101 56.8615 124.283 65.4636 146.908C68.9905 144.269 77.1896 140.428 86.6016 136.018C97.8791 130.736 110.659 124.747 119.901 118.827C139.129 106.51 152.68 95.8275 163.842 84.1868C167.956 79.8968 172.545 74.6592 175.388 68.3477C176.61 65.6346 177.502 62.7303 178.365 59.9236C179.239 57.0805 180.142 54.1412 181.396 51.3631C182.183 49.6159 182.798 48.1417 182.956 46.4231C183.199 43.8387 183.086 40.9449 182.625 37.5766C182.388 35.8666 182.053 34.1714 181.626 32.4988C181.407 31.6512 181.162 30.7997 180.895 29.9677C180.878 29.9144 180.785 29.6817 180.701 29.4763C180.527 29.0473 180.391 28.7028 180.285 28.4233C178.681 30.125 175.709 33.1033 174.175 34.636L173.774 35.0377C173.675 35.1353 173.544 35.1902 173.406 35.1902C173.267 35.1902 173.135 35.1353 173.038 35.0377C172.939 34.9402 172.885 34.8079 172.885 34.6699C172.885 34.5319 172.939 34.3995 173.038 34.3019L173.44 33.9002C175.205 32.1335 178.878 28.4571 180.146 27.0414C180.219 26.9592 180.318 26.9027 180.426 26.8798C180.534 26.8571 180.647 26.8693 180.747 26.9148C180.847 26.9603 180.932 27.0366 180.985 27.1328C181.039 27.229 181.062 27.34 181.05 27.4496C181.116 27.7395 181.496 28.6768 181.662 29.0902C181.792 29.4009 181.856 29.5673 181.883 29.6544C182.156 30.5059 182.403 31.3769 182.631 32.2441C183.069 33.9567 183.409 35.6928 183.652 37.4441C184.13 40.893 184.24 43.8647 183.989 46.5297C183.811 48.4095 183.164 49.9643 182.336 51.8012C181.11 54.5196 180.217 57.4276 179.346 60.2395C178.473 63.0774 177.571 66.0116 176.322 68.7844C173.415 75.2403 168.753 80.5624 164.578 84.9174C153.357 96.6179 139.748 107.351 120.448 119.714C111.149 125.672 98.3341 131.674 87.0293 136.971C77.135 141.606 68.5914 145.61 65.5507 148.163C65.4602 148.236 65.3476 148.277 65.2309 148.28Z" fill="#082244"/>
<path d="M189.454 32.606C182.167 40.8363 172.709 46.8592 162.921 51.8655C130.575 68.4067 89.3409 71.6124 53.3556 66.4501C51.3809 66.1668 58.3086 95.533 62.8456 124.312C64.3835 134.07 70.1633 142.902 70.7093 152.771L105.388 134.441C113.724 130.034 122.076 125.618 130.798 122.032C141.007 117.836 151.648 114.807 162.128 111.372C165.434 110.288 168.821 109.11 171.429 106.809C174.091 104.46 175.693 101.162 177.121 97.9133C178.95 93.7527 180.604 89.5179 182.081 85.2079C183.568 80.8746 184.872 76.4862 185.995 72.0428C187.113 67.6228 188.045 63.1595 188.794 58.6528C189.168 56.3934 189.495 54.1275 189.776 51.8551C190.002 50.0208 190.214 48.2645 190.744 46.4913C191.255 44.7883 191.128 43.1347 190.939 41.3836C190.684 39.0254 190.315 36.6854 189.831 34.3636C189.714 33.7691 189.59 33.1832 189.454 32.606Z" fill="white"/>
<path d="M59.7375 106.695C59.6159 106.694 59.4979 106.651 59.4046 106.573C59.3113 106.495 59.2483 106.387 59.2266 106.267C58.2243 100.773 57.2077 95.4291 56.3107 90.7122C55.0289 83.9717 53.9213 78.149 53.2336 73.9045C52.1936 67.4383 52.4432 66.5453 52.8228 66.1475C52.8991 66.0655 52.9944 66.0032 53.1001 65.9663C53.2059 65.9293 53.3192 65.9188 53.4299 65.9356C91.9723 71.4644 123.951 68.6656 148.479 57.6272C148.604 57.5707 148.747 57.5664 148.877 57.6155C149.005 57.6645 149.109 57.7626 149.166 57.8885C149.222 58.0144 149.226 58.1576 149.178 58.2865C149.129 58.4155 149.03 58.5197 148.905 58.5762C136.27 64.2637 121.432 67.8127 104.799 69.1231C89.2592 70.349 72.0199 69.6353 53.5547 67.0041C53.4663 67.5332 53.5118 69.1725 54.3165 74.0839C55.0042 78.2829 56.0832 83.9522 57.3325 90.5185C58.2295 95.2367 59.2474 100.584 60.2497 106.081C60.2744 106.216 60.2441 106.357 60.1656 106.47C60.0871 106.583 59.9669 106.661 59.8311 106.686C59.8003 106.691 59.769 106.694 59.7375 106.695Z" fill="#082244"/>
<path d="M160.046 53.8086C159.928 53.8091 159.813 53.7696 159.721 53.6964C159.629 53.6232 159.564 53.5207 159.536 53.406C159.51 53.291 159.523 53.1707 159.574 53.0643C159.625 52.9578 159.711 52.872 159.817 52.8206C166.155 49.7318 181.642 40.6422 189.067 32.2598C189.13 32.1884 189.212 32.1357 189.303 32.1077C189.394 32.0795 189.491 32.077 189.583 32.1003C189.676 32.1237 189.76 32.172 189.826 32.24C189.894 32.308 189.941 32.3931 189.963 32.486C190.093 33.0658 190.223 33.656 190.353 34.2358C190.548 35.1679 190.631 35.4383 190.681 35.6008C190.773 35.8985 190.779 35.9531 190.928 37.335C190.934 37.4033 190.928 37.4724 190.909 37.5383C190.89 37.6042 190.857 37.6655 190.814 37.7191C190.772 37.7725 190.718 37.817 190.657 37.8499C190.597 37.8828 190.531 37.9036 190.463 37.9109C190.395 37.9183 190.326 37.912 190.259 37.8927C190.194 37.8734 190.132 37.8412 190.079 37.7982C190.025 37.755 189.981 37.7018 189.947 37.6415C189.915 37.5813 189.894 37.5151 189.888 37.4468C189.743 36.1091 189.741 36.1026 189.681 35.9063C189.538 35.4266 189.42 34.9397 189.329 34.4477C189.277 34.1968 189.222 33.9446 189.167 33.6924C181.415 41.9773 166.485 50.7276 160.276 53.7618C160.203 53.7948 160.125 53.8108 160.046 53.8086Z" fill="#082244"/>
<path d="M63.7829 101.164C65.2051 111.14 68.0729 120.847 70.9329 130.511L79.2711 158.721C111.823 132.981 153.707 120.241 195.206 120.028C195.805 106.061 199.011 92.3376 200.462 78.4354C201.912 64.5332 201.476 49.9082 195.242 37.3931C195.306 37.5231 192.22 39.6902 191.924 39.9073C190.773 40.7558 189.612 41.5895 188.442 42.4085C186.111 44.0361 183.74 45.6039 181.327 47.1119C178.927 48.6113 176.492 50.0495 174.021 51.4266C171.548 52.8038 169.033 54.1259 166.472 55.3929C163.923 56.6531 161.343 57.8491 158.736 58.9809C156.126 60.1128 153.504 61.1771 150.869 62.1737C148.207 63.1791 145.524 64.1198 142.817 64.996C140.11 65.8722 137.383 66.6821 134.636 67.4257C131.883 68.1693 129.12 68.8471 126.347 69.4589C123.582 70.0656 120.803 70.6077 118.011 71.0852C115.219 71.5628 112.402 71.9731 109.561 72.3163C106.737 72.6578 103.907 72.9312 101.069 73.1366C98.2319 73.342 95.3911 73.4772 92.5467 73.5422C89.7195 73.6072 86.8913 73.6025 84.0616 73.5279C81.2318 73.4534 78.3932 73.3078 75.5453 73.0911C72.7129 72.8736 69.8867 72.5837 67.0667 72.2214C65.6627 72.0403 64.2616 71.8427 62.8638 71.6286C62.1644 71.5203 61.4659 71.4081 60.7682 71.2919C60.23 71.2022 59.3655 70.8707 58.8312 71.0319C57.7366 71.3686 58.6791 73.1015 58.8208 73.7619C61.0074 84.0553 62.8625 93.5219 63.2174 96.6424C63.3877 98.1621 63.5697 99.6649 63.7829 101.164Z" fill="white"/>
<path d="M79.265 159.239C79.2116 159.239 79.1584 159.23 79.1077 159.214C79.0265 159.188 78.9529 159.143 78.8932 159.082C78.8337 159.022 78.7899 158.946 78.7658 158.866L70.4275 130.656C67.6104 121.124 64.6972 111.269 63.2672 101.234C63.08 99.9212 62.9058 98.5276 62.7004 96.7141C62.3741 93.8367 60.6958 85.0917 58.3116 73.8817C58.268 73.7153 58.2154 73.5512 58.1543 73.3903C57.9073 72.6857 57.5991 71.8108 57.9345 71.1478C58.0099 71.001 58.1149 70.8712 58.2429 70.767C58.3709 70.6627 58.5191 70.5862 58.6782 70.542C59.1982 70.3808 59.8287 70.542 60.3812 70.672C60.5567 70.7162 60.7231 70.7578 60.8531 70.7786C61.5408 70.8944 62.2428 71.0074 62.9422 71.1153C64.3254 71.3285 65.7346 71.5261 67.1321 71.7056C69.9245 72.0631 72.7702 72.3555 75.5899 72.5687C78.4096 72.7819 81.2526 72.9301 84.0789 73.0042C86.8804 73.0783 89.7261 73.0822 92.5393 73.0185C95.3525 72.9548 98.215 72.817 101.033 72.6142C103.852 72.4114 106.694 72.1358 109.5 71.7965C112.307 71.4572 115.133 71.0438 117.919 70.5693C120.705 70.0948 123.484 69.5514 126.23 68.9469C128.976 68.3424 131.769 67.6574 134.495 66.9176C137.221 66.1779 139.964 65.3576 142.651 64.4944C145.338 63.6312 148.039 62.6744 150.678 61.6799C153.317 60.6854 155.949 59.6155 158.521 58.4975C161.121 57.3717 163.711 56.1679 166.236 54.9199C168.76 53.6719 171.306 52.3381 173.763 50.9666C176.22 49.5951 178.67 48.1495 181.043 46.6649C183.442 45.1647 185.829 43.5865 188.135 41.9758C189.305 41.1607 190.475 40.3223 191.606 39.4837L191.969 39.2237C193.607 38.0537 194.552 37.3517 194.782 37.1307C194.829 37.0507 194.897 36.9848 194.979 36.9398C195.059 36.8948 195.151 36.8726 195.244 36.8752C195.337 36.8779 195.428 36.9054 195.506 36.9549C195.586 37.0044 195.649 37.0741 195.692 37.1567C198.603 43.0067 200.467 49.7914 201.234 57.3353C201.876 63.6572 201.788 70.5758 200.962 78.4837C200.376 84.0971 199.492 89.7664 198.637 95.2542C197.372 103.358 196.065 111.738 195.708 120.052C195.701 120.186 195.644 120.312 195.547 120.404C195.45 120.496 195.322 120.548 195.188 120.548C151.82 120.768 110.76 134.47 79.573 159.13C79.4847 159.197 79.3767 159.236 79.265 159.239ZM59.1709 71.5131C59.1072 71.5119 59.0438 71.5198 58.9824 71.5365C58.8888 71.5651 58.8718 71.5989 58.8627 71.6171C58.7327 71.8771 58.9928 72.6389 59.1358 73.0471C59.2119 73.2495 59.2761 73.456 59.3282 73.6659C61.715 84.9018 63.4036 93.6859 63.7338 96.601C63.9379 98.4041 64.1122 99.7886 64.2968 101.091C65.7164 111.05 68.618 120.869 71.4247 130.365L79.5458 157.836C95.3317 145.473 113.554 135.875 133.716 129.305C153.182 122.96 173.7 119.666 194.702 119.51C195.092 111.301 196.376 103.063 197.62 95.0917C198.473 89.6221 199.356 83.9658 199.938 78.3784C201.668 61.8086 200.077 48.6682 195.073 38.2422C194.899 38.3787 194.683 38.5464 194.417 38.7401C193.777 39.2159 193.026 39.7515 192.576 40.0726L192.226 40.3235C191.082 41.1672 189.907 42.0135 188.733 42.8325C186.413 44.4536 184.012 46.0409 181.596 47.5502C179.207 49.0439 176.741 50.5012 174.268 51.8792C171.796 53.2572 169.246 54.5962 166.696 55.8559C164.145 57.1156 161.545 58.3259 158.936 59.4556C156.348 60.5801 153.693 61.6565 151.046 62.6575C148.4 63.6585 145.675 64.6075 142.971 65.4876C140.267 66.3678 137.511 67.1776 134.766 67.9251C132.022 68.6726 129.228 69.3552 126.454 69.9662C123.68 70.5772 120.881 71.1231 118.093 71.5989C115.306 72.0747 112.442 72.4907 109.625 72.8326C106.808 73.1745 103.938 73.4514 101.109 73.6556C98.28 73.8597 95.398 73.9961 92.5627 74.0624C89.7274 74.1287 86.87 74.1222 84.0516 74.0481C81.2085 73.974 78.3316 73.8258 75.5093 73.61C72.687 73.3942 69.8087 73.1004 66.9994 72.7403C65.5941 72.5609 64.1759 72.3607 62.7836 72.1462C62.0803 72.0383 61.3731 71.9239 60.6815 71.8082C60.5112 71.7796 60.3253 71.7341 60.129 71.6782C59.8163 71.5898 59.4951 71.5345 59.1709 71.5131ZM194.726 37.4895C194.734 37.5346 194.748 37.5784 194.769 37.6195C194.747 37.5751 194.733 37.5278 194.726 37.4791V37.4895Z" fill="#082244"/>
<path d="M77.2062 88.2422C75.7489 91.0723 70.8492 92.8273 67.7422 92.1032C70.7465 115.129 75.5045 120.433 77.2322 134.614C80.4068 132.404 85.1622 132.9 87.8194 135.706C90.3011 138.326 89.5848 140.045 89.668 145.066C89.6699 145.154 89.6972 145.241 89.7468 145.316C89.7964 145.391 89.8661 145.449 89.9479 145.485C90.0296 145.522 90.1201 145.535 90.2087 145.522C90.2972 145.509 90.3801 145.471 90.448 145.413C96.597 140.058 134.187 118.348 183.67 115.19C184.437 115.141 185.246 114.919 185.779 114.365C186.239 113.888 191.027 110.129 191.109 109.472C193.724 88.7011 197.392 72.5239 195.52 60.313C187.002 65.9745 182.456 57.6402 182.476 54.1601C182.474 54.0874 182.455 54.016 182.42 53.9531C182.383 53.8902 182.331 53.8378 182.268 53.801C182.205 53.7644 182.134 53.7445 182.061 53.7437C181.989 53.7428 181.917 53.7608 181.854 53.7961C166.203 62.393 149.825 69.8199 132.6 74.5155C128.463 75.6421 124.286 76.6011 120.068 77.3924C115.822 78.1819 111.546 78.7799 107.241 79.1864C102.963 79.5869 98.6679 79.7712 94.3714 79.7389C90.0792 79.7074 85.7922 79.4375 81.53 78.9303C80.8358 78.8458 79.6164 78.4207 78.9937 78.8913C78.371 79.3619 78.6037 80.3876 78.6141 81.0363C78.6284 83.0123 78.4516 85.0221 77.7847 86.8954C77.6223 87.3567 77.429 87.8067 77.2062 88.2422Z" fill="#E8F1FC"/>
<path d="M120.376 95.8899C120.23 99.8419 120.832 103.985 123.193 107.226C127.167 112.686 135.194 114.147 141.946 112.646C147.08 111.503 152.041 108.733 154.611 104.314C157.824 98.7876 156.583 91.4318 152.319 86.6062C148.055 81.7806 141.231 79.4133 134.645 79.6382C131.352 79.7513 127.995 80.6301 125.667 82.9922C123.693 84.9929 122.04 87.6397 121.247 90.2722C120.718 92.0997 120.425 93.9874 120.376 95.8899Z" fill="white"/>
<path d="M136.888 113.714C131.558 113.714 125.989 111.946 122.774 107.532C120.66 104.631 119.678 100.708 119.856 95.8706C119.934 93.742 120.227 91.8635 120.75 90.128C121.544 87.4864 123.201 84.7525 125.3 82.627C127.428 80.4677 130.655 79.2548 134.631 79.117C141.781 78.8726 148.541 81.5415 152.712 86.2592C154.9 88.7562 156.315 91.8349 156.787 95.1218C157.268 98.5382 156.673 101.806 155.064 104.573C152.649 108.722 147.914 111.853 142.064 113.153C140.363 113.527 138.628 113.714 136.888 113.714ZM135.535 80.144C135.245 80.144 134.955 80.1488 134.664 80.1583C132.08 80.2467 128.486 80.8733 126.038 83.3576C124.057 85.3661 122.493 87.9427 121.748 90.427C121.23 92.2098 120.945 94.0519 120.898 95.9083C120.729 100.508 121.644 104.211 123.616 106.919C126.606 111.031 131.843 112.677 136.87 112.677C138.539 112.678 140.205 112.496 141.836 112.138C147.403 110.9 151.895 107.953 154.164 104.053C157.127 98.9594 156.188 91.766 151.932 86.9495C148.133 82.6543 142.054 80.144 135.535 80.144Z" fill="#082244"/>
<path d="M69.5346 89.2206C69.4117 89.2203 69.2929 89.1765 69.1992 89.097C69.1056 89.0175 69.043 88.9074 69.0227 88.7863C69.0025 88.6651 69.0259 88.5406 69.0885 88.435C69.1513 88.3293 69.2495 88.2494 69.3655 88.2092C70.7045 87.7464 71.8031 86.4451 72.3036 84.7278C72.8795 82.7492 72.5284 80.6978 71.3649 79.234C71.2788 79.126 71.239 78.9883 71.2543 78.851C71.2697 78.7137 71.3389 78.5883 71.4468 78.5021C71.5547 78.4158 71.6926 78.376 71.8298 78.3915C71.967 78.4068 72.0926 78.476 72.1788 78.584C73.5529 80.3091 73.9728 82.7127 73.302 85.015C72.7079 87.0573 71.3624 88.6174 69.7049 89.1894C69.6503 89.2092 69.5927 89.2197 69.5346 89.2206Z" fill="#082244"/>
<path d="M172.294 94.5523C174.214 89.3245 177.842 84.5132 182.932 82.2538C188.021 79.9944 194.621 80.8043 198.297 84.9838C200.063 86.9936 201.047 89.5728 201.712 92.165C203.261 98.2157 203.242 104.547 203.053 110.789C201.726 110.277 200.302 110.067 198.885 110.171C198.597 105.636 198.302 101.071 197.143 96.6726C196.564 94.473 195.746 92.2872 194.315 90.5205C191.599 87.1704 186.515 85.8301 182.672 87.7905C178.313 90.02 176.655 95.3466 175.853 100.176C175.432 102.703 175.129 105.249 174.943 107.811C174.859 108.981 175.173 111.901 173.197 111.546C171.866 111.305 170.764 109.896 170.295 108.716C169.959 107.872 170.006 107.065 170.066 106.174C170.148 104.943 170.261 103.715 170.421 102.491C170.776 99.7952 171.354 97.1146 172.294 94.5523Z" fill="#FD7E14"/>
<path d="M124.508 96.0127C124.396 99.0573 124.861 102.253 126.679 104.747C129.742 108.95 135.926 110.077 141.129 108.923C145.085 108.043 148.907 105.908 150.888 102.504C153.358 98.2461 152.406 92.5777 149.121 88.8597C145.836 85.1417 140.578 83.3178 135.504 83.4907C132.966 83.5778 130.38 84.2551 128.586 86.0751C127.066 87.6169 125.791 89.6553 125.18 91.6885C124.773 93.0954 124.547 94.5489 124.508 96.0127Z" fill="#E8F1FC"/>
<path d="M84.9794 145.672C84.884 145.672 84.7904 145.646 84.7089 145.597C84.6273 145.546 84.5611 145.476 84.5171 145.391C84.4733 145.307 84.4535 145.21 84.46 145.115C84.4667 145.021 84.4992 144.93 84.5543 144.852C86.0649 142.707 85.2836 140.302 84.1396 139.381C82.5796 138.137 81.4512 138.362 80.3553 138.579C79.9557 138.673 79.5476 138.727 79.1372 138.74C78.9993 138.74 78.867 138.686 78.7695 138.588C78.672 138.491 78.6172 138.358 78.6172 138.22C78.6172 138.083 78.672 137.95 78.7695 137.852C78.867 137.755 78.9993 137.7 79.1372 137.7C79.4796 137.685 79.8199 137.638 80.1538 137.56C81.3576 137.321 82.8565 137.023 84.7896 138.57C86.1975 139.696 87.3675 142.662 85.4058 145.451C85.3577 145.519 85.2939 145.574 85.2196 145.613C85.1454 145.651 85.063 145.672 84.9794 145.672Z" fill="#082244"/>
<path d="M157.085 129.111C156.695 129.109 156.321 128.964 156.035 128.701C155.747 128.438 155.569 128.078 155.534 127.692C154.427 115.54 149.632 103.077 141.284 90.6417C134.444 80.4601 128.083 72.1206 119.267 64.5117C111.759 58.0299 104.941 59.5223 103.147 60.5571C102.789 60.7641 102.363 60.82 101.963 60.7127C101.563 60.6055 101.222 60.3438 101.015 59.9851C100.809 59.6266 100.753 59.2005 100.86 58.8007C100.967 58.4008 101.229 58.0601 101.587 57.8531C103.076 57.0029 105.936 56.232 109.489 56.635C113.573 57.0991 117.659 59.0088 121.306 62.1561C130.386 69.9925 136.895 78.5179 143.875 88.9088C152.517 101.779 157.486 114.73 158.641 127.409C158.676 127.82 158.549 128.228 158.284 128.545C158.02 128.862 157.64 129.061 157.229 129.099C157.181 129.105 157.133 129.109 157.085 129.111Z" fill="#2C7BE5"/>
<path d="M128.249 137.092C127.869 137.092 127.491 137.049 127.122 136.962C126.923 136.914 126.735 136.827 126.569 136.707C126.403 136.587 126.263 136.436 126.155 136.26C126.048 136.086 125.977 135.892 125.944 135.69C125.912 135.487 125.92 135.28 125.968 135.081C126.016 134.882 126.102 134.694 126.223 134.529C126.343 134.362 126.495 134.222 126.669 134.115C126.844 134.007 127.038 133.936 127.24 133.905C127.443 133.872 127.649 133.88 127.849 133.928C128.206 134.014 128.773 134.058 129.552 133.454C133.538 130.361 136.263 116.756 136.387 108.754C136.536 99.2869 135.146 89.7119 133.802 80.452C132.703 72.8821 131.787 67.7445 128.313 60.2487C127.498 58.4898 125.359 56.5307 123.473 56.4176C122.871 56.3799 121.975 56.4878 121.146 57.8255C121.04 58.0049 120.9 58.1614 120.734 58.2858C120.567 58.4104 120.377 58.5002 120.175 58.5502C119.974 58.6003 119.764 58.6094 119.558 58.5772C119.353 58.5449 119.156 58.4719 118.979 58.3624C118.802 58.2529 118.649 58.1092 118.529 57.9396C118.408 57.7701 118.323 57.5782 118.278 57.3752C118.232 57.1722 118.228 56.9623 118.265 56.7577C118.302 56.5529 118.38 56.3578 118.494 56.1836C119.722 54.1985 121.554 53.1741 123.661 53.3028C126.911 53.4991 129.945 56.3526 131.145 58.937C134.785 66.7994 135.784 72.3829 136.891 80.0035C138.252 89.3843 139.66 99.0854 139.507 108.803C139.392 116.173 136.907 131.693 131.466 135.922C130.461 136.702 129.364 137.092 128.249 137.092Z" fill="#2C7BE5"/>
<path d="M142.606 132.584C142.272 132.584 141.947 132.478 141.678 132.28C141.408 132.082 141.211 131.803 141.112 131.484C141.015 131.165 141.02 130.823 141.13 130.508C141.241 130.194 141.449 129.922 141.726 129.735C142.026 129.531 142.316 128.426 141.887 126.225C141.444 123.947 140.457 121.511 139.683 119.985C135.209 111.202 124.733 95.5368 100.249 70.7844C98.062 68.5744 94.7392 65.4128 91.1408 63.4797C87.3942 61.4673 84.2183 61.2125 81.4311 62.6997C81.25 62.8052 81.0494 62.8732 80.8414 62.8994C80.6334 62.9257 80.4223 62.9097 80.2206 62.8526C80.0189 62.7954 79.8308 62.6982 79.6675 62.5668C79.5043 62.4352 79.3692 62.2722 79.2703 62.0873C79.1715 61.9025 79.1109 61.6995 79.0922 61.4907C79.0734 61.282 79.0971 61.0715 79.1614 60.8721C79.2259 60.6725 79.3299 60.4882 79.4673 60.3297C79.6046 60.1714 79.7724 60.0423 79.9608 59.9502C83.6866 57.9586 87.9454 58.2212 92.6163 60.7302C96.5852 62.8622 100.139 66.237 102.466 68.59C127.234 93.628 137.888 109.589 142.465 118.569C143.592 120.779 144.522 123.419 144.951 125.624C145.601 128.957 145.106 131.214 143.485 132.314C143.225 132.489 142.919 132.584 142.606 132.584Z" fill="#2C7BE5"/>
<path d="M177.896 104.932C177.57 104.902 177.263 104.765 177.023 104.544C176.781 104.323 176.62 104.03 176.561 103.707C176.504 103.385 176.553 103.053 176.702 102.762C176.851 102.471 177.092 102.236 177.387 102.095C180.719 100.494 183.126 96.5339 183.523 92.0069C183.913 87.5947 182.632 83.1669 181.196 79.0459C177.939 69.6976 173.999 62.4384 169.15 56.8536C163.23 50.0338 155.76 45.6411 148.115 44.4828C145.668 44.1123 143.084 44.5738 141.686 45.6307C141.011 46.1403 140.637 46.7578 140.541 47.5183C140.491 47.9032 140.295 48.2542 139.992 48.4968C139.689 48.7395 139.305 48.8547 138.918 48.8183H138.87C138.674 48.7941 138.486 48.7317 138.315 48.6347C138.144 48.5376 137.994 48.4079 137.873 48.2526C137.752 48.0974 137.664 47.92 137.612 47.7304C137.56 47.5407 137.546 47.3428 137.57 47.1478C137.767 45.5878 138.565 44.2436 139.878 43.2478C142.348 41.3849 145.979 41.1392 148.558 41.5292C156.904 42.7941 165.017 47.5404 171.404 54.8958C176.507 60.7718 180.634 68.3508 184.014 78.0657C185.561 82.5039 186.931 87.2957 186.496 92.2695C186.002 97.9132 183.007 102.711 178.678 104.793C178.435 104.908 178.164 104.957 177.896 104.932Z" fill="#2C7BE5"/>
<path d="M123.973 122.154C113.565 122.154 103.112 121.214 94.2799 120.074C73.4188 117.397 55.4957 112.883 51.7374 111.215C49.2856 110.127 41.1853 106.113 39.9438 100.187C39.3874 97.5374 40.2441 94.9478 42.4866 92.4904C42.7538 92.1972 43.1265 92.0224 43.5226 92.004C43.9188 91.9857 44.306 92.1256 44.5991 92.3929C44.8921 92.66 45.067 93.0327 45.0853 93.4288C45.1036 93.8251 44.9638 94.212 44.6966 94.5058C43.1158 96.2374 42.5191 97.8949 42.8766 99.5758C43.6332 103.185 48.7799 106.63 52.9568 108.485C55.8168 109.752 72.9638 114.326 94.6686 117.115C103.412 118.24 113.767 119.173 124.028 119.173C135.255 119.173 146.373 118.057 155.162 114.851C155.531 114.726 155.934 114.751 156.285 114.92C156.638 115.089 156.909 115.389 157.042 115.756C157.176 116.121 157.161 116.525 157.002 116.881C156.842 117.236 156.549 117.516 156.186 117.659C147.031 120.995 135.531 122.154 123.973 122.154Z" fill="#2C7BE5"/>
<path d="M158.263 157.773C158.84 159.78 159.51 161.885 161.063 163.281C162.815 164.858 165.322 165.203 167.667 165.448C177.528 166.474 187.458 166.94 197.364 166.533C200.769 166.393 204.431 166.048 207.014 163.827C209.084 162.047 210.096 159.36 210.973 156.774C214.518 146.317 217.131 135.55 218.922 124.654C219.55 120.833 219.896 116.388 217.197 113.604C215.992 112.362 214.337 111.663 212.703 111.112C208.843 109.812 204.799 109.162 200.768 108.585C186.303 106.512 171.372 105.351 157.227 109.017C155.719 109.407 154.18 109.921 152.907 110.837C152.012 111.487 150.989 112.475 150.746 113.6C150.468 114.887 150.777 116.416 150.87 117.707C151.002 119.581 151.167 121.453 151.366 123.323C151.759 127.06 152.271 130.783 152.904 134.491C153.536 138.199 154.271 141.885 155.106 145.554C155.944 149.221 156.874 152.865 157.899 156.487C158.02 156.919 158.141 157.348 158.263 157.773Z" fill="#FD7E14"/>
<path d="M174.248 131.346C174.594 132.906 175.336 134.289 176.488 134.986C176.436 134.96 176.539 135.016 176.488 134.986C180.171 136.798 182.4 136.142 181.397 139.485C181.388 139.517 181.373 139.547 181.363 139.578C180.248 143.096 180.063 143.907 178.573 147.282L178.087 148.426C177.697 149.31 177.029 151.049 179.144 151.395C182.937 152.016 186.865 152.427 190.186 150.58C190.379 150.474 190.546 150.327 190.675 150.149C190.804 149.971 190.891 149.766 190.931 149.55C191.078 148.665 190.616 147.621 190.169 146.765C188.845 144.23 187.766 141.575 186.949 138.835C186.937 138.796 186.924 138.76 186.91 138.724C186.52 137.747 186.837 136.774 187.69 136.143C200.724 126.791 187.474 118.927 179.088 122.154C175.41 123.56 173.398 127.507 174.248 131.346Z" fill="#082244"/>
<path d="M184.377 152.441C182.609 152.441 180.814 152.191 179.062 151.904C178.235 151.774 177.667 151.424 177.372 150.881C176.852 149.937 177.387 148.729 177.612 148.213L177.812 147.743L178.101 147.064C179.368 144.204 179.684 143.193 180.441 140.767C180.571 140.361 180.707 139.917 180.866 139.416C180.874 139.391 180.883 139.367 180.892 139.342L180.898 139.326C181.477 137.397 181.005 137.235 179.016 136.552C178.09 136.251 177.186 135.89 176.307 135.473C176.283 135.464 176.26 135.452 176.237 135.441C176.212 135.426 176.19 135.412 176.168 135.396C174.998 134.671 174.142 133.276 173.739 131.459C173.299 129.475 173.569 127.4 174.506 125.597C175.44 123.795 177 122.396 178.893 121.665C183.976 119.715 190.828 121.652 192.991 125.662C194.052 127.63 194.811 131.662 187.986 136.561C187.323 137.05 187.099 137.786 187.392 138.528C187.413 138.579 187.431 138.631 187.447 138.683C188.253 141.391 189.319 144.015 190.628 146.521C191.128 147.476 191.614 148.593 191.441 149.63C191.391 149.924 191.274 150.202 191.1 150.444C190.925 150.687 190.699 150.886 190.438 151.029C188.536 152.088 186.475 152.441 184.377 152.441ZM176.738 134.525C177.586 134.928 178.461 135.276 179.355 135.565C181.334 136.245 182.764 136.735 181.896 139.628C181.886 139.657 181.876 139.686 181.864 139.716V139.731C181.707 140.226 181.568 140.671 181.441 141.075C180.661 143.545 180.347 144.561 179.055 147.485L178.773 148.148L178.569 148.628C178.418 148.971 178.019 149.885 178.289 150.382C178.419 150.629 178.742 150.794 179.234 150.876C182.887 151.474 186.722 151.908 189.94 150.118C190.063 150.05 190.173 149.956 190.256 149.842C190.339 149.728 190.396 149.596 190.424 149.457C190.554 148.718 190.109 147.756 189.714 146.999C188.373 144.434 187.283 141.748 186.457 138.977C186.449 138.953 186.442 138.93 186.433 138.908C185.962 137.718 186.326 136.495 187.382 135.718C191.968 132.426 193.636 129.032 192.084 126.153C191.18 124.48 189.235 123.118 186.754 122.415C184.221 121.7 181.498 121.779 179.28 122.632C175.909 123.932 173.969 127.626 174.769 131.231C175.098 132.787 175.805 133.956 176.738 134.525Z" fill="#082244"/>
<path d="M159.699 156.362C160.349 158.904 160.71 161.562 162.845 163.086C163.908 163.845 167.135 164.214 168.333 163.712C174.053 161.328 167.843 161.45 164.173 159.652C162.267 158.719 161.207 154.373 160.901 153.366C160.663 152.586 159.731 148.639 158.396 149.195C157.547 149.553 159.454 155.409 159.699 156.362Z" fill="white"/>
<path d="M211.807 128.893C211.732 128.893 211.657 128.878 211.588 128.848C211.519 128.816 211.458 128.771 211.408 128.714C211.359 128.657 211.322 128.59 211.302 128.517C211.281 128.446 211.276 128.369 211.287 128.295C211.933 124.014 212.23 119.689 212.174 115.361C212.171 115.224 212.225 115.091 212.321 114.992C212.417 114.893 212.548 114.836 212.686 114.835H212.694C212.832 114.835 212.963 114.89 213.061 114.987C213.158 115.085 213.214 115.217 213.214 115.355C213.27 119.74 212.97 124.121 212.316 128.458C212.295 128.579 212.234 128.688 212.14 128.767C212.048 128.848 211.93 128.892 211.807 128.893Z" fill="#082244"/>
<path d="M210.11 138.08C210.076 138.079 210.043 138.076 210.009 138.07C209.875 138.043 209.755 137.963 209.679 137.849C209.602 137.734 209.573 137.595 209.599 137.46L210.838 131.16C210.867 131.025 210.946 130.908 211.06 130.831C211.174 130.756 211.314 130.729 211.448 130.755C211.583 130.781 211.701 130.86 211.778 130.973C211.855 131.086 211.885 131.225 211.859 131.361L210.62 137.66C210.598 137.779 210.534 137.884 210.44 137.961C210.348 138.037 210.231 138.08 210.11 138.08Z" fill="#082244"/>
<path d="M208.653 144.271C208.616 144.27 208.581 144.267 208.546 144.26C208.478 144.246 208.415 144.219 208.359 144.18C208.303 144.142 208.255 144.093 208.217 144.036C208.18 143.978 208.154 143.913 208.142 143.847C208.129 143.779 208.13 143.711 208.144 143.644L208.534 141.81C208.562 141.675 208.644 141.556 208.759 141.481C208.874 141.406 209.015 141.38 209.151 141.408C209.285 141.437 209.403 141.518 209.478 141.633C209.554 141.749 209.58 141.889 209.552 142.025L209.162 143.859C209.138 143.975 209.073 144.08 208.98 144.155C208.887 144.229 208.771 144.271 208.653 144.271Z" fill="#082244"/>
<path d="M201.942 163.612C201.815 163.612 201.691 163.567 201.595 163.484C201.5 163.399 201.438 163.283 201.422 163.157C201.406 163.031 201.436 162.904 201.508 162.798C201.581 162.693 201.688 162.618 201.812 162.588C202.41 162.436 203.632 161.526 205.062 157.136C206.021 154.205 206.729 150.829 207.177 148.545C207.189 148.478 207.215 148.413 207.252 148.355C207.29 148.298 207.338 148.249 207.395 148.21C207.453 148.171 207.516 148.145 207.584 148.131C207.652 148.116 207.72 148.116 207.788 148.129C207.856 148.144 207.919 148.17 207.977 148.207C208.034 148.246 208.083 148.294 208.121 148.352C208.159 148.409 208.185 148.474 208.198 148.541C208.211 148.609 208.211 148.678 208.198 148.745C206.323 158.29 204.374 163.009 202.064 163.595C202.024 163.606 201.982 163.611 201.942 163.612Z" fill="#082244"/>
<path d="M178.107 134.194C177.205 134.194 176.253 133.526 175.625 132.45C174.55 130.609 174.661 128.177 175.92 125.95C175.988 125.829 176.101 125.74 176.234 125.703C176.366 125.665 176.509 125.682 176.63 125.75C176.751 125.817 176.839 125.93 176.877 126.064C176.915 126.197 176.898 126.34 176.83 126.461C175.235 129.287 176.195 131.362 176.527 131.931C176.956 132.666 177.592 133.16 178.111 133.16C178.249 133.16 178.38 133.214 178.477 133.312C178.575 133.409 178.631 133.542 178.631 133.68C178.631 133.817 178.575 133.949 178.477 134.048C178.38 134.145 178.249 134.2 178.111 134.2L178.107 134.194Z" fill="white"/>
<path d="M181.698 150.603C181.29 150.603 180.808 150.579 180.345 150.316C180.294 150.289 180.243 150.264 180.191 150.245C179.61 149.985 179.274 149.627 179.281 148.509C179.281 148.249 179.478 147.641 180.28 145.389C180.51 144.747 180.77 144.019 180.8 143.888C180.828 143.752 180.909 143.635 181.025 143.56C181.139 143.486 181.279 143.459 181.415 143.487C181.549 143.516 181.667 143.595 181.742 143.711C181.818 143.825 181.845 143.966 181.818 144.101C181.785 144.262 181.638 144.678 181.26 145.739C180.926 146.672 180.371 148.227 180.321 148.527C180.321 149.16 180.414 149.199 180.613 149.287C180.698 149.322 180.783 149.362 180.865 149.407C181.139 149.563 181.48 149.562 181.838 149.558C181.976 149.558 182.108 149.613 182.205 149.71C182.303 149.808 182.358 149.94 182.358 150.078C182.358 150.216 182.303 150.347 182.205 150.445C182.108 150.542 181.976 150.598 181.838 150.598L181.698 150.603Z" fill="white"/>
<path d="M89.1791 119.195C89.1054 119.195 89.0324 119.18 88.9652 119.148C88.8979 119.118 88.8379 119.074 88.7891 119.02C88.2412 118.394 87.9468 117.587 87.9636 116.756C87.9653 116.687 87.9803 116.62 88.0082 116.557C88.0359 116.495 88.0755 116.439 88.125 116.392C88.1746 116.346 88.2328 116.308 88.2965 116.283C88.3603 116.258 88.4283 116.247 88.4966 116.249C88.5648 116.251 88.6322 116.266 88.6946 116.294C88.757 116.321 88.8134 116.361 88.8604 116.411C88.9075 116.46 88.9444 116.518 88.969 116.582C88.9936 116.646 89.0053 116.713 89.0036 116.782C88.991 117.35 89.1923 117.902 89.5678 118.329C89.6346 118.403 89.6781 118.497 89.6934 118.596C89.7086 118.695 89.6948 118.797 89.6536 118.888C89.6122 118.979 89.5454 119.057 89.4609 119.112C89.3765 119.167 89.2781 119.195 89.1778 119.195H89.1791Z" fill="white"/>
<path d="M109.779 121.304C108.849 121.304 108.129 120.107 108.129 119.077C108.129 118.939 108.184 118.807 108.281 118.709C108.379 118.612 108.511 118.557 108.649 118.557C108.787 118.557 108.919 118.612 109.017 118.709C109.114 118.807 109.169 118.939 109.169 119.077C109.169 119.727 109.611 120.264 109.779 120.264C109.917 120.264 110.049 120.319 110.146 120.416C110.244 120.514 110.299 120.646 110.299 120.784C110.299 120.922 110.244 121.053 110.146 121.151C110.049 121.249 109.917 121.304 109.779 121.304Z" fill="white"/>
<path d="M133.806 121.914C133.715 121.914 133.625 121.89 133.546 121.846L133.317 121.716C132.558 121.296 131.904 120.936 131.904 119.527C131.904 119.389 131.959 119.256 132.056 119.159C132.154 119.061 132.285 119.007 132.424 119.007C132.562 119.007 132.693 119.061 132.791 119.159C132.888 119.256 132.944 119.389 132.944 119.527C132.944 120.321 133.112 120.415 133.82 120.806L134.06 120.936C134.16 120.992 134.238 121.08 134.282 121.187C134.326 121.294 134.335 121.411 134.305 121.522C134.275 121.634 134.209 121.732 134.118 121.802C134.026 121.871 133.914 121.908 133.8 121.908L133.806 121.914Z" fill="white"/>
<path d="M137.58 121.292C137.11 121.277 136.664 121.082 136.335 120.748C136.098 120.525 135.908 120.257 135.776 119.962C135.644 119.666 135.573 119.346 135.566 119.022C135.566 118.885 135.621 118.752 135.718 118.655C135.816 118.557 135.947 118.502 136.086 118.502C136.224 118.502 136.355 118.557 136.453 118.655C136.55 118.752 136.606 118.885 136.606 119.022C136.622 119.392 136.782 119.739 137.052 119.992C137.121 120.07 137.206 120.133 137.299 120.177C137.394 120.222 137.496 120.247 137.601 120.252C137.739 120.244 137.874 120.293 137.975 120.386C138.078 120.478 138.139 120.608 138.147 120.746C138.153 120.884 138.105 121.019 138.013 121.121C137.919 121.223 137.791 121.284 137.653 121.292H137.58Z" fill="white"/>
<path d="M149.084 119.597C148.222 119.597 147.578 118.481 147.578 117.483C147.578 117.345 147.633 117.212 147.73 117.115C147.828 117.017 147.959 116.963 148.098 116.963C148.236 116.963 148.367 117.017 148.465 117.115C148.562 117.212 148.618 117.345 148.618 117.483C148.618 118.064 148.955 118.523 149.091 118.558C149.229 118.558 149.36 118.613 149.458 118.71C149.555 118.808 149.611 118.94 149.611 119.078C149.61 119.147 149.597 119.214 149.57 119.278C149.544 119.342 149.505 119.399 149.455 119.447C149.406 119.495 149.347 119.533 149.284 119.559C149.22 119.585 149.152 119.597 149.084 119.597Z" fill="white"/>
<path d="M40.7798 101.342C40.7246 101.342 40.6697 101.333 40.6173 101.316C40.4879 101.272 40.3805 101.18 40.3185 101.059C40.2565 100.937 40.2448 100.796 40.2858 100.666C40.6017 99.7042 41.2202 98.8709 42.0486 98.2898C42.1031 98.2404 42.1675 98.2027 42.2374 98.1793C42.3075 98.1572 42.3814 98.1494 42.4546 98.1572C42.5278 98.165 42.5985 98.1884 42.662 98.2261C42.7254 98.2625 42.7803 98.3132 42.8228 98.373C42.8653 98.4341 42.8947 98.5017 42.9089 98.5745C42.9229 98.646 42.9216 98.7214 42.9048 98.7929C42.8881 98.8644 42.8562 98.932 42.8115 98.9905C42.7668 99.049 42.7101 99.0971 42.6453 99.1322C42.0012 99.5846 41.5202 100.232 41.2738 100.981C41.2403 101.085 41.1744 101.177 41.0856 101.241C40.9969 101.306 40.8898 101.341 40.7798 101.342Z" fill="white"/>
<path d="M57.5982 113.336C57.5106 113.336 57.4244 113.314 57.3476 113.272C57.2707 113.23 57.2059 113.168 57.1588 113.096C56.5408 112.121 56.2292 110.984 56.2644 109.831C56.2691 109.696 56.3259 109.569 56.4229 109.475C56.52 109.382 56.6495 109.33 56.7844 109.33H56.8026C56.9403 109.333 57.0704 109.393 57.1645 109.493C57.2586 109.595 57.309 109.729 57.3044 109.866C57.2748 110.809 57.5298 111.738 58.0363 112.535C58.0866 112.613 58.115 112.704 58.1182 112.798C58.1216 112.89 58.0996 112.984 58.0548 113.066C58.0099 113.148 57.9439 113.215 57.8635 113.263C57.7832 113.31 57.6915 113.336 57.5982 113.336Z" fill="white"/>
<path d="M84.8972 61.4648C84.7977 61.4648 84.7005 61.4362 84.6169 61.3825C84.5333 61.3288 84.4667 61.2522 84.4253 61.1619C84.3204 60.9082 84.2742 60.6341 84.2902 60.36C84.3063 60.086 84.3841 59.8191 84.518 59.5794C84.6517 59.3396 84.838 59.1333 85.0628 58.9758C85.2877 58.8183 85.5452 58.7137 85.8163 58.6698C85.885 58.6595 85.9552 58.6631 86.0226 58.6805C86.0899 58.6978 86.1531 58.7285 86.2085 58.7708C86.2637 58.8129 86.31 58.8658 86.3445 58.9261C86.379 58.9866 86.401 59.0533 86.4093 59.1223C86.4175 59.1914 86.4119 59.2614 86.3926 59.3282C86.3733 59.3952 86.3408 59.4574 86.297 59.5114C86.2533 59.5655 86.1991 59.6102 86.1378 59.6429C86.0764 59.6757 86.0091 59.6957 85.9398 59.702C85.8324 59.727 85.7314 59.7742 85.6432 59.8407C85.5551 59.907 85.4819 59.9911 85.4281 60.0874C85.3744 60.1837 85.3414 60.2902 85.3312 60.3999C85.3211 60.5098 85.334 60.6205 85.3691 60.7251C85.406 60.8044 85.4224 60.8917 85.4166 60.9791C85.4108 61.0663 85.3831 61.1507 85.3362 61.2245C85.2891 61.2982 85.2241 61.3589 85.1474 61.4009C85.0707 61.4429 84.9847 61.4649 84.8972 61.4648Z" fill="white"/>
<path d="M91.5733 63.3898C91.5423 63.3898 91.5115 63.3872 91.481 63.382C91.4137 63.3699 91.3494 63.3447 91.2919 63.3077C91.2343 63.2708 91.1847 63.223 91.1457 63.1668C91.1067 63.1106 91.0791 63.0473 91.0646 62.9805C91.0501 62.9138 91.0488 62.8448 91.0611 62.7775C91.1053 62.5718 91.1939 62.3782 91.3205 62.2103C91.4473 62.0423 91.6091 61.904 91.7948 61.8051C91.9804 61.706 92.1854 61.6487 92.3955 61.637C92.6056 61.6254 92.8157 61.6596 93.0111 61.7375C93.1374 61.793 93.2366 61.8964 93.2867 62.025C93.3368 62.1536 93.3337 62.2968 93.2782 62.4232C93.2227 62.5496 93.1193 62.6488 92.9906 62.6988C92.8621 62.749 92.7188 62.7459 92.5925 62.6904C92.5416 62.6728 92.4877 62.6666 92.4341 62.6722C92.3807 62.6777 92.3291 62.6952 92.2831 62.7229C92.2346 62.7461 92.1917 62.7795 92.1571 62.8209C92.1225 62.8621 92.0973 62.9102 92.0829 62.9621C92.0613 63.0817 91.9985 63.1899 91.9054 63.2681C91.8123 63.3462 91.6948 63.3892 91.5733 63.3898Z" fill="white"/>
<path d="M107.955 75.6977C107.926 75.6977 107.898 75.6951 107.869 75.6899C106.881 75.5277 105.877 75.4914 104.879 75.582C104.811 75.5883 104.742 75.5809 104.677 75.5604C104.611 75.5399 104.551 75.5068 104.498 75.4628C104.445 75.4189 104.402 75.3651 104.37 75.3043C104.338 75.2435 104.319 75.1772 104.313 75.1088C104.307 75.0406 104.314 74.9718 104.334 74.9063C104.355 74.8409 104.388 74.7801 104.432 74.7274C104.476 74.6749 104.53 74.6313 104.59 74.5996C104.651 74.5678 104.718 74.5483 104.786 74.542C105.87 74.4441 106.962 74.4838 108.036 74.6603C108.174 74.6714 108.302 74.7368 108.391 74.8421C108.481 74.9474 108.525 75.084 108.514 75.2219C108.503 75.3599 108.438 75.4878 108.332 75.5775C108.227 75.6672 108.091 75.7114 107.953 75.7003L107.955 75.6977Z" fill="white"/>
<path d="M119.907 88.1855C119.879 88.1875 119.851 88.1875 119.823 88.1855C118.774 88.015 117.708 87.9674 116.648 88.0438C116.58 88.0487 116.511 88.0401 116.446 88.0184C116.381 87.9968 116.321 87.9626 116.27 87.9177C116.218 87.8729 116.176 87.8183 116.145 87.7571C116.114 87.6958 116.096 87.6291 116.091 87.5609C116.086 87.4925 116.095 87.424 116.117 87.359C116.138 87.2941 116.172 87.2341 116.217 87.1823C116.262 87.1306 116.317 87.0882 116.378 87.0575C116.439 87.027 116.506 87.0087 116.574 87.0038C117.715 86.9217 118.861 86.9728 119.989 87.1559C120.118 87.1765 120.235 87.245 120.316 87.3478C120.397 87.4507 120.436 87.5801 120.426 87.7105C120.415 87.8409 120.356 87.9626 120.26 88.0514C120.164 88.14 120.038 88.1894 119.907 88.1894V88.1855Z" fill="white"/>
<path d="M128.583 99.1025H125.983C125.845 99.1025 125.713 99.0479 125.615 98.9504C125.518 98.8516 125.463 98.7203 125.463 98.5825C125.463 98.4447 125.518 98.3121 125.615 98.2146C125.713 98.1171 125.845 98.0625 125.983 98.0625H128.583C128.721 98.0625 128.853 98.1171 128.951 98.2146C129.048 98.3121 129.103 98.4447 129.103 98.5825C129.103 98.7203 129.048 98.8516 128.951 98.9504C128.853 99.0479 128.721 99.1025 128.583 99.1025Z" fill="white"/>
<path d="M137.268 111.311C137.159 111.311 137.052 111.276 136.965 111.213C136.676 111.01 136.345 110.879 135.997 110.827C135.649 110.776 135.293 110.808 134.96 110.919C134.83 110.958 134.693 110.945 134.572 110.884C134.452 110.823 134.361 110.718 134.317 110.59C134.274 110.463 134.281 110.324 134.338 110.202C134.395 110.08 134.496 109.985 134.622 109.937C135.113 109.771 135.635 109.726 136.147 109.8C136.66 109.875 137.147 110.069 137.571 110.368C137.659 110.432 137.727 110.523 137.761 110.627C137.796 110.732 137.796 110.844 137.762 110.949C137.728 111.055 137.662 111.146 137.573 111.211C137.485 111.276 137.377 111.311 137.268 111.311Z" fill="white"/>
<path d="M144.088 129.486C143.558 129.486 143.039 129.333 142.597 129.043C142.481 128.966 142.402 128.848 142.374 128.713C142.346 128.578 142.374 128.437 142.45 128.321C142.527 128.207 142.645 128.126 142.781 128.099C142.916 128.072 143.056 128.099 143.172 128.176C143.365 128.303 143.585 128.388 143.814 128.424C144.044 128.462 144.279 128.45 144.504 128.392C144.569 128.373 144.638 128.368 144.706 128.377C144.773 128.386 144.84 128.409 144.898 128.442C144.958 128.477 145.01 128.522 145.052 128.576C145.093 128.631 145.123 128.692 145.141 128.758C145.159 128.825 145.163 128.893 145.154 128.961C145.146 129.029 145.124 129.094 145.089 129.153C145.055 129.212 145.01 129.264 144.957 129.306C144.902 129.347 144.84 129.378 144.775 129.397C144.55 129.456 144.32 129.486 144.088 129.486Z" fill="white"/>
<path d="M122.092 56.5179C122.036 56.5184 121.98 56.5096 121.927 56.4919C121.682 56.3952 121.464 56.2432 121.287 56.0479C121.111 55.8527 120.983 55.6194 120.912 55.3663C120.84 55.1131 120.828 54.847 120.877 54.5885C120.925 54.3301 121.033 54.0864 121.191 53.8763C121.279 53.7699 121.406 53.7029 121.543 53.6899C121.68 53.6767 121.817 53.7188 121.924 53.8067C122.03 53.8947 122.097 54.0212 122.11 54.1586C122.123 54.296 122.081 54.4329 121.993 54.5393C121.942 54.6194 121.909 54.7093 121.895 54.8032C121.881 54.8972 121.887 54.993 121.913 55.0844C121.938 55.1758 121.983 55.2606 122.044 55.3337C122.104 55.4066 122.18 55.466 122.265 55.5078C122.382 55.5473 122.481 55.6272 122.545 55.7332C122.608 55.8391 122.632 55.9642 122.612 56.0861C122.591 56.208 122.528 56.3186 122.434 56.3983C122.339 56.4778 122.219 56.5211 122.096 56.5205L122.092 56.5179Z" fill="white"/>
<path d="M129.024 60.9677H129.001C128.933 60.9648 128.866 60.9483 128.804 60.9193C128.742 60.8904 128.686 60.8495 128.64 60.799C128.594 60.7486 128.558 60.6894 128.535 60.6252C128.512 60.5608 128.501 60.4926 128.504 60.4243C128.555 59.3297 129.271 58.1104 130.218 58.1104C130.356 58.1104 130.488 58.1651 130.585 58.2626C130.683 58.3601 130.738 58.4924 130.738 58.6304C130.738 58.7683 130.683 58.9005 130.585 58.998C130.488 59.0955 130.356 59.1504 130.218 59.1504C130.04 59.1504 129.578 59.7223 129.544 60.4724C129.538 60.606 129.48 60.7321 129.384 60.8242C129.287 60.9165 129.158 60.9679 129.024 60.9677Z" fill="white"/>
<path d="M136.148 93.9006C136.081 93.9002 136.016 93.8875 135.955 93.8629C135.891 93.8376 135.832 93.7998 135.784 93.7519C135.735 93.7041 135.696 93.6471 135.669 93.5842C135.643 93.5213 135.628 93.4537 135.627 93.3853C135.627 93.3169 135.64 93.2491 135.666 93.1856C136.003 92.3608 136.542 91.6338 137.235 91.0718C137.342 90.991 137.476 90.9546 137.609 90.9704C137.742 90.9863 137.864 91.0531 137.95 91.157C138.035 91.2609 138.076 91.3936 138.066 91.5275C138.055 91.6614 137.994 91.7861 137.894 91.8752C137.338 92.3269 136.902 92.9106 136.631 93.573C136.592 93.6696 136.525 93.7524 136.439 93.8108C136.354 93.8692 136.251 93.9005 136.148 93.9006Z" fill="white"/>
<path d="M135.975 127.913C135.861 127.913 135.749 127.876 135.659 127.807C135.32 127.547 134.502 127.247 133.826 127.431C133.759 127.451 133.69 127.458 133.62 127.451C133.551 127.444 133.483 127.423 133.422 127.39C133.361 127.356 133.308 127.312 133.265 127.256C133.222 127.201 133.189 127.139 133.171 127.072C133.153 127.005 133.148 126.935 133.157 126.866C133.166 126.797 133.189 126.73 133.224 126.669C133.259 126.61 133.306 126.558 133.362 126.516C133.418 126.474 133.482 126.444 133.551 126.429C134.528 126.16 135.67 126.504 136.292 126.981C136.378 127.048 136.441 127.139 136.473 127.243C136.504 127.347 136.502 127.457 136.467 127.561C136.431 127.664 136.365 127.752 136.277 127.816C136.19 127.88 136.083 127.913 135.975 127.913Z" fill="white"/>
<path d="M113.104 60.7951H113.054C112.986 60.7887 112.92 60.7689 112.86 60.7371C112.799 60.7051 112.746 60.6615 112.702 60.6089C112.659 60.5562 112.626 60.4955 112.606 60.4303C112.586 60.3649 112.579 60.2962 112.585 60.2282C112.625 59.7583 112.553 59.2856 112.374 58.8491C112.196 58.4127 111.916 58.0249 111.558 57.7179C111.506 57.6739 111.463 57.6199 111.431 57.5592C111.4 57.4986 111.381 57.4323 111.375 57.3642C111.369 57.2961 111.377 57.2276 111.398 57.1625C111.418 57.0973 111.452 57.037 111.496 56.9848C111.54 56.9325 111.594 56.8895 111.654 56.858C111.715 56.8265 111.781 56.8074 111.849 56.8017C111.917 56.7959 111.986 56.8035 112.051 56.8242C112.116 56.845 112.177 56.8783 112.229 56.9223C112.714 57.3383 113.093 57.8638 113.335 58.4553C113.577 59.0469 113.675 59.6876 113.621 60.3244C113.609 60.4531 113.549 60.5726 113.453 60.6597C113.358 60.7467 113.233 60.7949 113.104 60.7951Z" fill="white"/>
<path d="M144.856 96.2024C144.746 96.2024 144.641 96.1686 144.553 96.1049C144.464 96.0425 144.398 95.9541 144.362 95.8514C144.327 95.7487 144.325 95.6369 144.355 95.5329C144.386 95.4289 144.45 95.3379 144.536 95.2716C145.19 94.7607 145.662 94.0509 145.879 93.2483C145.914 93.1145 146.001 93.0004 146.121 92.9308C146.24 92.8614 146.383 92.8423 146.517 92.8778C146.65 92.9134 146.764 93.0005 146.834 93.1203C146.903 93.24 146.923 93.3823 146.888 93.5161C146.613 94.5384 146.013 95.4419 145.179 96.0932C145.086 96.1647 144.973 96.2024 144.856 96.2024Z" fill="white"/>
<path d="M127.927 72.6707C127.85 72.671 127.773 72.6537 127.703 72.6204C127.633 72.587 127.571 72.5384 127.522 72.4781C127.473 72.4177 127.438 72.3472 127.42 72.2716C127.402 72.1961 127.402 72.1175 127.418 72.0415C127.476 71.7698 127.548 71.5345 127.618 71.3252C127.796 70.7623 127.894 70.4529 127.609 69.864C127.577 69.8024 127.557 69.7349 127.551 69.6657C127.546 69.5964 127.554 69.5266 127.576 69.4605C127.597 69.3945 127.632 69.3334 127.678 69.281C127.724 69.2286 127.779 69.186 127.842 69.1554C127.905 69.125 127.973 69.1074 128.042 69.1038C128.111 69.1 128.181 69.1103 128.246 69.1339C128.312 69.1576 128.372 69.1941 128.423 69.2415C128.474 69.2887 128.515 69.3457 128.544 69.409C129.01 70.371 128.804 71.0158 128.609 71.6398C128.548 71.8348 128.479 72.0376 128.436 72.2599C128.411 72.3763 128.347 72.4804 128.254 72.5552C128.162 72.6299 128.046 72.6707 127.927 72.6707Z" fill="white"/>
<path d="M152.762 45.6188C152.654 45.6189 152.55 45.5859 152.462 45.5241C152.375 45.4625 152.307 45.3752 152.272 45.2743C151.926 44.311 152.435 43.1293 152.906 42.5976C152.997 42.4941 153.126 42.4313 153.264 42.4228C153.402 42.4144 153.537 42.4612 153.641 42.5527C153.745 42.6442 153.807 42.7731 153.815 42.911C153.824 43.0488 153.777 43.1844 153.686 43.2879C153.433 43.5739 153.061 44.3864 153.254 44.9233C153.281 45.0017 153.29 45.0858 153.278 45.1683C153.268 45.2509 153.237 45.3295 153.189 45.3978C153.141 45.4659 153.078 45.5215 153.004 45.56C152.93 45.5985 152.848 45.6186 152.765 45.6188H152.762Z" fill="white"/>
<path d="M140.466 46.4135C140.365 46.4131 140.266 46.3833 140.182 46.3277C138.979 45.5373 139.421 44.2815 139.858 43.4053C139.888 43.344 139.929 43.2896 139.981 43.2447C140.033 43.2 140.093 43.1658 140.158 43.1441C140.222 43.1224 140.291 43.1137 140.358 43.1185C140.427 43.1233 140.494 43.1414 140.555 43.1719C140.616 43.2023 140.67 43.2446 140.715 43.2961C140.76 43.3477 140.794 43.4075 140.816 43.4722C140.838 43.5371 140.846 43.6054 140.842 43.6736C140.837 43.7417 140.819 43.8081 140.789 43.8694C140.183 45.0836 140.512 45.2994 140.752 45.4593C140.845 45.5207 140.916 45.6107 140.954 45.7159C140.993 45.8209 140.995 45.9356 140.964 46.0427C140.932 46.1498 140.865 46.2438 140.776 46.3105C140.686 46.3773 140.578 46.4133 140.466 46.4135Z" fill="white"/>
<path d="M178.626 71.7177C178.558 71.7179 178.493 71.7051 178.432 71.68C178.303 71.6286 178.202 71.5285 178.147 71.4018C178.093 71.275 178.092 71.1319 178.144 71.004C178.439 70.2722 178.888 69.6128 179.463 69.0709C179.512 69.0241 179.571 68.9874 179.635 68.9631C179.698 68.9389 179.766 68.9274 179.835 68.9294C179.902 68.9314 179.97 68.9469 180.032 68.9748C180.095 69.0028 180.151 69.0427 180.198 69.0923C180.244 69.1421 180.281 69.2005 180.305 69.2643C180.33 69.3281 180.341 69.3961 180.339 69.4644C180.337 69.5326 180.322 69.5998 180.294 69.6621C180.266 69.7245 180.226 69.7807 180.177 69.8275C179.711 70.2645 179.347 70.7968 179.108 71.3875C179.069 71.4846 179.003 71.5679 178.917 71.6268C178.831 71.6857 178.73 71.7174 178.626 71.7177Z" fill="white"/>
<path d="M184.107 94.744C183.892 94.7479 183.679 94.7245 183.471 94.6751C183.402 94.6582 183.338 94.6296 183.282 94.588C183.225 94.5477 183.178 94.4957 183.142 94.4359C183.106 94.3748 183.082 94.3085 183.073 94.2396C183.064 94.1707 183.068 94.1005 183.086 94.0329C183.104 93.9656 183.135 93.9026 183.178 93.8476C183.221 93.7927 183.276 93.7469 183.337 93.7131C183.398 93.6795 183.464 93.6583 183.535 93.651C183.603 93.6439 183.674 93.6506 183.741 93.6712C184.188 93.7908 185.431 93.5906 185.811 93.3358C185.867 93.2955 185.932 93.2671 185.999 93.2522C186.067 93.2373 186.138 93.2363 186.206 93.2492C186.275 93.262 186.34 93.2884 186.398 93.327C186.456 93.3655 186.506 93.4153 186.544 93.4734C186.583 93.5315 186.609 93.5968 186.622 93.6653C186.635 93.7338 186.634 93.8041 186.618 93.8721C186.604 93.9401 186.575 94.0043 186.535 94.0615C186.495 94.1187 186.443 94.1668 186.383 94.2032C185.902 94.5217 184.887 94.744 184.107 94.744Z" fill="white"/>
<path d="M182.553 99.1974C182.282 99.1974 182.01 99.1805 181.741 99.1467C181.603 99.1285 181.479 99.0583 181.394 98.9491C181.309 98.8399 181.271 98.7021 181.29 98.5656C181.307 98.4278 181.377 98.3043 181.486 98.2198C181.595 98.134 181.733 98.0963 181.871 98.1145C182.561 98.199 183.262 98.1548 183.936 97.9845C184.069 97.9494 184.212 97.9702 184.33 98.0404C184.45 98.1106 184.536 98.225 184.571 98.3589C184.605 98.4928 184.585 98.6345 184.515 98.7528C184.445 98.8724 184.329 98.9582 184.196 98.9933C183.658 99.1285 183.107 99.1974 182.553 99.1974Z" fill="white"/>
<path d="M191.91 56.4917C191.221 56.4918 190.535 56.3884 189.878 56.1849C187.886 55.557 186.648 54.1257 186.648 52.4487C186.648 52.3109 186.703 52.1786 186.801 52.0811C186.898 51.9836 187.029 51.9287 187.168 51.9287C187.306 51.9287 187.438 51.9836 187.535 52.0811C187.633 52.1786 187.688 52.3109 187.688 52.4487C187.688 53.6733 188.623 54.699 190.191 55.1917C191.861 55.7117 194.083 55.4907 195.096 54.0399C195.174 53.9269 195.295 53.8499 195.431 53.8257C195.566 53.8015 195.707 53.8323 195.82 53.9112C195.933 53.9903 196.01 54.1109 196.033 54.2466C196.058 54.3825 196.027 54.5223 195.949 54.6353C195.018 55.9613 193.442 56.4917 191.91 56.4917Z" fill="#082244"/>
<path d="M70.7065 153.29C70.5734 153.29 70.4453 153.239 70.3486 153.147C70.2519 153.056 70.1939 152.931 70.1865 152.799C69.868 147.053 68.4965 143.746 67.0418 140.243C65.994 137.717 64.9098 135.104 64.0622 131.376C64.0456 131.308 64.0424 131.238 64.053 131.171C64.0636 131.102 64.0878 131.037 64.1241 130.977C64.1604 130.918 64.2081 130.868 64.2644 130.827C64.3205 130.787 64.3843 130.759 64.4518 130.743C64.5193 130.727 64.5891 130.726 64.6572 130.738C64.7253 130.749 64.7905 130.775 64.8486 130.813C64.9067 130.851 64.9569 130.899 64.9959 130.956C65.035 131.013 65.0623 131.077 65.0762 131.146C65.9043 134.786 66.9716 137.359 68.0025 139.844C69.4221 143.265 70.7663 146.504 71.1719 151.934L75.302 149.75C75.3625 149.716 75.4291 149.694 75.4979 149.688C75.5667 149.68 75.6362 149.687 75.7025 149.706C75.769 149.726 75.8307 149.758 75.8841 149.802C75.9377 149.846 75.9819 149.9 76.0143 149.961C76.0466 150.022 76.0665 150.09 76.0726 150.158C76.0788 150.227 76.0711 150.296 76.05 150.363C76.029 150.429 75.9949 150.49 75.9501 150.542C75.9051 150.595 75.8501 150.638 75.7882 150.669L70.9483 153.229C70.8738 153.268 70.7909 153.289 70.7065 153.29Z" fill="#082244"/>
<path d="M63.4182 128.306C63.2951 128.304 63.176 128.262 63.0821 128.181C62.9884 128.102 62.926 127.991 62.906 127.87L62.334 124.397C62.3206 124.328 62.321 124.258 62.3353 124.19C62.3496 124.121 62.3774 124.057 62.4172 124C62.4568 123.943 62.5076 123.894 62.5664 123.857C62.6253 123.819 62.6911 123.795 62.7597 123.783C62.8284 123.771 62.8987 123.774 62.9663 123.791C63.0339 123.808 63.0976 123.836 63.1536 123.878C63.2095 123.92 63.2566 123.972 63.2919 124.031C63.3274 124.091 63.3504 124.159 63.3597 124.228L63.9317 127.701C63.9542 127.836 63.9218 127.977 63.8416 128.089C63.7614 128.2 63.6399 128.276 63.504 128.299C63.4755 128.303 63.4469 128.304 63.4182 128.306Z" fill="#082244"/>
<path d="M154.038 56.3623C153.918 56.3626 153.804 56.3223 153.711 56.2482C153.618 56.1741 153.554 56.0705 153.528 55.9548C153.502 55.8389 153.518 55.7179 153.57 55.6116C153.623 55.5052 153.71 55.4202 153.818 55.3704L155.128 54.7607C155.189 54.729 155.258 54.7101 155.327 54.7053C155.397 54.7005 155.468 54.7098 155.534 54.7326C155.599 54.7554 155.66 54.7913 155.712 54.8381C155.764 54.8849 155.806 54.9415 155.835 55.005C155.864 55.0683 155.881 55.1369 155.884 55.2067C155.886 55.2764 155.873 55.3461 155.848 55.4112C155.824 55.4764 155.786 55.5358 155.737 55.586C155.689 55.6361 155.63 55.6759 155.566 55.7032L154.256 56.3129C154.187 56.3454 154.113 56.3623 154.038 56.3623Z" fill="#082244"/>
<path d="M203.308 109.328C203.257 109.328 203.207 109.321 203.158 109.306C202.588 109.135 202 109.033 201.406 109.006C201.267 108.999 201.138 108.938 201.045 108.836C200.952 108.733 200.904 108.599 200.911 108.461C200.917 108.323 200.978 108.193 201.08 108.1C201.182 108.008 201.316 107.959 201.455 107.966C202.134 107.997 202.807 108.113 203.459 108.309C203.578 108.344 203.68 108.422 203.747 108.528C203.814 108.633 203.841 108.759 203.823 108.882C203.805 109.006 203.742 109.119 203.647 109.201C203.552 109.282 203.433 109.327 203.308 109.327V109.328Z" fill="#082244"/>
<path d="M204.053 166.029C203.915 166.029 203.784 165.973 203.687 165.876C203.589 165.778 203.533 165.647 203.533 165.509C203.533 165.371 203.589 165.239 203.687 165.141C203.784 165.044 203.915 164.989 204.053 164.989C207.002 164.989 210.066 158.308 211.273 154.776C213.53 148.179 214.933 141.7 216.418 134.84C216.683 133.615 216.952 132.384 217.222 131.149C217.408 130.306 217.624 129.437 217.832 128.597C218.802 124.697 219.804 120.658 218.448 117.088C217.977 115.849 217.408 114.911 216.694 114.219C215.706 113.256 214.344 112.68 213.019 112.203C210.652 111.349 208.217 110.696 205.739 110.253C205.67 110.242 205.604 110.219 205.543 110.184C205.483 110.147 205.431 110.099 205.39 110.043C205.349 109.986 205.319 109.922 205.304 109.854C205.288 109.786 205.286 109.714 205.299 109.646C205.31 109.577 205.336 109.512 205.375 109.453C205.413 109.393 205.464 109.344 205.521 109.305C205.579 109.266 205.646 109.239 205.713 109.226C205.782 109.213 205.854 109.214 205.921 109.23C208.458 109.682 210.95 110.349 213.373 111.222C214.803 111.742 216.291 112.372 217.421 113.473C218.241 114.274 218.895 115.334 219.42 116.723C220.891 120.597 219.85 124.793 218.842 128.85C218.635 129.685 218.421 130.54 218.238 131.376C217.967 132.611 217.699 133.841 217.434 135.063C215.943 141.953 214.534 148.462 212.258 155.117C211.634 156.936 208.309 166.029 204.053 166.029Z" fill="#082244"/>
</g>
<defs>
<clipPath id="clip0_470_28490">
<rect width="260" height="188" fill="white"/>
</clipPath>
</defs>
</svg>
