<svg width="260" height="261" viewBox="0 0 260 261" fill="none" xmlns="http://www.w3.org/2000/svg">
<g clip-path="url(#clip0_470_28494)">
<path d="M89.168 187.116C89.1797 188.106 89.1433 189.211 88.3958 189.913C87.7705 190.496 86.8228 190.63 85.944 190.719C84.3892 190.876 82.8292 190.993 81.264 191.067C80.094 191.124 78.8472 191.144 77.8151 190.615C76.4072 189.894 75.7598 188.36 75.2372 186.943C65.8473 161.491 62.128 134.57 58.4672 107.87C58.3372 106.96 58.2202 105.999 58.5647 105.14C59.19 103.569 61.0828 102.841 62.7845 102.31C66.6637 101.096 70.5776 99.9852 74.5261 98.9764C76.4995 98.4737 78.4803 97.997 80.4684 97.5464C82.0791 97.1824 83.9992 96.4817 85.6775 96.7235C88.2112 97.0901 88.1241 100.168 88.1475 101.986C88.2086 105.725 88.2359 109.463 88.2775 113.202L88.4296 125.06L88.57 136.867L88.7117 148.729L88.8534 160.537L88.9937 172.398L89.1355 184.204L89.168 187.116Z" fill="#E8F1FC"/>
<path d="M116.295 115.796C111.435 120.595 108.666 127.16 107.127 133.814C104.007 147.305 105.949 162.583 115.022 173.042C116.928 175.239 119.182 177.234 121.895 178.271C124.352 179.21 127.051 179.311 129.676 179.135C133.296 178.89 136.928 178.11 140.129 176.405C143.536 174.585 146.335 171.772 148.589 168.634C153.675 161.556 156.103 152.814 156.623 144.112C157.068 136.67 156.119 128.967 152.58 122.402C151.269 119.967 149.589 117.75 147.599 115.829C145.612 113.897 143.304 112.328 140.775 111.194C139.513 110.635 138.197 110.207 136.849 109.916C135.636 109.656 134.379 109.722 133.153 109.559C130.266 109.181 127.315 109.591 124.582 110.564C121.814 111.561 119.266 113.087 117.081 115.057C116.813 115.297 116.551 115.543 116.295 115.796Z" fill="#FD7E14"/>
<path d="M130.866 177.881C130.796 177.881 130.727 177.866 130.662 177.838C124.162 175.052 120.543 168.279 118.653 163.09C114.982 152.924 114.494 141.88 117.254 131.43C118.578 126.47 120.431 122.46 122.915 119.16C125.849 115.268 129.738 112.464 133.861 111.265C133.928 111.244 133.997 111.237 134.067 111.243C134.136 111.249 134.203 111.269 134.264 111.302C134.325 111.334 134.379 111.379 134.423 111.433C134.467 111.487 134.5 111.549 134.519 111.616C134.539 111.682 134.544 111.752 134.536 111.821C134.528 111.89 134.506 111.957 134.472 112.017C134.437 112.078 134.392 112.131 134.336 112.173C134.281 112.215 134.219 112.246 134.151 112.264C130.242 113.4 126.546 116.071 123.751 119.787C121.348 122.973 119.553 126.871 118.264 131.697C115.557 141.941 116.034 152.767 119.63 162.734C121.45 167.731 124.912 174.243 131.07 176.883C131.181 176.93 131.272 177.014 131.328 177.119C131.382 177.226 131.4 177.348 131.376 177.467C131.351 177.584 131.287 177.689 131.194 177.764C131.101 177.841 130.984 177.881 130.865 177.881H130.866Z" fill="#082244"/>
<path d="M107.586 144.85C107.448 144.851 107.316 144.798 107.217 144.701C107.118 144.605 107.062 144.474 107.061 144.336C107.059 144.197 107.112 144.064 107.209 143.966C107.305 143.868 107.437 143.811 107.575 143.81L116.304 143.6C116.442 143.596 116.576 143.648 116.676 143.743C116.775 143.839 116.833 143.97 116.837 144.109C116.84 144.246 116.788 144.379 116.693 144.479C116.598 144.579 116.467 144.636 116.329 144.64L107.599 144.85H107.586Z" fill="#082244"/>
<path d="M115.312 138.428C113.823 138.43 112.335 138.351 110.855 138.19C110.786 138.182 110.72 138.161 110.66 138.129C110.6 138.095 110.547 138.051 110.504 137.997C110.461 137.944 110.429 137.882 110.41 137.815C110.39 137.75 110.384 137.681 110.392 137.612C110.399 137.544 110.42 137.479 110.453 137.417C110.486 137.358 110.531 137.304 110.584 137.261C110.638 137.219 110.7 137.186 110.766 137.168C110.832 137.148 110.901 137.142 110.969 137.15C112.944 137.367 114.932 137.436 116.918 137.355C117.056 137.35 117.19 137.399 117.292 137.492C117.393 137.585 117.454 137.715 117.459 137.854C117.465 137.992 117.416 138.126 117.322 138.227C117.229 138.329 117.099 138.39 116.961 138.395C116.412 138.417 115.863 138.428 115.312 138.428Z" fill="#082244"/>
<path d="M117.147 129.466H117.111L110.871 129.049C110.734 129.04 110.605 128.976 110.514 128.872C110.423 128.768 110.377 128.632 110.386 128.494C110.395 128.357 110.459 128.228 110.563 128.137C110.667 128.046 110.802 128 110.94 128.009L117.18 128.426C117.249 128.429 117.316 128.444 117.378 128.473C117.44 128.501 117.496 128.541 117.543 128.591C117.59 128.641 117.626 128.699 117.65 128.763C117.674 128.827 117.685 128.896 117.683 128.964C117.68 129.032 117.665 129.099 117.637 129.161C117.608 129.224 117.568 129.28 117.518 129.326C117.468 129.373 117.41 129.409 117.346 129.433C117.282 129.457 117.213 129.469 117.145 129.466H117.147Z" fill="#082244"/>
<path d="M119.641 124.077H119.608L112.75 123.644C112.612 123.635 112.483 123.572 112.392 123.468C112.3 123.364 112.254 123.228 112.263 123.09C112.272 122.953 112.335 122.824 112.439 122.732C112.542 122.641 112.678 122.595 112.816 122.604L119.673 123.037C119.811 123.041 119.942 123.1 120.036 123.2C120.131 123.301 120.181 123.435 120.177 123.573C120.173 123.711 120.114 123.841 120.013 123.936C119.913 124.03 119.779 124.081 119.641 124.077Z" fill="#082244"/>
<path d="M123.797 117.625C123.773 117.626 123.749 117.626 123.726 117.625L117.697 116.795C117.63 116.786 117.565 116.764 117.506 116.729C117.447 116.695 117.395 116.649 117.354 116.594C117.312 116.54 117.282 116.478 117.265 116.412C117.248 116.346 117.244 116.277 117.253 116.209C117.262 116.141 117.285 116.076 117.319 116.017C117.354 115.958 117.399 115.907 117.454 115.865C117.508 115.824 117.57 115.794 117.637 115.777C117.703 115.759 117.772 115.755 117.839 115.765L123.867 116.594C123.936 116.599 124.002 116.617 124.064 116.647C124.125 116.677 124.18 116.72 124.225 116.771C124.27 116.823 124.304 116.883 124.326 116.947C124.348 117.012 124.357 117.081 124.352 117.149C124.348 117.217 124.33 117.284 124.299 117.345C124.269 117.407 124.227 117.461 124.175 117.506C124.123 117.552 124.064 117.586 123.999 117.608C123.934 117.63 123.865 117.639 123.797 117.634V117.625Z" fill="#082244"/>
<path d="M129.408 113.055C129.376 113.055 129.344 113.052 129.313 113.046L124.741 112.212C124.605 112.187 124.485 112.109 124.407 111.996C124.328 111.882 124.298 111.742 124.323 111.607C124.348 111.471 124.426 111.351 124.539 111.272C124.653 111.194 124.792 111.164 124.928 111.189L129.5 112.023C129.629 112.046 129.744 112.116 129.823 112.219C129.902 112.323 129.94 112.452 129.928 112.582C129.917 112.712 129.857 112.832 129.76 112.92C129.664 113.008 129.538 113.056 129.408 113.055Z" fill="#082244"/>
<path d="M108.001 151.489C107.863 151.493 107.729 151.442 107.628 151.347C107.528 151.253 107.469 151.122 107.465 150.984C107.461 150.846 107.512 150.713 107.606 150.612C107.701 150.511 107.832 150.453 107.969 150.449L114.83 150.033C114.898 150.029 114.966 150.038 115.031 150.06C115.096 150.082 115.155 150.117 115.206 150.163C115.258 150.208 115.299 150.263 115.329 150.325C115.359 150.386 115.377 150.453 115.381 150.521C115.385 150.59 115.375 150.658 115.353 150.723C115.331 150.788 115.296 150.846 115.251 150.898C115.205 150.949 115.15 150.991 115.089 151.021C115.027 151.051 114.96 151.069 114.892 151.073L108.033 151.489H108.001Z" fill="#082244"/>
<path d="M110.287 159.179C110.159 159.179 110.035 159.131 109.94 159.044C109.844 158.957 109.785 158.839 109.772 158.71C109.759 158.583 109.795 158.454 109.871 158.35C109.948 158.247 110.06 158.176 110.186 158.15L114.346 157.318C114.482 157.292 114.622 157.319 114.737 157.397C114.851 157.474 114.931 157.593 114.957 157.728C114.984 157.864 114.955 158.004 114.878 158.118C114.801 158.234 114.682 158.313 114.546 158.339L110.386 159.171C110.354 159.177 110.321 159.179 110.287 159.179Z" fill="#082244"/>
<path d="M113.408 164.173C113.285 164.174 113.166 164.131 113.071 164.052C112.977 163.972 112.914 163.863 112.893 163.742C112.871 163.621 112.894 163.497 112.956 163.39C113.018 163.285 113.115 163.204 113.231 163.162C114.28 162.785 115.378 162.559 116.491 162.492C116.56 162.488 116.628 162.497 116.693 162.519C116.757 162.541 116.817 162.576 116.868 162.622C116.919 162.667 116.961 162.722 116.991 162.784C117.021 162.845 117.039 162.912 117.043 162.98C117.047 163.049 117.037 163.117 117.015 163.182C116.993 163.247 116.958 163.307 116.912 163.357C116.867 163.408 116.812 163.45 116.75 163.48C116.689 163.509 116.622 163.528 116.554 163.532C115.539 163.593 114.539 163.798 113.583 164.143C113.527 164.162 113.468 164.173 113.408 164.173Z" fill="#082244"/>
<path d="M114.03 168.955C113.902 168.955 113.779 168.908 113.683 168.822C113.588 168.738 113.527 168.621 113.513 168.494C113.499 168.366 113.532 168.239 113.606 168.133C113.68 168.029 113.79 167.957 113.914 167.928C116.264 167.387 118.652 167.027 121.056 166.849C121.125 166.844 121.193 166.853 121.258 166.874C121.323 166.896 121.383 166.93 121.435 166.974C121.487 167.019 121.53 167.074 121.561 167.135C121.591 167.196 121.61 167.262 121.615 167.331C121.62 167.399 121.611 167.468 121.59 167.533C121.568 167.598 121.534 167.658 121.49 167.71C121.445 167.762 121.39 167.805 121.329 167.834C121.268 167.866 121.201 167.884 121.133 167.889C118.781 168.063 116.445 168.416 114.147 168.945C114.108 168.952 114.069 168.956 114.03 168.955Z" fill="#082244"/>
<path d="M119.844 174.117C119.715 174.119 119.591 174.073 119.495 173.987C119.399 173.903 119.337 173.786 119.322 173.659C119.307 173.531 119.34 173.402 119.414 173.297C119.488 173.193 119.598 173.119 119.723 173.09L122.42 172.448C122.554 172.418 122.694 172.442 122.81 172.515C122.926 172.587 123.008 172.702 123.04 172.834C123.072 172.968 123.05 173.107 122.979 173.224C122.909 173.341 122.795 173.426 122.662 173.46L119.965 174.11C119.925 174.116 119.884 174.119 119.844 174.117Z" fill="#082244"/>
<path d="M124.016 177.934C123.888 177.934 123.765 177.886 123.67 177.8C123.574 177.715 123.514 177.596 123.501 177.469C123.488 177.342 123.522 177.213 123.597 177.109C123.672 177.005 123.783 176.933 123.908 176.906L127.855 176.062C127.922 176.048 127.991 176.047 128.058 176.06C128.126 176.071 128.19 176.097 128.247 176.135C128.304 176.172 128.354 176.22 128.392 176.277C128.431 176.333 128.458 176.396 128.473 176.463C128.487 176.529 128.488 176.598 128.475 176.666C128.463 176.733 128.438 176.797 128.4 176.854C128.363 176.911 128.315 176.961 128.259 177C128.202 177.039 128.139 177.066 128.072 177.08L124.126 177.923C124.09 177.93 124.053 177.934 124.016 177.934Z" fill="#082244"/>
<path d="M152.037 144.214C151.899 144.214 151.766 144.159 151.669 144.062C151.571 143.964 151.517 143.832 151.517 143.694C151.495 134.442 149.437 127.148 145.413 122.011C143.604 119.705 141.686 118.36 139.714 118.015C139.647 118.003 139.582 117.979 139.524 117.942C139.466 117.906 139.416 117.858 139.376 117.802C139.337 117.746 139.309 117.683 139.294 117.616C139.279 117.549 139.277 117.48 139.289 117.413C139.301 117.345 139.327 117.281 139.363 117.223C139.4 117.165 139.448 117.115 139.504 117.076C139.559 117.037 139.623 117.009 139.689 116.995C139.757 116.98 139.826 116.979 139.894 116.991C142.127 117.381 144.259 118.855 146.232 121.369C150.407 126.699 152.533 134.203 152.557 143.691C152.557 143.829 152.502 143.962 152.405 144.059C152.307 144.157 152.175 144.211 152.037 144.211V144.214Z" fill="white"/>
<path d="M151.236 153.983C151.173 153.983 151.112 153.971 151.054 153.949C150.925 153.901 150.821 153.804 150.764 153.677C150.707 153.553 150.701 153.41 150.749 153.281C151.093 152.359 151.223 151.373 151.132 150.394C151.119 150.256 151.162 150.118 151.25 150.011C151.338 149.905 151.464 149.837 151.602 149.826C151.74 149.813 151.878 149.854 151.984 149.943C152.091 150.031 152.159 150.158 152.172 150.296C152.277 151.431 152.125 152.576 151.727 153.645C151.689 153.745 151.623 153.831 151.535 153.892C151.446 153.952 151.342 153.984 151.236 153.983Z" fill="white"/>
<path d="M133.783 174.06C131.293 174.06 128.916 173.209 127.283 171.572C127.233 171.524 127.193 171.467 127.165 171.403C127.137 171.34 127.122 171.272 127.121 171.202C127.12 171.133 127.133 171.064 127.159 170.999C127.185 170.935 127.224 170.877 127.273 170.827C127.322 170.778 127.38 170.74 127.445 170.713C127.509 170.687 127.578 170.674 127.647 170.675C127.717 170.675 127.785 170.691 127.849 170.718C127.912 170.745 127.97 170.786 128.018 170.836C130.817 173.631 135.398 173.473 138.478 171.876C141.483 170.316 143.957 167.408 145.83 163.242C145.888 163.116 145.992 163.018 146.12 162.969C146.249 162.919 146.393 162.925 146.518 162.982C146.644 163.038 146.743 163.142 146.791 163.272C146.841 163.4 146.837 163.543 146.779 163.67C144.807 168.054 142.176 171.126 138.957 172.799C137.358 173.628 135.584 174.06 133.783 174.06Z" fill="white"/>
<path d="M124.221 127.173C124.159 127.173 124.096 127.161 124.038 127.139C123.974 127.115 123.915 127.079 123.865 127.032C123.815 126.985 123.775 126.929 123.747 126.867C123.719 126.804 123.704 126.737 123.701 126.669C123.699 126.6 123.711 126.533 123.735 126.469C125.31 122.363 128.345 118.984 132.259 116.979C132.381 116.924 132.519 116.918 132.645 116.962C132.773 117.007 132.877 117.098 132.936 117.218C132.997 117.337 133.009 117.475 132.97 117.603C132.931 117.731 132.845 117.84 132.728 117.905C129.045 119.795 126.189 122.977 124.707 126.842C124.669 126.94 124.602 127.024 124.516 127.083C124.429 127.142 124.326 127.173 124.221 127.173Z" fill="white"/>
<path d="M129.364 154.606C129.295 154.606 129.227 154.592 129.163 154.566C129.1 154.54 129.042 154.501 128.994 154.451C128.945 154.402 128.907 154.343 128.881 154.28C128.856 154.216 128.843 154.147 128.844 154.078L129.069 136.987C126.467 140.021 124.304 143.406 122.646 147.044C122.588 147.17 122.484 147.267 122.354 147.316C122.225 147.364 122.082 147.358 121.957 147.301C121.831 147.244 121.733 147.139 121.685 147.01C121.637 146.881 121.642 146.738 121.699 146.612C123.597 142.452 126.136 138.616 129.224 135.244C129.294 135.163 129.388 135.107 129.492 135.083C129.595 135.057 129.705 135.064 129.804 135.103C129.903 135.142 129.988 135.211 130.048 135.301C130.106 135.389 130.136 135.495 130.134 135.601L129.891 154.092C129.89 154.161 129.875 154.228 129.848 154.291C129.822 154.354 129.783 154.411 129.734 154.458C129.685 154.506 129.627 154.544 129.563 154.568C129.5 154.594 129.432 154.607 129.364 154.606Z" fill="#082244"/>
<path d="M123.799 155.869C123.661 155.869 123.529 155.815 123.432 155.717C123.334 155.62 123.279 155.487 123.279 155.349C123.279 155.212 123.334 155.079 123.432 154.981C123.529 154.884 123.661 154.829 123.799 154.829C126.554 154.812 129.304 154.582 132.023 154.139C132.091 154.129 132.16 154.13 132.226 154.146C132.292 154.161 132.356 154.19 132.41 154.23C132.466 154.27 132.513 154.321 132.55 154.378C132.585 154.437 132.609 154.502 132.62 154.568C132.632 154.636 132.629 154.705 132.613 154.772C132.598 154.838 132.569 154.901 132.529 154.957C132.49 155.011 132.439 155.059 132.381 155.095C132.323 155.131 132.258 155.156 132.191 155.166C129.417 155.617 126.612 155.852 123.802 155.869H123.799Z" fill="#082244"/>
<path d="M139.471 153.631C138.731 153.637 137.999 153.468 137.338 153.137C135.118 151.998 134.396 149.348 134.179 147.327C133.881 144.492 134.188 141.626 135.081 138.919C135.754 136.892 136.789 135.539 138.246 134.759L138.433 134.66C139.871 133.898 141.358 133.11 143.255 133.82C144.842 134.413 146.179 135.873 146.831 137.72C147.337 139.15 147.481 140.798 147.288 142.895C147.059 145.365 146.461 147.519 145.511 149.313C144.641 150.962 143.549 152.163 142.249 152.891C141.401 153.371 140.445 153.625 139.471 153.631ZM136.069 139.246C135.221 141.812 134.93 144.529 135.213 147.216C135.402 148.983 136.006 151.284 137.813 152.211C138.947 152.792 140.451 152.705 141.738 151.984C142.859 151.356 143.818 150.294 144.598 148.835C145.483 147.163 146.042 145.135 146.258 142.807C146.439 140.865 146.311 139.361 145.858 138.074C145.305 136.514 144.199 135.286 142.898 134.799C141.439 134.253 140.33 134.84 138.926 135.579L138.739 135.679C137.513 136.329 136.667 137.457 136.075 139.241L136.069 139.246Z" fill="#082244"/>
<path d="M175.233 98.2794C175.285 97.7828 175.363 97.2459 175.726 96.8845C176.153 96.4659 176.838 96.4139 177.455 96.3905C185.28 96.096 193.115 96.2262 200.925 96.7805C201.304 96.8078 201.705 96.8442 202.002 97.0665C202.337 97.3187 202.449 97.7425 202.522 98.1364C203.302 102.074 202.727 106.126 202.065 110.082C199.855 123.295 196.669 136.342 193.485 149.388L184.24 187.3C184.057 188.048 183.85 188.845 183.243 189.368C182.114 190.345 179.933 190.286 178.499 190.345C177.299 190.395 176.043 190.382 174.92 189.931C173.001 189.161 172.384 187.276 172.197 185.478C171.851 182.145 171.98 178.718 171.926 175.371C171.869 171.813 171.839 168.255 171.838 164.695C171.838 161.154 171.864 157.613 171.916 154.073C171.971 150.515 172.054 146.958 172.164 143.4C172.276 139.86 172.416 136.321 172.587 132.785C172.76 129.232 172.961 125.679 173.191 122.125C173.421 118.572 173.684 115.023 173.982 111.477C174.274 107.948 174.599 104.421 174.957 100.895C175.049 100.022 175.141 99.1504 175.233 98.2794Z" fill="#E8F1FC"/>
<path d="M178.12 134.373H178.091C178.022 134.369 177.955 134.352 177.894 134.322C177.832 134.292 177.777 134.251 177.732 134.2C177.686 134.149 177.651 134.089 177.629 134.026C177.606 133.961 177.597 133.892 177.6 133.824C178.183 123.333 179.003 112.712 180.039 102.256C180.052 102.118 180.121 101.992 180.228 101.904C180.334 101.816 180.472 101.774 180.61 101.788C180.748 101.801 180.875 101.869 180.964 101.976C181.051 102.083 181.092 102.221 181.079 102.359C180.039 112.799 179.225 123.406 178.644 133.881C178.637 134.015 178.578 134.14 178.481 134.232C178.383 134.323 178.254 134.374 178.12 134.373Z" fill="#082244"/>
<path d="M175.839 168.635H175.822C175.684 168.632 175.554 168.572 175.459 168.472C175.365 168.372 175.315 168.238 175.319 168.1C175.614 158.655 175.81 156.28 177.076 146.916C177.094 146.78 177.166 146.656 177.276 146.572C177.386 146.489 177.525 146.452 177.661 146.47C177.798 146.489 177.921 146.561 178.006 146.671C178.089 146.78 178.125 146.919 178.107 147.055C176.847 156.373 176.651 158.736 176.357 168.132C176.353 168.268 176.296 168.395 176.2 168.489C176.102 168.582 175.974 168.635 175.839 168.635Z" fill="#082244"/>
<path d="M179.711 177.881H179.658C179.59 177.875 179.524 177.854 179.464 177.822C179.404 177.789 179.351 177.745 179.308 177.692C179.264 177.64 179.233 177.578 179.213 177.512C179.194 177.447 179.187 177.378 179.194 177.311L186.051 109.96C186.058 109.892 186.079 109.826 186.111 109.765C186.144 109.705 186.188 109.651 186.241 109.608C186.294 109.565 186.356 109.532 186.421 109.512C186.487 109.493 186.556 109.486 186.623 109.493C186.692 109.5 186.759 109.52 186.818 109.553C186.879 109.585 186.933 109.629 186.976 109.682C187.02 109.736 187.052 109.797 187.072 109.863C187.091 109.928 187.098 109.997 187.091 110.066L180.234 177.416C180.221 177.545 180.16 177.664 180.062 177.75C179.966 177.836 179.841 177.883 179.711 177.881Z" fill="#082244"/>
<path d="M194.19 115.082H194.146C194.008 115.07 193.881 115.005 193.793 114.899C193.704 114.794 193.66 114.658 193.672 114.52L194.384 105.901C194.389 105.833 194.409 105.766 194.44 105.705C194.471 105.645 194.514 105.59 194.566 105.546C194.619 105.502 194.679 105.468 194.744 105.447C194.811 105.426 194.878 105.418 194.947 105.424C195.015 105.43 195.082 105.449 195.143 105.48C195.203 105.512 195.258 105.555 195.302 105.607C195.346 105.659 195.38 105.72 195.401 105.785C195.422 105.85 195.429 105.919 195.424 105.987L194.712 114.606C194.7 114.736 194.64 114.858 194.544 114.946C194.448 115.034 194.322 115.083 194.19 115.082Z" fill="#082244"/>
<path d="M192.625 128.246C192.488 128.246 192.357 128.192 192.261 128.097C192.163 128.001 192.107 127.871 192.105 127.735C192.087 126.601 192.254 125.472 192.601 124.392C192.62 124.325 192.652 124.262 192.696 124.208C192.741 124.154 192.794 124.108 192.856 124.075C192.917 124.042 192.985 124.022 193.055 124.016C193.124 124.01 193.194 124.017 193.261 124.039C193.328 124.06 193.389 124.095 193.443 124.14C193.495 124.186 193.537 124.242 193.569 124.305C193.6 124.368 193.617 124.436 193.621 124.506C193.625 124.576 193.614 124.645 193.591 124.711C193.279 125.682 193.128 126.698 193.145 127.718C193.146 127.786 193.133 127.854 193.108 127.917C193.082 127.981 193.046 128.039 192.998 128.088C192.95 128.137 192.894 128.176 192.832 128.203C192.768 128.23 192.7 128.245 192.633 128.246H192.625Z" fill="#082244"/>
<path d="M187.438 162.058H187.399C187.33 162.053 187.264 162.034 187.203 162.003C187.142 161.972 187.087 161.93 187.043 161.878C186.999 161.826 186.965 161.765 186.943 161.7C186.922 161.635 186.914 161.566 186.92 161.499C187.143 158.569 187.575 155.658 188.212 152.789C188.226 152.722 188.255 152.659 188.294 152.603C188.333 152.547 188.382 152.5 188.441 152.462C188.498 152.426 188.563 152.401 188.629 152.39C188.697 152.378 188.766 152.379 188.832 152.395C188.899 152.409 188.962 152.436 189.018 152.477C189.074 152.516 189.122 152.565 189.158 152.622C189.195 152.681 189.219 152.745 189.231 152.812C189.244 152.88 189.241 152.949 189.227 153.015C188.602 155.836 188.177 158.697 187.957 161.578C187.947 161.708 187.888 161.83 187.792 161.92C187.696 162.008 187.57 162.058 187.438 162.058Z" fill="#082244"/>
<path d="M57.3597 213.044C57.3857 213.824 57.4286 214.659 57.8914 215.29C58.6935 216.383 60.3055 216.352 61.6549 216.219C107.913 211.669 154.532 215.049 201.015 215.348C202.14 215.356 203.3 215.348 204.337 214.916C207.408 213.616 207.771 209.476 207.655 206.142C207.627 205.325 207.55 204.406 206.92 203.888C206.433 203.487 205.75 203.447 205.124 203.426L191.734 202.961C191.084 202.937 190.369 202.896 189.869 202.472C189.259 201.952 189.168 201.065 189.123 200.262L188.807 194.75C188.747 193.71 188.607 192.509 187.743 191.916C187.186 191.532 186.464 191.51 185.793 191.503C150.086 191.049 114.38 191.239 78.6732 192.073C77.4213 192.103 76.055 192.176 75.119 193.009C73.2691 194.658 74.4248 197.837 73.3198 200.058C71.8989 202.918 67.8377 202.729 64.6943 202.192C62.5064 201.818 59.5684 201.559 57.6548 202.949C56.9853 203.437 56.8215 204.046 56.9047 204.842C57.0152 205.89 57.1751 206.895 57.2102 207.953C57.2536 209.652 57.3034 211.35 57.3597 213.044Z" fill="#2C7BE5"/>
<path d="M76.0678 203.022C75.9299 203.027 75.7956 202.976 75.6947 202.883C75.5939 202.788 75.5344 202.658 75.5296 202.52C75.5247 202.382 75.5749 202.248 75.669 202.147C75.7631 202.046 75.8935 201.987 76.0314 201.982C96.3452 200.561 116.967 200.054 137.325 200.473C137.463 200.475 137.594 200.532 137.689 200.633C137.785 200.731 137.837 200.865 137.835 201.003C137.832 201.141 137.775 201.272 137.675 201.367C137.576 201.463 137.442 201.515 137.304 201.513C116.976 201.094 96.3855 201.601 76.1042 203.019L76.0678 203.022Z" fill="white"/>
<path d="M159.776 202.551H159.758L144.105 202.012C143.967 202.006 143.837 201.948 143.742 201.846C143.649 201.746 143.598 201.612 143.602 201.475C143.607 201.336 143.667 201.206 143.767 201.112C143.868 201.017 144.002 200.966 144.14 200.972L159.793 201.511C159.931 201.514 160.062 201.571 160.159 201.67C160.255 201.768 160.307 201.901 160.304 202.04C160.303 202.178 160.246 202.309 160.147 202.404C160.047 202.5 159.914 202.554 159.776 202.551Z" fill="white"/>
<path d="M184.177 202.504H167.493C167.355 202.504 167.222 202.45 167.125 202.352C167.027 202.255 166.973 202.122 166.973 201.984C166.973 201.847 167.027 201.714 167.125 201.616C167.222 201.519 167.355 201.464 167.493 201.464H184.177C184.315 201.464 184.447 201.519 184.545 201.616C184.642 201.714 184.697 201.847 184.697 201.984C184.697 202.122 184.642 202.255 184.545 202.352C184.447 202.45 184.315 202.504 184.177 202.504Z" fill="white"/>
<path d="M203.792 211.81C203.677 211.81 203.567 211.774 203.477 211.705C203.386 211.636 203.32 211.538 203.29 211.429C202.999 210.371 203.005 209.252 203.309 208.197C203.347 208.065 203.437 207.953 203.558 207.887C203.678 207.819 203.82 207.803 203.953 207.842C204.085 207.88 204.199 207.97 204.265 208.091C204.331 208.212 204.347 208.353 204.309 208.486C204.061 209.357 204.055 210.279 204.293 211.152C204.312 211.218 204.317 211.287 204.308 211.355C204.3 211.423 204.278 211.487 204.244 211.547C204.21 211.607 204.165 211.659 204.111 211.701C204.057 211.742 203.996 211.773 203.929 211.792C203.884 211.805 203.838 211.81 203.792 211.81Z" fill="white"/>
<path d="M201.529 212.03C201.504 212.031 201.48 212.031 201.455 212.03C201.318 212.01 201.195 211.937 201.112 211.827C201.03 211.718 200.993 211.579 201.013 211.442L201.24 209.853C201.26 209.717 201.333 209.593 201.443 209.512C201.554 209.428 201.692 209.392 201.829 209.411C201.966 209.431 202.088 209.505 202.171 209.614C202.254 209.725 202.29 209.864 202.27 210L202.043 211.589C202.023 211.711 201.962 211.823 201.867 211.905C201.773 211.985 201.653 212.03 201.529 212.03Z" fill="white"/>
<path d="M70.066 152.532C69.9433 152.532 69.8245 152.488 69.7307 152.409C69.637 152.331 69.5743 152.22 69.5538 152.1C67.5219 140.175 65.9398 128.018 64.8517 115.971C64.8456 115.903 64.8529 115.834 64.8734 115.769C64.8938 115.703 64.927 115.643 64.9709 115.59C65.0597 115.484 65.187 115.417 65.3249 115.404C65.4628 115.392 65.6 115.435 65.7063 115.524C65.8125 115.612 65.8792 115.74 65.8917 115.878C66.9772 127.899 68.5567 140.026 70.5834 151.924C70.5963 151.999 70.5926 152.075 70.5727 152.149C70.553 152.222 70.5172 152.289 70.4684 152.348C70.4195 152.406 70.3584 152.452 70.2896 152.484C70.2207 152.516 70.1457 152.532 70.0699 152.532H70.066Z" fill="#082244"/>
<path d="M72.4033 164.547C72.2806 164.547 72.1618 164.503 72.068 164.425C71.9743 164.346 71.9116 164.235 71.8911 164.114L70.9538 158.674C70.9399 158.606 70.9399 158.535 70.9537 158.467C70.9675 158.399 70.9949 158.334 71.0342 158.277C71.0734 158.219 71.1237 158.171 71.1823 158.133C71.2408 158.095 71.3064 158.069 71.3749 158.058C71.4435 158.046 71.5137 158.048 71.5814 158.064C71.6493 158.08 71.7131 158.108 71.7694 158.15C71.8257 158.19 71.8732 158.242 71.909 158.302C71.9448 158.362 71.9683 158.428 71.9782 158.497L72.9155 163.937C72.9286 164.012 72.9251 164.088 72.9055 164.162C72.8857 164.235 72.8503 164.304 72.8014 164.361C72.7526 164.42 72.6916 164.467 72.6229 164.499C72.5541 164.53 72.4792 164.547 72.4033 164.547Z" fill="#082244"/>
<path d="M80.3777 181.945C80.257 181.945 80.1401 181.902 80.0472 181.825C79.9542 181.749 79.8909 181.642 79.8681 181.524C75.2661 157.819 73.9583 147.497 72.501 123.37C72.4968 123.301 72.5062 123.233 72.5285 123.168C72.5509 123.104 72.5857 123.044 72.6311 122.993C72.6766 122.942 72.7316 122.9 72.7931 122.87C72.8546 122.84 72.9214 122.822 72.9898 122.818C73.058 122.814 73.1264 122.824 73.1911 122.846C73.2557 122.868 73.3154 122.903 73.3665 122.949C73.4177 122.994 73.4594 123.049 73.4893 123.111C73.5192 123.172 73.5368 123.239 73.541 123.307C74.9957 147.375 76.3009 157.678 80.8912 181.323C80.9057 181.399 80.9034 181.477 80.8845 181.551C80.8656 181.625 80.8304 181.694 80.7816 181.754C80.7327 181.812 80.6715 181.86 80.602 181.893C80.5326 181.925 80.457 181.942 80.3803 181.942L80.3777 181.945Z" fill="#082244"/>
<path d="M81.6201 163.902C81.4875 163.902 81.3597 163.851 81.2631 163.76C81.1664 163.671 81.1081 163.546 81.1001 163.413L77.9268 111.337C77.9183 111.199 77.9651 111.063 78.0566 110.96C78.1481 110.856 78.277 110.793 78.4149 110.785C78.5528 110.776 78.6884 110.823 78.792 110.914C78.8955 111.006 78.9583 111.135 78.9668 111.273L82.1414 163.35C82.1456 163.417 82.1364 163.486 82.1142 163.551C82.092 163.615 82.0572 163.675 82.0119 163.727C81.9666 163.777 81.9118 163.819 81.8503 163.849C81.7888 163.879 81.7221 163.897 81.6539 163.901L81.6201 163.902Z" fill="#082244"/>
<path d="M50.5772 102.109C50.0208 102.889 49.4774 103.784 49.5541 104.742C49.7504 107.236 53.2955 107.494 55.7499 107.01C101.51 97.9777 148.69 93.6344 194.83 100.449C199.07 101.076 203.36 101.797 207.617 101.314C208.305 101.234 209.025 101.111 209.567 100.678C210.528 99.9069 210.57 98.3885 209.998 97.2978C209.426 96.2071 208.393 95.4466 207.398 94.7238C183.502 77.3987 159.499 60.0034 133.309 46.3963C132.139 45.7866 130.893 45.1704 129.57 45.2146C128.248 45.2588 127.072 45.9465 125.947 46.6186C116.161 52.4686 106.545 58.5994 96.9313 64.7302C93.5253 66.9012 90.1219 69.0748 86.7523 71.3017C83.3554 73.5494 79.9923 75.8517 76.7072 78.2593C73.4494 80.6474 70.267 83.1408 67.2172 85.785C64.1674 88.4292 61.2554 90.6496 58.346 93.455C57.4139 94.3533 54.4551 97.745 53.471 98.5797C51.9968 99.8316 52.7157 99.3284 51.521 100.848C51.1951 101.262 50.8805 101.683 50.5772 102.109Z" fill="#E8F1FC"/>
<path d="M89.5431 77.1714C89.4336 77.1713 89.3269 77.1367 89.2382 77.0725C89.1496 77.0082 89.0835 76.9176 89.0493 76.8136C89.0153 76.7096 89.0148 76.5975 89.048 76.4931C89.0815 76.3888 89.1468 76.2977 89.235 76.2328L90.9575 74.9666C91.0121 74.9222 91.0753 74.8893 91.143 74.8701C91.2107 74.8507 91.2816 74.8454 91.3515 74.8543C91.4213 74.8633 91.4887 74.8863 91.5494 74.9221C91.6101 74.9578 91.6629 75.0055 91.7045 75.0623C91.7462 75.1191 91.776 75.1837 91.792 75.2524C91.8078 75.3209 91.8098 75.392 91.7973 75.4614C91.7849 75.5307 91.7587 75.5969 91.7199 75.6556C91.6813 75.7145 91.631 75.765 91.5724 75.8038L89.8512 77.07C89.7619 77.1358 89.654 77.1713 89.5431 77.1714Z" fill="#082244"/>
<path d="M94.2395 73.4923C94.1299 73.492 94.0231 73.4572 93.9346 73.3926C93.8459 73.3281 93.78 73.2372 93.7462 73.1331C93.7123 73.0288 93.7122 72.9165 93.746 72.8122C93.7796 72.708 93.8455 72.617 93.9339 72.5524C104.321 65.0033 109.765 61.7897 125.407 52.7716C126.685 52.0345 128.137 51.1999 129.779 51.0036C131.357 50.8138 133.34 51.3533 134.215 52.9835C134.247 53.0438 134.269 53.11 134.276 53.1783C134.283 53.2469 134.277 53.316 134.257 53.3819C134.238 53.448 134.205 53.5095 134.163 53.5628C134.12 53.6162 134.065 53.6604 134.005 53.6929C133.944 53.7254 133.878 53.7457 133.809 53.7522C133.741 53.7588 133.671 53.7518 133.606 53.7315C133.54 53.7112 133.479 53.6782 133.427 53.6341C133.373 53.5901 133.329 53.536 133.298 53.4749C132.658 52.2841 131.088 51.8928 129.902 52.0358C128.472 52.2074 127.118 52.9861 125.927 53.6725C110.32 62.6698 104.89 65.8743 94.5398 73.3935C94.4524 73.4568 94.3474 73.4914 94.2395 73.4923Z" fill="#082244"/>
<path d="M171.24 77.7395C171.132 77.7395 171.027 77.7059 170.939 77.6433C169.666 76.7359 168.439 75.858 167.256 75.0095C160.329 70.0383 154.349 65.7444 146.148 61.4245C146.032 61.3571 145.946 61.2474 145.908 61.1183C145.872 60.9892 145.886 60.8508 145.949 60.732C146.011 60.6132 146.118 60.5232 146.245 60.4809C146.372 60.4387 146.512 60.4475 146.632 60.5054C154.897 64.8578 160.905 69.1712 167.861 74.1645C169.046 75.0147 170.272 75.8926 171.54 76.7983C171.629 76.8625 171.695 76.953 171.729 77.0571C171.764 77.1611 171.764 77.2732 171.73 77.3776C171.698 77.4818 171.633 77.573 171.544 77.638C171.456 77.703 171.349 77.7384 171.24 77.7395Z" fill="#082244"/>
<path d="M63.2493 213.423C63.2099 213.423 63.1707 213.418 63.1323 213.409C62.1196 213.177 61.2512 212.402 60.8105 211.335C60.3698 210.268 60.4361 209.107 60.9886 208.227C61.025 208.168 61.0725 208.119 61.1281 208.079C61.1839 208.04 61.2469 208.011 61.3135 207.997C61.3802 207.981 61.4491 207.978 61.5165 207.99C61.5839 208.002 61.6484 208.027 61.7062 208.063C61.7641 208.099 61.8142 208.146 61.8538 208.202C61.8934 208.258 61.9215 208.322 61.9367 208.388C61.9519 208.454 61.9539 208.523 61.9424 208.591C61.931 208.658 61.9064 208.722 61.87 208.781C61.4956 209.376 61.4592 210.182 61.7712 210.939C62.0832 211.695 62.6812 212.239 63.365 212.396C63.4897 212.424 63.5995 212.497 63.6735 212.601C63.7476 212.707 63.7805 212.834 63.7662 212.961C63.7519 213.089 63.6913 213.206 63.5959 213.29C63.5006 213.376 63.3772 213.423 63.2493 213.423Z" fill="white"/>
<path d="M158.383 112.873C158.274 112.874 158.169 112.84 158.08 112.776C158.024 112.736 157.977 112.686 157.941 112.628C157.906 112.569 157.881 112.505 157.87 112.437C157.859 112.37 157.862 112.301 157.877 112.234C157.893 112.168 157.922 112.105 157.962 112.049C159.977 109.257 162.342 106.736 165 104.547C165.053 104.503 165.113 104.47 165.179 104.45C165.244 104.43 165.313 104.423 165.381 104.43C165.45 104.436 165.516 104.456 165.576 104.488C165.637 104.52 165.69 104.564 165.733 104.617C165.777 104.67 165.81 104.731 165.829 104.796C165.849 104.862 165.857 104.931 165.849 104.999C165.842 105.067 165.823 105.133 165.79 105.193C165.758 105.254 165.714 105.307 165.66 105.35C163.07 107.482 160.765 109.938 158.802 112.658C158.754 112.724 158.691 112.778 158.618 112.816C158.546 112.853 158.465 112.873 158.383 112.873Z" fill="#082244"/>
<path d="M160.933 115.09C160.827 115.089 160.726 115.055 160.64 114.995C160.554 114.934 160.488 114.849 160.452 114.75C160.415 114.652 160.41 114.545 160.436 114.443C160.461 114.341 160.517 114.249 160.596 114.18C161.593 113.329 162.684 112.595 163.846 111.991C163.907 111.959 163.973 111.94 164.041 111.934C164.109 111.928 164.178 111.936 164.243 111.956C164.308 111.977 164.369 112.01 164.421 112.054C164.473 112.098 164.516 112.152 164.547 112.212C164.579 112.273 164.599 112.339 164.604 112.407C164.61 112.475 164.603 112.544 164.582 112.609C164.561 112.674 164.529 112.735 164.484 112.787C164.44 112.839 164.387 112.882 164.326 112.914C163.232 113.482 162.208 114.172 161.269 114.97C161.176 115.049 161.056 115.092 160.933 115.09Z" fill="#082244"/>
<path d="M164.375 125.71C164.358 125.711 164.34 125.711 164.323 125.71L161.203 125.398C161.065 125.384 160.938 125.316 160.851 125.209C160.762 125.101 160.721 124.963 160.735 124.826C160.749 124.688 160.817 124.561 160.924 124.473C161.032 124.385 161.169 124.344 161.307 124.358L164.427 124.67C164.565 124.676 164.695 124.738 164.787 124.84C164.88 124.942 164.929 125.077 164.921 125.215C164.915 125.353 164.854 125.482 164.751 125.575C164.649 125.668 164.514 125.716 164.376 125.71H164.375Z" fill="#082244"/>
<path d="M155.023 181.91C154.938 181.91 154.855 181.89 154.781 181.851C154.705 181.812 154.642 181.755 154.594 181.686C153.564 180.192 152.714 178.584 152.059 176.893C152.034 176.829 152.022 176.762 152.024 176.693C152.025 176.625 152.04 176.558 152.068 176.495C152.095 176.433 152.135 176.376 152.185 176.329C152.234 176.282 152.291 176.244 152.355 176.22C152.419 176.196 152.488 176.183 152.555 176.186C152.624 176.187 152.69 176.201 152.753 176.23C152.817 176.257 152.872 176.296 152.919 176.346C152.967 176.395 153.004 176.454 153.028 176.517C153.654 178.133 154.468 179.67 155.45 181.096C155.504 181.174 155.535 181.265 155.54 181.36C155.545 181.453 155.526 181.548 155.482 181.632C155.437 181.715 155.371 181.785 155.29 181.834C155.21 181.884 155.118 181.91 155.023 181.91Z" fill="#082244"/>
<path d="M165.6 181.942C165.481 181.942 165.367 181.902 165.275 181.828L156.276 174.604C156.22 174.562 156.173 174.509 156.138 174.449C156.103 174.389 156.081 174.322 156.072 174.253C156.064 174.184 156.069 174.114 156.087 174.047C156.107 173.98 156.139 173.917 156.182 173.863C156.227 173.808 156.28 173.764 156.341 173.73C156.402 173.698 156.47 173.677 156.54 173.67C156.609 173.664 156.679 173.672 156.745 173.692C156.812 173.713 156.873 173.747 156.926 173.792L165.925 181.017C166.009 181.084 166.07 181.176 166.099 181.279C166.129 181.383 166.125 181.494 166.09 181.595C166.053 181.696 165.987 181.785 165.899 181.847C165.811 181.91 165.706 181.942 165.598 181.942H165.6Z" fill="#082244"/>
<path d="M162.201 172.863C162.153 172.863 162.105 172.857 162.058 172.844L159.875 172.22C159.809 172.202 159.745 172.172 159.691 172.129C159.636 172.087 159.591 172.034 159.557 171.974C159.522 171.914 159.501 171.848 159.492 171.779C159.484 171.71 159.489 171.64 159.509 171.574C159.528 171.507 159.559 171.446 159.604 171.392C159.646 171.338 159.7 171.293 159.761 171.26C159.821 171.227 159.888 171.207 159.957 171.199C160.026 171.193 160.095 171.199 160.161 171.22L162.344 171.844C162.464 171.879 162.568 171.956 162.635 172.061C162.703 172.166 162.73 172.291 162.713 172.416C162.696 172.54 162.635 172.653 162.54 172.735C162.447 172.816 162.326 172.863 162.201 172.863Z" fill="#082244"/>
<path d="M105.72 112.039C105.618 112.039 105.519 112.009 105.434 111.953C105.349 111.897 105.282 111.817 105.242 111.723L103.372 107.359C103.318 107.232 103.316 107.089 103.367 106.961C103.418 106.833 103.518 106.73 103.645 106.676C103.771 106.621 103.915 106.619 104.043 106.67C104.171 106.721 104.273 106.821 104.328 106.948L106.199 111.313C106.233 111.393 106.246 111.479 106.239 111.565C106.231 111.651 106.202 111.733 106.155 111.805C106.108 111.877 106.043 111.936 105.967 111.977C105.891 112.018 105.806 112.039 105.72 112.039Z" fill="#082244"/>
<path d="M100.74 114.207C100.642 114.207 100.546 114.179 100.463 114.126C98.2301 112.72 96.1913 111.028 94.3985 109.091C94.3521 109.041 94.3159 108.983 94.2921 108.919C94.2685 108.855 94.2575 108.786 94.2601 108.718C94.2627 108.65 94.2787 108.583 94.3073 108.521C94.3358 108.459 94.3762 108.403 94.4264 108.356C94.4765 108.31 94.5352 108.274 94.5993 108.25C94.6634 108.226 94.7315 108.216 94.7998 108.218C94.868 108.221 94.9351 108.237 94.9972 108.265C95.0592 108.294 95.1152 108.334 95.1616 108.384C96.8928 110.254 98.8618 111.889 101.018 113.246C101.114 113.306 101.187 113.396 101.228 113.502C101.268 113.607 101.273 113.723 101.242 113.832C101.21 113.94 101.144 114.036 101.054 114.103C100.963 114.171 100.853 114.208 100.74 114.207Z" fill="#082244"/>
<path d="M97.3865 181.945C97.2845 181.945 97.185 181.915 97.1001 181.858C97.0152 181.802 96.9486 181.723 96.9087 181.629C96.8688 181.534 96.8574 181.432 96.8757 181.331C96.8942 181.231 96.9415 181.139 97.0121 181.065C99.1822 178.809 101.876 177.125 104.855 176.163C104.92 176.142 104.989 176.134 105.057 176.139C105.125 176.144 105.191 176.164 105.252 176.195C105.313 176.226 105.367 176.269 105.411 176.321C105.455 176.373 105.489 176.433 105.51 176.498C105.53 176.564 105.538 176.632 105.533 176.701C105.527 176.768 105.508 176.835 105.477 176.896C105.446 176.957 105.403 177.01 105.351 177.054C105.299 177.099 105.238 177.132 105.173 177.153C102.359 178.062 99.8134 179.653 97.7635 181.785C97.7147 181.836 97.6562 181.876 97.5913 181.903C97.5266 181.931 97.4569 181.945 97.3865 181.945Z" fill="#082244"/>
<path d="M104.972 184.852C104.882 184.852 104.793 184.828 104.715 184.783C104.637 184.739 104.571 184.674 104.525 184.597C104.48 184.519 104.455 184.431 104.453 184.341C104.452 184.25 104.474 184.162 104.517 184.082C105.263 182.717 106.26 181.506 107.456 180.511C107.508 180.463 107.569 180.427 107.636 180.402C107.702 180.379 107.773 180.368 107.843 180.373C107.914 180.377 107.983 180.397 108.046 180.429C108.109 180.46 108.165 180.505 108.21 180.559C108.255 180.614 108.289 180.676 108.309 180.745C108.329 180.813 108.335 180.883 108.326 180.953C108.318 181.023 108.295 181.091 108.26 181.152C108.225 181.214 108.177 181.268 108.12 181.309C107.028 182.223 106.115 183.333 105.428 184.581C105.383 184.663 105.317 184.731 105.237 184.779C105.157 184.827 105.065 184.852 104.972 184.852Z" fill="#082244"/>
<path d="M100.925 173.319C100.805 173.319 100.689 173.278 100.596 173.202C100.503 173.127 100.439 173.02 100.415 172.903C100.391 172.786 100.408 172.664 100.464 172.558C100.52 172.451 100.61 172.368 100.72 172.321L102.902 171.386C102.965 171.356 103.033 171.341 103.103 171.338C103.172 171.336 103.242 171.347 103.307 171.372C103.372 171.397 103.431 171.434 103.481 171.484C103.531 171.532 103.571 171.589 103.599 171.653C103.626 171.717 103.64 171.785 103.641 171.856C103.641 171.925 103.627 171.993 103.601 172.058C103.574 172.122 103.534 172.181 103.485 172.229C103.435 172.278 103.376 172.316 103.311 172.342L101.13 173.277C101.065 173.305 100.995 173.319 100.925 173.319Z" fill="#082244"/>
<path d="M106.045 86.5119C105.919 86.5131 105.797 86.4682 105.701 86.3857C105.605 86.3031 105.543 86.1886 105.525 86.0634C105.04 82.5373 104.764 78.9856 104.697 75.4268C104.695 75.2889 104.747 75.1556 104.843 75.0562C104.938 74.9569 105.07 74.8997 105.208 74.8971C105.346 74.8945 105.479 74.9467 105.578 75.0424C105.677 75.1381 105.735 75.2694 105.737 75.4073C105.803 78.9247 106.077 82.4353 106.556 85.9204C106.566 85.9882 106.562 86.0569 106.544 86.1231C106.527 86.1893 106.497 86.2513 106.456 86.3057C106.414 86.3602 106.363 86.406 106.304 86.4404C106.245 86.4749 106.179 86.4975 106.112 86.5067C106.09 86.5101 106.068 86.5118 106.045 86.5119Z" fill="#2C7BE5"/>
<path d="M106.531 87.2514C106.427 87.2514 106.325 87.2514 106.221 87.2514C106.083 87.2483 105.952 87.1906 105.856 87.0909C105.761 86.9912 105.709 86.8576 105.712 86.7197C105.715 86.5818 105.773 86.4507 105.873 86.3554C105.973 86.2602 106.106 86.2083 106.244 86.2114C108.841 86.2608 111.399 85.5812 113.629 84.2497C114.355 83.8142 115.167 83.0225 115.349 82.2373C115.389 82.0916 115.397 81.9391 115.373 81.7898C115.35 81.6406 115.295 81.4981 115.213 81.3715C114.972 81.0023 114.485 80.78 114.086 80.6279C111.712 79.7425 109.087 79.8077 106.76 80.8099L106.52 80.9191C106.395 80.9716 106.255 80.9737 106.13 80.925C106.004 80.8762 105.902 80.7804 105.845 80.6579C105.789 80.5354 105.782 80.3957 105.827 80.2683C105.871 80.1409 105.963 80.0359 106.084 79.9753L106.279 79.8843C108.674 78.7689 109.789 77.5781 109.709 76.2443C109.681 75.8339 109.53 75.4414 109.274 75.1194C109.017 74.7974 108.669 74.5611 108.276 74.442C107.882 74.3229 107.461 74.3268 107.07 74.4529C106.678 74.5791 106.334 74.8218 106.084 75.1484C106.043 75.2027 105.991 75.2483 105.932 75.2826C105.873 75.3169 105.807 75.3391 105.74 75.3482C105.672 75.3573 105.603 75.3529 105.537 75.3354C105.471 75.3178 105.409 75.2874 105.355 75.2459C105.3 75.2044 105.255 75.1527 105.221 75.0935C105.186 75.0345 105.164 74.9691 105.155 74.9014C105.146 74.8338 105.15 74.7649 105.168 74.6989C105.185 74.6328 105.216 74.5709 105.257 74.5166C105.636 74.0201 106.157 73.6512 106.751 73.4592C107.345 73.2671 107.983 73.2611 108.58 73.4419C109.178 73.6227 109.706 73.9819 110.094 74.4711C110.481 74.9603 110.71 75.5564 110.75 76.1793C110.825 77.3493 110.269 78.2905 109.52 79.0263C111.193 78.8472 112.885 79.0613 114.46 79.6516C115.006 79.8596 115.685 80.1716 116.089 80.8008C116.247 81.0446 116.353 81.3182 116.401 81.6046C116.448 81.8911 116.436 82.1844 116.366 82.4661C116.099 83.6218 115.055 84.6033 114.169 85.1363C111.859 86.5135 109.221 87.2441 106.531 87.2514Z" fill="#2C7BE5"/>
<path d="M118.428 85.81C118.295 85.8103 118.168 85.7596 118.071 85.6684C117.974 85.5773 117.916 85.4525 117.908 85.3199C117.663 80.7345 119.066 76.2127 121.864 72.5721C121.915 72.5063 121.982 72.4539 122.057 72.4191C122.133 72.3844 122.216 72.3683 122.299 72.3722C122.382 72.3762 122.463 72.4 122.535 72.4418C122.608 72.4837 122.668 72.5421 122.713 72.6124C125.003 76.2316 126.452 80.3188 126.951 84.5724C126.961 84.7062 126.919 84.8386 126.833 84.9421C126.748 85.0455 126.626 85.1119 126.492 85.1274C126.359 85.1427 126.225 85.106 126.118 85.0249C126.011 84.9438 125.94 84.8245 125.919 84.692C125.467 80.8495 124.211 77.145 122.235 73.8188C119.888 77.1559 118.73 81.1847 118.947 85.2588C118.951 85.327 118.942 85.3953 118.919 85.4599C118.897 85.5244 118.862 85.5839 118.817 85.635C118.771 85.6861 118.716 85.7277 118.655 85.7575C118.593 85.7874 118.526 85.8047 118.458 85.8087L118.428 85.81Z" fill="#2C7BE5"/>
<path d="M118.47 80.3618C118.34 80.3605 118.214 80.3103 118.119 80.2212C118.024 80.132 117.966 80.0103 117.957 79.8803C117.947 79.7503 117.986 79.6215 118.067 79.5192C118.148 79.417 118.265 79.3489 118.393 79.3283C120.906 78.9475 123.452 78.8316 125.989 78.9825C126.127 78.9906 126.256 79.0532 126.348 79.1565C126.44 79.2597 126.487 79.3951 126.479 79.5331C126.47 79.671 126.408 79.8001 126.305 79.8919C126.201 79.9836 126.066 80.0306 125.928 80.0225C123.463 79.876 120.989 79.9883 118.548 80.3579C118.522 80.3612 118.496 80.3625 118.47 80.3618Z" fill="#2C7BE5"/>
<path d="M139.813 85.2936C139.714 85.2936 139.618 85.2657 139.535 85.2133C139.453 85.1608 139.386 85.0859 139.344 84.9972L134.221 74.254C134.03 73.8523 133.822 73.4506 133.556 73.1802C132.206 76.8653 131.375 80.7204 131.086 84.6345C131.076 84.7725 131.011 84.9006 130.907 84.991C130.802 85.0813 130.666 85.1263 130.527 85.1162C130.39 85.106 130.262 85.0414 130.171 84.9368C130.081 84.832 130.036 84.6958 130.046 84.5578C130.356 80.331 131.284 76.1724 132.798 72.2143C132.847 72.0895 132.941 71.9883 133.062 71.9313C133.183 71.8744 133.321 71.8663 133.448 71.9088C134.395 72.2338 134.864 73.2179 135.145 73.8068L139.521 82.9822C139.938 79.4773 139.955 75.9361 139.569 72.4275C139.561 72.3593 139.568 72.2901 139.587 72.2242C139.605 72.1582 139.638 72.0967 139.681 72.0431C139.724 71.9894 139.777 71.9448 139.837 71.9118C139.898 71.8787 139.963 71.8579 140.032 71.8503C140.099 71.8428 140.169 71.8488 140.234 71.868C140.301 71.8873 140.362 71.9192 140.416 71.9621C140.47 72.0052 140.514 72.0582 140.548 72.1185C140.58 72.1787 140.601 72.2449 140.609 72.3131C141.066 76.4879 140.969 80.7051 140.318 84.8542C140.301 84.9638 140.249 85.0651 140.169 85.1432C140.091 85.2214 139.989 85.2723 139.88 85.2884C139.857 85.2917 139.835 85.2934 139.813 85.2936Z" fill="#2C7BE5"/>
<path d="M146.687 83.7714C146.563 83.7712 146.444 83.7271 146.35 83.647C146.256 83.5671 146.194 83.4563 146.175 83.3346L144.498 73.1205C144.486 73.053 144.488 72.9842 144.504 72.9176C144.52 72.851 144.548 72.7882 144.589 72.7326C144.628 72.6771 144.678 72.63 144.737 72.5939C144.794 72.5579 144.859 72.5336 144.926 72.5225C144.994 72.5115 145.063 72.5137 145.129 72.5293C145.196 72.5449 145.259 72.5733 145.314 72.6131C145.37 72.653 145.417 72.7033 145.453 72.7615C145.489 72.8194 145.513 72.8841 145.525 72.9515L147.2 83.1669C147.222 83.3029 147.19 83.4421 147.109 83.5541C147.029 83.6659 146.908 83.7413 146.771 83.7636C146.744 83.7687 146.715 83.7713 146.687 83.7714Z" fill="#2C7BE5"/>
<path d="M154.541 84.4617C154.45 84.4612 154.36 84.4365 154.281 84.3902L146.524 79.8506C145.464 79.2318 145.004 78.5337 145.155 77.7771C145.25 77.3013 145.575 76.9685 145.872 76.6942C147.297 75.3767 148.868 74.2249 150.552 73.2609C150.611 73.2267 150.677 73.2046 150.745 73.1958C150.812 73.187 150.881 73.1915 150.948 73.2092C151.014 73.227 151.075 73.2575 151.13 73.2991C151.184 73.3409 151.23 73.3927 151.264 73.452C151.297 73.5113 151.319 73.5767 151.329 73.6444C151.338 73.7123 151.332 73.7812 151.316 73.8472C151.297 73.9133 151.267 73.9751 151.225 74.0294C151.183 74.0836 151.131 74.1289 151.072 74.1631C149.458 75.0891 147.954 76.1941 146.587 77.4573C146.402 77.6289 146.218 77.8109 146.184 77.9773C146.113 78.3374 146.704 78.7417 147.058 78.9497L154.815 83.4893C154.914 83.5467 154.991 83.6351 155.035 83.7406C155.078 83.8463 155.086 83.9634 155.057 84.0738C155.027 84.1842 154.962 84.2818 154.871 84.3515C154.78 84.421 154.67 84.459 154.555 84.4591L154.541 84.4617Z" fill="#2C7BE5"/>
<path d="M102.816 90.6225C102.678 90.6247 102.545 90.5722 102.445 90.4763C102.346 90.3803 102.289 90.2489 102.287 90.111C102.285 89.973 102.337 89.8399 102.433 89.7409C102.529 89.6417 102.661 89.5847 102.799 89.5825L126.621 88.8025C126.759 88.7981 126.893 88.8485 126.994 88.9429C127.095 89.0373 127.154 89.1677 127.158 89.3056C127.163 89.4435 127.112 89.5776 127.018 89.6783C126.923 89.7789 126.793 89.8381 126.655 89.8425L102.833 90.6225H102.816Z" fill="#2C7BE5"/>
<path d="M134.809 89.8921H131.745C131.607 89.8921 131.474 89.8372 131.377 89.7397C131.279 89.6422 131.225 89.51 131.225 89.3721C131.225 89.2341 131.279 89.1019 131.377 89.0043C131.474 88.9068 131.607 88.8521 131.745 88.8521H134.809C134.947 88.8521 135.079 88.9068 135.177 89.0043C135.274 89.1019 135.329 89.2341 135.329 89.3721C135.329 89.51 135.274 89.6422 135.177 89.7397C135.079 89.8372 134.947 89.8921 134.809 89.8921Z" fill="#2C7BE5"/>
<path d="M141.952 88.7893C141.815 88.7921 141.681 88.7399 141.582 88.6444C141.482 88.5488 141.425 88.4176 141.422 88.2797C141.419 88.1418 141.471 88.0084 141.566 87.909C141.662 87.8095 141.794 87.7521 141.932 87.7493L159.289 87.0473C159.427 87.0416 159.561 87.091 159.664 87.1845C159.765 87.2779 159.825 87.4079 159.83 87.5459C159.836 87.6838 159.787 87.8183 159.693 87.9199C159.6 88.0214 159.47 88.0816 159.332 88.0873L141.974 88.7893H141.952Z" fill="#2C7BE5"/>
<path d="M76.0806 104.592C75.9501 104.593 75.824 104.545 75.7274 104.457C75.6307 104.37 75.5705 104.249 75.5588 104.119C75.547 103.989 75.5844 103.86 75.6638 103.756C75.7431 103.652 75.8584 103.582 75.987 103.56C109.817 97.2656 144.281 95.0602 178.638 96.9911C178.775 96.9987 178.904 97.061 178.996 97.164C179.089 97.2671 179.136 97.4024 179.128 97.5403C179.121 97.6783 179.059 97.8073 178.955 97.8994C178.852 97.9914 178.717 98.0387 178.579 98.0311C144.306 96.1054 109.925 98.3056 76.1768 104.584C76.1449 104.59 76.1128 104.592 76.0806 104.592Z" fill="#082244"/>
<path d="M190.416 99.3847H188.336C188.199 99.3847 188.066 99.3299 187.969 99.2324C187.871 99.1349 187.816 99.0027 187.816 98.8647C187.816 98.7268 187.871 98.5946 187.969 98.497C188.066 98.3995 188.199 98.3447 188.336 98.3447H190.416C190.554 98.3447 190.687 98.3995 190.784 98.497C190.882 98.5946 190.936 98.7268 190.936 98.8647C190.936 99.0027 190.882 99.1349 190.784 99.2324C190.687 99.3299 190.554 99.3847 190.416 99.3847Z" fill="#082244"/>
<path d="M206.282 101.25C205.721 101.25 205.086 101.231 204.369 101.188C202.905 101.102 201.137 100.951 199.429 100.798C197.721 100.644 195.967 100.503 194.519 100.417C194.45 100.413 194.383 100.395 194.322 100.366C194.26 100.336 194.205 100.294 194.16 100.243C194.114 100.192 194.079 100.132 194.057 100.068C194.035 100.003 194.025 99.9346 194.029 99.8663C194.032 99.7981 194.051 99.7313 194.081 99.6697C194.11 99.6082 194.152 99.553 194.203 99.5075C194.255 99.4622 194.313 99.4272 194.378 99.4048C194.443 99.3824 194.511 99.3729 194.58 99.3769C196.042 99.4627 197.809 99.6135 199.52 99.7591C201.231 99.9047 202.986 100.055 204.435 100.141C208.976 100.408 209.653 99.6993 209.743 99.5537C210.545 98.2537 209.051 96.5351 207.923 95.7538C202.151 91.7615 196.483 87.6808 190.994 83.734C179.309 75.3412 168.278 67.4047 155.954 59.9297C154.515 59.0574 153.094 58.1708 151.576 57.2309C146.313 53.9627 140.872 50.5827 135.045 47.893C134.732 47.7474 134.366 47.5654 133.979 47.373C132.604 46.6853 130.72 45.7441 129.567 45.735C127.24 45.7194 120.868 50.0055 117.442 52.3091C116.37 53.0306 115.523 53.6 114.964 53.9393C101.171 62.3113 87.7443 71.8494 74.7612 81.0729C73.0842 82.2654 71.4076 83.4554 69.7315 84.6427C69.676 84.6846 69.6127 84.7148 69.5452 84.7319C69.4778 84.7488 69.4076 84.752 69.3389 84.7414C69.2702 84.7308 69.2043 84.7065 69.1451 84.6699C69.086 84.6333 69.0347 84.5854 68.9944 84.5286C68.9541 84.4719 68.9257 84.4076 68.9107 84.3398C68.8956 84.2719 68.8945 84.2017 68.9071 84.1332C68.9197 84.0648 68.9458 83.9997 68.984 83.9416C69.0223 83.8835 69.0718 83.8337 69.1296 83.7951C70.8066 82.6069 72.4827 81.417 74.158 80.2253C87.158 70.9953 100.597 61.4416 114.424 53.0553C114.962 52.729 115.843 52.1362 116.862 51.4511C121.942 48.0347 127.104 44.7002 129.554 44.7002H129.576C130.969 44.7106 132.896 45.6739 134.444 46.4474C134.824 46.6372 135.181 46.8166 135.484 46.9544C141.371 49.6714 146.839 53.0644 152.124 56.3547C153.634 57.292 155.06 58.1747 156.494 59.047C168.853 66.5415 179.894 74.4897 191.594 82.9046C197.076 86.8488 202.742 90.9256 208.507 94.9127C210.306 96.1568 211.735 98.3148 210.622 100.113C210.307 100.62 209.497 101.25 206.282 101.25Z" fill="#082244"/>
<path d="M52.5379 107.572C52.069 107.579 51.6014 107.519 51.1494 107.394C50.19 107.116 49.1618 106.313 49.0253 105.145C48.9252 104.282 49.3269 103.513 49.7117 102.862C50.8539 100.928 52.2111 99.1289 53.7572 97.4994C53.8033 97.4467 53.8596 97.4036 53.9228 97.3732C53.9858 97.3427 54.0545 97.3252 54.1246 97.3219C54.1945 97.3186 54.2644 97.3294 54.3302 97.3538C54.3959 97.3783 54.4561 97.4157 54.5069 97.4639C54.5577 97.5122 54.5983 97.5703 54.6262 97.6345C54.654 97.6989 54.6686 97.7681 54.6691 97.8383C54.6695 97.9084 54.6557 97.9778 54.6286 98.0424C54.6014 98.1072 54.5615 98.1657 54.5112 98.2144C53.0207 99.7898 51.7125 101.528 50.6112 103.396C50.3122 103.903 49.9989 104.488 50.0626 105.03C50.1432 105.721 50.8348 106.225 51.4419 106.402C52.2115 106.624 53.0657 106.532 53.8925 106.44L62.8053 105.463C62.8738 105.454 62.9434 105.459 63.0101 105.478C63.0767 105.496 63.139 105.527 63.1934 105.57C63.2477 105.613 63.2931 105.666 63.3267 105.726C63.3603 105.787 63.3815 105.853 63.3891 105.922C63.3967 105.99 63.3906 106.06 63.3709 106.126C63.3514 106.193 63.3188 106.254 63.2751 106.308C63.2313 106.361 63.1774 106.406 63.1164 106.438C63.0553 106.47 62.9885 106.49 62.9196 106.497L54.0069 107.473C53.5194 107.533 53.0289 107.566 52.5379 107.572Z" fill="#082244"/>
</g>
<defs>
<clipPath id="clip0_470_28494">
<rect width="260" height="260" fill="white" transform="translate(0 0.5)"/>
</clipPath>
</defs>
</svg>
