<svg width="153" height="153" viewBox="0 0 153 153" fill="none" xmlns="http://www.w3.org/2000/svg">
<g clip-path="url(#clip0_459_33241)">
<circle cx="76.4987" cy="76.3351" r="68.557" fill="white" stroke="#ECECEC" stroke-width="15.2349"/>
<path d="M24.5983 121.128C15.9594 111.119 10.3993 98.8242 8.58798 85.7266C6.77669 72.6291 8.79153 59.2872 14.3897 47.3086C19.9879 35.33 28.9305 25.2258 40.1401 18.2136C51.3496 11.2013 64.3478 7.58014 77.5684 7.78644" stroke="#065CBA" stroke-width="15.2349"/>
<path d="M76.4987 7.77809C88.3279 7.77809 99.9558 10.8389 110.252 16.6628C120.548 22.4868 129.162 30.8758 135.257 41.0141C141.351 51.1525 144.719 62.6954 145.032 74.5204C145.345 86.3454 142.593 98.0503 137.044 108.497" stroke="#DD9F02" stroke-width="15.2349"/>
<path d="M137.067 108.452C131.844 118.302 124.298 126.729 115.083 133.004C105.867 139.279 95.2602 143.211 84.1816 144.46C73.103 145.71 61.8868 144.238 51.5052 140.174C41.1236 136.109 31.8899 129.574 24.6044 121.135" stroke="#DC3571" stroke-width="15.2349"/>
<path d="M67.2207 102.186C68.0501 102.186 68.7611 102.033 69.3535 101.728C69.9505 101.423 70.4085 100.999 70.7275 100.457C71.0511 99.9097 71.2129 99.2739 71.2129 98.5493V92.0825H69.6748V98.4331C69.6748 99.144 69.4629 99.7205 69.0391 100.163C68.6152 100.605 68.0091 100.826 67.2207 100.826C66.4414 100.826 65.8353 100.605 65.4023 100.163C64.974 99.7205 64.7598 99.144 64.7598 98.4331V92.0825H63.2217V98.5493C63.2217 99.2739 63.3835 99.9097 63.707 100.457C64.0306 100.999 64.4909 101.423 65.0879 101.728C65.6849 102.033 66.3958 102.186 67.2207 102.186ZM77.0166 102.186C77.7822 102.186 78.4476 102.061 79.0127 101.81C79.5778 101.559 80.013 101.206 80.3184 100.75C80.6283 100.29 80.7832 99.7456 80.7832 99.1167V99.1099C80.7832 98.3807 80.5553 97.7974 80.0996 97.3599C79.6484 96.9224 78.9056 96.5942 77.8711 96.3755L76.791 96.1362C76.1576 95.9995 75.6995 95.8104 75.417 95.5688C75.139 95.3228 75 95.0174 75 94.6528V94.646C75 94.3361 75.0866 94.0718 75.2598 93.853C75.4375 93.6343 75.6768 93.4679 75.9775 93.354C76.2783 93.2355 76.6201 93.1763 77.0029 93.1763C77.3994 93.1717 77.7458 93.231 78.042 93.354C78.3428 93.4725 78.582 93.6366 78.7598 93.8462C78.9421 94.0558 79.0537 94.2951 79.0947 94.564L79.1084 94.6528H80.6055L80.5986 94.564C80.5622 94.049 80.3913 93.5864 80.0859 93.1763C79.7852 92.7661 79.3727 92.4425 78.8486 92.2056C78.3291 91.964 77.7207 91.8433 77.0234 91.8433C76.3262 91.8433 75.7087 91.964 75.1709 92.2056C74.6331 92.4471 74.2116 92.7843 73.9062 93.2173C73.6055 93.6502 73.4528 94.1515 73.4482 94.7212V94.728C73.4482 95.4572 73.6761 96.0565 74.1318 96.5259C74.5876 96.9907 75.3145 97.3302 76.3125 97.5444L77.3926 97.77C78.0443 97.9113 78.5137 98.1073 78.8008 98.3579C79.0879 98.6086 79.2314 98.923 79.2314 99.3013V99.3081C79.2314 99.6089 79.138 99.8755 78.9512 100.108C78.7689 100.34 78.516 100.523 78.1924 100.655C77.8688 100.787 77.4997 100.853 77.085 100.853C76.6429 100.853 76.2487 100.792 75.9023 100.668C75.5605 100.545 75.2871 100.375 75.082 100.156C74.8815 99.937 74.7653 99.6795 74.7334 99.3833L74.7266 99.3081H73.2158L73.2227 99.397C73.2682 99.9484 73.4505 100.434 73.7695 100.853C74.0885 101.272 74.5238 101.6 75.0752 101.837C75.6266 102.07 76.2738 102.186 77.0166 102.186ZM82.7998 101.947H86.3613C87.3457 101.947 88.182 101.753 88.8701 101.366C89.5628 100.974 90.0915 100.409 90.4561 99.6704C90.8252 98.9321 91.0098 98.0412 91.0098 96.9976V96.9839C91.0098 95.9494 90.8252 95.0675 90.4561 94.3384C90.0915 93.6092 89.5628 93.0509 88.8701 92.6636C88.1774 92.2762 87.3411 92.0825 86.3613 92.0825H82.7998V101.947ZM84.3311 100.621V93.4087H86.1904C86.874 93.4087 87.4574 93.55 87.9404 93.8325C88.4235 94.1151 88.7926 94.5252 89.0479 95.063C89.3076 95.6007 89.4375 96.2479 89.4375 97.0044V97.0181C89.4375 97.7791 89.3099 98.4285 89.0547 98.9663C88.804 99.5041 88.4349 99.9142 87.9473 100.197C87.4642 100.479 86.8786 100.621 86.1904 100.621H84.3311Z" fill="#ADB5BD"/>
<path d="M38.5098 81.7539C39.6113 81.7539 40.6113 81.5742 41.5098 81.2148C42.416 80.8477 43.1387 80.3125 43.6777 79.6094C44.2168 78.9062 44.4863 78.043 44.4863 77.0195V77.0078C44.4863 75.7578 44.0801 74.7852 43.2676 74.0898C42.4551 73.3945 41.2715 72.8711 39.7168 72.5195L37.9004 72.0977C36.9238 71.8711 36.2363 71.5625 35.8379 71.1719C35.4473 70.7812 35.252 70.3203 35.252 69.7891V69.7656C35.252 69.3672 35.373 68.9922 35.6152 68.6406C35.8652 68.2891 36.2285 68.0039 36.7051 67.7852C37.1895 67.5664 37.7871 67.457 38.498 67.457C39.123 67.457 39.6738 67.5547 40.1504 67.75C40.627 67.9453 41.0137 68.2305 41.3105 68.6055C41.6074 68.9727 41.7871 69.418 41.8496 69.9414L41.8613 70.0352H44.2988L44.2871 69.8828C44.2324 68.9531 43.9473 68.1484 43.4316 67.4688C42.9238 66.7891 42.2441 66.2656 41.3926 65.8984C40.541 65.5234 39.5762 65.3359 38.498 65.3359C37.3965 65.3359 36.4121 65.5273 35.5449 65.9102C34.6777 66.2852 33.998 66.8164 33.5059 67.5039C33.0137 68.1914 32.7676 69 32.7676 69.9297V69.9531C32.7676 71.1406 33.1543 72.0898 33.9277 72.8008C34.709 73.5039 35.8457 74.0273 37.3379 74.3711L39.1543 74.793C40.2637 75.0508 41.0137 75.3711 41.4043 75.7539C41.7949 76.1367 41.9902 76.625 41.9902 77.2188V77.2305C41.9902 77.6836 41.873 78.0938 41.6387 78.4609C41.4121 78.8203 41.0449 79.1055 40.5371 79.3164C40.0371 79.5273 39.377 79.6328 38.5566 79.6328C37.752 79.6328 37.0918 79.5234 36.5762 79.3047C36.0684 79.0781 35.6738 78.7773 35.3926 78.4023C35.1191 78.0195 34.9434 77.5938 34.8652 77.125L34.8418 77.0078H32.4043L32.416 77.1484C32.4785 78.1094 32.7832 78.9375 33.3301 79.6328C33.8848 80.3203 34.6113 80.8477 35.5098 81.2148C36.4082 81.5742 37.4082 81.7539 38.5098 81.7539ZM37.8301 83.6992H39.1543V63.3906H37.8301V83.6992ZM51.6582 82H54.2363V65.0898H51.6348L47.1816 68.2539V70.7617L51.5762 67.7148H51.6582V82ZM64.5137 82.3047C65.7246 82.3047 66.7949 82.0586 67.7246 81.5664C68.6543 81.0742 69.3809 80.3906 69.9043 79.5156C70.4355 78.6406 70.7012 77.6289 70.7012 76.4805V76.457C70.7012 75.3789 70.4629 74.4219 69.9863 73.5859C69.5098 72.75 68.8535 72.0898 68.0176 71.6055C67.1816 71.1211 66.2285 70.8789 65.1582 70.8789C64.3301 70.8789 63.584 71.0352 62.9199 71.3477C62.2559 71.6523 61.7363 72.0898 61.3613 72.6602H61.2793L61.7949 67.3047H69.7168V65.0898H59.6738L58.8418 74.8516H61.1387C61.248 74.6641 61.3691 74.4883 61.502 74.3242C61.6426 74.1602 61.7871 74.0117 61.9355 73.8789C62.2793 73.5742 62.6699 73.3477 63.1074 73.1992C63.5527 73.043 64.0371 72.9648 64.5605 72.9648C65.2559 72.9648 65.8691 73.1172 66.4004 73.4219C66.9395 73.7266 67.3613 74.1445 67.666 74.6758C67.9785 75.207 68.1348 75.8164 68.1348 76.5039V76.5273C68.1348 77.2305 67.9824 77.8516 67.6777 78.3906C67.373 78.9297 66.9473 79.3516 66.4004 79.6562C65.8613 79.9531 65.2363 80.1016 64.5254 80.1016C63.9082 80.1016 63.3496 79.9844 62.8496 79.75C62.3496 79.5156 61.9434 79.1953 61.6309 78.7891C61.3184 78.375 61.127 77.918 61.0566 77.418L61.0449 77.3242H58.5371L58.5488 77.4648C58.627 78.3867 58.9238 79.2148 59.4395 79.9492C59.9551 80.6758 60.6465 81.25 61.5137 81.6719C62.3809 82.0938 63.3809 82.3047 64.5137 82.3047ZM72.1074 85.5742H73.8887L75.6465 79.4102H73.0801L72.1074 85.5742ZM84.5762 82.293C85.8262 82.293 86.9316 82.0859 87.8926 81.6719C88.8613 81.2578 89.6152 80.6836 90.1543 79.9492C90.7012 79.2148 90.9746 78.3711 90.9746 77.418V77.3945C90.9746 76.6836 90.8145 76.0352 90.4941 75.4492C90.1816 74.8555 89.7441 74.3555 89.1816 73.9492C88.627 73.5352 87.9785 73.25 87.2363 73.0938V73.0352C88.1816 72.7617 88.9355 72.293 89.498 71.6289C90.0684 70.9648 90.3535 70.1875 90.3535 69.2969V69.2734C90.3535 68.4141 90.1074 67.6484 89.6152 66.9766C89.123 66.3047 88.4395 65.7734 87.5645 65.3828C86.6973 64.9922 85.7012 64.7969 84.5762 64.7969C83.459 64.7969 82.4629 64.9922 81.5879 65.3828C80.7207 65.7734 80.0371 66.3047 79.5371 66.9766C79.0449 67.6484 78.7988 68.4141 78.7988 69.2734V69.2969C78.7988 70.1875 79.084 70.9648 79.6543 71.6289C80.2246 72.293 80.9785 72.7617 81.916 73.0352V73.0938C81.1895 73.25 80.5449 73.5352 79.9824 73.9492C79.4199 74.3555 78.9785 74.8555 78.6582 75.4492C78.3457 76.0352 78.1895 76.6836 78.1895 77.3945V77.418C78.1895 78.3711 78.459 79.2148 78.998 79.9492C79.5449 80.6836 80.2988 81.2578 81.2598 81.6719C82.2207 82.0859 83.3262 82.293 84.5762 82.293ZM84.5762 80.1836C83.8652 80.1836 83.2324 80.0586 82.6777 79.8086C82.123 79.5508 81.6855 79.2031 81.3652 78.7656C81.0527 78.3203 80.8965 77.8125 80.8965 77.2422V77.2188C80.8965 76.6484 81.0527 76.1406 81.3652 75.6953C81.6777 75.25 82.1113 74.9023 82.666 74.6523C83.2207 74.3945 83.8574 74.2656 84.5762 74.2656C85.3027 74.2656 85.9434 74.3945 86.498 74.6523C87.0527 74.9023 87.4863 75.25 87.7988 75.6953C88.1113 76.1406 88.2676 76.6484 88.2676 77.2188V77.2422C88.2676 77.8125 88.1074 78.3203 87.7871 78.7656C87.4746 79.2031 87.041 79.5508 86.4863 79.8086C85.9395 80.0586 85.3027 80.1836 84.5762 80.1836ZM84.5762 72.1445C83.9512 72.1445 83.4004 72.0352 82.9238 71.8164C82.4473 71.5898 82.0762 71.2812 81.8105 70.8906C81.5449 70.4922 81.4121 70.0391 81.4121 69.5312V69.5078C81.4121 68.9922 81.5449 68.5391 81.8105 68.1484C82.0762 67.75 82.4473 67.4414 82.9238 67.2227C83.4004 66.9961 83.9512 66.8828 84.5762 66.8828C85.2012 66.8828 85.752 66.9961 86.2285 67.2227C86.7051 67.4414 87.0762 67.75 87.3418 68.1484C87.6152 68.5391 87.752 68.9922 87.752 69.5078V69.5312C87.752 70.0391 87.6152 70.4922 87.3418 70.8906C87.0762 71.2812 86.7051 71.5898 86.2285 71.8164C85.752 72.0352 85.2012 72.1445 84.5762 72.1445ZM99.5996 82.3047C100.936 82.3047 102.084 81.9492 103.045 81.2383C104.006 80.5273 104.74 79.5195 105.248 78.2148C105.764 76.9023 106.021 75.3477 106.021 73.5508V73.5273C106.021 71.7305 105.764 70.1797 105.248 68.875C104.74 67.5625 104.006 66.5547 103.045 65.8516C102.084 65.1406 100.936 64.7852 99.5996 64.7852C98.2559 64.7852 97.1035 65.1406 96.1426 65.8516C95.1895 66.5547 94.4551 67.5625 93.9395 68.875C93.4316 70.1797 93.1777 71.7305 93.1777 73.5273V73.5508C93.1777 75.3477 93.4316 76.9023 93.9395 78.2148C94.4551 79.5195 95.1895 80.5273 96.1426 81.2383C97.1035 81.9492 98.2559 82.3047 99.5996 82.3047ZM99.5996 80.1133C98.8027 80.1133 98.123 79.8477 97.5605 79.3164C96.998 78.7852 96.5684 78.0312 96.2715 77.0547C95.9824 76.0703 95.8379 74.9023 95.8379 73.5508V73.5273C95.8379 72.1758 95.9824 71.0117 96.2715 70.0352C96.5684 69.0586 96.998 68.3086 97.5605 67.7852C98.123 67.2539 98.8027 66.9883 99.5996 66.9883C100.389 66.9883 101.064 67.2539 101.627 67.7852C102.189 68.3086 102.619 69.0586 102.916 70.0352C103.221 71.0117 103.373 72.1758 103.373 73.5273V73.5508C103.373 74.9023 103.221 76.0703 102.916 77.0547C102.619 78.0312 102.189 78.7852 101.627 79.3164C101.064 79.8477 100.389 80.1133 99.5996 80.1133ZM108.377 82H119.92V79.7734H111.072L111.928 80.4883V78.8828L111.072 80.4883L115.725 75.9062C116.74 74.9062 117.533 74.0547 118.104 73.3516C118.674 72.6484 119.076 72.0078 119.311 71.4297C119.545 70.8438 119.662 70.2305 119.662 69.5898V69.5664C119.662 68.6523 119.424 67.8359 118.947 67.1172C118.471 66.3906 117.814 65.8203 116.979 65.4062C116.143 64.9922 115.186 64.7852 114.107 64.7852C113.006 64.7852 112.01 65.0117 111.119 65.4648C110.229 65.9102 109.525 66.5273 109.01 67.3164C108.502 68.0977 108.244 68.9961 108.236 70.0117L108.248 70.082H110.732L110.744 70.0117C110.744 69.4336 110.889 68.9141 111.178 68.4531C111.467 67.9922 111.865 67.6289 112.373 67.3633C112.881 67.0898 113.459 66.9531 114.107 66.9531C114.693 66.9531 115.205 67.0742 115.643 67.3164C116.088 67.5508 116.432 67.8789 116.674 68.3008C116.924 68.7148 117.049 69.1914 117.049 69.7305V69.7539C117.049 70.1992 116.975 70.6172 116.826 71.0078C116.678 71.3984 116.404 71.8438 116.006 72.3438C115.607 72.8438 115.033 73.4727 114.283 74.2305L108.377 80.1953V82Z" fill="#222222"/>
</g>
<defs>
<clipPath id="clip0_459_33241">
<rect width="152.349" height="152.349" fill="white" transform="translate(0.324219 0.160645)"/>
</clipPath>
</defs>
</svg>
