<svg width="260" height="261" viewBox="0 0 260 261" fill="none" xmlns="http://www.w3.org/2000/svg">
<g clip-path="url(#clip0_470_28492)">
<path d="M138.839 41.7512C117.418 38.8847 109.543 72.7224 131.978 76.989C136.268 77.8054 142.43 78.2474 146.611 76.0608C152.496 72.9837 156.981 66.7827 156.331 60.0539C155.78 49.6175 147.501 42.9095 138.839 41.7512Z" fill="white"/>
<path d="M138.7 78.1826C136.411 78.1644 134.129 77.936 131.881 77.5001C120.596 75.3538 116.908 65.9782 118.257 57.6374C119.027 52.8794 121.424 48.4191 124.834 45.3992C128.715 41.9633 133.582 40.5229 138.909 41.2392C143.451 41.8407 147.683 43.8755 150.989 47.0476C154.555 50.5095 156.579 54.9919 156.847 60.0125C157.165 63.3119 156.306 66.6633 154.361 69.704C152.571 72.5029 149.905 74.9235 146.852 76.5186C144.443 77.7809 141.488 78.1826 138.7 78.1826ZM136.269 42.0959C126.779 42.0959 120.6 49.671 119.284 57.8025C118.014 65.6467 121.478 74.4633 132.075 76.4783C134.857 77.0074 141.825 77.9798 146.375 75.5995C151.561 72.8877 156.492 67.0442 155.814 60.1048C155.814 60.097 155.814 60.0892 155.814 60.0814C155.251 49.3317 146.584 43.3114 138.778 42.2714C137.946 42.1574 137.109 42.0988 136.269 42.0959Z" fill="#082244"/>
<path d="M147.337 69.5624C146.167 70.2696 134.088 70.3749 127.604 71.7477C126.849 65.0674 126.286 58.3694 125.914 51.6536L145.578 49.2889C145.717 49.2709 145.858 49.2811 145.994 49.3191C146.129 49.3571 146.255 49.4221 146.364 49.5099C146.473 49.5978 146.563 49.707 146.629 49.8308C146.696 49.9545 146.736 50.0904 146.748 50.2301C147.127 54.3381 148.403 68.9189 147.337 69.5624Z" fill="#E8F1FC"/>
<path d="M92.2492 217.738C92.3623 218.258 92.5222 218.805 92.9226 219.159C93.401 219.583 94.0926 219.623 94.7361 219.641C107.527 219.984 120.32 219.328 133.098 218.671C145.649 218.021 159.434 218.353 171.986 217.708C173.416 217.635 175.029 217.47 175.913 216.344C176.455 215.653 176.598 214.738 176.693 213.863C176.889 212.067 176.477 209.107 175.695 207.478C174.847 205.716 171.015 204.683 169.482 204.088C146.19 195.007 124.372 194.753 101.483 203.797C98.9494 204.798 96.235 205.922 94.1069 207.667C92.6496 208.863 92.3545 210.693 92.088 212.469C91.8241 214.22 91.8787 216.005 92.2492 217.738Z" fill="#FD7E14"/>
<path d="M101.168 155.891C100.06 155.966 99.6586 155.618 99.3817 154.545C98.6329 151.638 94.6835 150.463 92.025 151.856C89.3665 153.25 88.0171 156.385 87.8559 159.383C87.7259 161.819 88.4825 164.599 90.6587 165.704C92.8141 166.798 95.4297 165.825 97.5084 164.592C98.3859 164.072 99.3908 163.483 100.368 163.794C101.408 164.126 101.865 165.311 102.125 166.367C102.976 169.821 103.123 173.415 103.932 176.88C104.74 180.344 106.364 183.835 109.357 185.759C110.866 186.729 112.626 187.236 114.386 187.592C119.252 188.575 124.266 188.492 129.224 188.224C134.492 187.938 139.744 187.448 144.979 186.756C148.475 186.293 152.197 185.626 154.737 183.18C158.431 179.622 158.269 173.813 159.234 168.776C159.474 167.524 159.921 166.13 161.078 165.593C162.909 164.746 164.766 166.6 166.668 167.283C168.906 168.084 171.56 167.075 172.981 165.171C174.402 163.266 174.671 160.649 174.002 158.368C173.443 156.453 172.209 154.679 170.43 153.774C168.652 152.869 166.32 152.978 164.817 154.294C163.993 155.014 163.82 153.432 162.84 152.946C162.807 148.082 162.004 145.926 161.971 141.061C161.949 137.866 161.926 134.646 161.301 131.511C160.822 129.149 159.971 126.789 158.316 125.047C156.506 123.144 153.94 122.18 151.426 121.424C142.746 118.821 133.629 117.997 124.622 119.002C119.591 119.568 114.527 120.743 110.213 123.394C106.541 125.649 103.436 129.094 102.121 133.248C101.819 134.198 101.801 134.96 101.807 135.929C101.818 137.178 101.399 138.497 101.221 139.735C100.832 142.44 100.61 145.166 100.556 147.899C100.492 150.971 100.803 152.84 101.168 155.891Z" fill="#F8D7DA"/>
<path d="M92.6497 163.138C92.5292 163.138 92.4125 163.095 92.3195 163.018C91.6148 162.436 91.059 161.695 90.6988 160.855C90.3386 160.014 90.1843 159.1 90.2486 158.189C90.313 157.277 90.5942 156.393 91.0688 155.613C91.5434 154.832 92.1978 154.176 92.9773 153.698C93.0948 153.628 93.235 153.609 93.3674 153.641C93.5 153.674 93.6143 153.757 93.6856 153.874C93.7569 153.991 93.7797 154.13 93.7489 154.263C93.7179 154.397 93.636 154.512 93.5207 154.585C92.8823 154.975 92.3464 155.513 91.9577 156.153C91.5689 156.791 91.3385 157.515 91.2858 158.261C91.233 159.008 91.3593 159.756 91.6543 160.444C91.9491 161.132 92.4042 161.739 92.9812 162.216C93.0642 162.284 93.124 162.376 93.1524 162.48C93.1809 162.583 93.1767 162.693 93.1403 162.793C93.1041 162.895 93.0375 162.982 92.9496 163.043C92.8617 163.105 92.7571 163.138 92.6497 163.138Z" fill="#082244"/>
<path d="M169.331 163.976C169.225 163.976 169.12 163.944 169.032 163.881C168.944 163.82 168.878 163.733 168.841 163.633C168.805 163.532 168.801 163.423 168.828 163.32C168.857 163.216 168.917 163.124 168.999 163.056C169.498 162.641 169.871 162.097 170.076 161.48C170.28 160.865 170.31 160.205 170.16 159.575C170.009 158.944 169.684 158.368 169.224 157.912C168.762 157.456 168.184 157.138 167.55 156.994C167.417 156.963 167.3 156.88 167.225 156.764C167.153 156.647 167.129 156.505 167.159 156.371C167.19 156.236 167.272 156.12 167.389 156.046C167.506 155.974 167.648 155.949 167.782 155.98C168.603 156.167 169.356 156.581 169.955 157.172C170.555 157.765 170.976 158.514 171.171 159.333C171.367 160.153 171.33 161.011 171.063 161.811C170.797 162.61 170.312 163.319 169.663 163.857C169.569 163.933 169.452 163.976 169.331 163.976Z" fill="#082244"/>
<path d="M129.403 177.023C129.281 177.023 129.163 176.98 129.069 176.902C128.975 176.823 128.913 176.715 128.891 176.594C128.869 176.474 128.891 176.351 128.951 176.244C129.012 176.139 129.108 176.058 129.222 176.015C132.227 174.917 135.486 174.709 138.606 175.416C138.742 175.447 138.857 175.529 138.931 175.646C139.004 175.763 139.028 175.905 138.998 176.039C138.967 176.174 138.883 176.291 138.766 176.364C138.649 176.437 138.509 176.461 138.374 176.43C135.45 175.768 132.398 175.962 129.582 176.99C129.525 177.011 129.464 177.023 129.403 177.023Z" fill="#082244"/>
<path d="M132.64 180.9C132.6 180.9 132.559 180.894 132.519 180.885C132.453 180.87 132.389 180.841 132.333 180.802C132.277 180.762 132.23 180.711 132.194 180.653C132.158 180.594 132.133 180.53 132.123 180.463C132.111 180.394 132.113 180.325 132.129 180.259C132.224 179.865 132.441 179.513 132.752 179.251C133.061 178.991 133.446 178.838 133.85 178.813C134.255 178.788 134.655 178.894 134.994 179.113C135.334 179.334 135.594 179.657 135.735 180.036C135.76 180.1 135.77 180.168 135.768 180.237C135.765 180.304 135.75 180.372 135.721 180.434C135.692 180.497 135.652 180.553 135.603 180.598C135.552 180.645 135.493 180.681 135.43 180.705C135.365 180.729 135.297 180.74 135.23 180.737C135.161 180.734 135.093 180.719 135.032 180.69C134.969 180.662 134.914 180.621 134.867 180.572C134.82 180.521 134.785 180.463 134.76 180.399C134.697 180.229 134.58 180.085 134.427 179.986C134.275 179.887 134.095 179.839 133.914 179.851C133.732 179.862 133.559 179.931 133.42 180.048C133.281 180.164 133.183 180.322 133.14 180.499C133.114 180.612 133.051 180.712 132.96 180.785C132.869 180.858 132.757 180.898 132.64 180.9Z" fill="#082244"/>
<path d="M133.062 167.237H133.035C132.648 167.227 132.264 167.14 131.912 166.979C131.558 166.819 131.241 166.588 130.979 166.302C130.76 166.074 130.591 165.804 130.483 165.508C130.375 165.211 130.33 164.895 130.351 164.581C130.448 163.399 131.458 162.575 132.371 162.199L132.51 162.142C132.791 162.03 133.081 161.913 133.16 161.752C133.195 161.634 133.211 161.51 133.205 161.388C133.282 158.935 133.361 156.398 133.161 153.923C133.146 153.717 133.126 153.51 133.108 153.301C132.952 151.529 132.791 149.696 133.571 148.036C133.629 147.911 133.736 147.815 133.866 147.768C133.996 147.721 134.139 147.727 134.264 147.786C134.388 147.846 134.485 147.951 134.531 148.081C134.578 148.211 134.57 148.354 134.512 148.479C133.852 149.884 134 151.575 134.144 153.21C134.164 153.42 134.182 153.631 134.199 153.839C134.403 156.372 134.329 158.939 134.245 161.42C134.252 161.679 134.205 161.938 134.109 162.178C133.863 162.727 133.329 162.94 132.901 163.112L132.771 163.164C132.171 163.411 131.45 163.954 131.392 164.67C131.384 164.842 131.411 165.014 131.473 165.175C131.535 165.336 131.629 165.482 131.749 165.605C131.916 165.786 132.116 165.931 132.34 166.033C132.563 166.135 132.804 166.193 133.049 166.2H133.062C133.905 166.2 134.785 165.692 135.479 164.803C135.564 164.694 135.688 164.624 135.825 164.607C135.963 164.59 136.101 164.627 136.21 164.712C136.318 164.798 136.389 164.921 136.406 165.059C136.423 165.196 136.384 165.333 136.299 165.443C135.412 166.583 134.232 167.237 133.062 167.237Z" fill="#082244"/>
<path d="M121.742 142.126C118.762 142.728 115.68 143.367 113.261 145.198C112.975 145.415 112.69 145.661 112.56 145.995C112.43 146.329 112.509 146.775 112.82 146.944C113.08 147.084 113.392 147.011 113.674 146.944C117.075 146.044 120.54 145.41 124.039 145.048C124.871 144.963 125.81 144.887 126.499 144.359C127.042 143.945 127.496 143.08 127.043 142.447C126.064 141.064 123.052 141.862 121.742 142.126Z" fill="#082244"/>
<path d="M113.172 147.544C112.965 147.547 112.76 147.497 112.578 147.4C112 147.083 111.872 146.34 112.08 145.806C112.256 145.354 112.6 145.047 112.952 144.783C115.513 142.843 118.771 142.192 121.644 141.616L122.034 141.534C123.66 141.188 126.381 140.61 127.472 142.137C128.088 143.001 127.625 144.151 126.822 144.766C126.042 145.36 125.068 145.46 124.206 145.546L124.099 145.558C120.627 145.917 117.189 146.546 113.814 147.438C113.605 147.501 113.39 147.536 113.172 147.544ZM124.948 142.178C124.007 142.178 122.926 142.408 122.252 142.551L121.849 142.635C119.085 143.189 115.952 143.817 113.581 145.612C113.354 145.784 113.133 145.972 113.049 146.184C113.027 146.232 113.018 146.287 113.024 146.34C113.029 146.394 113.049 146.444 113.081 146.489C113.166 146.535 113.426 146.466 113.551 146.434C116.978 145.528 120.47 144.888 123.995 144.524L124.102 144.514C124.863 144.436 125.65 144.355 126.194 143.939C126.534 143.679 126.887 143.102 126.629 142.742C126.32 142.317 125.674 142.178 124.943 142.178H124.948Z" fill="#082244"/>
<path d="M150.593 142.245C152.413 142.564 154.452 143.383 154.935 145.162C155.018 145.468 155.028 145.84 154.793 146.052C154.652 146.158 154.486 146.223 154.311 146.24C151.597 146.702 148.958 145.174 146.219 144.905C144.939 144.775 143.654 144.93 142.373 144.878C141.615 144.847 140.163 144.899 140.269 143.796C140.364 142.756 141.543 142.626 142.349 142.443C143.621 142.159 144.915 141.993 146.217 141.948C147.682 141.893 149.148 141.993 150.593 142.245Z" fill="#082244"/>
<path d="M153.26 146.846C151.891 146.846 150.553 146.469 149.252 146.103C148.239 145.818 147.193 145.523 146.17 145.423C145.453 145.368 144.734 145.358 144.017 145.392C143.473 145.406 142.912 145.42 142.351 145.392H142.164C141.491 145.371 140.568 145.343 140.062 144.771C139.943 144.632 139.853 144.47 139.798 144.293C139.745 144.118 139.729 143.932 139.753 143.75C139.872 142.429 141.201 142.153 141.995 141.988C142.078 141.971 142.162 141.954 142.24 141.936C143.541 141.646 144.866 141.476 146.198 141.428C147.7 141.372 149.204 141.475 150.683 141.733C153.297 142.192 154.986 143.362 155.437 145.028C155.596 145.613 155.488 146.127 155.142 146.438C154.93 146.612 154.672 146.721 154.399 146.753C154.023 146.815 153.642 146.848 153.26 146.846ZM145.022 144.335C145.436 144.335 145.855 144.348 146.275 144.388C147.39 144.497 148.485 144.805 149.538 145.102C151.158 145.558 152.689 145.99 154.228 145.727C154.306 145.722 154.382 145.701 154.451 145.665C154.465 145.652 154.5 145.527 154.438 145.299C153.979 143.609 151.779 142.981 150.508 142.758C147.841 142.295 145.11 142.36 142.47 142.951L142.21 143.006C141.265 143.202 140.836 143.37 140.793 143.843C140.777 144.007 140.824 144.059 140.843 144.082C141.053 144.316 141.799 144.342 142.199 144.352H142.398C142.918 144.374 143.468 144.359 143.993 144.352C144.329 144.344 144.672 144.335 145.022 144.335Z" fill="#082244"/>
<path d="M120.487 157.381C119.374 157.38 118.283 157.066 117.341 156.471C116.317 155.821 115.247 154.59 115.316 153.091C115.319 153.023 115.336 152.956 115.365 152.894C115.394 152.833 115.435 152.777 115.485 152.731C115.536 152.685 115.595 152.649 115.66 152.626C115.724 152.603 115.792 152.592 115.86 152.596C115.929 152.599 115.996 152.616 116.057 152.646C116.119 152.674 116.175 152.716 116.221 152.765C116.267 152.816 116.302 152.876 116.326 152.939C116.349 153.004 116.359 153.072 116.356 153.141C116.308 154.191 117.121 155.091 117.9 155.591C119.235 156.44 120.964 156.581 122.303 155.949C123.688 155.299 124.617 153.773 124.513 152.328C124.503 152.191 124.549 152.054 124.639 151.95C124.73 151.845 124.858 151.781 124.996 151.771C125.134 151.762 125.27 151.807 125.375 151.897C125.479 151.988 125.543 152.116 125.553 152.254C125.683 154.141 124.534 156.046 122.748 156.89C122.04 157.218 121.268 157.387 120.487 157.381Z" fill="#082244"/>
<path d="M146.861 155.946C146.302 155.949 145.747 155.86 145.217 155.686C144.236 155.359 143.441 154.776 142.978 154.037C142.409 153.127 142.368 151.967 142.877 151.138C142.91 151.076 142.957 151.023 143.012 150.98C143.068 150.937 143.131 150.906 143.199 150.888C143.267 150.87 143.337 150.866 143.407 150.876C143.476 150.887 143.542 150.911 143.602 150.948C143.662 150.984 143.714 151.032 143.754 151.089C143.794 151.147 143.823 151.21 143.839 151.279C143.854 151.347 143.854 151.418 143.841 151.487C143.83 151.556 143.802 151.621 143.763 151.68C143.456 152.18 143.495 152.906 143.858 153.484C144.194 154.016 144.793 154.449 145.548 154.7C146.718 155.09 148.079 154.928 149.282 154.255C150.484 153.582 151.333 152.504 151.61 151.3C151.623 151.231 151.65 151.166 151.689 151.109C151.728 151.05 151.779 151.001 151.838 150.963C151.896 150.926 151.962 150.9 152.03 150.887C152.099 150.875 152.169 150.878 152.238 150.893C152.306 150.909 152.369 150.937 152.426 150.979C152.482 151.019 152.53 151.071 152.567 151.131C152.602 151.191 152.625 151.258 152.636 151.327C152.645 151.396 152.641 151.466 152.623 151.534C152.281 153.023 151.247 154.345 149.79 155.162C148.897 155.669 147.888 155.94 146.861 155.946Z" fill="#082244"/>
<path d="M110.391 163.788H109.756C109.618 163.788 109.486 163.733 109.389 163.636C109.291 163.538 109.236 163.406 109.236 163.268C109.236 163.13 109.291 162.998 109.389 162.9C109.486 162.803 109.618 162.748 109.756 162.748H110.391C110.529 162.748 110.661 162.803 110.758 162.9C110.856 162.998 110.911 163.13 110.911 163.268C110.911 163.406 110.856 163.538 110.758 163.636C110.661 163.733 110.529 163.788 110.391 163.788Z" fill="#082244"/>
<path d="M117.999 166.326C117.861 166.326 117.728 166.272 117.631 166.174C117.533 166.077 117.479 165.944 117.479 165.806V165.173C117.479 165.036 117.533 164.903 117.631 164.805C117.728 164.708 117.861 164.653 117.999 164.653C118.136 164.653 118.269 164.708 118.366 164.805C118.464 164.903 118.519 165.036 118.519 165.173V165.806C118.519 165.944 118.464 166.077 118.366 166.174C118.269 166.272 118.136 166.326 117.999 166.326Z" fill="#082244"/>
<path d="M121.38 162.312C121.25 162.314 121.125 162.266 121.028 162.179C120.931 162.093 120.871 161.972 120.858 161.843C120.845 161.714 120.881 161.584 120.959 161.48C121.037 161.376 121.151 161.305 121.279 161.282L122.334 161.071C122.402 161.055 122.473 161.053 122.541 161.064C122.61 161.076 122.676 161.102 122.734 161.14C122.793 161.177 122.844 161.227 122.883 161.284C122.922 161.341 122.949 161.406 122.963 161.475C122.977 161.543 122.977 161.613 122.963 161.682C122.948 161.751 122.921 161.814 122.881 161.872C122.841 161.93 122.791 161.978 122.732 162.016C122.673 162.054 122.607 162.078 122.538 162.09L121.483 162.302C121.449 162.309 121.415 162.312 121.38 162.312Z" fill="#082244"/>
<path d="M125.184 167.596C125.082 167.596 124.981 167.564 124.895 167.507C124.81 167.451 124.743 167.369 124.704 167.274C124.664 167.18 124.654 167.074 124.674 166.974C124.694 166.873 124.744 166.78 124.817 166.708L125.24 166.285C125.339 166.192 125.47 166.141 125.605 166.142C125.741 166.145 125.87 166.199 125.966 166.294C126.062 166.39 126.117 166.52 126.118 166.656C126.12 166.792 126.068 166.922 125.975 167.021L125.552 167.443C125.504 167.492 125.447 167.529 125.384 167.555C125.32 167.583 125.253 167.596 125.184 167.596Z" fill="#082244"/>
<path d="M142.301 161.889C142.236 161.889 142.17 161.876 142.109 161.852L141.052 161.43C140.925 161.378 140.822 161.278 140.767 161.15C140.714 161.023 140.713 160.88 140.765 160.751C140.815 160.624 140.917 160.521 141.044 160.468C141.17 160.413 141.315 160.412 141.442 160.464L142.499 160.886C142.611 160.932 142.704 161.014 142.762 161.12C142.819 161.226 142.838 161.349 142.815 161.467C142.793 161.586 142.729 161.692 142.635 161.769C142.543 161.846 142.426 161.889 142.305 161.889H142.301Z" fill="#082244"/>
<path d="M144.631 166.327C144.502 166.325 144.379 166.277 144.284 166.192C144.187 166.104 144.128 165.986 144.116 165.857C144.103 165.729 144.138 165.601 144.215 165.497C144.291 165.395 144.403 165.323 144.529 165.297L145.586 165.087C145.654 165.071 145.725 165.068 145.793 165.08C145.862 165.092 145.928 165.118 145.987 165.155C146.045 165.193 146.096 165.243 146.135 165.3C146.174 165.357 146.201 165.422 146.215 165.491C146.228 165.558 146.228 165.629 146.214 165.698C146.201 165.766 146.173 165.83 146.134 165.887C146.093 165.946 146.043 165.994 145.984 166.032C145.926 166.069 145.859 166.094 145.79 166.106L144.733 166.318C144.7 166.324 144.666 166.327 144.631 166.327Z" fill="#082244"/>
<path d="M155.407 166.327C155.351 166.327 155.295 166.318 155.242 166.301L154.607 166.089C154.476 166.045 154.368 165.951 154.307 165.828C154.245 165.704 154.236 165.561 154.278 165.431C154.323 165.3 154.416 165.192 154.54 165.131C154.663 165.068 154.805 165.058 154.936 165.102L155.571 165.314C155.688 165.353 155.786 165.432 155.85 165.538C155.914 165.643 155.937 165.768 155.918 165.89C155.898 166.011 155.836 166.121 155.742 166.202C155.649 166.281 155.53 166.325 155.407 166.327Z" fill="#082244"/>
<path d="M149.912 162.735C149.844 162.735 149.775 162.721 149.713 162.695C149.649 162.669 149.592 162.63 149.544 162.581L149.332 162.371C149.234 162.273 149.18 162.141 149.18 162.003C149.18 161.865 149.234 161.733 149.332 161.635C149.429 161.538 149.562 161.483 149.7 161.483C149.837 161.483 149.97 161.538 150.068 161.635L150.279 161.847C150.352 161.92 150.402 162.012 150.422 162.113C150.442 162.214 150.432 162.319 150.393 162.414C150.354 162.509 150.286 162.591 150.201 162.648C150.116 162.704 150.014 162.735 149.912 162.735Z" fill="#082244"/>
<path d="M154.642 133.736C155.546 133.185 156.418 132.584 157.255 131.938C157.29 131.911 157.333 131.895 157.379 131.893C157.423 131.89 157.467 131.902 157.505 131.925C157.544 131.948 157.574 131.982 157.592 132.023C157.61 132.063 157.616 132.108 157.609 132.153C157.104 135.146 156.887 138.182 156.959 141.217C156.961 141.429 157.005 141.64 157.09 141.835C157.174 142.03 157.297 142.207 157.45 142.354C158.138 142.997 158.919 142.579 159.511 142.124C160.729 141.185 161.732 139.997 162.454 138.638C161.21 142.68 160.725 146.918 161.024 151.136C161.081 152.176 161.273 153.205 161.594 154.195C162.131 155.74 164.293 155.811 164.906 154.295C166.368 150.68 167.355 146.892 167.841 143.023C170.386 143.734 173.339 142.523 174.652 140.229C175.965 137.936 175.514 134.776 173.612 132.942C172.656 132.019 171.378 131.395 170.701 130.252C169.573 128.346 170.563 125.94 171.525 123.944C172.487 121.949 173.385 119.472 172.126 117.651C171.229 116.351 169.462 115.891 167.899 116.115C166.337 116.34 164.92 117.131 163.543 117.906C164.252 116.219 164.855 114.49 165.349 112.729C165.398 112.567 165.42 112.399 165.415 112.23C165.364 111.14 164.172 111.021 163.292 111.203C161.87 111.502 160.548 112.16 159.452 113.116C160.192 109.467 160.448 105.736 160.214 102.02C160.133 100.735 159.968 99.3792 158.933 98.4679C158.702 98.2557 158.422 98.1012 158.12 98.0174C157.815 97.9335 157.497 97.9227 157.189 97.9856C156.032 98.2456 155.652 99.4546 155.388 100.513C154.512 104.036 153.635 107.559 152.757 111.082C150.269 106.611 146.821 102.745 142.663 99.764C142.451 99.6061 142.195 99.5173 141.931 99.5098C141.665 99.5024 141.405 99.5766 141.184 99.7224C140.674 100.079 140.767 100.599 140.872 101.063C141.4 103.394 142.12 105.676 143.025 107.888C133.275 102.022 121.089 100.359 110.128 103.412C109.975 103.452 109.83 103.515 109.697 103.599C108.941 104.1 109.299 104.965 109.741 105.549C111.21 107.482 113.497 108.585 115.694 109.617C102.32 111.008 89.8151 119.168 83.2072 130.888C83.0863 131.097 83.0217 131.335 83.0196 131.577C83.0175 131.818 83.0781 132.058 83.1955 132.27C83.6323 133.026 84.4955 132.848 85.2001 132.64L92.5373 130.47C92.9708 130.336 93.4387 130.367 93.8503 130.559C94.8903 131.061 94.694 132.159 94.4197 133.038C93.3355 136.51 91.5363 139.85 91.4466 143.487C91.4206 144.568 91.5987 145.756 92.4021 146.477C93.9699 147.889 96.4113 146.575 98.0636 145.264C97.5336 148.877 97.9234 152.565 99.1972 155.988C99.2641 156.178 99.3813 156.347 99.5362 156.476C99.6912 156.604 99.8781 156.69 100.077 156.721C100.673 156.803 100.953 156.331 101.169 155.892C104.14 149.94 105.648 143.106 110.06 138.129C111.846 139.799 114.732 138.623 116.807 137.328C119.691 135.527 122.501 133.611 125.237 131.583C126.203 130.867 128.564 129.249 126.87 133.027C126.859 133.055 126.842 133.079 126.827 133.105C126.472 133.744 126.131 134.444 126.214 135.171C126.344 136.283 127.47 137.066 128.582 137.174C129.695 137.282 130.792 136.875 131.823 136.446C138.002 133.88 143.129 130.807 148.116 126.348C149.601 125.351 147.466 128.088 147.382 129.131C147.252 130.81 148.797 130.209 149.735 129.71C150.46 129.32 151.402 128.741 152.232 129.249C153.085 129.769 152.441 131.248 152.48 132.054C152.544 133.375 153.196 134.613 154.642 133.736Z" fill="#BBD4F7"/>
<path d="M112.744 119.249C111.726 119.25 110.717 119.059 109.769 118.687C109.561 118.605 108.925 118.355 108.789 117.736C108.729 117.407 108.797 117.068 108.979 116.787C109.499 115.866 110.515 115.213 111.769 115C112.827 114.82 113.914 114.959 114.873 115.083C114.943 115.089 115.011 115.109 115.073 115.141C115.135 115.174 115.19 115.219 115.234 115.274C115.278 115.328 115.311 115.391 115.33 115.459C115.349 115.526 115.355 115.597 115.346 115.666C115.337 115.736 115.314 115.803 115.279 115.863C115.243 115.924 115.196 115.977 115.14 116.019C115.084 116.061 115.019 116.09 114.951 116.107C114.883 116.123 114.812 116.126 114.743 116.114C113.813 115.994 112.851 115.872 111.945 116.025C111.017 116.184 110.248 116.66 109.887 117.298C109.799 117.454 109.807 117.511 109.807 117.511C109.807 117.511 109.843 117.597 110.153 117.719C111.28 118.162 112.503 118.308 113.703 118.144C113.84 118.126 113.978 118.162 114.088 118.246C114.198 118.329 114.27 118.453 114.289 118.59C114.307 118.726 114.271 118.865 114.187 118.975C114.104 119.085 113.98 119.157 113.843 119.175C113.479 119.225 113.111 119.25 112.744 119.249Z" fill="#082244"/>
<path d="M137.85 113.738C137.801 113.738 137.752 113.731 137.705 113.717C137.331 113.609 136.819 113.457 136.453 113.067C136.33 112.93 136.235 112.77 136.174 112.596C136.113 112.421 136.088 112.237 136.101 112.053C136.11 111.905 136.149 111.761 136.215 111.629C136.283 111.497 136.377 111.381 136.491 111.287C136.712 111.127 136.972 111.031 137.244 111.009C138.818 110.793 140.421 111.011 141.88 111.639C141.942 111.666 141.999 111.706 142.047 111.755C142.094 111.804 142.132 111.862 142.158 111.925C142.182 111.989 142.195 112.056 142.194 112.125C142.193 112.193 142.179 112.26 142.151 112.323C142.124 112.386 142.085 112.443 142.037 112.49C141.987 112.538 141.929 112.575 141.865 112.601C141.803 112.626 141.734 112.638 141.666 112.637C141.597 112.636 141.53 112.622 141.467 112.595C140.183 112.041 138.771 111.85 137.385 112.04C137.301 112.044 137.218 112.064 137.141 112.098C137.135 112.145 137.137 112.192 137.151 112.237C137.164 112.282 137.188 112.324 137.219 112.358C137.374 112.527 137.649 112.618 137.999 112.717C138.12 112.752 138.223 112.829 138.29 112.934C138.358 113.039 138.386 113.165 138.368 113.289C138.351 113.413 138.289 113.526 138.195 113.609C138.1 113.691 137.98 113.736 137.855 113.736L137.85 113.738Z" fill="#082244"/>
<path d="M124.676 124.138C124.452 124.136 124.233 124.077 124.039 123.966C123.827 123.852 123.646 123.687 123.513 123.486C123.379 123.285 123.297 123.054 123.274 122.814C123.21 121.985 123.811 121.305 124.434 120.994C125.034 120.698 125.686 120.658 126.254 120.623C126.322 120.618 126.391 120.628 126.455 120.65C126.52 120.672 126.58 120.707 126.631 120.752C126.682 120.798 126.724 120.853 126.754 120.914C126.784 120.976 126.801 121.042 126.806 121.111C126.81 121.179 126.801 121.247 126.778 121.312C126.756 121.377 126.721 121.436 126.676 121.488C126.631 121.539 126.576 121.581 126.514 121.611C126.453 121.641 126.386 121.658 126.317 121.663C125.818 121.694 125.301 121.726 124.887 121.923C124.579 122.075 124.28 122.401 124.306 122.729C124.318 122.796 124.344 122.86 124.384 122.915C124.424 122.971 124.476 123.016 124.536 123.048C124.564 123.067 124.596 123.079 124.629 123.083C124.662 123.088 124.696 123.085 124.728 123.076C124.788 123.042 124.855 123.021 124.923 123.013C124.992 123.006 125.062 123.012 125.128 123.032C125.195 123.051 125.256 123.084 125.31 123.128C125.363 123.172 125.408 123.226 125.44 123.287C125.472 123.348 125.492 123.415 125.498 123.484C125.504 123.553 125.497 123.623 125.476 123.688C125.455 123.754 125.421 123.815 125.376 123.868C125.331 123.921 125.276 123.964 125.214 123.995C125.049 124.085 124.864 124.134 124.676 124.138Z" fill="#082244"/>
<path d="M136.007 98.6851C135.896 98.6851 135.785 98.6487 135.696 98.5811C135.606 98.5136 135.54 98.4187 135.508 98.3107C135.179 97.1862 135.768 96.1709 136.288 95.2739C136.723 94.5277 137.133 93.8231 137.035 93.1328C136.98 92.7584 136.775 92.4022 136.515 91.9745L136.357 91.7145C135.377 90.1038 134.364 88.4372 134.211 86.5041C134.047 84.3578 135.369 81.8943 137.612 81.6538C137.75 81.6392 137.889 81.6799 137.995 81.767C138.103 81.8542 138.172 81.9806 138.188 82.1185C138.202 82.2565 138.162 82.3945 138.075 82.5024C137.987 82.6103 137.86 82.6792 137.722 82.6938C136.109 82.8667 135.122 84.7998 135.252 86.4274C135.382 88.1174 136.334 89.6774 137.25 91.1789L137.409 91.4389C137.72 91.9511 137.984 92.4204 138.059 92.9885C138.21 94.0363 137.669 94.9736 137.183 95.8017C136.697 96.6298 136.293 97.3266 136.498 98.0234C136.518 98.0893 136.525 98.1584 136.517 98.227C136.511 98.2955 136.49 98.3619 136.457 98.4223C136.424 98.4828 136.379 98.5361 136.326 98.5793C136.273 98.6223 136.21 98.6544 136.144 98.6734C136.1 98.6834 136.053 98.6874 136.007 98.6851Z" fill="#082244"/>
<path d="M173.424 114.115C173.309 114.114 173.197 114.076 173.106 114.005C173.015 113.935 172.95 113.836 172.922 113.725C172.81 113.234 172.796 112.726 172.882 112.23C172.967 111.734 173.152 111.26 173.422 110.836C173.693 110.411 174.045 110.045 174.458 109.759C174.873 109.472 175.339 109.27 175.831 109.165C176.182 109.112 176.536 109.087 176.891 109.089C177.32 109.081 177.724 109.074 178.08 108.959C178.695 108.755 179.172 108.235 179.731 107.576C179.775 107.524 179.83 107.481 179.89 107.449C179.951 107.418 180.017 107.399 180.086 107.394C180.154 107.388 180.223 107.396 180.288 107.417C180.353 107.438 180.412 107.472 180.464 107.516C180.516 107.56 180.559 107.614 180.591 107.675C180.622 107.736 180.641 107.802 180.646 107.87C180.652 107.938 180.644 108.007 180.623 108.072C180.602 108.137 180.568 108.197 180.524 108.249C180.004 108.866 179.354 109.635 178.407 109.939C177.901 110.107 177.398 110.116 176.91 110.125C176.61 110.123 176.308 110.143 176.011 110.186C175.305 110.348 174.69 110.782 174.3 111.393C173.911 112.005 173.779 112.745 173.931 113.454C173.949 113.52 173.954 113.589 173.945 113.657C173.936 113.725 173.914 113.79 173.88 113.849C173.846 113.909 173.801 113.961 173.746 114.002C173.693 114.044 173.63 114.075 173.564 114.092C173.519 114.106 173.472 114.113 173.424 114.115Z" fill="#082244"/>
<path d="M182.684 106.949C182.607 106.949 182.53 106.931 182.46 106.898C182.399 106.869 182.343 106.827 182.297 106.777C182.252 106.726 182.217 106.666 182.193 106.602C182.171 106.537 182.161 106.469 182.165 106.401C182.169 106.333 182.186 106.266 182.216 106.204C182.612 105.382 183.31 104.745 184.166 104.427C184.229 104.403 184.298 104.393 184.366 104.395C184.435 104.398 184.501 104.414 184.563 104.443C184.626 104.472 184.682 104.512 184.727 104.562C184.774 104.613 184.81 104.672 184.834 104.736C184.857 104.8 184.868 104.868 184.865 104.936C184.862 105.004 184.845 105.071 184.817 105.133C184.788 105.195 184.748 105.251 184.697 105.297C184.648 105.344 184.588 105.38 184.524 105.403C183.922 105.626 183.428 106.074 183.149 106.652C183.107 106.741 183.041 106.815 182.959 106.868C182.877 106.92 182.781 106.948 182.684 106.949Z" fill="#082244"/>
<path d="M69.5846 112.448C69.4889 112.448 69.3949 112.422 69.3133 112.372C69.2317 112.322 69.1654 112.25 69.1218 112.165C68.518 110.973 68.405 109.592 68.8072 108.318C68.938 107.933 69.0909 107.556 69.2648 107.188C69.6158 106.408 69.9473 105.67 69.7575 104.986C69.5599 104.275 68.8397 103.778 68.0545 103.296C67.9965 103.26 67.9461 103.213 67.9063 103.158C67.8664 103.102 67.8379 103.039 67.8223 102.973C67.8067 102.906 67.8044 102.837 67.8154 102.77C67.8266 102.703 67.8508 102.638 67.8868 102.58C67.9228 102.522 67.97 102.471 68.0254 102.432C68.0809 102.392 68.1437 102.363 68.2103 102.348C68.2768 102.332 68.3457 102.33 68.4131 102.341C68.4805 102.352 68.5451 102.376 68.6031 102.412C69.5313 102.988 70.4621 103.641 70.7598 104.712C71.0497 105.758 70.6051 106.748 70.2125 107.62C70.0557 107.951 69.9173 108.291 69.7978 108.638C69.4774 109.65 69.5669 110.748 70.0474 111.695C70.088 111.775 70.1073 111.863 70.104 111.952C70.1006 112.041 70.0745 112.128 70.0279 112.203C69.9815 112.279 69.9164 112.342 69.8388 112.386C69.7612 112.429 69.6737 112.452 69.5846 112.452V112.448Z" fill="#082244"/>
<path d="M76.3656 117.934H76.3435C75.2945 117.881 74.2726 117.583 73.3596 117.063C72.4467 116.544 71.668 115.818 71.0863 114.944C71.0134 114.828 70.9887 114.689 71.0178 114.555C71.0469 114.422 71.1274 114.305 71.2418 114.23C71.3562 114.156 71.4954 114.129 71.6293 114.156C71.7632 114.184 71.881 114.262 71.9573 114.376C72.4474 115.111 73.1029 115.722 73.8712 116.16C74.6396 116.597 75.4995 116.848 76.3825 116.894C76.4508 116.895 76.5181 116.91 76.5806 116.938C76.6432 116.965 76.6997 117.005 76.747 117.054C76.7942 117.103 76.8313 117.161 76.8561 117.225C76.8809 117.289 76.8929 117.357 76.8915 117.425C76.89 117.493 76.8751 117.561 76.8476 117.623C76.8202 117.686 76.7807 117.742 76.7313 117.789C76.682 117.837 76.6239 117.874 76.5602 117.898C76.4966 117.923 76.4286 117.935 76.3604 117.934H76.3656Z" fill="#082244"/>
<path d="M80.1043 118.111H79.9379C79.8 118.104 79.6702 118.043 79.5773 117.941C79.4842 117.839 79.4356 117.705 79.442 117.567C79.4483 117.429 79.5093 117.299 79.6112 117.206C79.7133 117.113 79.8481 117.064 79.986 117.071C80.9493 117.115 81.8398 116.596 82.7836 116.049C83.4271 115.674 84.0914 115.288 84.822 115.057C85.6084 114.815 86.4406 114.76 87.2521 114.897C88.0634 115.034 88.8313 115.36 89.4942 115.847C89.5986 115.932 89.6662 116.054 89.6828 116.187C89.6994 116.321 89.6636 116.455 89.583 116.563C89.5025 116.671 89.3835 116.743 89.2507 116.765C89.1181 116.786 88.9821 116.756 88.8715 116.679C88.3416 116.29 87.7276 116.03 87.0791 115.92C86.4304 115.811 85.7652 115.855 85.1366 116.049C84.5152 116.245 83.9276 116.587 83.3062 116.948C82.3195 117.519 81.3003 118.111 80.1043 118.111Z" fill="#082244"/>
<path d="M91.5815 118.352H91.3696C91.2317 118.352 91.0995 118.298 91.0018 118.2C90.9043 118.103 90.8496 117.97 90.8496 117.832C90.8496 117.695 90.9043 117.562 91.0018 117.465C91.0995 117.367 91.2317 117.312 91.3696 117.312H91.5815C91.7194 117.312 91.8517 117.367 91.9492 117.465C92.0467 117.562 92.1015 117.695 92.1015 117.832C92.1015 117.97 92.0467 118.103 91.9492 118.2C91.8517 118.298 91.7194 118.352 91.5815 118.352Z" fill="#082244"/>
<path d="M128.923 70.0576H128.875C128.738 70.0451 128.611 69.9787 128.523 69.8729C128.435 69.7671 128.392 69.6306 128.404 69.4934C128.599 67.3578 129.309 65.3012 130.474 63.5004C131.204 62.3694 132.023 61.8299 132.909 61.8936C133.41 61.93 133.838 62.1705 134.181 62.3629L136.41 63.6148C137.06 63.9827 137.88 64.4416 138.66 64.3948C140.044 64.3064 140.954 62.7607 141.593 61.4243C142.222 60.1074 142.503 58.8945 142.798 57.6114C143.058 56.4817 143.329 55.313 143.855 54.0481C143.878 53.9817 143.916 53.9207 143.964 53.8688C144.011 53.8171 144.069 53.7756 144.134 53.7469C144.198 53.7183 144.268 53.7031 144.338 53.7022C144.408 53.7013 144.479 53.7148 144.544 53.7418C144.609 53.7688 144.668 53.8088 144.718 53.8594C144.767 53.9099 144.805 53.97 144.831 54.0359C144.856 54.1017 144.867 54.172 144.865 54.2426C144.862 54.3131 144.845 54.3822 144.814 54.4459C144.323 55.6315 144.063 56.7573 143.81 57.8454C143.515 59.1272 143.209 60.4454 142.531 61.8754C141.771 63.4692 140.65 65.3139 138.726 65.4361C137.641 65.505 136.676 64.9642 135.9 64.5261L133.672 63.2729C133.392 63.1169 133.104 62.9544 132.833 62.9349C132.239 62.892 131.697 63.5277 131.346 64.0685C130.274 65.7282 129.62 67.6231 129.441 69.5909C129.427 69.719 129.367 69.8375 129.272 69.9237C129.176 70.0099 129.052 70.0576 128.923 70.0576Z" fill="#2C7BE5"/>
<path d="M144.772 51.6886C144.761 51.6617 144.744 51.6375 144.723 51.6184C144.701 51.5993 144.675 51.5858 144.647 51.5789C144.619 51.572 144.59 51.572 144.562 51.5789C144.534 51.5858 144.508 51.5993 144.486 51.6184C141.057 54.6448 139.965 55.0244 139.967 55.5015C139.967 55.9344 140.3 56.0735 140.617 56.1775C142.341 56.7424 144.103 57.177 145.891 57.4775C146.001 57.4952 146.116 57.4838 146.221 57.4445C146.326 57.4051 146.419 57.3393 146.491 57.2533C146.563 57.1673 146.612 57.0641 146.632 56.9537C146.653 56.8434 146.644 56.7296 146.607 56.6234C145.917 54.7462 145.05 52.4322 144.772 51.6886Z" fill="#2C7BE5"/>
<path d="M146.001 58.0091C145.934 58.0092 145.867 58.0036 145.8 57.9922C143.987 57.6852 142.198 57.2423 140.451 56.6675C140.177 56.5765 139.449 56.3373 139.447 55.4975C139.447 54.9944 139.811 54.7175 140.691 54.048C141.409 53.5033 142.494 52.6791 144.143 51.2244C144.227 51.1496 144.33 51.0965 144.439 51.0697C144.55 51.0429 144.664 51.0432 144.773 51.0706C144.884 51.0979 144.985 51.1516 145.07 51.2269C145.154 51.3021 145.219 51.3968 145.258 51.5026C145.587 52.3762 146.422 54.6083 147.093 56.4426C147.155 56.6182 147.174 56.8061 147.148 56.9907C147.124 57.1751 147.055 57.351 146.948 57.5036C146.842 57.6561 146.7 57.7811 146.535 57.8679C146.37 57.9546 146.186 58.0009 146.001 58.0026V58.0091ZM140.496 55.5482C140.517 55.582 140.58 55.6184 140.776 55.6782C142.475 56.2352 144.213 56.6645 145.976 56.9626C145.998 56.9666 146.021 56.9647 146.043 56.9569C146.064 56.9491 146.084 56.9358 146.098 56.9184C146.112 56.9023 146.121 56.8825 146.125 56.8614C146.129 56.8403 146.127 56.8185 146.118 56.7988C145.547 55.2388 144.855 53.3811 144.461 52.3294C142.991 53.6086 141.998 54.3626 141.323 54.8761C141.035 55.0827 140.758 55.3072 140.496 55.5482Z" fill="#2C7BE5"/>
<path d="M50.2876 97.0974C53.463 99.6037 57.4059 100.938 61.4507 100.874C81.55 100.63 92.0319 68.0593 68.2107 62.4836C45.5725 57.1874 36.0084 85.7263 50.2876 97.0974Z" fill="#FD7E14"/>
<path d="M62.4398 84.8514C62.3304 84.8514 62.2236 84.817 62.1349 84.7527C62.0462 84.6885 61.98 84.598 61.9458 84.4939C61.535 83.2368 61.0644 81.9719 60.6094 80.7486C60.1544 79.5253 59.676 78.2422 59.2587 76.9656C58.9389 75.9906 57.9808 73.3347 57.9717 73.3087C57.9463 73.2441 57.9339 73.1749 57.9357 73.1054C57.9374 73.036 57.953 72.9675 57.9816 72.9041C58.0102 72.8407 58.0513 72.7838 58.1023 72.7366C58.1533 72.6893 58.2133 72.6527 58.2787 72.6292C58.3441 72.6055 58.4135 72.5951 58.4829 72.5989C58.5523 72.6025 58.6203 72.6201 58.6828 72.6505C58.7454 72.6808 58.8011 72.7234 58.8469 72.7758C58.8927 72.8281 58.9275 72.8892 58.9493 72.9551C58.9896 73.0643 59.923 75.6526 60.2493 76.6419C60.6601 77.899 61.1307 79.1639 61.5857 80.3859C61.9757 81.4337 62.3774 82.5114 62.7453 83.5943L72.0286 78.8675C72.0895 78.8366 72.1558 78.8178 72.2239 78.8125C72.292 78.8072 72.3605 78.8154 72.4254 78.8364C72.4904 78.8576 72.5506 78.8913 72.6025 78.9356C72.6543 78.9801 72.697 79.0342 72.728 79.095C72.759 79.156 72.7777 79.2223 72.783 79.2904C72.7884 79.3585 72.7803 79.4269 72.7591 79.4919C72.738 79.5568 72.7042 79.617 72.6599 79.6688C72.6156 79.7208 72.5614 79.7635 72.5005 79.7944L62.679 84.7955C62.6049 84.8331 62.5229 84.8522 62.4398 84.8514Z" fill="white"/>
<path d="M57.3473 77.5092C57.3124 77.509 57.2775 77.5055 57.2433 77.4988C57.1081 77.4715 56.9894 77.3917 56.9131 77.2769C56.8368 77.1621 56.8091 77.0217 56.8364 76.8865L57.5995 73.1035C57.632 72.9397 57.7295 72.4405 58.2131 72.2923C58.3477 72.2587 58.488 72.2541 58.6246 72.2789C58.7611 72.3039 58.8907 72.3576 59.0048 72.4366C59.2292 72.5844 59.4438 72.7469 59.647 72.9228C60.1495 73.3542 60.6908 73.7381 61.2642 74.0694C61.3849 74.1369 61.4738 74.2495 61.5115 74.3825C61.5492 74.5155 61.5324 74.6579 61.4651 74.7786C61.3976 74.8992 61.285 74.9883 61.152 75.0258C61.0191 75.0635 60.8766 75.0469 60.7559 74.9794C60.1296 74.6179 59.5378 74.1997 58.9879 73.7301C58.841 73.6092 58.7084 73.5013 58.5979 73.4194L57.8569 77.0945C57.8326 77.2118 57.7687 77.317 57.6758 77.3926C57.583 77.4682 57.4669 77.5094 57.3473 77.5092Z" fill="white"/>
<path d="M72.2533 81.4156C72.1593 81.4154 72.067 81.3897 71.9864 81.3413C71.9058 81.2928 71.8399 81.2234 71.7956 81.1405C71.7513 81.0574 71.7303 80.9641 71.7349 80.8701C71.7396 80.7762 71.7696 80.6852 71.8217 80.607C72.0785 80.2222 72.2741 79.7998 72.4015 79.3551C71.9611 79.2056 71.5134 79.0784 71.0599 78.9742C70.9922 78.9602 70.9278 78.9329 70.8708 78.8938C70.8137 78.8548 70.7649 78.8046 70.7275 78.7465C70.6901 78.6884 70.6645 78.6233 70.6525 78.5552C70.6404 78.487 70.6421 78.4172 70.6574 78.3498C70.6728 78.2823 70.7014 78.2185 70.7417 78.1623C70.7819 78.106 70.8329 78.0583 70.892 78.022C70.9508 77.9858 71.0164 77.9616 71.0847 77.9509C71.1531 77.9404 71.2229 77.9435 71.29 77.9602C71.3433 77.9719 72.6004 78.2605 73.24 78.5764C73.3414 78.6265 73.4237 78.7083 73.4744 78.8094C73.525 78.9106 73.5414 79.0255 73.5208 79.1367C73.3842 79.8688 73.1008 80.5657 72.6875 81.1855C72.6398 81.2567 72.5751 81.3149 72.4994 81.3551C72.4236 81.3951 72.3391 81.4159 72.2533 81.4156Z" fill="white"/>
<path d="M56.0345 64.7157C55.1882 65.0693 54.8645 66.2913 55.4209 67.0193C55.9773 67.7473 57.2409 67.7525 57.8051 67.0284C58.3693 66.3043 58.0508 65.0784 57.2058 64.7196C56.6546 64.4843 55.9279 64.6481 55.6133 65.1603L56.0345 64.7157Z" fill="#082244"/>
<path d="M66.1998 95.5166C66.4195 96.4604 67.0253 97.0103 67.9886 96.749C68.9519 96.4877 69.2392 95.2501 68.584 94.5182C67.9288 93.7863 65.9008 94.227 66.1998 95.5166Z" fill="#082244"/>
<path d="M77.0143 74.4214C76.5359 74.9778 76.2148 76.0425 76.9792 76.5235C77.7436 77.0045 78.9487 76.3766 78.9292 75.4744C78.9097 74.5722 77.6032 73.7376 77.0143 74.4214Z" fill="#082244"/>
<path d="M47.8807 88.9557C47.453 89.8267 48.5151 90.9473 49.4589 90.6873C50.4027 90.4273 50.7355 89.0363 50.0452 88.3473C49.3549 87.6583 48.3084 88.0847 47.8807 88.9557Z" fill="#082244"/>
<path d="M49.5632 80.8851H49.5164L47.9564 80.7447C47.8881 80.7387 47.8217 80.7192 47.7608 80.6875C47.7001 80.6558 47.6462 80.6123 47.6021 80.5598C47.5133 80.4536 47.4703 80.3165 47.4825 80.1785C47.4947 80.0406 47.5613 79.9132 47.6675 79.8244C47.7736 79.7355 47.9107 79.6925 48.0487 79.7047L49.6087 79.8451C49.7466 79.8512 49.8765 79.9118 49.9697 80.0136C50.0629 80.1152 50.1119 80.2499 50.1059 80.3878C50.0999 80.5258 50.0393 80.6556 49.9376 80.7488C49.8358 80.8422 49.7011 80.8912 49.5632 80.8851Z" fill="#082244"/>
<path d="M51.4913 74.02C51.4001 74.0208 51.3103 73.997 51.2313 73.9511L49.9417 73.2153C49.8211 73.1464 49.7327 73.0323 49.6962 72.8983C49.6596 72.7641 49.6778 72.621 49.7467 72.5003C49.8156 72.3797 49.9298 72.2913 50.0638 72.2548C50.198 72.2182 50.3411 72.2364 50.4617 72.3053L51.7513 73.0424C51.8509 73.0995 51.9287 73.1879 51.9727 73.2937C52.0168 73.3997 52.0246 73.5172 51.995 73.6281C51.9653 73.7388 51.8998 73.8367 51.8088 73.9064C51.7177 73.9762 51.606 74.0138 51.4913 74.0135V74.02Z" fill="#082244"/>
<path d="M66.8677 67.8761C66.7297 67.8761 66.5975 67.8214 66.5 67.7239C66.4025 67.6264 66.3477 67.4941 66.3477 67.3561C66.3477 67.1546 66.4322 66.9024 66.6376 66.3278C66.7234 66.0912 66.8105 65.8455 66.8586 65.6778C66.8769 65.6119 66.908 65.5502 66.9502 65.4964C66.9925 65.4424 67.0448 65.3973 67.1045 65.3638C67.1642 65.3302 67.23 65.3086 67.298 65.3006C67.3658 65.2924 67.4348 65.2978 67.5008 65.3163C67.5667 65.3349 67.6282 65.3664 67.682 65.4087C67.7357 65.4512 67.7805 65.5039 67.8138 65.5637C67.8472 65.6235 67.8684 65.6893 67.8762 65.7573C67.8841 65.8253 67.8784 65.8942 67.8596 65.9599C67.8024 66.1653 67.7075 66.4279 67.6165 66.6814C67.5281 66.9114 67.4516 67.1457 67.3877 67.3834C67.3806 67.5167 67.3228 67.642 67.2261 67.7337C67.1292 67.8253 67.001 67.8764 66.8677 67.8761Z" fill="#082244"/>
<path d="M71.9469 70.2449C71.8494 70.2448 71.754 70.2172 71.6715 70.1655C71.5888 70.1136 71.5225 70.0396 71.48 69.952C71.4373 69.8643 71.4203 69.7664 71.4307 69.6695C71.4411 69.5726 71.4785 69.4805 71.5387 69.4038C71.6167 69.3037 71.852 69.0229 72.1016 68.7252C72.3109 68.4756 72.5475 68.1935 72.5956 68.1311C72.6367 68.0751 72.6886 68.0279 72.7483 67.9921C72.8078 67.9565 72.874 67.9331 72.9429 67.9235C73.0116 67.9139 73.0817 67.918 73.1488 67.9359C73.216 67.9538 73.2788 67.9849 73.3338 68.0275C73.3886 68.07 73.4345 68.1232 73.4685 68.1838C73.5025 68.2443 73.5241 68.3112 73.5319 68.3802C73.5396 68.4492 73.5335 68.5192 73.5138 68.5857C73.4941 68.6524 73.4613 68.7144 73.4172 68.7681C73.3613 68.8409 73.1845 69.0528 72.8972 69.3934C72.6749 69.6534 72.4227 69.9589 72.3538 70.0434C72.3056 70.1057 72.244 70.156 72.1735 70.191C72.1031 70.2258 72.0256 70.2443 71.9469 70.2449Z" fill="#082244"/>
<path d="M54.1649 96.1082C54.1237 96.1086 54.0826 96.1038 54.0427 96.0939C53.9762 96.0779 53.9136 96.0489 53.8583 96.0087C53.8031 95.9684 53.7564 95.9177 53.7208 95.8595C53.6852 95.8011 53.6614 95.7364 53.6509 95.6689C53.6402 95.6013 53.6431 95.5324 53.6592 95.466C53.68 95.3789 53.719 95.2151 54.6303 93.8735C54.6681 93.8159 54.717 93.7662 54.7742 93.7276C54.8313 93.6892 54.8956 93.6623 54.9632 93.6487C55.0308 93.6352 55.1005 93.6353 55.1681 93.649C55.2357 93.6626 55.2999 93.6896 55.357 93.7283C55.414 93.767 55.4628 93.8167 55.5005 93.8744C55.5382 93.9323 55.5641 93.9969 55.5765 94.0647C55.589 94.1326 55.5878 94.2023 55.5732 94.2696C55.5585 94.337 55.5304 94.4008 55.4909 94.4572C55.1425 94.9707 54.7317 95.6025 54.6563 95.7572C54.621 95.8596 54.5547 95.9484 54.4667 96.0114C54.3786 96.0743 54.2732 96.1082 54.1649 96.1082ZM54.6693 95.7104C54.6668 95.7228 54.6638 95.7348 54.6602 95.7468C54.6647 95.7348 54.6686 95.7228 54.6719 95.7104H54.6693Z" fill="#082244"/>
<path d="M60.7392 96.0859C60.7392 95.7987 60.5065 95.5659 60.2192 95.5659C59.932 95.5659 59.6992 95.7987 59.6992 96.0859V97.2689C59.6992 97.5561 59.932 97.7889 60.2192 97.7889C60.5065 97.7889 60.7392 97.5561 60.7392 97.2689V96.0859Z" fill="#082244"/>
<path d="M75.0468 91.0293C75.0029 91.0285 74.9593 91.0224 74.9168 91.0111C74.3793 90.8658 73.9011 90.5547 73.5505 90.1219C73.473 90.0139 73.4399 89.8801 73.4579 89.7483C73.4759 89.6165 73.5439 89.4966 73.6476 89.4133C73.7514 89.3301 73.883 89.2897 74.0156 89.3006C74.1482 89.3115 74.2716 89.3729 74.3604 89.4719C74.572 89.7335 74.861 89.9215 75.1859 90.0088C75.3081 90.0408 75.4146 90.1161 75.4853 90.2207C75.556 90.3254 75.5862 90.4522 75.5703 90.5774C75.5543 90.7028 75.4933 90.8181 75.3987 90.9017C75.3041 90.9852 75.1823 91.0315 75.0559 91.0319L75.0468 91.0293Z" fill="#082244"/>
<path d="M77.412 84.8955C76.7844 84.8936 76.1704 84.7132 75.6414 84.3755C75.582 84.3396 75.5304 84.2922 75.4896 84.2359C75.4489 84.1797 75.4198 84.1159 75.404 84.0482C75.3884 83.9806 75.3864 83.9105 75.3982 83.842C75.4102 83.7736 75.4355 83.7082 75.4731 83.6498C75.5105 83.5913 75.5594 83.541 75.6167 83.5018C75.6739 83.4625 75.7385 83.4351 75.8065 83.4212C75.8747 83.4073 75.9447 83.4071 76.0128 83.4208C76.081 83.4344 76.1456 83.4616 76.203 83.5006C76.5876 83.7453 77.0371 83.8676 77.4926 83.8516C77.5609 83.8491 77.629 83.8601 77.6931 83.8838C77.7572 83.9075 77.8159 83.9436 77.866 83.9902C77.9162 84.0366 77.9566 84.0925 77.9851 84.1546C78.0135 84.2168 78.0295 84.2839 78.0321 84.3521C78.0347 84.4205 78.0238 84.4886 78 84.5527C77.9762 84.6167 77.9401 84.6754 77.8936 84.7256C77.8471 84.7756 77.7912 84.8161 77.7291 84.8447C77.667 84.8731 77.5999 84.8891 77.5316 84.8916L77.412 84.8955Z" fill="#082244"/>
<path d="M216.358 88.6865C217.058 96.3565 212.068 104.157 204.856 106.841C197.643 109.526 188.832 106.936 184.134 100.836C182.115 98.2156 180.814 95.002 180.691 91.6961C180.544 87.7376 182.084 83.8376 184.412 80.6305C186.185 78.1748 188.455 76.0336 191.141 74.6075C194.075 73.0475 197.177 72.755 200.446 72.8031C202.682 72.8369 204.467 73.5688 206.426 74.6011C208.978 75.9453 211.208 77.7211 212.947 80.0325C214.655 82.2818 215.786 84.9151 216.242 87.7025C216.288 88.0288 216.328 88.3563 216.358 88.6865Z" fill="#2C7BE5"/>
<path d="M197.331 104.63C195.869 104.625 194.414 104.406 193.015 103.98C192.883 103.94 192.772 103.85 192.707 103.728C192.641 103.607 192.627 103.464 192.667 103.332C192.706 103.2 192.797 103.089 192.918 103.023C193.04 102.958 193.182 102.943 193.314 102.983C200.086 105.017 205.06 101.641 208.038 98.4509C209.606 96.7726 210.552 94.6926 211.205 91.4972C211.725 88.9713 211.325 82.9445 209.131 80.6786C209.082 80.6299 209.044 80.5719 209.017 80.5079C208.991 80.444 208.978 80.3755 208.978 80.3063C208.979 80.2373 208.994 80.1689 209.021 80.1053C209.048 80.0418 209.087 79.9843 209.137 79.9362C209.186 79.8882 209.246 79.8505 209.31 79.8254C209.375 79.8004 209.443 79.7884 209.512 79.7902C209.581 79.792 209.649 79.8076 209.713 79.8361C209.775 79.8646 209.832 79.9053 209.879 79.9558C212.45 82.613 212.771 89.0168 212.219 91.7052C211.759 93.962 210.953 96.848 208.793 99.1607C206.785 101.311 204.555 102.855 202.163 103.751C200.619 104.332 198.982 104.63 197.331 104.63Z" fill="#082244"/>
<path d="M202.931 107.41C202.799 107.41 202.673 107.36 202.577 107.271C201.68 106.433 201.052 105.347 200.773 104.151C200.757 104.085 200.756 104.016 200.768 103.948C200.778 103.881 200.803 103.817 200.839 103.759C200.875 103.701 200.922 103.651 200.978 103.611C201.034 103.571 201.096 103.543 201.164 103.528C201.23 103.513 201.299 103.51 201.367 103.522C201.434 103.533 201.498 103.558 201.557 103.594C201.614 103.63 201.665 103.678 201.704 103.733C201.744 103.789 201.771 103.852 201.787 103.918C202.018 104.913 202.539 105.815 203.286 106.512C203.362 106.583 203.416 106.676 203.439 106.778C203.462 106.88 203.455 106.986 203.416 107.083C203.378 107.181 203.31 107.264 203.225 107.323C203.137 107.382 203.036 107.413 202.931 107.413V107.41Z" fill="#082244"/>
<path d="M207.282 105.052C207.204 105.052 207.127 105.035 207.057 105.001C206.987 104.967 206.925 104.918 206.876 104.857L205.186 102.746C205.1 102.638 205.06 102.501 205.076 102.364C205.091 102.226 205.16 102.101 205.268 102.015C205.376 101.929 205.512 101.889 205.65 101.904C205.787 101.919 205.913 101.988 205.999 102.096L207.689 104.207C207.751 104.284 207.789 104.376 207.8 104.474C207.812 104.571 207.795 104.67 207.752 104.758C207.711 104.847 207.644 104.922 207.561 104.974C207.478 105.026 207.382 105.054 207.283 105.054L207.282 105.052Z" fill="#082244"/>
<path d="M210.832 102.494C210.726 102.494 210.62 102.461 210.533 102.399C209.748 101.846 209.06 101.166 208.5 100.387C208.425 100.275 208.396 100.138 208.421 100.005C208.444 99.8723 208.52 99.754 208.629 99.6752C208.738 99.5963 208.873 99.5631 209.007 99.5826C209.141 99.6021 209.262 99.6728 209.344 99.7796C209.838 100.465 210.442 101.063 211.133 101.55C211.222 101.614 211.29 101.705 211.325 101.809C211.36 101.914 211.36 102.027 211.326 102.132C211.294 102.237 211.227 102.328 211.139 102.393C211.049 102.459 210.943 102.494 210.832 102.494Z" fill="#082244"/>
<path d="M213.172 98.7237C213.09 98.7238 213.009 98.7047 212.937 98.6678L210.831 97.5953C210.769 97.5644 210.716 97.5217 210.672 97.4697C210.626 97.4178 210.593 97.3577 210.572 97.2928C210.551 97.2278 210.543 97.1593 210.548 97.0913C210.554 97.0232 210.572 96.9567 210.603 96.8959C210.634 96.8351 210.677 96.7808 210.729 96.7365C210.781 96.6922 210.841 96.6584 210.906 96.6373C210.971 96.6161 211.04 96.6081 211.107 96.6134C211.175 96.6187 211.241 96.6375 211.302 96.6684L213.408 97.7409C213.512 97.7941 213.596 97.8806 213.644 97.9867C213.693 98.0927 213.705 98.212 213.678 98.3254C213.65 98.4389 213.585 98.5397 213.493 98.612C213.402 98.6843 213.289 98.7236 213.172 98.7237Z" fill="#082244"/>
<path d="M214.385 94.7771C214.346 94.7773 214.307 94.7729 214.268 94.7641L212.318 94.3182C212.184 94.2874 212.067 94.2043 211.994 94.0874C211.92 93.9706 211.896 93.8294 211.928 93.6948C211.957 93.5604 212.041 93.4437 212.158 93.3705C212.275 93.2972 212.416 93.2734 212.55 93.3042L214.5 93.7501C214.625 93.7785 214.736 93.8519 214.808 93.9561C214.882 94.0604 214.916 94.1883 214.902 94.3153C214.888 94.4423 214.827 94.5597 214.732 94.6449C214.635 94.73 214.513 94.7772 214.385 94.7771Z" fill="#082244"/>
<path d="M215.229 90.7732C215.209 90.7745 215.187 90.7745 215.164 90.7732L213.474 90.5626C213.407 90.5542 213.342 90.5323 213.282 90.4985C213.222 90.4647 213.17 90.4195 213.129 90.3655C213.087 90.3116 213.056 90.2498 213.038 90.184C213.019 90.1181 213.016 90.0494 213.023 89.9815C213.032 89.9138 213.055 89.8484 213.088 89.789C213.122 89.7297 213.166 89.6776 213.221 89.6356C213.274 89.5937 213.337 89.5629 213.402 89.5448C213.468 89.5268 213.537 89.522 213.604 89.5304L215.294 89.741C215.432 89.7495 215.561 89.8124 215.653 89.9159C215.744 90.0193 215.791 90.1549 215.783 90.2929C215.774 90.4308 215.712 90.5597 215.608 90.6513C215.505 90.7428 215.369 90.7895 215.231 90.781L215.229 90.7732Z" fill="#082244"/>
<path d="M198.227 107.581C198.121 107.581 198.017 107.549 197.929 107.488C197.842 107.427 197.775 107.34 197.738 107.24L197.151 105.641C197.127 105.577 197.117 105.509 197.12 105.441C197.122 105.373 197.138 105.306 197.168 105.244C197.196 105.182 197.237 105.126 197.286 105.08C197.337 105.033 197.395 104.997 197.46 104.974C197.524 104.95 197.591 104.939 197.66 104.942C197.728 104.945 197.796 104.961 197.858 104.99C197.919 105.019 197.975 105.059 198.022 105.109C198.067 105.16 198.104 105.218 198.127 105.283L198.715 106.882C198.763 107.011 198.756 107.154 198.699 107.279C198.641 107.404 198.537 107.501 198.407 107.548C198.349 107.57 198.288 107.581 198.227 107.581Z" fill="#082244"/>
<path d="M214.724 85.9394C214.633 85.94 214.544 85.9168 214.464 85.8718C214.133 85.6806 213.766 85.5578 213.387 85.5112C213.007 85.4645 212.622 85.4948 212.254 85.6001C212.188 85.6213 212.119 85.6289 212.049 85.6227C211.98 85.6163 211.912 85.5963 211.851 85.5637C211.79 85.5311 211.737 85.4865 211.693 85.4325C211.649 85.3786 211.616 85.3164 211.597 85.2497C211.577 85.183 211.572 85.1132 211.58 85.0442C211.587 84.9753 211.61 84.9086 211.645 84.8482C211.678 84.7878 211.724 84.7348 211.78 84.6926C211.834 84.6502 211.897 84.6194 211.964 84.6017C212.465 84.4578 212.989 84.4158 213.505 84.4783C214.021 84.5409 214.52 84.7066 214.971 84.9657C215.073 85.0222 215.152 85.1106 215.196 85.2171C215.242 85.3236 215.25 85.442 215.22 85.5537C215.19 85.6653 215.123 85.7639 215.032 85.8337C214.94 85.9035 214.827 85.9408 214.711 85.9394H214.724Z" fill="#082244"/>
<path d="M189.792 80.0442C189.691 80.0444 189.592 80.0151 189.508 79.9597C189.423 79.9043 189.355 79.8254 189.315 79.7327C189.275 79.6399 189.262 79.5373 189.279 79.4375C189.296 79.3376 189.341 79.2448 189.41 79.1706C190.726 77.762 192.364 76.6946 194.184 76.0605C196.004 75.4263 197.951 75.2445 199.857 75.5306C199.926 75.5394 199.992 75.562 200.053 75.597C200.113 75.632 200.165 75.6786 200.207 75.7342C200.248 75.7898 200.279 75.8532 200.296 75.9207C200.313 75.9882 200.316 76.0584 200.305 76.127C200.294 76.1958 200.27 76.2616 200.233 76.3207C200.196 76.3797 200.148 76.4308 200.091 76.471C200.035 76.5112 199.97 76.5395 199.902 76.5543C199.835 76.5693 199.765 76.5703 199.696 76.5576C196.266 76.0194 192.529 77.3194 190.174 79.87C190.126 79.9241 190.068 79.9675 190.002 79.9974C189.937 80.0274 189.865 80.0434 189.792 80.0442Z" fill="#082244"/>
<path d="M186.691 100.607C186.628 100.607 186.565 100.595 186.505 100.572C184.795 99.9158 182.976 96.1289 182.605 94.7223C182.586 94.6553 182.579 94.5849 182.587 94.5154C182.595 94.4459 182.616 94.3787 182.651 94.3177C182.685 94.2567 182.732 94.2034 182.787 94.1608C182.842 94.1182 182.906 94.0872 182.973 94.0697C183.041 94.0523 183.112 94.0486 183.181 94.059C183.25 94.0694 183.316 94.0936 183.376 94.1303C183.436 94.1669 183.487 94.2153 183.528 94.2723C183.569 94.3293 183.597 94.394 183.612 94.4623C184.035 96.0873 185.773 99.1787 186.875 99.6012C186.989 99.6445 187.084 99.7264 187.144 99.8326C187.204 99.9388 187.224 100.063 187.202 100.183C187.179 100.302 187.115 100.411 187.021 100.488C186.928 100.566 186.81 100.608 186.687 100.607H186.691Z" fill="#082244"/>
<path d="M191.898 92.7542C191.826 92.7546 191.756 92.7399 191.691 92.7113C191.565 92.6564 191.465 92.5536 191.414 92.4254C191.363 92.2971 191.366 92.154 191.42 92.0275C192.386 89.8071 193.451 87.6075 194.594 85.4638C192.329 86.2192 190.176 87.2766 188.194 88.6072C188.138 88.6467 188.073 88.6745 188.005 88.689C187.939 88.7035 187.869 88.7044 187.801 88.6917C187.734 88.6789 187.669 88.6528 187.61 88.6149C187.553 88.5769 187.504 88.5278 187.465 88.4706C187.427 88.4132 187.4 88.3487 187.387 88.281C187.374 88.2133 187.374 88.1436 187.388 88.076C187.401 88.0084 187.428 87.9442 187.467 87.8871C187.506 87.8302 187.557 87.7815 187.614 87.744C190.039 86.116 192.707 84.8833 195.518 84.0923C195.617 84.0645 195.722 84.0664 195.82 84.0979C195.917 84.1293 196.003 84.189 196.067 84.2693C196.13 84.3497 196.169 84.4471 196.177 84.5492C196.186 84.6514 196.164 84.7538 196.115 84.8437C194.755 87.3059 193.497 89.8617 192.375 92.4422C192.334 92.535 192.268 92.6139 192.182 92.6694C192.098 92.7248 191.999 92.7543 191.898 92.7542Z" fill="white"/>
<path d="M200.606 95.8417C200.375 95.8409 200.145 95.8248 199.917 95.7936C198.324 95.5765 196.934 94.3635 196.457 92.7736C196.01 91.2838 196.404 89.5237 197.461 88.3043C197.505 88.251 197.56 88.2069 197.621 88.1748C197.682 88.1427 197.749 88.123 197.818 88.1172C197.887 88.1113 197.956 88.1193 198.022 88.1406C198.087 88.1619 198.149 88.1962 198.202 88.2413C198.254 88.2866 198.297 88.3417 198.328 88.4037C198.358 88.4656 198.376 88.5331 198.381 88.6022C198.385 88.6712 198.376 88.7404 198.353 88.8058C198.331 88.8712 198.295 88.9314 198.249 88.9829C197.418 89.9462 197.106 91.3163 197.454 92.4746C197.811 93.6615 198.884 94.6028 200.054 94.7627C201.077 94.9005 201.935 94.6665 202.923 93.9749C203.645 93.4718 204.642 91.9911 204.797 91.1968C205.049 89.8968 204.49 88.6397 203.302 87.8324C202.379 87.2071 200.862 87.237 199.984 87.6244C199.858 87.6801 199.715 87.6834 199.586 87.6335C199.458 87.5837 199.354 87.4847 199.299 87.3585C199.243 87.2324 199.239 87.0891 199.29 86.9606C199.339 86.832 199.438 86.7285 199.564 86.6727C200.703 86.1696 202.605 86.1034 203.885 86.9718C205.43 88.0209 206.153 89.6745 205.817 91.3918C205.611 92.4591 204.472 94.1595 203.52 94.8251C202.537 95.5167 201.614 95.8417 200.606 95.8417Z" fill="white"/>
<path d="M128.862 209.45C128.257 209.444 127.677 209.211 127.233 208.8C126.979 208.574 126.76 208.31 126.583 208.02C125.086 205.65 123.715 203.204 122.477 200.69C121.844 199.408 121.447 198.589 121.242 197.935C121.205 197.805 121.221 197.666 121.286 197.547C121.35 197.429 121.458 197.339 121.587 197.299C121.716 197.259 121.855 197.271 121.976 197.332C122.096 197.391 122.189 197.497 122.234 197.624C122.416 198.204 122.799 198.992 123.404 200.224C124.627 202.707 125.982 205.124 127.461 207.465C127.585 207.669 127.738 207.854 127.916 208.014C128.059 208.154 128.231 208.261 128.42 208.328C128.608 208.396 128.809 208.422 129.009 208.404C129.718 208.33 130.569 207.698 131.337 206.673C132.398 205.263 133.327 203.76 134.117 202.182C134.18 202.055 134.276 201.945 134.395 201.866C134.513 201.787 134.65 201.739 134.791 201.727C134.934 201.715 135.076 201.741 135.206 201.801C135.336 201.86 135.448 201.952 135.531 202.068L138.105 205.615C138.683 206.412 139.267 207.143 140.042 207.318C140.913 207.516 141.761 206.943 142.222 206.391C142.823 205.671 143.145 204.729 143.457 203.816C143.808 202.792 144.175 201.776 144.497 200.881C145.05 199.352 145.527 198.032 145.646 197.432C145.674 197.297 145.753 197.177 145.867 197.1C145.983 197.024 146.123 196.996 146.259 197.022C146.394 197.05 146.512 197.129 146.589 197.243C146.665 197.359 146.694 197.499 146.667 197.635C146.537 198.312 146.065 199.601 145.476 201.234C145.154 202.126 144.788 203.136 144.436 204.153C144.11 205.108 143.739 206.19 143.015 207.058C142.16 208.081 140.9 208.582 139.805 208.332C138.586 208.055 137.786 206.954 137.259 206.226L134.886 202.955C134.102 204.476 133.192 205.93 132.164 207.299C131.609 208.036 130.474 209.294 129.112 209.439C129.029 209.446 128.946 209.45 128.862 209.45Z" fill="#082244"/>
<path d="M105.921 220.054H105.891C105.754 220.045 105.625 219.983 105.534 219.879C105.443 219.776 105.397 219.641 105.405 219.503C105.5 217.98 104.977 216.485 104.006 215.503C103.638 215.12 103.191 214.821 102.696 214.628C102.201 214.434 101.67 214.351 101.14 214.384C101.002 214.39 100.867 214.343 100.764 214.25C100.661 214.158 100.6 214.029 100.593 213.891C100.585 213.753 100.633 213.618 100.726 213.515C100.818 213.413 100.947 213.35 101.085 213.344C101.762 213.306 102.439 213.415 103.07 213.661C103.701 213.908 104.272 214.288 104.745 214.774C105.921 215.963 106.557 217.756 106.443 219.571C106.433 219.702 106.374 219.826 106.277 219.915C106.181 220.005 106.053 220.054 105.921 220.054Z" fill="#082244"/>
<path d="M164.103 218.518C163.994 218.518 163.888 218.483 163.799 218.419C163.711 218.355 163.646 218.266 163.611 218.162C163.524 217.902 163.596 214.289 164.168 212.994C164.54 212.153 165.208 211.601 165.988 211.478L167.734 211.207C167.803 211.194 167.873 211.194 167.942 211.209C168.01 211.224 168.075 211.252 168.132 211.293C168.189 211.333 168.237 211.384 168.274 211.443C168.31 211.502 168.335 211.568 168.347 211.637C168.357 211.706 168.353 211.776 168.336 211.844C168.319 211.913 168.289 211.975 168.247 212.031C168.205 212.087 168.152 212.134 168.092 212.169C168.031 212.203 167.963 212.225 167.894 212.234L166.148 212.505C165.561 212.596 165.251 213.114 165.119 213.415C164.668 214.436 164.599 217.553 164.618 217.93C164.629 218.004 164.622 218.079 164.6 218.15C164.579 218.222 164.542 218.288 164.493 218.344C164.444 218.4 164.383 218.444 164.315 218.474C164.246 218.505 164.172 218.519 164.098 218.519L164.103 218.518Z" fill="#082244"/>
<path d="M135.792 199.995C135.4 199.986 135.009 199.949 134.622 199.885C134.404 199.854 134.199 199.825 134.039 199.815C133.139 199.763 132.358 199.414 131.894 198.861C131.702 198.628 131.56 198.356 131.479 198.065C131.399 197.774 131.379 197.47 131.424 197.171C131.528 196.296 131.66 195.158 131.752 194.118C131.968 191.699 132.067 189.551 131.845 186.93C131.833 186.793 131.877 186.655 131.966 186.55C132.055 186.444 132.183 186.378 132.32 186.366C132.458 186.355 132.596 186.397 132.701 186.487C132.807 186.577 132.873 186.704 132.885 186.842C133.112 189.538 133.015 191.738 132.791 194.21C132.697 195.265 132.564 196.413 132.458 197.294C132.432 197.451 132.44 197.611 132.48 197.766C132.521 197.919 132.593 198.064 132.694 198.187C132.974 198.524 133.488 198.736 134.102 198.772C134.306 198.784 134.532 198.816 134.771 198.85C135.457 198.949 136.312 199.071 136.702 198.692C137.045 198.356 137.038 197.622 136.973 197.064C136.482 192.878 136.202 188.384 136.293 186.135C136.299 185.997 136.36 185.867 136.461 185.773C136.562 185.68 136.696 185.63 136.834 185.636C136.972 185.641 137.102 185.701 137.195 185.802C137.289 185.903 137.339 186.039 137.333 186.176C137.244 188.377 137.52 192.806 138.005 196.943C138.143 198.113 137.953 198.923 137.427 199.436C136.976 199.875 136.383 199.995 135.792 199.995Z" fill="#082244"/>
<path d="M162.593 119.364C162.502 119.363 162.411 119.337 162.333 119.29C162.215 119.219 162.13 119.104 162.097 118.971C162.063 118.837 162.084 118.696 162.154 118.577C163.225 116.786 164.031 114.85 164.546 112.827C164.625 112.515 164.714 112.077 164.546 111.873C164.443 111.743 164.205 111.667 163.859 111.647C162.112 111.555 160.342 112.722 159.738 114.364C159.696 114.482 159.611 114.58 159.501 114.641C159.39 114.701 159.261 114.719 159.139 114.692C159.016 114.665 158.906 114.594 158.832 114.493C158.758 114.392 158.722 114.267 158.732 114.142C158.853 112.726 159.146 111.326 159.428 109.971C159.714 108.593 160.011 107.169 160.117 105.761C160.291 103.457 159.274 98.7758 157.968 98.2272C157.861 98.183 157.535 98.0452 156.941 98.7225C155.801 100.022 154.667 103.612 154.185 107.451C154.163 107.583 154.09 107.701 153.982 107.781C153.874 107.861 153.74 107.897 153.608 107.88C153.474 107.863 153.353 107.795 153.268 107.691C153.184 107.587 153.144 107.454 153.154 107.321C153.674 103.167 154.854 99.5207 156.16 98.0348C157.058 97.0104 157.859 97.052 158.37 97.2678C160.438 98.1362 161.318 103.647 161.153 105.837C161.041 107.313 160.738 108.771 160.444 110.182C160.314 110.796 160.184 111.418 160.073 112.046C160.585 111.562 161.191 111.186 161.851 110.941C162.511 110.695 163.215 110.585 163.919 110.617C164.589 110.653 165.062 110.854 165.364 111.232C165.868 111.865 165.647 112.726 165.553 113.094C165.011 115.212 164.165 117.241 163.04 119.117C162.994 119.193 162.927 119.256 162.849 119.299C162.771 119.342 162.683 119.365 162.593 119.364Z" fill="#082244"/>
<path d="M152.832 112.3C152.714 112.3 152.6 112.259 152.507 112.185C152.415 112.11 152.351 112.007 152.325 111.891C152.085 110.792 151.441 109.797 150.82 108.834C148.732 105.606 146.133 101.589 142.171 99.9119C141.509 99.6311 141.015 99.5856 140.848 99.7819C140.525 100.172 140.55 101.395 141.585 103.66C142.426 105.499 143.592 107.263 144.263 107.989C144.356 108.09 144.406 108.225 144.401 108.362C144.395 108.5 144.336 108.63 144.234 108.724C144.133 108.818 143.998 108.867 143.86 108.862C143.722 108.856 143.592 108.796 143.498 108.695C142.756 107.89 141.534 106.051 140.638 104.091C139.527 101.66 139.327 99.9873 140.044 99.1189C140.393 98.7003 141.113 98.3298 142.575 98.9486C146.832 100.75 149.526 104.917 151.691 108.264C152.333 109.256 153.06 110.381 153.339 111.664C153.369 111.798 153.345 111.938 153.272 112.054C153.199 112.169 153.083 112.252 152.949 112.283C152.912 112.292 152.873 112.298 152.832 112.3Z" fill="#082244"/>
</g>
<defs>
<clipPath id="clip0_470_28492">
<rect width="260" height="260" fill="white" transform="translate(0 0.5)"/>
</clipPath>
</defs>
</svg>
