<svg width="40" height="41" viewBox="0 0 40 41" fill="none" xmlns="http://www.w3.org/2000/svg">
<g clip-path="url(#clip0_470_29358)">
<g clip-path="url(#clip1_470_29358)">
<path d="M20 0.5C8.97204 0.5 0 9.47204 0 20.5C0 31.528 8.97204 40.5 20 40.5C31.028 40.5 40 31.528 40 20.5C40 9.47204 31.0281 0.5 20 0.5ZM10.2063 30.3309C9.98118 30.4832 9.41615 30.6173 9.08561 30.2503L8.47572 29.4833C8.18076 28.9845 8.53799 28.5219 8.76926 28.3301C9.86877 27.4181 10.6683 26.7125 11.1672 26.2135C12.1455 25.1846 12.8687 24.1547 13.3462 23.1279C13.4554 22.8932 13.1767 22.7441 13.0319 22.6967C9.42659 21.5151 7.62334 19.4319 7.62334 16.4477C7.62334 14.6895 8.20732 13.2607 9.37464 12.1623C10.5425 11.0634 12.0054 10.5142 13.763 10.5142C15.3288 10.5142 16.7163 11.2282 17.9247 12.6569C19.1062 14.0025 19.6965 15.4588 19.6965 17.0246C19.6967 21.6136 16.5334 26.0489 10.2063 30.3309ZM23.9278 30.3309C23.7027 30.4832 23.1376 30.6173 22.8071 30.2503L22.1972 29.4833C21.9023 28.9845 22.2595 28.5219 22.4908 28.3301C23.5901 27.4181 24.3898 26.7125 24.8887 26.2135C25.867 25.1846 26.5902 24.1547 27.0678 23.1279C27.177 22.8932 26.8983 22.7441 26.7536 22.6967C23.1482 21.5151 21.345 19.4319 21.345 16.4477C21.345 14.6895 21.9289 13.2607 23.0963 12.1623C24.2642 11.0634 25.727 10.5142 27.4846 10.5142C29.0504 10.5142 30.4379 11.2282 31.6464 12.6569C32.8277 14.0025 33.4182 15.4588 33.4182 17.0246C33.4182 21.6136 30.2549 26.0489 23.9278 30.3309Z" fill="#E8F1FC"/>
</g>
</g>
<defs>
<clipPath id="clip0_470_29358">
<rect width="40" height="40" fill="white" transform="translate(0 0.5)"/>
</clipPath>
<clipPath id="clip1_470_29358">
<rect width="40" height="40" fill="white" transform="translate(0 0.5)"/>
</clipPath>
</defs>
</svg>
