<svg width="117" height="21" viewBox="0 0 117 21" fill="none" xmlns="http://www.w3.org/2000/svg">
<g clip-path="url(#clip0_472_29461)">
<path d="M9.53673 20.7026C11.3197 20.7026 12.8554 20.2839 14.1441 19.4465C15.4328 18.6091 16.4301 17.422 17.1362 15.8852C17.8424 14.3485 18.1954 12.531 18.1954 10.4329V10.4053C18.1954 8.3072 17.8424 6.49436 17.1362 4.96678C16.4301 3.43001 15.4283 2.24292 14.1309 1.40552C12.8422 0.568116 11.3064 0.149414 9.52349 0.149414C7.75821 0.149414 6.22683 0.568116 4.92935 1.40552C3.63187 2.24292 2.62567 3.43001 1.91073 4.96678C1.20462 6.49436 0.851562 8.3072 0.851562 10.4053V10.4329C0.851562 12.531 1.20462 14.3485 1.91073 15.8852C2.61684 17.422 3.61863 18.6091 4.91611 19.4465C6.21359 20.2839 7.7538 20.7026 9.53673 20.7026ZM9.53673 18.9634C8.14216 18.9634 6.92853 18.6137 5.89584 17.9143C4.87198 17.215 4.07761 16.2257 3.51272 14.9466C2.95666 13.6675 2.67862 12.1629 2.67862 10.4329V10.4053C2.67862 8.65688 2.95666 7.14771 3.51272 5.87781C4.07761 4.6079 4.87198 3.62786 5.89584 2.93769C6.92853 2.23832 8.13774 1.88864 9.52349 1.88864C10.9181 1.88864 12.1273 2.23832 13.1511 2.93769C14.175 3.62786 14.965 4.6125 15.521 5.89161C16.0859 7.16152 16.3684 8.66608 16.3684 10.4053V10.4329C16.3684 12.1537 16.0903 13.6537 15.5343 14.9328C14.9782 16.2119 14.1882 17.2058 13.1644 17.9143C12.1493 18.6137 10.9401 18.9634 9.53673 18.9634Z" fill="#2C7BE5"/>
<path d="M20.8566 20.3851H22.6042V11.8823C22.6042 10.9804 22.7675 10.1983 23.0941 9.53569C23.4295 8.86393 23.8973 8.3394 24.4975 7.96211C25.0976 7.58482 25.7993 7.39617 26.6025 7.39617C27.7765 7.39617 28.6723 7.74586 29.2902 8.44523C29.908 9.1446 30.217 10.1614 30.217 11.4958V20.3851H31.9646V11.1921C31.9646 9.49889 31.5365 8.17376 30.6803 7.21673C29.8242 6.2597 28.6326 5.78118 27.1057 5.78118C26.0024 5.78118 25.0712 6.03884 24.3121 6.55417C23.553 7.06029 22.997 7.70445 22.6439 8.48664H22.6042V6.02964H20.8566V20.3851Z" fill="#2C7BE5"/>
<path d="M35.195 20.3851H36.8765V4.00055H37.737L35.7114 0.894795L43.6022 20.3851H45.1777L53.0685 0.894795L51.0428 4.00055H51.9034V20.3851H53.5981V0.466891H51.5194L44.423 18.0248H44.3568L37.2604 0.466891H35.195V20.3851Z" fill="#2C7BE5"/>
<path d="M57.0271 20.3851H58.7747V6.02964H57.0271V20.3851ZM57.9009 3.43461C58.2275 3.43461 58.5011 3.31958 58.7218 3.08953C58.9513 2.85027 59.066 2.5604 59.066 2.21992C59.066 1.88864 58.9513 1.60797 58.7218 1.37791C58.5011 1.13865 58.2275 1.01903 57.9009 1.01903C57.5832 1.01903 57.3095 1.13865 57.0801 1.37791C56.8594 1.60797 56.7491 1.88864 56.7491 2.21992C56.7491 2.5604 56.8594 2.85027 57.0801 3.08953C57.3095 3.31958 57.5832 3.43461 57.9009 3.43461Z" fill="#2C7BE5"/>
<path d="M66.6523 20.6474C67.6585 20.6474 68.55 20.4726 69.3267 20.1229C70.1122 19.764 70.7301 19.2717 71.1802 18.6459C71.6304 18.0202 71.8554 17.2978 71.8554 16.4788V16.465C71.8554 15.4619 71.5642 14.6613 70.9816 14.0632C70.4079 13.4558 69.4326 12.9819 68.0557 12.6414L65.9903 12.1307C65.0812 11.9007 64.428 11.597 64.0308 11.2197C63.6337 10.8424 63.4351 10.3685 63.4351 9.79796V9.78415C63.4351 9.29644 63.563 8.86853 63.819 8.50044C64.075 8.12315 64.4369 7.83328 64.9047 7.63083C65.3725 7.41918 65.9197 7.31335 66.5464 7.31335C67.5084 7.31335 68.2807 7.56642 68.8633 8.07254C69.4547 8.56946 69.8033 9.23662 69.9092 10.074L69.9225 10.1706H71.5906L71.5774 10.0188C71.5156 9.19061 71.2685 8.45903 70.836 7.82408C70.4123 7.17992 69.8342 6.6784 69.1016 6.31951C68.3778 5.95142 67.5261 5.76738 66.5464 5.76738C65.5931 5.76738 64.7458 5.94222 64.0044 6.29191C63.2718 6.64159 62.6936 7.12471 62.27 7.74126C61.8551 8.34861 61.6477 9.05258 61.6477 9.85317V9.86697C61.6477 10.8516 61.9611 11.6568 62.5877 12.2826C63.2232 12.8991 64.1897 13.3684 65.4872 13.6905L67.5658 14.2012C68.4926 14.4313 69.1413 14.7304 69.512 15.0984C69.8827 15.4665 70.0681 15.9635 70.0681 16.5892V16.603C70.0681 17.0999 69.9269 17.5416 69.6444 17.9281C69.3708 18.3054 68.978 18.5953 68.4661 18.7977C67.963 19.0002 67.3584 19.1014 66.6523 19.1014C65.6196 19.1014 64.7899 18.8576 64.1632 18.3698C63.5366 17.8729 63.1526 17.2058 63.0114 16.3684L62.9849 16.2441H61.2505L61.2638 16.3684C61.352 17.215 61.6256 17.9603 62.0846 18.6045C62.5436 19.2395 63.157 19.741 63.9249 20.1091C64.7016 20.4679 65.6108 20.6474 66.6523 20.6474Z" fill="#2C7BE5"/>
<path d="M78.9386 20.6474C79.9448 20.6474 80.8363 20.4726 81.613 20.1229C82.3986 19.764 83.0164 19.2717 83.4665 18.6459C83.9167 18.0202 84.1418 17.2978 84.1418 16.4788V16.465C84.1418 15.4619 83.8505 14.6613 83.268 14.0632C82.6942 13.4558 81.7189 12.9819 80.342 12.6414L78.2766 12.1307C77.3675 11.9007 76.7144 11.597 76.3172 11.2197C75.92 10.8424 75.7214 10.3685 75.7214 9.79796V9.78415C75.7214 9.29644 75.8494 8.86853 76.1053 8.50044C76.3613 8.12315 76.7232 7.83328 77.191 7.63083C77.6588 7.41918 78.206 7.31335 78.8327 7.31335C79.7948 7.31335 80.5671 7.56642 81.1496 8.07254C81.741 8.56946 82.0896 9.23662 82.1955 10.074L82.2088 10.1706H83.877L83.8637 10.0188C83.8019 9.19061 83.5548 8.45903 83.1223 7.82408C82.6986 7.17992 82.1205 6.6784 81.3879 6.31951C80.6642 5.95142 79.8124 5.76738 78.8327 5.76738C77.8794 5.76738 77.0321 5.94222 76.2907 6.29191C75.5581 6.64159 74.98 7.12471 74.5563 7.74126C74.1415 8.34861 73.934 9.05258 73.934 9.85317V9.86697C73.934 10.8516 74.2474 11.6568 74.8741 12.2826C75.5096 12.8991 76.476 13.3684 77.7735 13.6905L79.8521 14.2012C80.7789 14.4313 81.4276 14.7304 81.7984 15.0984C82.1691 15.4665 82.3544 15.9635 82.3544 16.5892V16.603C82.3544 17.0999 82.2132 17.5416 81.9308 17.9281C81.6571 18.3054 81.2644 18.5953 80.7524 18.7977C80.2493 19.0002 79.6447 19.1014 78.9386 19.1014C77.9059 19.1014 77.0762 18.8576 76.4496 18.3698C75.8229 17.8729 75.4389 17.2058 75.2977 16.3684L75.2712 16.2441H73.5369L73.5501 16.3684C73.6384 17.215 73.912 17.9603 74.371 18.6045C74.8299 19.2395 75.4434 19.741 76.2113 20.1091C76.988 20.4679 77.8971 20.6474 78.9386 20.6474Z" fill="#2C7BE5"/>
<path d="M86.6308 20.3851H88.3784V6.02964H86.6308V20.3851ZM87.5046 3.43461C87.8312 3.43461 88.1048 3.31958 88.3255 3.08953C88.555 2.85027 88.6697 2.5604 88.6697 2.21992C88.6697 1.88864 88.555 1.60797 88.3255 1.37791C88.1048 1.13865 87.8312 1.01903 87.5046 1.01903C87.1869 1.01903 86.9132 1.13865 86.6838 1.37791C86.4631 1.60797 86.3528 1.88864 86.3528 2.21992C86.3528 2.5604 86.4631 2.85027 86.6838 3.08953C86.9132 3.31958 87.1869 3.43461 87.5046 3.43461Z" fill="#2C7BE5"/>
<path d="M97.1166 20.6474C98.3699 20.6474 99.4644 20.3437 100.4 19.7364C101.336 19.129 102.068 18.2732 102.598 17.1689C103.127 16.0555 103.392 14.735 103.392 13.2074V13.1798C103.392 11.6522 103.127 10.3363 102.598 9.23202C102.068 8.12775 101.331 7.27655 100.387 6.6784C99.4511 6.07105 98.3567 5.76738 97.1033 5.76738C95.8676 5.76738 94.7776 6.07105 93.8331 6.6784C92.8887 7.27655 92.1517 8.13235 91.6221 9.24582C91.1014 10.3501 90.841 11.6614 90.841 13.1798V13.2074C90.841 14.7258 91.1014 16.0417 91.6221 17.1551C92.1517 18.2686 92.8887 19.129 93.8331 19.7364C94.7776 20.3345 95.872 20.6382 97.1166 20.6474ZM97.1298 19.0186C96.2207 19.0186 95.4307 18.7885 94.7599 18.3284C94.0891 17.8683 93.5639 17.2012 93.1844 16.3269C92.8137 15.4527 92.6283 14.4129 92.6283 13.2074V13.1798C92.6283 11.9743 92.8137 10.939 93.1844 10.074C93.5639 9.20901 94.0891 8.54645 94.7599 8.08634C95.4307 7.62623 96.2118 7.39617 97.1033 7.39617C98.0124 7.39617 98.8024 7.62623 99.4732 8.08634C100.153 8.53725 100.678 9.19521 101.049 10.0602C101.419 10.9252 101.605 11.9651 101.605 13.1798V13.2074C101.605 14.4129 101.419 15.4527 101.049 16.3269C100.678 17.2012 100.157 17.8683 99.4864 18.3284C98.8156 18.7885 98.0301 19.0186 97.1298 19.0186Z" fill="#2C7BE5"/>
<path d="M105.722 20.3851H107.47V11.8823C107.47 10.9804 107.633 10.1983 107.96 9.53569C108.295 8.86393 108.763 8.3394 109.363 7.96211C109.963 7.58482 110.665 7.39617 111.468 7.39617C112.642 7.39617 113.538 7.74586 114.156 8.44523C114.774 9.1446 115.083 10.1614 115.083 11.4958V20.3851H116.83V11.1921C116.83 9.49889 116.402 8.17376 115.546 7.21673C114.69 6.2597 113.498 5.78118 111.971 5.78118C110.868 5.78118 109.937 6.03884 109.178 6.55417C108.419 7.06029 107.863 7.70445 107.51 8.48664H107.47V6.02964H105.722V20.3851Z" fill="#2C7BE5"/>
</g>
<defs>
<clipPath id="clip0_472_29461">
<rect width="115.979" height="20.5532" fill="white" transform="translate(0.851562 0.149414)"/>
</clipPath>
</defs>
</svg>
